<?xml version="1.0" encoding="UTF-8"?>
<svg version="1.1" xmlns="http://www.w3.org/2000/svg" width="390" height="129">
<path d="M0 0 C128.7 0 257.4 0 390 0 C390 42.57 390 85.14 390 129 C261.3 129 132.6 129 0 129 C0 86.43 0 43.86 0 0 Z " fill="#FDFCFD" transform="translate(0,0)"/>
<path d="M0 0 C0.82314697 0.00088623 1.64629395 0.00177246 2.49438477 0.00268555 C11.39402571 0.17272039 20.85862979 1.47448626 27.875 7.375 C21.24989835 6.48315939 21.24989835 6.48315939 19.07421875 5.85546875 C6.77998492 3.16951713 -7.66083783 5.80556117 -18.58203125 11.73828125 C-32.40960771 20.63805781 -40.33007806 31.25597514 -44.125 47.375 C-44.785 47.375 -45.445 47.375 -46.125 47.375 C-46.01451407 51.08391391 -45.88402886 54.79186811 -45.75 58.5 C-45.7190625 59.54671875 -45.688125 60.5934375 -45.65625 61.671875 C-45.45735367 66.9094783 -45.20831625 71.48005369 -43.125 76.375 C-43.125 74.04332605 -43.24292587 71.71300997 -43.3203125 69.3828125 C-43.125 67.375 -43.125 67.375 -41.125 64.375 C-39.805 65.035 -38.485 65.695 -37.125 66.375 C-37.125 65.715 -37.125 65.055 -37.125 64.375 C-34.815 64.375 -32.505 64.375 -30.125 64.375 C-33.095 63.715 -36.065 63.055 -39.125 62.375 C-36.88828243 57.77730277 -34.86958571 56.22128557 -30.125 54.375 C-26.71139018 53.91405897 -23.31634088 53.81942186 -19.875 53.75 C-18.0780139 53.69909388 -16.28112511 53.64458513 -14.484375 53.5859375 C-13.69514648 53.56837402 -12.90591797 53.55081055 -12.09277344 53.53271484 C-10.0477923 53.49236526 -10.0477923 53.49236526 -8.125 52.375 C-7.75190101 50.71678227 -7.41799023 49.04922986 -7.125 47.375 C-6.795 47.045 -6.465 46.715 -6.125 46.375 C-5.60863139 40.28185041 -6.05817578 37.2325956 -10.125 32.375 C-12.63059484 29.9605177 -13.83522802 29.40124746 -17.359375 29.08203125 C-19.09960938 29.13423828 -19.09960938 29.13423828 -20.875 29.1875 C-22.04546875 29.21457031 -23.2159375 29.24164063 -24.421875 29.26953125 C-25.31390625 29.30433594 -26.2059375 29.33914062 -27.125 29.375 C-26.1796875 27.4296875 -26.1796875 27.4296875 -24.125 25.375 C-21.18706383 24.65250596 -18.26551025 24.58629441 -15.25 24.5 C-14.44691406 24.45359375 -13.64382812 24.4071875 -12.81640625 24.359375 C-6.27999058 24.07939673 -2.11686864 25.17916796 2.9375 29.5 C7.80888432 33.99382902 10.44886773 37.8327755 11.25 44.4921875 C11.50043588 51.26960838 11.17858943 56.9467392 6.875 62.375 C2.50059717 67.03162237 -1.68709847 71.05440482 -8.125 72.375 C-1.05281857 72.47835129 3.5953607 71.14438247 8.95703125 66.4375 C15.33655376 59.57723954 15.26191427 52.28542183 15.015625 43.33984375 C14.96921875 42.36144531 14.9228125 41.38304687 14.875 40.375 C15.535 40.705 16.195 41.035 16.875 41.375 C19.04020254 47.87060762 19.20771855 57.49090543 16.4375 63.875 C13.23665271 69.13682451 7.67528829 73.44157057 1.875 75.375 C-0.69765818 75.44529121 -3.24141431 75.46870832 -5.8125 75.4375 C-6.51439453 75.43298828 -7.21628906 75.42847656 -7.93945312 75.42382812 C-9.66800538 75.41206927 -11.39651365 75.39413454 -13.125 75.375 C-13.125 76.035 -13.125 76.695 -13.125 77.375 C-7.185 77.045 -1.245 76.715 4.875 76.375 C5.205 77.365 5.535 78.355 5.875 79.375 C6.535 79.375 7.195 79.375 7.875 79.375 C8.83245279 80.4869784 9.73983238 81.6421624 10.625 82.8125 C20.05842732 93.77619582 33.59924914 98.69386789 46.875 103.375 C46.875 103.705 46.875 104.035 46.875 104.375 C39.945 103.88 39.945 103.88 32.875 103.375 C32.875 104.365 32.875 105.355 32.875 106.375 C31.29532193 107.05028223 29.71108097 107.71489694 28.125 108.375 C26.80242187 108.931875 26.80242187 108.931875 25.453125 109.5 C22.875 110.375 22.875 110.375 18.875 110.375 C18.38 111.86 18.38 111.86 17.875 113.375 C14.16183289 116.2394432 11.50925362 116.69832002 6.875 116.375 C6.875 117.035 6.875 117.695 6.875 118.375 C8.36 118.87 8.36 118.87 9.875 119.375 C0.90194508 122.17766703 -9.63780435 121.04433239 -18.125 117.375 C-19.48818359 116.89933594 -19.48818359 116.89933594 -20.87890625 116.4140625 C-35.32375166 111.10318062 -47.27645806 100.84550389 -53.9375 86.875 C-57.88964848 77.85782369 -59.61729888 69.64605574 -59.5 59.8125 C-59.51160156 58.83603516 -59.52320313 57.85957031 -59.53515625 56.85351562 C-59.50950115 50.4611191 -58.48047141 45.29782679 -56.125 39.375 C-55.83238281 38.49070313 -55.53976563 37.60640625 -55.23828125 36.6953125 C-50.89952124 24.80076066 -42.64257268 15.30157286 -32.125 8.375 C-30.805 8.375 -29.485 8.375 -28.125 8.375 C-28.125 7.715 -28.125 7.055 -28.125 6.375 C-26.46035403 5.74463774 -24.79315224 5.12102407 -23.125 4.5 C-22.196875 4.15195313 -21.26875 3.80390625 -20.3125 3.4453125 C-13.39557215 1.12271663 -7.26785057 -0.01419356 0 0 Z " fill="#FBF9FA" transform="translate(62.125,3.625)"/>
<path d="M0 0 C1.010625 -0.020625 2.02125 -0.04125 3.0625 -0.0625 C6.65959133 0.01403386 8.30194506 0.61936329 11 3 C11.3125 6.1875 11.3125 6.1875 11 9 C8.16836892 8.0780736 5.38355601 7.16876464 2.65625 5.96875 C-0.23871942 4.91293762 -2.74523855 4.59672974 -5.8125 4.375 C-7.27623047 4.26285156 -7.27623047 4.26285156 -8.76953125 4.1484375 C-9.50558594 4.09945313 -10.24164063 4.05046875 -11 4 C-10.26136719 4.27972656 -9.52273437 4.55945313 -8.76171875 4.84765625 C7.74096639 11.36904771 18.77979324 19.521164 26 36 C29.35477339 46.82220918 30.44811551 61.47876898 25.26953125 71.8359375 C24.64111328 72.90714844 24.64111328 72.90714844 24 74 C23.52949219 74.85851562 23.05898437 75.71703125 22.57421875 76.6015625 C19.79070832 81.47810015 16.74131158 85.81853412 13 90 C15.96844435 90.35338623 18.15598218 90.5417682 20.734375 88.88671875 C22.20348819 87.64496832 23.60704814 86.32662082 25 85 C23.92598892 87.91517292 23.22189824 89.77810176 21 92 C24.07999946 95.67230705 26.2482602 96.56802365 31 97 C31 97.99 31 98.98 31 100 C28.37405216 99.8863485 25.74988453 99.75960946 23.125 99.625 C22.37863281 99.5940625 21.63226563 99.563125 20.86328125 99.53125 C15.2265625 99.2265625 15.2265625 99.2265625 13 97 C15.64 97 18.28 97 21 97 C20.07960938 96.67128906 19.15921875 96.34257813 18.2109375 96.00390625 C6.29885618 91.59079093 -7.23415753 85.53935763 -15 75 C-15 74.34 -15 73.68 -15 73 C-15.66 73 -16.32 73 -17 73 C-17.33 72.34 -17.66 71.68 -18 71 C-23.94 71.33 -29.88 71.66 -36 72 C-36.33 70.68 -36.66 69.36 -37 68 C-35.37191406 68.05220703 -35.37191406 68.05220703 -33.7109375 68.10546875 C-32.26564058 68.13362388 -30.82032679 68.16092219 -29.375 68.1875 C-28.66214844 68.21263672 -27.94929688 68.23777344 -27.21484375 68.26367188 C-20.86429959 68.35106468 -17.01430485 66.42186225 -11.8125 62.75 C-6.77520092 57.8246409 -5.8752835 54.20656292 -5.75341797 47.30029297 C-5.68964744 41.05029912 -5.68964744 41.05029912 -7 35 C-6.95359375 35.90621094 -6.9071875 36.81242187 -6.859375 37.74609375 C-6.60690182 46.26706365 -6.71733865 53.1873063 -12.578125 59.7734375 C-19.2974184 65.97819041 -25.64777652 67.33668306 -34.62109375 67.10546875 C-35.79865234 67.05326172 -35.79865234 67.05326172 -37 67 C-37 66.67 -37 66.34 -37 66 C-35.85724609 65.814375 -35.85724609 65.814375 -34.69140625 65.625 C-26.5600265 64.00075436 -21.40660432 61.34327481 -16 55 C-12.05077646 48.89665452 -12.24029964 42.04687577 -13 35 C-14.68364258 28.57250915 -19.31417742 23.34175263 -25 20 C-30.03826014 18.90446434 -34.74744453 18.97235523 -39.875 19.3125 C-41.85113281 19.43044922 -41.85113281 19.43044922 -43.8671875 19.55078125 C-44.90101562 19.69902344 -45.93484375 19.84726562 -47 20 C-47.33 20.66 -47.66 21.32 -48 22 C-47.28714844 21.93039063 -46.57429688 21.86078125 -45.83984375 21.7890625 C-40.69047653 21.49798118 -37.0114662 21.31474884 -32.9375 24.75 C-30.17183509 27.42775869 -28.24955952 30.1209636 -27.734375 34 C-27.76461015 37.87009939 -27.88264369 40.63713997 -30 44 C-30.33 44.99 -30.66 45.98 -31 47 C-33.31370796 48.15685398 -34.78263717 48.16797093 -37.359375 48.24609375 C-38.22820313 48.27896484 -39.09703125 48.31183594 -39.9921875 48.34570312 C-41.81499472 48.4063773 -43.63791592 48.46372806 -45.4609375 48.51757812 C-52.43378298 48.78063576 -52.43378298 48.78063576 -59 51 C-59.66 52.32 -60.32 53.64 -61 55 C-56.05 56.485 -56.05 56.485 -51 58 C-54.83619425 58.95904856 -56.32431536 58.91892116 -60 58 C-60 58.66 -60 59.32 -60 60 C-61.32 59.67 -62.64 59.34 -64 59 C-64.99 63.95 -64.99 63.95 -66 69 C-65.34 69.33 -64.68 69.66 -64 70 C-64.99 70.99 -64.99 70.99 -66 72 C-69.12110668 65.18435497 -69.36889612 59.43258975 -69.1875 52 C-69.17396484 50.93910156 -69.16042969 49.87820312 -69.14648438 48.78515625 C-69.11140879 46.18956313 -69.06225844 43.59505933 -69 41 C-68.34 41 -67.68 41 -67 41 C-66.87625 39.576875 -66.87625 39.576875 -66.75 38.125 C-64.80050523 25.20634801 -56.89730142 15.53524793 -46.69921875 7.8203125 C-33.11320975 -1.34188749 -15.86596609 -5.67287392 0 0 Z " fill="#FBF9FB" transform="translate(85,10)"/>
<path d="M0 0 C0.82314697 0.00088623 1.64629395 0.00177246 2.49438477 0.00268555 C11.39402571 0.17272039 20.85862979 1.47448626 27.875 7.375 C21.24989835 6.48315939 21.24989835 6.48315939 19.07421875 5.85546875 C6.77998492 3.16951713 -7.66083783 5.80556117 -18.58203125 11.73828125 C-32.40960771 20.63805781 -40.33007806 31.25597514 -44.125 47.375 C-44.785 47.375 -45.445 47.375 -46.125 47.375 C-46.07240821 51.001113 -45.97717603 54.62497212 -45.875 58.25 C-45.86082031 59.26320312 -45.84664062 60.27640625 -45.83203125 61.3203125 C-45.60357298 68.44821049 -44.19072496 73.95506191 -41.125 80.375 C-40.63257812 81.47070312 -40.14015625 82.56640625 -39.6328125 83.6953125 C-34.83074806 93.43509291 -29.60793082 100.57532264 -21.125 107.375 C-20.58230469 107.8390625 -20.03960937 108.303125 -19.48046875 108.78125 C-14.32674841 112.8941947 -8.38001196 114.54076001 -2.125 116.375 C-1.35671875 116.60316406 -0.5884375 116.83132812 0.203125 117.06640625 C1.75608729 117.51777537 3.31475707 117.9494792 4.875 118.375 C4.875 118.705 4.875 119.035 4.875 119.375 C-9.09886942 120.27848294 -22.72893506 118.15045085 -34.125 109.375 C-35.31996094 108.53001953 -35.31996094 108.53001953 -36.5390625 107.66796875 C-48.25260421 98.98013041 -56.68316432 85.88578718 -59.125 71.375 C-59.36311336 67.62723997 -59.35591679 63.87962097 -59.375 60.125 C-59.395625 59.12597656 -59.41625 58.12695312 -59.4375 57.09765625 C-59.47155105 50.58539364 -58.55013585 45.40288412 -56.125 39.375 C-55.83238281 38.49070313 -55.53976563 37.60640625 -55.23828125 36.6953125 C-50.89952124 24.80076066 -42.64257268 15.30157286 -32.125 8.375 C-30.805 8.375 -29.485 8.375 -28.125 8.375 C-28.125 7.715 -28.125 7.055 -28.125 6.375 C-26.46035403 5.74463774 -24.79315224 5.12102407 -23.125 4.5 C-22.196875 4.15195313 -21.26875 3.80390625 -20.3125 3.4453125 C-13.39557215 1.12271663 -7.26785057 -0.01419356 0 0 Z " fill="#BA3871" transform="translate(62.125,3.625)"/>
<path d="M0 0 C3.06273831 -0.05410136 6.12451452 -0.09372225 9.1875 -0.125 C10.05181641 -0.14175781 10.91613281 -0.15851562 11.80664062 -0.17578125 C17.85993802 -0.22216667 21.58042519 0.49584801 26.77734375 3.7265625 C29 6 29 6 29.62890625 9.0234375 C29.39952438 20.60047562 29.39952438 20.60047562 25 25 C22.859375 25.640625 22.859375 25.640625 21 26 C22.83766618 31.31750214 24.66754231 36.55437669 27.25 41.5625 C29 45 29 45 29 47 C24.05 47 19.1 47 14 47 C10.91964286 34.8125 10.91964286 34.8125 10 30 C8.68 30 7.36 30 6 30 C5.93941406 30.56847656 5.87882813 31.13695313 5.81640625 31.72265625 C4.29962547 45.70037453 4.29962547 45.70037453 3 47 C0.98035801 47.07244053 -1.04167124 47.08377188 -3.0625 47.0625 C-4.16722656 47.05347656 -5.27195313 47.04445312 -6.41015625 47.03515625 C-7.69212891 47.01775391 -7.69212891 47.01775391 -9 47 C-8.45311917 39.75432252 -7.23791164 32.82905549 -5.625 25.75 C-5.175627 23.73310728 -4.72640802 21.71618023 -4.27734375 19.69921875 C-4.05933105 18.72903809 -3.84131836 17.75885742 -3.61669922 16.75927734 C-2.78360951 13.03181105 -1.98335964 9.29808998 -1.1875 5.5625 C-0.95417969 4.47066406 -0.72085938 3.37882812 -0.48046875 2.25390625 C-0.32191406 1.51011719 -0.16335937 0.76632813 0 0 Z " fill="#B83D73" transform="translate(157,47)"/>
<path d="M0 0 C5.61 0 11.22 0 17 0 C17.43345417 4.44290524 17.86259711 8.88585111 18.28173828 13.33007812 C18.42488379 14.83518748 18.57031271 16.34008179 18.71826172 17.84472656 C19.67758432 27.62068067 20.15589323 37.16573515 20 47 C16.04 47 12.08 47 8 47 C8 44.03 8 41.06 8 38 C3.05 38 -1.9 38 -7 38 C-7.33 39.32 -7.66 40.64 -8 42 C-8.99 44.475 -8.99 44.475 -10 47 C-14.29 47 -18.58 47 -23 47 C-21.59129083 41.1958103 -19.28457942 36.35742649 -16.4375 31.125 C-15.99857422 30.30507568 -15.55964844 29.48515137 -15.10742188 28.64038086 C-14.19639379 26.93873856 -13.28279819 25.23846848 -12.36669922 23.53955078 C-10.22398153 19.5580307 -8.11318083 15.55974792 -6 11.5625 C-5.62673584 10.85947754 -5.25347168 10.15645508 -4.86889648 9.43212891 C-3.20908389 6.30430087 -1.58373418 3.16746836 0 0 Z " fill="#BC336E" transform="translate(317,47)"/>
<path d="M0 0 C21.78 0 43.56 0 66 0 C65.67 0.99 65.34 1.98 65 3 C67.31 3 69.62 3 72 3 C72 3.33 72 3.66 72 4 C70.82566406 4.01417969 69.65132813 4.02835937 68.44140625 4.04296875 C58.10661789 4.30325551 49.05926912 5.67749244 39.24609375 8.94140625 C36 10 36 10 34 10 C34 10.66 34 11.32 34 12 C33.28585938 12.2475 32.57171875 12.495 31.8359375 12.75 C19.58306026 18.15071724 12.3356426 29.42263588 7.04296875 41.1640625 C4.41049686 48.32201978 3.63898237 54.93250545 3.375 62.5 C3.33632813 63.4178125 3.29765625 64.335625 3.2578125 65.28125 C3.16450436 67.52064528 3.07871815 69.76005254 3 72 C2.34 72 1.68 72 1 72 C-0.30817871 57.01567571 -0.11175306 42.02872263 -0.0625 27 C-0.041875 18.09 -0.02125 9.18 0 0 Z " fill="#FCFAFC" transform="translate(0,0)"/>
<path d="M0 0 C2.375 1.5 2.375 1.5 4 3 C4.66 3 5.32 3 6 3 C6.33 2.01 6.66 1.02 7 0 C9.97 0 12.94 0 16 0 C15.52648355 7.33950502 14.15285878 14.26443898 12.45996094 21.40185547 C11.59465139 25.09680809 10.86775227 28.71907675 10.4375 32.4921875 C10 36 10 36 9 37 C7.31391034 37.07205511 5.62499341 37.08386068 3.9375 37.0625 C3.01839844 37.05347656 2.09929687 37.04445312 1.15234375 37.03515625 C0.44207031 37.02355469 -0.26820313 37.01195312 -1 37 C-1.33 36.34 -1.66 35.68 -2 35 C-2.495 35.33 -2.99 35.66 -3.5 36 C-6.95532738 37.38213095 -10.42935248 38.11707408 -14 37 C-17.54356391 33.67567817 -18.80683776 32.08625355 -19.6640625 27.265625 C-19.68490588 25.92718229 -19.67078402 24.5878218 -19.625 23.25 C-19.61098145 22.54770264 -19.59696289 21.84540527 -19.58251953 21.12182617 C-19.22975222 13.48116697 -16.67299448 7.30037947 -11.1875 1.875 C-6.92583278 -0.63186307 -4.88685792 -0.63056231 0 0 Z " fill="#B9356E" transform="translate(206,57)"/>
<path d="M0 0 C3.45063584 1.60166032 6.25230098 3.50460197 8 7 C8.78306648 15.57408239 9.39554494 23.26946679 3.72265625 30.296875 C-1.89955709 35.85534442 -7.37531156 37.45689531 -15.1953125 37.42578125 C-19.63170312 36.75229019 -22.20559891 34.39194598 -25 31 C-27.34305079 26.31389842 -26.62286874 19.38283507 -25.328125 14.4296875 C-24.62872611 12.58881684 -23.82523223 10.78800318 -23 9 C-22.34 9 -21.68 9 -21 9 C-20.90332031 8.39671875 -20.80664062 7.7934375 -20.70703125 7.171875 C-19.60082584 3.77380755 -17.52026301 2.73228362 -14.515625 0.9921875 C-9.72572224 -0.89699775 -5.02922264 -0.8818363 0 0 Z " fill="#BB3670" transform="translate(282,57)"/>
<path d="M0 0 C3.3 0 6.6 0 10 0 C10.33 1.32 10.66 2.64 11 4 C11.57427734 3.02546875 11.57427734 3.02546875 12.16015625 2.03125 C14 0 14 0 16.55859375 -0.53125 C17.50863281 -0.5209375 18.45867187 -0.510625 19.4375 -0.5 C20.38496094 -0.5103125 21.33242187 -0.520625 22.30859375 -0.53125 C25.76777145 0.1515485 26.93570611 1.16458937 29 4 C31.22554537 14.6040691 27.30513949 26.67832628 25 37 C21.04 37 17.08 37 13 37 C13.72356337 27.88310149 15.34292907 18.98361723 17 10 C14.51968039 10.56824252 14.51968039 10.56824252 12 12 C10.58758235 14.68791631 10.58758235 14.68791631 9.8125 17.9375 C9.33296875 19.67580078 9.33296875 19.67580078 8.84375 21.44921875 C7.8582562 25.59650517 7.04584307 29.74090279 6.39453125 33.953125 C6 36 6 36 5 37 C2.98035801 37.07244053 0.95832876 37.08377188 -1.0625 37.0625 C-2.16722656 37.05347656 -3.27195313 37.04445312 -4.41015625 37.03515625 C-5.69212891 37.01775391 -5.69212891 37.01775391 -7 37 C-6.88325099 35.64509704 -6.75606577 34.29109304 -6.625 32.9375 C-6.52058594 31.80634766 -6.52058594 31.80634766 -6.4140625 30.65234375 C-6 28 -6 28 -5.05859375 24.734375 C-3.89108367 20.61577854 -3.13732122 16.52994112 -2.4375 12.3125 C-1.73925794 8.1695971 -1.02004359 4.08017437 0 0 Z " fill="#B83970" transform="translate(226,57)"/>
<path d="M0 0 C5.65735639 6.22527634 6.71393709 11.72161863 6.39453125 20.11328125 C5.43879967 28.13136618 1.33550145 32.493459 -4.71484375 37.59375 C-7.34870831 39.49522735 -9.79157331 40.57323138 -12.9765625 41.2265625 C-5.90438107 41.32991379 -1.2562018 39.99594497 4.10546875 35.2890625 C10.48499126 28.42880204 10.41035177 21.13698433 10.1640625 12.19140625 C10.11765625 11.21300781 10.07125 10.23460938 10.0234375 9.2265625 C10.6834375 9.5565625 11.3434375 9.8865625 12.0234375 10.2265625 C14.18864004 16.72217012 14.35615605 26.34246793 11.5859375 32.7265625 C8.38509021 37.98838701 2.82372579 42.29313307 -2.9765625 44.2265625 C-17.45118312 45.17214073 -17.45118312 45.17214073 -23.9765625 41.2265625 C-24.3065625 40.5665625 -24.6365625 39.9065625 -24.9765625 39.2265625 C-24.2753125 39.15179688 -23.5740625 39.07703125 -22.8515625 39 C-14.08128964 37.78455458 -8.87999627 34.65805226 -3.0390625 28.1015625 C0.36252613 23.35995411 0.15602323 19.18046243 0.0859375 13.4765625 C0.08142578 12.77917969 0.07691406 12.08179687 0.07226562 11.36328125 C0.0605377 9.65100447 0.04260403 7.93877217 0.0234375 6.2265625 C-1.6265625 6.8865625 -3.2765625 7.5465625 -4.9765625 8.2265625 C-4.99074219 8.87882812 -5.00492188 9.53109375 -5.01953125 10.203125 C-5.45815642 18.24063496 -5.45815642 18.24063496 -8.1015625 21.6640625 C-13.74256432 26.69191195 -19.43696552 27.66591665 -26.71875 28.796875 C-28.93724743 28.99976693 -28.93724743 28.99976693 -29.9765625 30.2265625 C-24.4242737 33.0617738 -20.17543735 33.60608545 -13.9765625 33.2265625 C-15.75079358 35.49396967 -16.65799954 36.17274136 -19.54296875 36.66015625 C-25.9621747 36.66852549 -30.89592067 35.94991118 -36.72265625 33.19921875 C-39.12878884 32.16087037 -41.39837333 31.65853423 -43.9765625 31.2265625 C-41.73984493 26.62886527 -39.72114821 25.07284807 -34.9765625 23.2265625 C-31.56295268 22.76562147 -28.16790338 22.67098436 -24.7265625 22.6015625 C-22.9295764 22.55065638 -21.13268761 22.49614763 -19.3359375 22.4375 C-18.54670898 22.41993652 -17.75748047 22.40237305 -16.94433594 22.38427734 C-14.8993548 22.34392776 -14.8993548 22.34392776 -12.9765625 21.2265625 C-12.60346351 19.56834477 -12.26955273 17.90079236 -11.9765625 16.2265625 C-11.4815625 15.7315625 -11.4815625 15.7315625 -10.9765625 15.2265625 C-10.46019389 9.13341291 -10.90973828 6.0841581 -14.9765625 1.2265625 C-17.48215734 -1.1879198 -18.68679052 -1.74719004 -22.2109375 -2.06640625 C-23.95117188 -2.01419922 -23.95117188 -2.01419922 -25.7265625 -1.9609375 C-26.89703125 -1.93386719 -28.0675 -1.90679687 -29.2734375 -1.87890625 C-30.16546875 -1.84410156 -31.0575 -1.80929688 -31.9765625 -1.7734375 C-30.9296875 -3.72265625 -30.9296875 -3.72265625 -28.9765625 -5.7734375 C-25.6484375 -6.41796875 -25.6484375 -6.41796875 -21.7265625 -6.5859375 C-20.44265625 -6.65425781 -19.15875 -6.72257812 -17.8359375 -6.79296875 C-9.70881506 -6.75183959 -5.80768816 -5.60947354 0 0 Z " fill="#F8F2F8" transform="translate(66.9765625,34.7734375)"/>
<path d="M0 0 C18.85064269 -0.3660319 32.47545445 1.61240518 47 15 C55.85091178 24.65737299 60.36442634 36.37264444 60.3125 49.375 C60.32861328 50.17421875 60.34472656 50.9734375 60.36132812 51.796875 C60.36610443 57.70039147 59.17977489 62.53264033 57 68 C56.64679688 68.89589844 56.29359375 69.79179688 55.9296875 70.71484375 C52.8276198 77.2521642 48.7826132 83.53722791 43 88 C39.71484375 88.2734375 39.71484375 88.2734375 37 88 C37 84.31610951 37.69016636 83.9880817 40.1875 81.4375 C48.06234657 72.78154517 51.3877802 62.78615237 51.3125 51.25 C51.30686035 50.35547119 51.3012207 49.46094238 51.29541016 48.53930664 C51.17960359 42.25536726 50.687209 36.75830501 48 31 C47.36191406 29.61941406 47.36191406 29.61941406 46.7109375 28.2109375 C40.21256205 15.31843861 28.77559227 7.1035118 15.15234375 2.453125 C10.17559868 1.4053892 5.0695233 1.22411002 0 1 C0 0.67 0 0.34 0 0 Z " fill="#9E3F8B" transform="translate(61,13)"/>
<path d="M0 0 C1.23556641 0.01740234 1.23556641 0.01740234 2.49609375 0.03515625 C3.32238281 0.04417969 4.14867187 0.05320313 5 0.0625 C5.63808594 0.07410156 6.27617187 0.08570313 6.93359375 0.09765625 C7.26359375 1.41765625 7.59359375 2.73765625 7.93359375 4.09765625 C8.42859375 3.43765625 8.92359375 2.77765625 9.43359375 2.09765625 C13.03699587 -0.78506545 15.40344417 -0.20435372 19.93359375 0.09765625 C19.27359375 4.05765625 18.61359375 8.01765625 17.93359375 12.09765625 C16.04640625 12.22140625 16.04640625 12.22140625 14.12109375 12.34765625 C10.75356553 12.77056619 10.75356553 12.77056619 8.05859375 14.78515625 C5.67245192 19.69000335 4.5768149 24.59510821 3.80859375 29.97265625 C3.64101563 31.12507813 3.4734375 32.2775 3.30078125 33.46484375 C3.17960937 34.33367187 3.0584375 35.2025 2.93359375 36.09765625 C-1.02640625 36.09765625 -4.98640625 36.09765625 -9.06640625 36.09765625 C-9.51325224 28.48225977 -7.84088923 21.55263195 -6.12890625 14.16015625 C-5.85111328 12.91685547 -5.57332031 11.67355469 -5.28710938 10.39257812 C-2.96078262 0.13992356 -2.96078262 0.13992356 0 0 Z " fill="#B4386E" transform="translate(367.06640625,56.90234375)"/>
<path d="M0 0 C4.29 0 8.58 0 13 0 C12.09576171 6.68901746 10.78541782 13.25640241 9.41601562 19.86328125 C8.99694832 21.88975694 8.58428389 23.91747258 8.171875 25.9453125 C7.90890625 27.21890625 7.6459375 28.4925 7.375 29.8046875 C7.13523437 30.96983887 6.89546875 32.13499023 6.6484375 33.33544922 C6 36 6 36 5 37 C2.98035801 37.07244053 0.95832876 37.08377188 -1.0625 37.0625 C-2.16722656 37.05347656 -3.27195312 37.04445312 -4.41015625 37.03515625 C-5.69212891 37.01775391 -5.69212891 37.01775391 -7 37 C-5.54593723 24.47769823 -2.76976681 12.28423294 0 0 Z " fill="#B84175" transform="translate(346,57)"/>
<path d="M0 0 C5.61 0 11.22 0 17 0 C17.43345417 4.44290524 17.86259711 8.88585111 18.28173828 13.33007812 C18.42488379 14.83518748 18.57031271 16.34008179 18.71826172 17.84472656 C19.67758432 27.62068067 20.15589323 37.16573515 20 47 C16.04 47 12.08 47 8 47 C8 44.03 8 41.06 8 38 C3.05 38 -1.9 38 -7 38 C-7 37.67 -7 37.34 -7 37 C-6.02417969 36.93941406 -5.04835938 36.87882812 -4.04296875 36.81640625 C-2.77066406 36.73261719 -1.49835938 36.64882812 -0.1875 36.5625 C1.07707031 36.48128906 2.34164063 36.40007812 3.64453125 36.31640625 C6.99181893 36.12815453 6.99181893 36.12815453 10 35 C9.34 34.67 8.68 34.34 8 34 C7.375 31.9375 7.375 31.9375 7 30 C7.99 29.67 8.98 29.34 10 29 C10.33 29.33 10.66 29.66 11 30 C11.99 28.68 12.98 27.36 14 26 C14 26.99 14 27.98 14 29 C14.66 29 15.32 29 16 29 C15.505 15.14 15.505 15.14 15 1 C10.38 1 5.76 1 1 1 C1 2.65 1 4.3 1 6 C0.01 7.485 0.01 7.485 -1 9 C-0.67 9.99 -0.34 10.98 0 12 C-0.33 12.99 -0.66 13.98 -1 15 C3.32425093 13.59754024 4.072973 12.90270266 7 9 C7 15.27 7 21.54 7 28 C4.36 28 1.72 28 -1 28 C-1.125 21.375 -1.125 21.375 0 18 C-0.99 18 -1.98 18 -3 18 C-3 16.02 -3 14.04 -3 12 C-3.99 12.33 -4.98 12.66 -6 13 C-4.53528034 7.99554115 -2.70958719 4.74177759 0 0 Z " fill="#B64276" transform="translate(317,47)"/>
<path d="M0 0 C5.44863369 1.03954195 8.99086385 4.42268249 12.33984375 8.71875 C16.20373002 15.2089789 16.23104529 23.13288715 14.41015625 30.33203125 C11.4694236 37.20277527 5.21933983 42.64448849 -1.5625 45.5 C-2.7690625 45.7475 -2.7690625 45.7475 -4 46 C3.07218143 46.10335129 7.7203607 44.76938247 13.08203125 40.0625 C19.46155376 33.20223954 19.38691427 25.91042183 19.140625 16.96484375 C19.09421875 15.98644531 19.0478125 15.00804687 19 14 C19.66 14.33 20.32 14.66 21 15 C23.16520254 21.49560762 23.33271855 31.11590543 20.5625 37.5 C17.36165271 42.76182451 11.80028829 47.06657057 6 49 C-8.47462062 49.94557823 -8.47462062 49.94557823 -15 46 C-15.33 45.34 -15.66 44.68 -16 44 C-15.29875 43.92523438 -14.5975 43.85046875 -13.875 43.7734375 C-5.10472714 42.55799208 0.09656623 39.43148976 5.9375 32.875 C9.98471678 27.23342509 9.60939231 20.73717054 9 14 C7.37303304 8.09340256 4.60681533 3.96697986 0 0 Z " fill="#9C4D8E" transform="translate(58,30)"/>
<path d="M0 0 C1.32 0.66 2.64 1.32 4 2 C4 6.29 4 10.58 4 15 C4.66 15 5.32 15 6 15 C6.33 14.01 6.66 13.02 7 12 C7.66 12.66 8.32 13.32 9 14 C9.66 13.01 10.32 12.02 11 11 C12.57966834 16.84477286 11.43371033 22.23569888 10 28 C9 29 9 29 6.71484375 29.09765625 C5.34005859 29.08025391 5.34005859 29.08025391 3.9375 29.0625 C3.01839844 29.05347656 2.09929687 29.04445313 1.15234375 29.03515625 C0.44207031 29.02355469 -0.26820313 29.01195313 -1 29 C-1.33 28.34 -1.66 27.68 -2 27 C-2.495 27.33 -2.99 27.66 -3.5 28 C-7.09090894 29.43636358 -10.14456127 29.12851462 -14 29 C-14.33 28.34 -14.66 27.68 -15 27 C-12.36095629 25.58622659 -9.92879371 24.62759865 -7 24 C-7.66 23.67 -8.32 23.34 -9 23 C-8.60093433 20.45444476 -8.1815034 17.91508703 -7.75 15.375 C-7.64042969 14.66214844 -7.53085938 13.94929688 -7.41796875 13.21484375 C-6.56593697 8.32687193 -5.15081604 4.96905121 -2 1 C-1.34 0.67 -0.68 0.34 0 0 Z " fill="#B63E73" transform="translate(206,65)"/>
<path d="M0 0 C0 0.66 0 1.32 0 2 C0.66 2 1.32 2 2 2 C2.95745279 3.1119784 3.86483238 4.2671624 4.75 5.4375 C14.18342732 16.40119582 27.72424914 21.31886789 41 26 C41 26.33 41 26.66 41 27 C19.948388 25.93456065 -0.0693045 17.48958907 -15.8125 3.375 C-17 2 -17 2 -17 0 C-14.9174133 -0.19561869 -12.83388144 -0.38119313 -10.75 -0.5625 C-9.58984375 -0.66691406 -8.4296875 -0.77132812 -7.234375 -0.87890625 C-4.48128523 -0.98198087 -2.580018 -0.86213473 0 0 Z " fill="#9F3F8E" transform="translate(68,81)"/>
<path d="M0 0 C0.66 0.66 1.32 1.32 2 2 C-2.29 2 -6.58 2 -11 2 C-10.67 3.65 -10.34 5.3 -10 7 C-7.69 7 -5.38 7 -3 7 C-1.7872775 12.69979577 -1.91169965 17.49635129 -4 23 C-6.3125 26.0625 -6.3125 26.0625 -9 28 C-11.75 28.375 -11.75 28.375 -14 28 C-15 27 -15 27 -15.1328125 25.14453125 C-15.11775595 20.65015255 -14.90745294 16.4238331 -14 12 C-16.2806707 10.78702351 -16.2806707 10.78702351 -19 10 C-20.98 10.99 -20.98 10.99 -23 12 C-23 18.6 -23 25.2 -23 32 C-26 29 -26 29 -26.3984375 26.36328125 C-26.34842484 19.85329992 -25.73545879 14.92682738 -23 9 C-22.34 9 -21.68 9 -21 9 C-20.90332031 8.39671875 -20.80664062 7.7934375 -20.70703125 7.171875 C-19.60263426 3.7793627 -17.52001826 2.74104979 -14.53515625 0.98046875 C-9.86618204 -0.82525163 -4.91209118 -0.71792102 0 0 Z " fill="#B13F72" transform="translate(282,57)"/>
<path d="M0 0 C6.1105424 -0.11269443 11.95170514 0.10395632 18 1 C18 1.66 18 2.32 18 3 C19.32 3.33 20.64 3.66 22 4 C21.67 4.33 21.34 4.66 21 5 C22.32 5.99 23.64 6.98 25 8 C22.36 8 19.72 8 17 8 C17.33 8.99 17.66 9.98 18 11 C17.34 11 16.68 11 16 11 C16 10.34 16 9.68 16 9 C13.03 8.505 13.03 8.505 10 8 C8.15433468 11.98393611 7.63977171 15.44376683 7.375 19.8125 C7.30023438 20.97394531 7.22546875 22.13539062 7.1484375 23.33203125 C7.09945312 24.21246094 7.05046875 25.09289062 7 26 C5.68 26 4.36 26 3 26 C2.34 26.66 1.68 27.32 1 28 C0.34 26.68 -0.32 25.36 -1 24 C-1.66 24 -2.32 24 -3 24 C-2.88985294 20.74931846 -2.75928788 17.49976672 -2.625 14.25 C-2.5940625 13.32960938 -2.563125 12.40921875 -2.53125 11.4609375 C-2.49257812 10.57148437 -2.45390625 9.68203125 -2.4140625 8.765625 C-2.3826416 7.94868164 -2.3512207 7.13173828 -2.31884766 6.29003906 C-1.97656307 3.83167042 -1.2260723 2.14240001 0 0 Z " fill="#BA3370" transform="translate(158,48)"/>
<path d="M0 0 C3.06273831 -0.05410136 6.12451452 -0.09372225 9.1875 -0.125 C10.48397461 -0.15013672 10.48397461 -0.15013672 11.80664062 -0.17578125 C17.86156949 -0.22217917 21.57866293 0.50576675 26.78515625 3.71875 C29 6 29 6 29.55859375 9.09375 C29.51863281 10.2178125 29.47867188 11.341875 29.4375 12.5 C29.41558594 13.6240625 29.39367187 14.748125 29.37109375 15.90625 C29.02502349 18.79138309 28.49706852 20.54697206 27 23 C25.68 23 24.36 23 23 23 C22.67 22.34 22.34 21.68 22 21 C21.01 21.33 20.02 21.66 19 22 C19 22.66 19 23.32 19 24 C18.01 24.33 17.02 24.66 16 25 C16 24.34 16 23.68 16 23 C14.02 23.33 12.04 23.66 10 24 C10 23.34 10 22.68 10 22 C9.01 22 8.02 22 7 22 C7.44033187 16.80408388 7.88303339 13.33664919 11 9 C11.969375 9.185625 12.93875 9.37125 13.9375 9.5625 C14.948125 9.706875 15.95875 9.85125 17 10 C17.33 9.67 17.66 9.34 18 9 C19.99422795 8.63371323 21.99453311 8.29868656 24 8 C23.175 7.38125 22.35 6.7625 21.5 6.125 C20.2625 5.073125 20.2625 5.073125 19 4 C19 3.34 19 2.68 19 2 C13.06 1.67 7.12 1.34 1 1 C0.67 1.99 0.34 2.98 0 4 C0 2.68 0 1.36 0 0 Z " fill="#B8316D" transform="translate(157,47)"/>
<path d="M0 0 C1.23472046 0.00132935 1.23472046 0.00132935 2.49438477 0.00268555 C11.39402571 0.17272039 20.85862979 1.47448626 27.875 7.375 C21.24989835 6.48315939 21.24989835 6.48315939 19.07421875 5.85546875 C4.54962043 2.6822439 -10.74595894 6.92709874 -23.07421875 14.5859375 C-24.44412056 15.4864324 -25.78862067 16.42546732 -27.125 17.375 C-27.125 16.385 -27.125 15.395 -27.125 14.375 C-26.465 14.375 -25.805 14.375 -25.125 14.375 C-25.47286708 12.39963255 -25.47286708 12.39963255 -26.125 10.375 C-26.785 10.045 -27.445 9.715 -28.125 9.375 C-28.125 8.385 -28.125 7.395 -28.125 6.375 C-26.46035403 5.74463774 -24.79315224 5.12102407 -23.125 4.5 C-22.196875 4.15195313 -21.26875 3.80390625 -20.3125 3.4453125 C-13.39557215 1.12271663 -7.26785057 -0.01419356 0 0 Z " fill="#B14071" transform="translate(62.125,3.625)"/>
<path d="M0 0 C0.33 0.99 0.66 1.98 1 3 C1.66 3 2.32 3 3 3 C3.66 2.34 4.32 1.68 5 1 C4.41198771 7.16800389 3.4342076 13.03986734 2 19.0625 C0.66316623 24.70529473 -0.37141052 30.23138198 -1 36 C2.96 36 6.92 36 11 36 C11.04898437 35.13117188 11.09796875 34.26234375 11.1484375 33.3671875 C11.22320312 32.21476562 11.29796875 31.06234375 11.375 29.875 C11.44460938 28.73804687 11.51421875 27.60109375 11.5859375 26.4296875 C11.99443876 23.04606384 12.80967569 20.18387559 14 17 C15.31052767 21.30422506 14.45785552 24.9370534 13.5625 29.25 C13.41490234 29.99507812 13.26730469 30.74015625 13.11523438 31.5078125 C12.7511306 33.34007665 12.37658591 35.17026053 12 37 C8.04 37 4.08 37 0 37 C-0.33 37.66 -0.66 38.32 -1 39 C-1.99 39 -2.98 39 -4 39 C-4 36.69 -4 34.38 -4 32 C-5.2981424 34.2236068 -5.2981424 34.2236068 -5 38 C-5.99 37.67 -6.98 37.34 -8 37 C-7.2365209 32.89443077 -6.46284743 28.79084301 -5.6875 24.6875 C-5.47416016 23.53958984 -5.26082031 22.39167969 -5.04101562 21.20898438 C-3.67901214 14.03305558 -2.04628153 7.01213814 0 0 Z " fill="#ECD0DE" transform="translate(359,57)"/>
<path d="M0 0 C1.010625 -0.020625 2.02125 -0.04125 3.0625 -0.0625 C6.65959133 0.01403386 8.30194506 0.61936329 11 3 C11.3125 6.1875 11.3125 6.1875 11 9 C8.16836892 8.0780736 5.38355601 7.16876464 2.65625 5.96875 C-0.23871942 4.91293762 -2.74523855 4.59672974 -5.8125 4.375 C-6.78832031 4.30023437 -7.76414062 4.22546875 -8.76953125 4.1484375 C-9.50558594 4.09945313 -10.24164063 4.05046875 -11 4 C-11 4.33 -11 4.66 -11 5 C-16.94 5 -22.88 5 -29 5 C-29.33 4.34 -29.66 3.68 -30 3 C-34.455 3.495 -34.455 3.495 -39 4 C-30.37521366 -4.62478634 -10.43063553 -3.72947225 0 0 Z " fill="#F4E5EF" transform="translate(85,10)"/>
<path d="M0 0 C0 3 0 3 -1.203125 4.58984375 C-3.34113624 6.26771779 -5.13195606 6.85107502 -7.75 7.5625 C-8.62914063 7.80742188 -9.50828125 8.05234375 -10.4140625 8.3046875 C-11.26742187 8.53414062 -12.12078125 8.76359375 -13 9 C-14.37560534 9.3937245 -15.75070258 9.78923422 -17.125 10.1875 C-18.548125 10.5896875 -18.548125 10.5896875 -20 11 C-14.4477112 13.8352113 -10.19887485 14.37952295 -4 14 C-5.77423108 16.26740717 -6.68143704 16.94617886 -9.56640625 17.43359375 C-15.9856122 17.44196299 -20.91935817 16.72334868 -26.74609375 13.97265625 C-29.15222634 12.93430787 -31.42181083 12.43197173 -34 12 C-31.76493986 7.40570972 -29.74318045 5.84134591 -25 4 C-20.76590826 3.47594735 -16.51678838 3.51610345 -12.25585938 3.47265625 C-7.3460584 3.34742502 -4.02774092 3.14850434 0 0 Z " fill="#923F84" transform="translate(57,54)"/>
<path d="M0 0 C0.928125 0.20625 1.85625 0.4125 2.8125 0.625 C0.04229973 3.7030003 -2.20356693 5.42982008 -6.1875 6.625 C-7.5075 6.625 -8.8275 6.625 -10.1875 6.625 C-10.5175 7.615 -10.8475 8.605 -11.1875 9.625 C-14.90066711 12.4894432 -17.55324638 12.94832002 -22.1875 12.625 C-22.1875 13.285 -22.1875 13.945 -22.1875 14.625 C-21.1975 14.955 -20.2075 15.285 -19.1875 15.625 C-23.05473631 16.89082219 -26.91901262 16.7368765 -30.9375 16.6875 C-31.63488281 16.68298828 -32.33226562 16.67847656 -33.05078125 16.67382812 C-34.76305803 16.6621002 -36.47529033 16.64416653 -38.1875 16.625 C-38.1875 16.295 -38.1875 15.965 -38.1875 15.625 C-35.5475 15.295 -32.9075 14.965 -30.1875 14.625 C-31.58279129 13.99879084 -32.97876121 13.37409369 -34.375 12.75 C-35.19355469 12.38390625 -36.01210938 12.0178125 -36.85546875 11.640625 C-38.61139768 10.87589883 -40.39421755 10.17248092 -42.1875 9.5 C-44.1875 8.625 -44.1875 8.625 -45.1875 6.625 C-44.115 6.955 -43.0425 7.285 -41.9375 7.625 C-38.19018399 8.7967751 -38.19018399 8.7967751 -34.1875 8.625 C-33.8575 8.295 -33.5275 7.965 -33.1875 7.625 C-31.10531638 7.51667831 -29.02150871 7.43926459 -26.9375 7.375 C-18.12666782 6.82488663 -7.67920338 -0.90343569 0 0 Z " fill="#E9D6E1" transform="translate(91.1875,107.375)"/>
<path d="M0 0 C0.99 0.66 1.98 1.32 3 2 C3 2.66 3 3.32 3 4 C3.66 4 4.32 4 5 4 C5 8.62 5 13.24 5 18 C5.66 18 6.32 18 7 18 C7.33 16.35 7.66 14.7 8 13 C8.99 13.66 9.98 14.32 11 15 C10.071875 16.3303125 10.071875 16.3303125 9.125 17.6875 C5.53883867 23.27769266 4.69825801 27.52301578 4.8125 34.125 C4.81314453 34.84042969 4.81378906 35.55585937 4.81445312 36.29296875 C4.84102098 39.45159104 4.99476887 41.98430662 6 45 C4.02 45.495 4.02 45.495 2 46 C0.82379175 43.58757287 -0.3410956 41.17072309 -1.5 38.75 C-1.83386719 38.06808594 -2.16773438 37.38617188 -2.51171875 36.68359375 C-4.19374744 33.1479008 -5 30.98070714 -5 27 C-3.35666496 25.96210419 -1.68756133 24.96432076 0 24 C2.28216008 20.62365358 2.32905698 17.5062313 2.375 13.5 C2.40335938 12.3759375 2.43171875 11.251875 2.4609375 10.09375 C1.91347565 6.4192603 0.84226673 5.29178819 -2 3 C-1.34 3 -0.68 3 0 3 C0 2.01 0 1.02 0 0 Z " fill="#F8F2F8" transform="translate(183,46)"/>
<path d="M0 0 C1.18771723 3.42943519 0.80226223 5.37784675 -0.4375 8.75 C-0.72496094 9.54921875 -1.01242187 10.3484375 -1.30859375 11.171875 C-1.53675781 11.77515625 -1.76492188 12.3784375 -2 13 C-1.34 13.515625 -0.68 14.03125 0 14.5625 C2 17 2 17 2.4375 20.375 C1.97563916 24.20184692 0.93532959 26.69381195 -1 30 C-5.29 30 -9.58 30 -14 30 C-12.55095324 23.89918383 -9.98669855 18.80375863 -7 13.3125 C-6.1039652 11.64203513 -5.2081248 9.97146597 -4.3125 8.30078125 C-3.91675781 7.57028564 -3.52101563 6.83979004 -3.11328125 6.0871582 C-2.03975005 4.07452262 -1.01048293 2.04490139 0 0 Z " fill="#B74274" transform="translate(308,64)"/>
<path d="M0 0 C5.61 0 11.22 0 17 0 C17 2.97 17 5.94 17 9 C16.67 9 16.34 9 16 9 C16 6.36 16 3.72 16 1 C11.05 1 6.1 1 1 1 C1 2.65 1 4.3 1 6 C0.01 7.485 0.01 7.485 -1 9 C-0.67 9.99 -0.34 10.98 0 12 C-0.33 12.99 -0.66 13.98 -1 15 C3.32425093 13.59754024 4.072973 12.90270266 7 9 C7 15.27 7 21.54 7 28 C4.36 28 1.72 28 -1 28 C-1.125 21.375 -1.125 21.375 0 18 C-0.99 18 -1.98 18 -3 18 C-3 16.02 -3 14.04 -3 12 C-3.99 12.33 -4.98 12.66 -6 13 C-4.53528034 7.99554115 -2.70958719 4.74177759 0 0 Z " fill="#B3507B" transform="translate(317,47)"/>
<path d="M0 0 C1.32 0 2.64 0 4 0 C3.55194549 9.30099365 2.15662766 17.95301478 0 27 C-1.32 25.68 -2.64 24.36 -4 23 C-4 23.99 -4 24.98 -4 26 C-4.99 26 -5.98 26 -7 26 C-5.04600812 5.04600812 -5.04600812 5.04600812 0 0 Z " fill="#F8EFF6" transform="translate(239,67)"/>
<path d="M0 0 C6.58419524 0.56466399 6.58419524 0.56466399 9.1015625 3.08203125 C9.565625 4.04109375 9.565625 4.04109375 10.0390625 5.01953125 C9.0490625 5.34953125 8.0590625 5.67953125 7.0390625 6.01953125 C4.11953674 9.80410168 3.93521449 12.34637071 4.0390625 17.01953125 C3.3790625 17.67953125 2.7190625 18.33953125 2.0390625 19.01953125 C1.97847656 18.24867187 1.91789062 17.4778125 1.85546875 16.68359375 C1.72978516 15.17925781 1.72978516 15.17925781 1.6015625 13.64453125 C1.52035156 12.64679688 1.43914062 11.6490625 1.35546875 10.62109375 C1.18940624 8.04025512 1.18940624 8.04025512 0.0390625 6.01953125 C0.3690625 5.35953125 0.6990625 4.69953125 1.0390625 4.01953125 C-0.6109375 4.01953125 -2.2609375 4.01953125 -3.9609375 4.01953125 C-4.96109937 6.01985498 -5.45489758 7.85078873 -5.9609375 10.01953125 C-6.6209375 9.68953125 -7.2809375 9.35953125 -7.9609375 9.01953125 C-8.6209375 10.33953125 -9.2809375 11.65953125 -9.9609375 13.01953125 C-10.9509375 13.01953125 -11.9409375 13.01953125 -12.9609375 13.01953125 C-14.25337286 8.89989355 -15.22346375 5.35121442 -14.9609375 1.01953125 C-12.9809375 1.01953125 -11.0009375 1.01953125 -8.9609375 1.01953125 C-8.6309375 1.67953125 -8.3009375 2.33953125 -7.9609375 3.01953125 C-0.11308474 0.00112634 -0.11308474 0.00112634 0 0 Z " fill="#BD326F" transform="translate(242.9609375,57.98046875)"/>
<path d="M0 0 C-0.99 1.485 -0.99 1.485 -2 3 C0.8684413 5.10232344 0.8684413 5.10232344 4 6 C4.33 5.01 4.66 4.02 5 3 C5.33 4.32 5.66 5.64 6 7 C-0.13400111 12.42074516 -5.98258829 13.1922307 -14 14 C-14 12 -14 12 -12 10 C-9.6171875 9.3671875 -9.6171875 9.3671875 -6.875 8.875 C-5.50988281 8.62363281 -5.50988281 8.62363281 -4.1171875 8.3671875 C-3.06917969 8.18542969 -3.06917969 8.18542969 -2 8 C-3.155 8.0825 -4.31 8.165 -5.5 8.25 C-10.39304621 8.28495033 -13.86849494 6.46132216 -18 4 C-15.24892076 1.24892076 -12.78437017 1.10737283 -9 0.3125 C-7.1128125 -0.09548828 -7.1128125 -0.09548828 -5.1875 -0.51171875 C-2 -1 -2 -1 0 0 Z " fill="#F4E7F2" transform="translate(54,61)"/>
<path d="M0 0 C0.99 0 1.98 0 3 0 C3.8320582 5.72040011 4.12036664 11.22240116 4 17 C4.66 17.33 5.32 17.66 6 18 C4.32027163 24.4135083 1.20245238 28.33692371 -4.0625 32.3125 C-8.59031568 34.9135856 -12.04897275 35.1190329 -17.25 35.0625 C-18.32765625 35.05347656 -19.4053125 35.04445312 -20.515625 35.03515625 C-21.33546875 35.02355469 -22.1553125 35.01195312 -23 35 C-23 34.67 -23 34.34 -23 34 C-22.23816406 33.87625 -21.47632813 33.7525 -20.69140625 33.625 C-12.5600265 32.00075436 -7.40660432 29.34327481 -2 23 C1.95699839 16.88463886 1.49617223 10.06091257 1 3 C0.67 2.01 0.34 1.02 0 0 Z " fill="#F5E5F3" transform="translate(71,42)"/>
<path d="M0 0 C0.99 0.33 1.98 0.66 3 1 C2.01 1.495 2.01 1.495 1 2 C1.66 3.65 2.32 5.3 3 7 C2.34 7 1.68 7 1 7 C0.938125 7.7425 0.87625 8.485 0.8125 9.25 C-0.26092088 12.88311684 -2.04923548 13.63938839 -5 16 C-8.57447368 20.6763791 -11.53626768 25.66191332 -14 31 C-15.35852368 27.33198605 -14.47642805 25.50651662 -13 22 C-13.33 21.34 -13.66 20.68 -14 20 C-13.34 20 -12.68 20 -12 20 C-11.67 18.68 -11.34 17.36 -11 16 C-10.360625 15.855625 -9.72125 15.71125 -9.0625 15.5625 C-7.02454854 15.18992819 -7.02454854 15.18992819 -6 14 C-6.7425 13.38125 -6.7425 13.38125 -7.5 12.75 C-9 11 -9 11 -9 7 C-8.01 7 -7.02 7 -6 7 C-6 6.34 -6 5.68 -6 5 C-5.34 5 -4.68 5 -4 5 C-3.71125 4.360625 -3.4225 3.72125 -3.125 3.0625 C-2 1 -2 1 0 0 Z " fill="#B9326D" transform="translate(34,11)"/>
<path d="M0 0 C2.26918869 0.02144115 4.47674319 0.13839224 6.73046875 0.3984375 C6.85546875 6.1484375 6.85546875 6.1484375 5.73046875 8.3984375 C5.07046875 8.3984375 4.41046875 8.3984375 3.73046875 8.3984375 C3.73046875 14.3384375 3.73046875 20.2784375 3.73046875 26.3984375 C0.43046875 26.3984375 -2.86953125 26.3984375 -6.26953125 26.3984375 C-5.77453125 24.9134375 -5.77453125 24.9134375 -5.26953125 23.3984375 C-5.26953125 24.0584375 -5.26953125 24.7184375 -5.26953125 25.3984375 C-2.62953125 25.3984375 0.01046875 25.3984375 2.73046875 25.3984375 C2.40046875 19.7884375 2.07046875 14.1784375 1.73046875 8.3984375 C0.41046875 9.7184375 -0.90953125 11.0384375 -2.26953125 12.3984375 C-3.25953125 12.3984375 -4.24953125 12.3984375 -5.26953125 12.3984375 C-4.93953125 10.7484375 -4.60953125 9.0984375 -4.26953125 7.3984375 C-4.92953125 7.0684375 -5.58953125 6.7384375 -6.26953125 6.3984375 C-3.49786106 0.61408232 -3.49786106 0.61408232 0 0 Z " fill="#BD4277" transform="translate(321.26953125,49.6015625)"/>
<path d="M0 0 C1.67542976 0.28604898 3.34385343 0.61781233 5 1 C5.44923727 7.17701243 4.88458735 12.91330539 1 18 C-1.64453125 18.75390625 -1.64453125 18.75390625 -4 19 C-4.33216812 12.19670485 -4.28758339 7.04915344 -1 1 C-0.67 0.67 -0.34 0.34 0 0 Z " fill="#F8EFF7" transform="translate(273,66)"/>
<path d="M0 0 C16.31166223 -0.31673131 27.05879259 0.70586173 41 10 C40.67 10.66 40.34 11.32 40 12 C35.92222262 13.35925913 33.65770266 11.78392561 30 10 C29.39607422 9.70577148 28.79214844 9.41154297 28.16992188 9.10839844 C26.35673433 8.20962856 24.55219264 7.29560057 22.75 6.375 C17.12971278 3.50557066 12.66445667 1.87773462 6.3125 1.4375 C5.13300781 1.35371094 3.95351562 1.26992187 2.73828125 1.18359375 C1.83464844 1.12300781 0.93101563 1.06242188 0 1 C0 0.67 0 0.34 0 0 Z " fill="#994789" transform="translate(61,13)"/>
<path d="M0 0 C0.33 0 0.66 0 1 0 C1.75122187 11.43526629 -0.52048828 21.8975435 -3 33 C-6.96 33 -10.92 33 -15 33 C-14.19642857 22.82142857 -14.19642857 22.82142857 -12 19 C-11.02391783 21.92824652 -10.91773332 23.95613276 -11 27 C-8.69 27.33 -6.38 27.66 -4 28 C-3.67 24.37 -3.34 20.74 -3 17 C-2.34 17 -1.68 17 -1 17 C-1.01160156 16.02417969 -1.02320313 15.04835938 -1.03515625 14.04296875 C-1.04417969 12.77066406 -1.05320313 11.49835938 -1.0625 10.1875 C-1.07410156 8.92292969 -1.08570313 7.65835938 -1.09765625 6.35546875 C-1 3 -1 3 0 0 Z " fill="#AF4673" transform="translate(254,61)"/>
<path d="M0 0 C0.2145758 3.14711179 0.23318878 5.44617664 -1 8.375 C-4.24537018 11.01186327 -6.90212584 10.39027373 -11 10 C-13 8 -13 8 -13.375 5.0625 C-13 2 -13 2 -11.5625 0.0625 C-7.64726537 -1.56088997 -4.09325725 -0.72594092 0 0 Z " fill="#BD326B" transform="translate(361,44)"/>
<path d="M0 0 C1.65 0.33 3.3 0.66 5 1 C5.54330269 7.65545792 4.77304004 11.45834744 1 17 C-0.32 17 -1.64 17 -3 17 C-4.84281801 13.31436398 -3.72521662 8.94840161 -3 5 C-1.4375 1.875 -1.4375 1.875 0 0 Z " fill="#F6E8F1" transform="translate(203,67)"/>
<path d="M0 0 C0.33 0 0.66 0 1 0 C1.94898029 8.18174897 2.006179 15.03293283 0 23 C-0.54796357 25.54031655 -1.08937434 28.08205341 -1.625 30.625 C-2.08265412 32.75014638 -2.54074888 34.87519816 -3 37 C-3.99 36.34 -4.98 35.68 -6 35 C-6.40501841 30.19224069 -5.72429821 25.87859815 -4.6875 21.19140625 C-4.41679687 19.95068359 -4.14609375 18.70996094 -3.8671875 17.43164062 C-3.58101562 16.15482422 -3.29484375 14.87800781 -3 13.5625 C-2.71026995 12.2455894 -2.42120142 10.92853307 -2.1328125 9.61132812 C-1.42835815 6.40606085 -0.71723193 3.20242787 0 0 Z " fill="#F3DEE9" transform="translate(222,57)"/>
<path d="M0 0 C5.51932887 0.1145089 9.83621881 0.22324379 14.51171875 3.49609375 C17.71822001 7.03430204 18.65945101 10.21713931 18.69921875 14.93359375 C18.71339844 15.69542969 18.72757813 16.45726562 18.7421875 17.2421875 C18.48784541 19.7295669 17.75189071 21.34417481 16.51171875 23.49609375 C15.51171875 21.49609375 15.51171875 21.49609375 15.69921875 17.74609375 C15.75572377 13.29834156 14.39234347 10.93683994 11.51171875 7.49609375 C9.00612391 5.08161145 7.80149073 4.52234121 4.27734375 4.203125 C2.53710938 4.25533203 2.53710938 4.25533203 0.76171875 4.30859375 C-0.40875 4.33566406 -1.57921875 4.36273438 -2.78515625 4.390625 C-4.12320313 4.44283203 -4.12320313 4.44283203 -5.48828125 4.49609375 C-3.8783981 1.77706034 -3.17126531 0.63226169 0 0 Z " fill="#985189" transform="translate(40.48828125,28.50390625)"/>
<path d="M0 0 C0.33 0.99 0.66 1.98 1 3 C1.66 3 2.32 3 3 3 C3.66 2.34 4.32 1.68 5 1 C4.41509121 7.14154225 3.45933748 13.00679849 2 19 C0.35 19 -1.3 19 -3 19 C-2.938125 20.093125 -2.87625 21.18625 -2.8125 22.3125 C-3 26 -3 26 -4.51171875 27.73046875 C-5.00285156 28.14941406 -5.49398438 28.56835938 -6 29 C-5.40390686 22.26483263 -4.14905977 15.97211055 -2.4375 9.4375 C-2.20353516 8.52419922 -1.96957031 7.61089844 -1.72851562 6.66992188 C-1.15776375 4.44515436 -0.58152522 2.22197103 0 0 Z " fill="#F3DFEB" transform="translate(359,57)"/>
<path d="M0 0 C0 3.51716303 -0.82445585 4.37121748 -3 7 C0.07999946 10.67230705 2.2482602 11.56802365 7 12 C7 12.99 7 13.98 7 15 C4.37405216 14.8863485 1.74988453 14.75960946 -0.875 14.625 C-1.62136719 14.5940625 -2.36773437 14.563125 -3.13671875 14.53125 C-8.7734375 14.2265625 -8.7734375 14.2265625 -11 12 C-8.36 12 -5.72 12 -3 12 C-4.05960938 11.59007813 -5.11921875 11.18015625 -6.2109375 10.7578125 C-7.59906596 10.21381621 -8.98708093 9.66953029 -10.375 9.125 C-11.07367188 8.85558594 -11.77234375 8.58617188 -12.4921875 8.30859375 C-17.7734375 6.2265625 -17.7734375 6.2265625 -20 4 C-13.84765625 3.90234375 -13.84765625 3.90234375 -12 4 C-11.67 4.33 -11.34 4.66 -11 5 C-8.16926564 5.50169415 -8.16926564 5.50169415 -5 5 C-2.12359384 2.62499209 -2.12359384 2.62499209 0 0 Z " fill="#EED9EB" transform="translate(109,95)"/>
<path d="M0 0 C2.97 0 5.94 0 9 0 C9.66 1.98 10.32 3.96 11 6 C10.16855469 6.72316406 10.16855469 6.72316406 9.3203125 7.4609375 C8.59585937 8.09257813 7.87140625 8.72421875 7.125 9.375 C6.40570313 10.00148438 5.68640625 10.62796875 4.9453125 11.2734375 C3.5923402 12.47426834 2.2791655 13.7208345 1 15 C2.32 15 3.64 15 5 15 C5 16.65 5 18.3 5 20 C2.50935112 20.68707555 0.62113708 21 -2 21 C-2 19.02 -2 17.04 -2 15 C-1.34 15 -0.68 15 0 15 C-0.185625 14.071875 -0.37125 13.14375 -0.5625 12.1875 C-1 9 -1 9 0 6 C0.66 6 1.32 6 2 6 C2 6.99 2 7.98 2 9 C2.66 9 3.32 9 4 9 C4.33 8.34 4.66 7.68 5 7 C5.99 7 6.98 7 8 7 C8 5.35 8 3.7 8 2 C5.36 2 2.72 2 0 2 C-0.33 2.66 -0.66 3.32 -1 4 C-0.67 2.68 -0.34 1.36 0 0 Z " fill="#BE447A" transform="translate(365,57)"/>
<path d="M0 0 C0.66 0 1.32 0 2 0 C1.69255859 1.01320312 1.69255859 1.01320312 1.37890625 2.046875 C1.10949219 2.93890625 0.84007812 3.8309375 0.5625 4.75 C0.29566406 5.63171875 0.02882813 6.5134375 -0.24609375 7.421875 C-1.37279339 11.27483749 -2.13584596 14.74170998 -2.31640625 18.765625 C-2.35830078 19.65507813 -2.40019531 20.54453125 -2.44335938 21.4609375 C-2.50233398 22.84152344 -2.50233398 22.84152344 -2.5625 24.25 C-2.60568359 25.18585937 -2.64886719 26.12171875 -2.69335938 27.0859375 C-2.7991805 29.39048641 -2.90126557 31.69513839 -3 34 C-3.66 34 -4.32 34 -5 34 C-5.72904559 23.97562315 -6.14141393 14.05610192 -6 4 C-4.35 3.67 -2.7 3.34 -1 3 C-0.67 2.01 -0.34 1.02 0 0 Z " fill="#F3DFEA" transform="translate(6,38)"/>
<path d="M0 0 C0.70382813 0.45246094 1.40765625 0.90492187 2.1328125 1.37109375 C5.01823821 3.01036149 7.72012705 4.05048231 10.875 5.0625 C12.44121094 5.56716797 12.44121094 5.56716797 14.0390625 6.08203125 C17.34737336 7.10769491 20.65848883 8.08867877 24 9 C24 9.33 24 9.66 24 10 C12.59763687 10.73722175 3.66674184 8.92468819 -7 5 C-7 4.67 -7 4.34 -7 4 C-4.03 4 -1.06 4 2 4 C2 3.34 2 2.68 2 2 C1.34 2 0.68 2 0 2 C0 1.34 0 0.68 0 0 Z " fill="#AF4475" transform="translate(43,113)"/>
<path d="M0 0 C2.97 0 5.94 0 9 0 C8.44912716 6.51866188 7.53808217 12.64259371 6 19 C5.67 19 5.34 19 5 19 C5 17.02 5 15.04 5 13 C3.68 13 2.36 13 1 13 C1 11.02 1 9.04 1 7 C1.66 7 2.32 7 3 7 C3.33 6.34 3.66 5.68 4 5 C3.01 5.33 2.02 5.66 1 6 C0.67 4.02 0.34 2.04 0 0 Z " fill="#B53F73" transform="translate(213,57)"/>
<path d="M0 0 C1.13902011 3.41706032 0.8198446 4.66260692 0.00390625 8.10546875 C-0.22490234 9.08837891 -0.45371094 10.07128906 -0.68945312 11.08398438 C-0.93630859 12.10814453 -1.18316406 13.13230469 -1.4375 14.1875 C-1.68048828 15.22326172 -1.92347656 16.25902344 -2.17382812 17.32617188 C-2.77542099 19.88589053 -3.38440501 22.44361918 -4 25 C-3.01 25.33 -2.02 25.66 -1 26 C-2.32 26.33 -3.64 26.66 -5 27 C-6.20270964 24.59458071 -6.20316663 22.89633409 -6.31640625 20.2109375 C-6.35830078 19.26992187 -6.40019531 18.32890625 -6.44335938 17.359375 C-6.48267578 16.37453125 -6.52199219 15.3896875 -6.5625 14.375 C-6.60568359 13.38242188 -6.64886719 12.38984375 -6.69335938 11.3671875 C-6.79961069 8.91160162 -6.90164964 6.45591297 -7 4 C-6.67 4 -6.34 4 -6 4 C-5.67 5.65 -5.34 7.3 -5 9 C-4.67 7.02 -4.34 5.04 -4 3 C-3.34 3 -2.68 3 -2 3 C-1.34 2.01 -0.68 1.02 0 0 Z " fill="#F8E9F1" transform="translate(343,69)"/>
<path d="M0 0 C0.33 1.32 0.66 2.64 1 4 C2.11375 4.144375 3.2275 4.28875 4.375 4.4375 C8 5 8 5 10 6 C11.54023996 6.06950541 13.08334988 6.08452357 14.625 6.0625 C15.44226563 6.05347656 16.25953125 6.04445313 17.1015625 6.03515625 C17.72804688 6.02355469 18.35453125 6.01195313 19 6 C17.22576892 8.26740717 16.31856296 8.94617886 13.43359375 9.43359375 C7.0143878 9.44196299 2.08064183 8.72334868 -3.74609375 5.97265625 C-6.15222634 4.93430787 -8.42181083 4.43197173 -11 4 C-10.67 3.34 -10.34 2.68 -10 2 C-7.71484375 1.3671875 -7.71484375 1.3671875 -4.9375 0.875 C-4.01839844 0.70742188 -3.09929688 0.53984375 -2.15234375 0.3671875 C-1.44207031 0.24601562 -0.73179688 0.12484375 0 0 Z " fill="#9A548D" transform="translate(34,62)"/>
<path d="M0 0 C0.99 0.66 1.98 1.32 3 2 C3 2.66 3 3.32 3 4 C3.66 4 4.32 4 5 4 C5 8.62 5 13.24 5 18 C5.66 18 6.32 18 7 18 C7.33 16.35 7.66 14.7 8 13 C8.99 13.66 9.98 14.32 11 15 C10.071875 16.3303125 10.071875 16.3303125 9.125 17.6875 C5.72663111 22.98495738 4.72798585 27.0175856 4.375 33.3125 C4.26285156 35.19388672 4.26285156 35.19388672 4.1484375 37.11328125 C4.09945312 38.06589844 4.05046875 39.01851562 4 40 C3.67 40 3.34 40 3 40 C2.97308315 37.54159395 2.95320198 35.08348118 2.9375 32.625 C2.92912109 31.92632812 2.92074219 31.22765625 2.91210938 30.5078125 C2.88671875 25.2265625 2.88671875 25.2265625 4 23 C3.01 23.33 2.02 23.66 1 24 C1.15855469 23.4740625 1.31710938 22.948125 1.48046875 22.40625 C2.12784782 19.40786272 2.24567963 16.56670318 2.3125 13.5 C2.34988281 12.3759375 2.38726562 11.251875 2.42578125 10.09375 C1.91767228 6.40180227 0.85189516 5.29501623 -2 3 C-1.34 3 -0.68 3 0 3 C0 2.01 0 1.02 0 0 Z " fill="#F0D8E6" transform="translate(183,46)"/>
<path d="M0 0 C0.33 0 0.66 0 1 0 C1.08131463 1.43655854 1.13933559 2.8744483 1.1875 4.3125 C1.23970703 5.51326172 1.23970703 5.51326172 1.29296875 6.73828125 C1 9 1 9 -0.09375 10.78125 C-2.9504098 12.60763905 -5.34046705 12.28691682 -8.6875 12.1875 C-10.45673828 12.14689453 -10.45673828 12.14689453 -12.26171875 12.10546875 C-13.16535156 12.07066406 -14.06898438 12.03585938 -15 12 C-15 13.98 -15 15.96 -15 18 C-15.33 18 -15.66 18 -16 18 C-17.10228696 13.59085217 -17.07654536 9.51617599 -17 5 C-16.01 5.495 -16.01 5.495 -15 6 C-14.67 4.35 -14.34 2.7 -14 1 C-13.67 1 -13.34 1 -13 1 C-12.34 3.31 -11.68 5.62 -11 8 C-9.72125 8.061875 -8.4425 8.12375 -7.125 8.1875 C-6.40570313 8.22230469 -5.68640625 8.25710937 -4.9453125 8.29296875 C-3.98238281 8.14794922 -3.98238281 8.14794922 -3 8 C-1.0549 5.08235 -0.54723683 3.37462715 0 0 Z " fill="#FBEEF8" transform="translate(361,45)"/>
<path d="M0 0 C0.33 0 0.66 0 1 0 C1 6.27 1 12.54 1 19 C-1.64 19 -4.28 19 -7 19 C-6.33392561 14.59041892 -4.73375271 10.73427814 -2.9375 6.6875 C-2.65583984 6.04232422 -2.37417969 5.39714844 -2.08398438 4.73242188 C-1.3937257 3.15301642 -0.69746802 1.57623507 0 0 Z " fill="#F6E1ED" transform="translate(323,56)"/>
<path d="M0 0 C-3.13851639 3.66032351 -5.83072631 4.88269127 -10.4375 6.1875 C-12.10619141 6.67283203 -12.10619141 6.67283203 -13.80859375 7.16796875 C-18.43030164 8.37289382 -22.52645905 9.12631388 -27.3125 9.0625 C-28.19550781 9.05347656 -29.07851562 9.04445313 -29.98828125 9.03515625 C-30.65214844 9.02355469 -31.31601562 9.01195313 -32 9 C-29.45970366 6.45970366 -28.15214598 6.63881924 -24.625 6.25 C-18.55882967 5.36778052 -14.04270917 3.23448597 -8.7890625 0.14453125 C-5.41377133 -1.24056723 -3.48517153 -0.88928418 0 0 Z " fill="#9F6094" transform="translate(94,108)"/>
<path d="M0 0 C0.33 0 0.66 0 1 0 C1.33 3.96 1.66 7.92 2 12 C4.97 12.495 4.97 12.495 8 13 C8.33 10.03 8.66 7.06 9 4 C11.26907773 8.53815546 11.00210012 10.17169942 10 15 C9 16 9 16 6.27734375 16.09765625 C5.17519531 16.08605469 4.07304687 16.07445313 2.9375 16.0625 C1.83277344 16.05347656 0.72804687 16.04445313 -0.41015625 16.03515625 C-1.69212891 16.01775391 -1.69212891 16.01775391 -3 16 C-2.52013969 10.43109483 -1.70084819 5.32932432 0 0 Z " fill="#B24F7B" transform="translate(222,78)"/>
<path d="M0 0 C1.25541557 3.76624671 0.37061958 5.37188934 -1 9 C-2.65 9 -4.3 9 -6 9 C-6.33 9.99 -6.66 10.98 -7 12 C-7.33 11.34 -7.66 10.68 -8 10 C-13.94 10.33 -19.88 10.66 -26 11 C-26.33 9.68 -26.66 8.36 -27 7 C-25.37191406 7.05220703 -25.37191406 7.05220703 -23.7109375 7.10546875 C-22.26564058 7.13362388 -20.82032679 7.16092219 -19.375 7.1875 C-18.66214844 7.21263672 -17.94929688 7.23777344 -17.21484375 7.26367188 C-9.973773 7.36331964 -5.47876383 4.67306327 0 0 Z " fill="#F4E5F3" transform="translate(75,71)"/>
<path d="M0 0 C0 0.99 0 1.98 0 3 C4.62 3 9.24 3 14 3 C9.5 6.375 9.5 6.375 5.671875 6.29296875 C4.87265625 6.28330078 4.0734375 6.27363281 3.25 6.26367188 C2.425 6.23853516 1.6 6.21339844 0.75 6.1875 C-0.09046875 6.17396484 -0.9309375 6.16042969 -1.796875 6.14648438 C-3.86485938 6.11123464 -5.93251271 6.0574302 -8 6 C-8.33 5.34 -8.66 4.68 -9 4 C-13.455 4.495 -13.455 4.495 -18 5 C-13.22243871 0.22243871 -6.45364643 0 0 0 Z " fill="#E7D1E2" transform="translate(64,9)"/>
<path d="M0 0 C1.47668858 0.0133035 2.95331108 0.03716415 4.4296875 0.0703125 C5.18378906 0.07933594 5.93789063 0.08835938 6.71484375 0.09765625 C8.57826004 0.1212438 10.44151343 0.15711531 12.3046875 0.1953125 C11.9746875 1.1853125 11.6446875 2.1753125 11.3046875 3.1953125 C13.6146875 3.1953125 15.9246875 3.1953125 18.3046875 3.1953125 C18.3046875 3.5253125 18.3046875 3.8553125 18.3046875 4.1953125 C16.36916016 4.28619141 16.36916016 4.28619141 14.39453125 4.37890625 C12.67707495 4.46337131 10.95962748 4.54801627 9.2421875 4.6328125 C8.39462891 4.67212891 7.54707031 4.71144531 6.67382812 4.75195312 C1.82468541 4.99534639 -2.90159462 5.42129292 -7.6953125 6.1953125 C-4.92565932 0.2603414 -4.92565932 0.2603414 0 0 Z " fill="#F7E9F1" transform="translate(53.6953125,-0.1953125)"/>
<path d="M0 0 C2.125 0.9375 2.125 0.9375 4 2 C4 2.33 4 2.66 4 3 C4.74765625 2.95359375 5.4953125 2.9071875 6.265625 2.859375 C14.40994854 2.56089194 14.40994854 2.56089194 17.6875 5 C18.120625 5.66 18.55375 6.32 19 7 C17.02 7.99 17.02 7.99 15 9 C15 8.34 15 7.68 15 7 C12.36 7.33 9.72 7.66 7 8 C7 6.68 7 5.36 7 4 C6.01 5.485 6.01 5.485 5 7 C4.34 7 3.68 7 3 7 C3 6.34 3 5.68 3 5 C2.01 5 1.02 5 0 5 C0 4.34 0 3.68 0 3 C-0.66 3 -1.32 3 -2 3 C-2 2.34 -2 1.68 -2 1 C-1.34 0.67 -0.68 0.34 0 0 Z " fill="#F7F1F6" transform="translate(33,29)"/>
<path d="M0 0 C1.0625 1.8125 1.0625 1.8125 2 4 C0.64905419 8.05283743 -1.37995418 8.87056128 -5 11 C-8.41985594 12.15964877 -11.65966139 12.10152542 -15.25 12.0625 C-16.32765625 12.05347656 -17.4053125 12.04445313 -18.515625 12.03515625 C-19.33546875 12.02355469 -20.1553125 12.01195313 -21 12 C-21 11.67 -21 11.34 -21 11 C-19.85724609 10.814375 -19.85724609 10.814375 -18.69140625 10.625 C-10.47078125 8.98292759 -5.72178403 6.08300777 0 0 Z " fill="#EFD6EC" transform="translate(69,65)"/>
<path d="M0 0 C0.33 0 0.66 0 1 0 C1 4.62 1 9.24 1 14 C1.99 14 2.98 14 4 14 C4 15.65 4 17.3 4 19 C2.68 19.33 1.36 19.66 0 20 C0 20.66 0 21.32 0 22 C-1.32 22.33 -2.64 22.66 -4 23 C-4 21.68 -4 20.36 -4 19 C-6.64 19 -9.28 19 -12 19 C-12.66 17.35 -13.32 15.7 -14 14 C-13.01 14 -12.02 14 -11 14 C-10.34 13.34 -9.68 12.68 -9 12 C-9.33 13.98 -9.66 15.96 -10 18 C-6.7 18 -3.4 18 0 18 C0 12.06 0 6.12 0 0 Z " fill="#B13069" transform="translate(325,58)"/>
<path d="M0 0 C0.66 0.33 1.32 0.66 2 1 C1.01 2.485 1.01 2.485 0 4 C-0.66 4 -1.32 4 -2 4 C-2 4.66 -2 5.32 -2 6 C-2.99 6.495 -2.99 6.495 -4 7 C-3.67 7.99 -3.34 8.98 -3 10 C-5.98241547 10.77321882 -8.97580475 11.41196203 -12 12 C-12 14.97 -12 17.94 -12 21 C-12.66 21.33 -13.32 21.66 -14 22 C-14.66 21.01 -15.32 20.02 -16 19 C-16.66 18.67 -17.32 18.34 -18 18 C-12.74495738 10.83670168 -7.16329832 5.25504262 0 0 Z " fill="#B85781" transform="translate(30,12)"/>
<path d="M0 0 C1.65 0.33 3.3 0.66 5 1 C5 1.99 5 2.98 5 4 C5.99 3.67 6.98 3.34 8 3 C8 3.99 8 4.98 8 6 C4.37 6 0.74 6 -3 6 C-3 7.65 -3 9.3 -3 11 C-5.31 11 -7.62 11 -10 11 C-9.67 9.68 -9.34 8.36 -9 7 C-8.34 7 -7.68 7 -7 7 C-2.91207907 4.01246787 -2.91207907 4.01246787 0 0 Z " fill="#B9306D" transform="translate(376,61)"/>
<path d="M0 0 C2.97 0.495 2.97 0.495 6 1 C6.36272727 7.40818182 6.36272727 7.40818182 4.8125 9.9375 C2.43958382 11.32851983 0.70313576 11.21917317 -2 11 C-1.85892253 9.54119891 -1.71197585 8.08296449 -1.5625 6.625 C-1.48128906 5.81289063 -1.40007812 5.00078125 -1.31640625 4.1640625 C-1 2 -1 2 0 0 Z " fill="#F1D5E5" transform="translate(168,56)"/>
<path d="M0 0 C8.7953516 0.19388551 15.95735526 2.53488597 24 6 C24 6.33 24 6.66 24 7 C17.38181818 6.10909091 17.38181818 6.10909091 15.25 5.5 C11.94864883 4.76636641 8.61693 4.63162356 5.25 4.4375 C4.55261719 4.39431641 3.85523437 4.35113281 3.13671875 4.30664062 C1.42468078 4.20110404 -0.28763561 4.1001009 -2 4 C-2 3.34 -2 2.68 -2 2 C-1.34 2 -0.68 2 0 2 C0 1.34 0 0.68 0 0 Z " fill="#A8466F" transform="translate(66,4)"/>
<path d="M0 0 C0.66 0.33 1.32 0.66 2 1 C1.21718695 2.33855056 0.42348123 3.67073644 -0.375 5 C-0.81585938 5.7425 -1.25671875 6.485 -1.7109375 7.25 C-2.34902344 8.11625 -2.34902344 8.11625 -3 9 C-3.66 9 -4.32 9 -5 9 C-5 15.6 -5 22.2 -5 29 C-8 26 -8 26 -8.3984375 23.36328125 C-8.34842484 16.85329992 -7.73545879 11.92682738 -5 6 C-4.34 6 -3.68 6 -3 6 C-2.814375 5.071875 -2.814375 5.071875 -2.625 4.125 C-2 2 -2 2 0 0 Z " fill="#B2557F" transform="translate(264,60)"/>
<path d="M0 0 C-0.70125 0.66 -1.4025 1.32 -2.125 2 C-7.71898468 7.62567865 -11.67136139 13.83062453 -15 21 C-16.15404945 17.23331084 -15.52041461 15.61098469 -14 12 C-14.33 11.34 -14.66 10.68 -15 10 C-14.34 10 -13.68 10 -13 10 C-12.67 8.68 -12.34 7.36 -12 6 C-11.360625 5.855625 -10.72125 5.71125 -10.0625 5.5625 C-8.02454854 5.18992819 -8.02454854 5.18992819 -7 4 C-7.99 3.01 -8.98 2.02 -10 1 C-6.78548731 -0.60725635 -3.56387464 -0.05748185 0 0 Z " fill="#AD3B6C" transform="translate(35,21)"/>
<path d="M0 0 C1.32 0.33 2.64 0.66 4 1 C4 1.66 4 2.32 4 3 C6.31 3.33 8.62 3.66 11 4 C11 4.99 11 5.98 11 7 C11.66 7 12.32 7 13 7 C13.33 7.99 13.66 8.98 14 10 C10.7 9.67 7.4 9.34 4 9 C4.33 8.01 4.66 7.02 5 6 C3.35 5.67 1.7 5.34 0 5 C0 3.35 0 1.7 0 0 Z " fill="#BB336D" transform="translate(32,108)"/>
<path d="M0 0 C0.66 1.32 1.32 2.64 2 4 C-4.47523186 7.06657207 -12.58041653 7.20979105 -19.46875 5.32421875 C-21.375 4.5 -21.375 4.5 -24 3 C-21.24921116 2.08307039 -19.64051087 1.89113917 -16.8125 1.9375 C-14.9253125 1.9684375 -14.9253125 1.9684375 -13 2 C-13 2.33 -13 2.66 -13 3 C-11.39504433 2.88557539 -9.79101881 2.75805306 -8.1875 2.625 C-7.29417969 2.55539063 -6.40085937 2.48578125 -5.48046875 2.4140625 C-2.75601501 2.13354964 -2.75601501 2.13354964 0 0 Z " fill="#A26296" transform="translate(67,73)"/>
<path d="M0 0 C10.71104782 0.16501614 19.11416254 1.87201548 29 6 C29 6.33 29 6.66 29 7 C18.76031794 6.48176129 9.65518497 4.39236229 0 1 C0 0.67 0 0.34 0 0 Z " fill="#964F8A" transform="translate(80,101)"/>
<path d="M0 0 C2.14208427 3.2131264 2.59687808 5.21065397 3 9 C2.67 9.66 2.34 10.32 2 11 C1.72641885 13.85306062 1.55374758 16.70570456 1.37890625 19.56640625 C1.25386719 20.36949219 1.12882812 21.17257813 1 22 C0.34 22.33 -0.32 22.66 -1 23 C-1.68472665 24.88764903 -1.68472665 24.88764903 -2.125 27.0625 C-2.29257813 27.79597656 -2.46015625 28.52945313 -2.6328125 29.28515625 C-2.75398437 29.85105469 -2.87515625 30.41695312 -3 31 C-3.33 31 -3.66 31 -4 31 C-3.52316094 26.15213624 -2.92234302 21.408794 -2 16.625 C-0.95400846 11.10622376 -0.41147644 5.59824521 0 0 Z " fill="#EAB8D1" transform="translate(255,63)"/>
<path d="M0 0 C4.77257975 0.88303238 7.71755384 3.54392318 11 7 C12.4375 9.875 12.4375 9.875 13 12 C12.67 12.33 12.34 12.66 12 13 C12.33 13.66 12.66 14.32 13 15 C13.25 18 13.25 18 13 21 C12.01 21.66 11.02 22.32 10 23 C9.89042969 22.20335938 9.78085938 21.40671875 9.66796875 20.5859375 C8.34536371 11.74706481 6.74281461 6.19609992 0 0 Z " fill="#A26499" transform="translate(58,30)"/>
<path d="M0 0 C4.97732476 3.61987255 7.9183468 7.14688101 10 13 C10 13.99 10 14.98 10 16 C9.34 16 8.68 16 8 16 C8.33 16.99 8.66 17.98 9 19 C7.35 19 5.7 19 4 19 C3.67 17.35 3.34 15.7 3 14 C3.99 13.67 4.98 13.34 6 13 C6 12.01 6 11.02 6 10 C4.68 9.67 3.36 9.34 2 9 C2.04125 8.2575 2.0825 7.515 2.125 6.75 C1.99601866 3.91241048 1.42948778 2.41226062 0 0 Z " fill="#9B3E87" transform="translate(107,29)"/>
<path d="M0 0 C3.73386136 1.24462045 4.64805848 2.91307675 7 6 C7.98230498 7.0173873 8.97469597 8.02596117 10 9 C9.34 9.66 8.68 10.32 8 11 C8 10.01 8 9.02 8 8 C5.03 8.66 2.06 9.32 -1 10 C-2.31223496 6.06329512 -1.24296256 3.87511856 0 0 Z " fill="#F9F9FB" transform="translate(254,85)"/>
<path d="M0 0 C1.17732706 3.67914707 1 7.16659144 1 11 C1.33 11.66 1.66 12.32 2 13 C2.13357453 16.67329964 2.1671568 19.49852959 1 23 C0.34 23 -0.32 23 -1 23 C-2.55647905 19.8870419 -2.18446048 16.60088167 -2.1875 13.1875 C-2.19974609 12.47529297 -2.21199219 11.76308594 -2.22460938 11.02929688 C-2.23607389 6.8982511 -1.84522492 3.71232998 0 0 Z " fill="#B44474" transform="translate(189,67)"/>
<path d="M0 0 C0.99 0.99 1.98 1.98 3 3 C1.58307609 8.15245057 -0.64368446 12.82701421 -4 17 C-4.99 17.33 -5.98 17.66 -7 18 C-5.06375702 11.79522136 -2.74390859 5.89174281 0 0 Z " fill="#A83792" transform="translate(114,75)"/>
<path d="M0 0 C19.59409969 -0.38046796 19.59409969 -0.38046796 27 2 C27.66 2.66 28.32 3.32 29 4 C26.625 5.25 26.625 5.25 23 6 C20.83203125 5.27734375 20.83203125 5.27734375 18.4375 4.1875 C12.41654067 1.45738561 6.53923929 1.20499183 0 1 C0 0.67 0 0.34 0 0 Z " fill="#9C5A90" transform="translate(61,13)"/>
<path d="M0 0 C3.06273831 -0.05410136 6.12451452 -0.09372225 9.1875 -0.125 C10.48397461 -0.15013672 10.48397461 -0.15013672 11.80664062 -0.17578125 C19.2147006 -0.23254799 23.28633972 1.1025769 29 6 C28.67 6.66 28.34 7.32 28 8 C27.01 7.67 26.02 7.34 25 7 C24.67 6.34 24.34 5.68 24 5 C21.47266765 4.34444881 21.47266765 4.34444881 19 4 C19 3.34 19 2.68 19 2 C13.06 1.67 7.12 1.34 1 1 C0.67 1.99 0.34 2.98 0 4 C0 2.68 0 1.36 0 0 Z " fill="#B0517A" transform="translate(157,47)"/>
<path d="M0 0 C0.33 0 0.66 0 1 0 C1.937402 8.08192533 2.15408416 15.11355966 0 23 C-2.95740505 19.59172441 -2.95740505 19.59172441 -3.14453125 16.9921875 C-3.03496094 16.29351562 -2.92539063 15.59484375 -2.8125 14.875 C-2.69648438 14.10027344 -2.58046875 13.32554688 -2.4609375 12.52734375 C-1.69702751 8.33878641 -0.8950992 4.16264581 0 0 Z " fill="#F3DAE7" transform="translate(222,57)"/>
<path d="M0 0 C2.03144641 0.93446535 4.03533587 1.93224776 6 3 C6 4.98 6 6.96 6 9 C3.1209801 8.06264468 0.28769934 7.12227222 -2.5 5.9375 C-5.31563821 4.88163567 -8.0279836 4.41469996 -11 4 C-11 3.67 -11 3.34 -11 3 C-9.54176788 2.9729957 -8.08339325 2.95360213 -6.625 2.9375 C-5.81289062 2.92589844 -5.00078125 2.91429687 -4.1640625 2.90234375 C-2 3 -2 3 0 4 C0 3.34 0 2.68 0 2 C-0.66 1.67 -1.32 1.34 -2 1 C-1.34 0.67 -0.68 0.34 0 0 Z " fill="#EED8EB" transform="translate(90,10)"/>
<path d="M0 0 C1.9375 0.75 1.9375 0.75 4 2 C4.3721042 3.32303717 4.70630173 4.65737935 5 6 C5.99 6.66 6.98 7.32 8 8 C7.67 9.65 7.34 11.3 7 13 C5.68 13 4.36 13 3 13 C0.78145293 8.37802694 -0.38281159 5.23175837 0 0 Z " fill="#A53E92" transform="translate(106,31)"/>
<path d="M0 0 C0.33 1.32 0.66 2.64 1 4 C-5.13400111 9.42074516 -10.98258829 10.1922307 -19 11 C-19 9 -19 9 -17 7 C-14.1796875 6.5859375 -14.1796875 6.5859375 -10.875 6.375 C-9.77929688 6.30023438 -8.68359375 6.22546875 -7.5546875 6.1484375 C-6.71164063 6.09945312 -5.86859375 6.05046875 -5 6 C-5 5.34 -5 4.68 -5 4 C-4.0409375 3.8453125 -4.0409375 3.8453125 -3.0625 3.6875 C-2.381875 3.460625 -1.70125 3.23375 -1 3 C-0.67 2.01 -0.34 1.02 0 0 Z " fill="#E7D1E4" transform="translate(59,64)"/>
<path d="M0 0 C0.33 0.99 0.66 1.98 1 3 C-0.32 3.33 -1.64 3.66 -3 4 C-3 4.99 -3 5.98 -3 7 C-2.01 7.33 -1.02 7.66 0 8 C0 9.32 0 10.64 0 12 C-1.65 11.67 -3.3 11.34 -5 11 C-5 9.68 -5 8.36 -5 7 C-5.66 6.34 -6.32 5.68 -7 5 C-6.625 2.875 -6.625 2.875 -6 1 C-3.92446352 0.4465236 -2.15634036 0 0 0 Z " fill="#B6316A" transform="translate(28,98)"/>
<path d="M0 0 C0 1.98 0 3.96 0 6 C-0.33 6 -0.66 6 -1 6 C-1 4.35 -1 2.7 -1 1 C-3.31 0.67 -5.62 0.34 -8 0 C-8 0.66 -8 1.32 -8 2 C-8.99 2.495 -8.99 2.495 -10 3 C-10 4.98 -10 6.96 -10 9 C-7.69 9 -5.38 9 -3 9 C-3 9.33 -3 9.66 -3 10 C-9.0546875 10.1953125 -9.0546875 10.1953125 -11 10 C-13 8 -13 8 -13.375 5.0625 C-13 2 -13 2 -11.5625 0.0625 C-7.64726537 -1.56088997 -4.09325725 -0.72594092 0 0 Z " fill="#AE5A7D" transform="translate(361,44)"/>
<path d="M0 0 C2 1 2 1 2.6015625 2.71484375 C3.3735509 7.14242429 3.65263439 11.54264597 3 16 C0.5 18.1875 0.5 18.1875 -2 19 C-2.66 17.68 -3.32 16.36 -4 15 C-3.01 14.67 -2.02 14.34 -1 14 C0.04976964 10.85069107 0.10131595 8.61185544 0.0625 5.3125 C0.05347656 4.31863281 0.04445313 3.32476562 0.03515625 2.30078125 C0.02355469 1.54152344 0.01195312 0.78226563 0 0 Z " fill="#EAD1E7" transform="translate(58,37)"/>
<path d="M0 0 C0.33 0 0.66 0 1 0 C1.28125 17 1.28125 17 -2 24 C-2.66 24 -3.32 24 -4 24 C-3.35588614 18.44686304 -2.49942196 12.98744364 -1.4375 7.5 C-1.22963867 6.40945312 -1.22963867 6.40945312 -1.01757812 5.296875 C-0.68063335 3.53081963 -0.34064317 1.76534574 0 0 Z " fill="#AB4B75" transform="translate(155,56)"/>
<path d="M0 0 C0.64066406 0.19335938 1.28132813 0.38671875 1.94140625 0.5859375 C6.95110985 2.0940748 11.96539857 3.57717786 17 5 C17 5.33 17 5.66 17 6 C14.58303128 6.05411124 12.16728213 6.09372278 9.75 6.125 C9.06808594 6.14175781 8.38617188 6.15851563 7.68359375 6.17578125 C3.9391765 6.21213482 1.17647273 6.07944349 -2 4 C-1.01 4 -0.02 4 1 4 C0.67 2.68 0.34 1.36 0 0 Z " fill="#A74D74" transform="translate(50,117)"/>
<path d="M0 0 C0.59167969 0.13277344 1.18335937 0.26554687 1.79296875 0.40234375 C5.85446525 1.31005178 9.91374171 2.2091113 14 3 C13.01 3.495 13.01 3.495 12 4 C12 4.99 12 5.98 12 7 C11.34 6.67 10.68 6.34 10 6 C5.95288854 4.7968047 3.78427644 5.16192287 0 7 C0 4.69 0 2.38 0 0 Z " fill="#EFDBEC" transform="translate(83,103)"/>
<path d="M0 0 C2.5 2 2.5 2 4 4 C2.33388095 4.042721 0.66617115 4.04063832 -1 4 C-1.33 3.67 -1.66 3.34 -2 3 C-3.66617115 2.95936168 -5.33388095 2.957279 -7 3 C-7 3.99 -7 4.98 -7 6 C-8.65 5.67 -10.3 5.34 -12 5 C-9.48943436 -0.55910964 -5.87371698 -0.8938265 0 0 Z " fill="#AD4472" transform="translate(206,57)"/>
<path d="M0 0 C0.99 0.33 1.98 0.66 3 1 C1.60399265 3.7920147 -0.00416384 4.00162933 -2.875 5.125 C-3.75929688 5.47820313 -4.64359375 5.83140625 -5.5546875 6.1953125 C-8 7 -8 7 -11 7 C-10.34 6.67 -9.68 6.34 -9 6 C-9.7763932 2.9254644 -9.7763932 2.9254644 -12 1 C-10.95199219 1.01740234 -10.95199219 1.01740234 -9.8828125 1.03515625 C-8.97273438 1.04417969 -8.06265625 1.05320312 -7.125 1.0625 C-5.76761719 1.07990234 -5.76761719 1.07990234 -4.3828125 1.09765625 C-1.9831415 1.16249257 -1.9831415 1.16249257 0 0 Z " fill="#BF3873" transform="translate(50,7)"/>
<path d="M0 0 C1.0725 0.33 2.145 0.66 3.25 1 C8.20399277 2.34673833 8.20399277 2.34673833 13 1 C13 1.66 13 2.32 13 3 C14.65 3.33 16.3 3.66 18 4 C18 4.99 18 5.98 18 7 C11.74532555 6.54511459 6.46840714 5.17095819 1 2 C0.67 1.34 0.34 0.68 0 0 Z " fill="#F6E2EF" transform="translate(46,114)"/>
<path d="M0 0 C3.63 0 7.26 0 11 0 C11 1.32 11 2.64 11 4 C7.37 4 3.74 4 0 4 C0 2.68 0 1.36 0 0 Z " fill="#AE3267" transform="translate(358,89)"/>
<path d="M0 0 C0.33 0 0.66 0 1 0 C1.03738281 0.825 1.07476562 1.65 1.11328125 2.5 C1.64684065 11.87390624 3.10407134 20.8184587 5 30 C2.40002626 28.70001313 2.30726784 27.84646876 1.375 25.125 C-0.98622886 17.00901738 -0.23183533 8.36324503 0 0 Z " fill="#A23D68" transform="translate(3,56)"/>
<path d="M0 0 C0.103125 0.639375 0.20625 1.27875 0.3125 1.9375 C0.6528125 2.9584375 0.6528125 2.9584375 1 4 C1.99 4.33 2.98 4.66 4 5 C-1.46108889 6.4002792 -5.69276568 5.42705634 -11 4 C-10.67 3.34 -10.34 2.68 -10 2 C-7.71484375 1.3671875 -7.71484375 1.3671875 -4.9375 0.875 C-4.01839844 0.70742188 -3.09929688 0.53984375 -2.15234375 0.3671875 C-1.44207031 0.24601562 -0.73179688 0.12484375 0 0 Z " fill="#973E86" transform="translate(34,62)"/>
<path d="M0 0 C0.33 0 0.66 0 1 0 C1 6.6 1 13.2 1 20 C1.66 20 2.32 20 3 20 C3 22.64 3 25.28 3 28 C3.66 28.33 4.32 28.66 5 29 C4.34 29.66 3.68 30.32 3 31 C-0.12110668 24.18435497 -0.36889612 18.43258975 -0.1875 11 C-0.17396484 9.93910156 -0.16042969 8.87820312 -0.14648438 7.78515625 C-0.11140879 5.18956313 -0.06225844 2.59505933 0 0 Z " fill="#E6C6D7" transform="translate(16,51)"/>
<path d="M0 0 C0.33 0 0.66 0 1 0 C1 6.93 1 13.86 1 21 C0.34 21 -0.32 21 -1 21 C-1.22155127 18.06294869 -1.42774197 15.12619637 -1.625 12.1875 C-1.68945312 11.35412109 -1.75390625 10.52074219 -1.8203125 9.66210938 C-1.871875 8.85966797 -1.9234375 8.05722656 -1.9765625 7.23046875 C-2.02893066 6.49207764 -2.08129883 5.75368652 -2.13525391 4.99291992 C-2 3 -2 3 0 0 Z " fill="#EFCFDF" transform="translate(2,51)"/>
<path d="M0 0 C1.15242188 0.00902344 2.30484375 0.01804688 3.4921875 0.02734375 C4.36101563 0.03894531 5.22984375 0.05054688 6.125 0.0625 C6.125 0.3925 6.125 0.7225 6.125 1.0625 C4.990625 1.330625 3.85625 1.59875 2.6875 1.875 C1.511875 2.266875 0.33625 2.65875 -0.875 3.0625 C-1.205 4.0525 -1.535 5.0425 -1.875 6.0625 C-2.535 6.0625 -3.195 6.0625 -3.875 6.0625 C-4.205 5.0725 -4.535 4.0825 -4.875 3.0625 C-9.33 3.5575 -9.33 3.5575 -13.875 4.0625 C-13.545 3.0725 -13.215 2.0825 -12.875 1.0625 C-8.52167264 0.22226812 -4.43057481 -0.04520995 0 0 Z " fill="#B457A1" transform="translate(38.875,59.9375)"/>
<path d="M0 0 C0.33 0 0.66 0 1 0 C1.309375 1.093125 1.61875 2.18625 1.9375 3.3125 C2.58337897 5.55407994 3.2623117 7.7869351 4 10 C2.68 10.33 1.36 10.66 0 11 C-0.33 12.98 -0.66 14.96 -1 17 C-1.33 17 -1.66 17 -2 17 C-3.10228696 12.59085217 -3.07654536 8.51617599 -3 4 C-2.01 4.495 -2.01 4.495 -1 5 C-0.67 3.35 -0.34 1.7 0 0 Z " fill="#F6F1F7" transform="translate(347,46)"/>
<path d="M0 0 C0.99 0.33 1.98 0.66 3 1 C3.36637589 7.35051546 3.36637589 7.35051546 1.625 10.4375 C0 12 0 12 -2 12 C-1.85831863 10.56208484 -1.71148957 9.1246763 -1.5625 7.6875 C-1.48128906 6.88699219 -1.40007812 6.08648437 -1.31640625 5.26171875 C-1 3 -1 3 0 0 Z " fill="#F3E5EF" transform="translate(387,57)"/>
<path d="M0 0 C0 0.66 0 1.32 0 2 C0.66 2 1.32 2 2 2 C3.625 4.5 3.625 4.5 5 7 C3.0625 6.625 3.0625 6.625 1 6 C0.67 5.34 0.34 4.68 0 4 C-0.99 4 -1.98 4 -3 4 C-3 3.01 -3 2.02 -3 1 C-7.62 1.33 -12.24 1.66 -17 2 C-17 1.34 -17 0.68 -17 0 C-14.9174133 -0.19561869 -12.83388144 -0.38119313 -10.75 -0.5625 C-9.58984375 -0.66691406 -8.4296875 -0.77132812 -7.234375 -0.87890625 C-4.48128523 -0.98198087 -2.580018 -0.86213473 0 0 Z " fill="#AA639C" transform="translate(68,81)"/>
<path d="M0 0 C0.66 0 1.32 0 2 0 C2 0.99 2 1.98 2 3 C3.32 3 4.64 3 6 3 C6 7 6 11 6 15 C2.22279206 10.50332388 0 5.9028782 0 0 Z " fill="#F1D5E5" transform="translate(178,73)"/>
<path d="M0 0 C0 3 0 3 -1.3125 4.625 C-3 6 -3 6 -6 7 C-6.66 6.67 -7.32 6.34 -8 6 C-10.87910588 5.76725791 -13.74146495 5.58027243 -16.625 5.4375 C-17.42679688 5.39431641 -18.22859375 5.35113281 -19.0546875 5.30664062 C-21.0362511 5.20048543 -23.01810271 5.09973145 -25 5 C-25 4.67 -25 4.34 -25 4 C-24.42032471 3.98541748 -23.84064941 3.97083496 -23.2434082 3.95581055 C-20.59912447 3.88101472 -17.95605998 3.78446102 -15.3125 3.6875 C-13.94448242 3.65366211 -13.94448242 3.65366211 -12.54882812 3.61914062 C-7.58369426 3.42053527 -4.05880081 3.18722674 0 0 Z " fill="#9E5E95" transform="translate(57,54)"/>
<path d="M0 0 C3.3 0.33 6.6 0.66 10 1 C10 1.99 10 2.98 10 4 C7.37405216 3.8863485 4.74988453 3.75960946 2.125 3.625 C1.37863281 3.5940625 0.63226563 3.563125 -0.13671875 3.53125 C-5.7734375 3.2265625 -5.7734375 3.2265625 -8 1 C-5.36 1 -2.72 1 0 1 C0 0.67 0 0.34 0 0 Z " fill="#C9ACC2" transform="translate(106,106)"/>
<path d="M0 0 C0.66 0 1.32 0 2 0 C2.37769531 0.49113281 2.75539063 0.98226562 3.14453125 1.48828125 C6.0268895 3.83664471 9.14671303 3.31643622 12.6875 3.1875 C13.38939453 3.17396484 14.09128906 3.16042969 14.81445312 3.14648438 C16.54329829 3.11120182 18.27174765 3.05739583 20 3 C19.67 3.66 19.34 4.32 19 5 C14.3843404 6.5385532 9.82011928 6.52775029 5 6 C1.8125 4.125 1.8125 4.125 0 2 C0 1.34 0 0.68 0 0 Z " fill="#A43B68" transform="translate(259,88)"/>
<path d="M0 0 C0.66 0.33 1.32 0.66 2 1 C0.51194289 6.80342274 -2.59097555 11.17590879 -6 16 C-6.66 15.34 -7.32 14.68 -8 14 C-7.59007813 13.32453125 -7.18015625 12.6490625 -6.7578125 11.953125 C-6.21898438 11.06109375 -5.68015625 10.1690625 -5.125 9.25 C-4.59132813 8.36828125 -4.05765625 7.4865625 -3.5078125 6.578125 C-2.24403334 4.41725907 -1.08501165 2.25429605 0 0 Z " fill="#F3E0F0" transform="translate(118,80)"/>
<path d="M0 0 C4.29 0 8.58 0 13 0 C13 0.33 13 0.66 13 1 C11.02 1.33 9.04 1.66 7 2 C7.33 2.33 7.66 2.66 8 3 C8.04063832 4.66617115 8.042721 6.33388095 8 8 C3.91350629 5.51256905 2.19317872 4.38635744 0 0 Z " fill="#964488" transform="translate(52,82)"/>
<path d="M0 0 C0.33 0 0.66 0 1 0 C1.33 2.64 1.66 5.28 2 8 C2.66 8 3.32 8 4 8 C4 8.66 4 9.32 4 10 C3.01 10 2.02 10 1 10 C1 13.63 1 17.26 1 21 C0.67 21 0.34 21 0 21 C-0.06058594 20.13117188 -0.12117188 19.26234375 -0.18359375 18.3671875 C-0.26738281 17.21476562 -0.35117188 16.06234375 -0.4375 14.875 C-0.51871094 13.73804688 -0.59992188 12.60109375 -0.68359375 11.4296875 C-0.97730965 8.2459522 -1.43124313 5.14489093 -2 2 C-1.34 2 -0.68 2 0 2 C0 1.34 0 0.68 0 0 Z " fill="#A15292" transform="translate(113,46)"/>
<path d="M0 0 C1.48262169 2.96524337 0.83538959 4.85122387 0 8 C-1.8125 9.9375 -1.8125 9.9375 -4 11 C-6.13671875 10.56640625 -6.13671875 10.56640625 -8 10 C-7.59007813 9.52949219 -7.18015625 9.05898437 -6.7578125 8.57421875 C-6.21898438 7.95160156 -5.68015625 7.32898438 -5.125 6.6875 C-4.59132813 6.07261719 -4.05765625 5.45773438 -3.5078125 4.82421875 C-1.8359553 2.86501788 -1.8359553 2.86501788 0 0 Z " fill="#A35593" transform="translate(105,90)"/>
<path d="M0 0 C0.66 0 1.32 0 2 0 C1.67 2.64 1.34 5.28 1 8 C-5.625 10.125 -5.625 10.125 -9 9 C-9 6.69 -9 4.38 -9 2 C-8.34 1.67 -7.68 1.34 -7 1 C-7.33 3.31 -7.66 5.62 -8 8 C-5.01779872 7.45160938 -5.01779872 7.45160938 -2 6 C-0.54839062 2.98220128 -0.54839062 2.98220128 0 0 Z " fill="#AE4A76" transform="translate(174,59)"/>
<path d="M0 0 C0.33 0 0.66 0 1 0 C1.05398987 2.27057377 1.09278742 4.54151288 1.125 6.8125 C1.14820313 8.07707031 1.17140625 9.34164062 1.1953125 10.64453125 C1 14 1 14 -1 17 C-1.66 17 -2.32 17 -3 17 C-2.25339288 11.27601207 -1.17122859 5.65146223 0 0 Z " fill="#B14F7B" transform="translate(361,72)"/>
<path d="M0 0 C1.12377697 3.30435084 0.89554742 5.0506862 -0.4375 8.25 C-0.72496094 8.95640625 -1.01242187 9.6628125 -1.30859375 10.390625 C-1.53675781 10.92171875 -1.76492188 11.4528125 -2 12 C-2.66 12 -3.32 12 -4 12 C-4.33 13.32 -4.66 14.64 -5 16 C-5.66 16 -6.32 16 -7 16 C-5.35433477 10.31497465 -2.70967216 5.23318364 0 0 Z " fill="#B0517A" transform="translate(308,64)"/>
<path d="M0 0 C0.66 0 1.32 0 2 0 C4 2 4 2 4 5 C5.32 5.33 6.64 5.66 8 6 C7.67 7.32 7.34 8.64 7 10 C5.35 10 3.7 10 2 10 C1.7834375 8.63875 1.7834375 8.63875 1.5625 7.25 C1.13590527 4.78523044 0.64925779 2.41152893 0 0 Z " fill="#B5326C" transform="translate(301,80)"/>
<path d="M0 0 C2.48020497 0.11341491 4.95844969 0.24014686 7.4375 0.375 C8.14455078 0.4059375 8.85160156 0.436875 9.58007812 0.46875 C11.39239188 0.57280629 13.19817988 0.77919892 15 1 C15.33 1.66 15.66 2.32 16 3 C11.05 3.33 6.1 3.66 1 4 C0.67 2.68 0.34 1.36 0 0 Z " fill="#E2BBDE" transform="translate(48,78)"/>
<path d="M0 0 C0.99 0.66 1.98 1.32 3 2 C2.01 4.64 1.02 7.28 0 10 C-0.99 10 -1.98 10 -3 10 C-3.33 10.99 -3.66 11.98 -4 13 C-3.50269348 8.02693484 -2.44697666 4.36200187 0 0 Z " fill="#F4EAF2" transform="translate(238,68)"/>
<path d="M0 0 C1.67542976 0.28604898 3.34385343 0.61781233 5 1 C5 3.64 5 6.28 5 9 C4.67 9 4.34 9 4 9 C3.67 7.02 3.34 5.04 3 3 C2.01 4.485 2.01 4.485 1 6 C-0.32 6 -1.64 6 -3 6 C-1.125 1.125 -1.125 1.125 0 0 Z " fill="#F1D0E2" transform="translate(273,66)"/>
<path d="M0 0 C2.47859908 2.2008849 3.61210366 4.06372969 4.6875 7.1875 C4.93886719 7.90292969 5.19023437 8.61835937 5.44921875 9.35546875 C5.63097656 9.89816406 5.81273437 10.44085938 6 11 C5.34 11 4.68 11 4 11 C4 10.34 4 9.68 4 9 C2.68 9.33 1.36 9.66 0 10 C-0.33 8.68 -0.66 7.36 -1 6 C-0.34 6 0.32 6 1 6 C0.67 4.02 0.34 2.04 0 0 Z " fill="#AE3A6E" transform="translate(176,74)"/>
<path d="M0 0 C2.31 0.33 4.62 0.66 7 1 C7 1.99 7 2.98 7 4 C7.99 4.33 8.98 4.66 10 5 C6.37 5 2.74 5 -1 5 C-0.34 4.67 0.32 4.34 1 4 C0.67 2.68 0.34 1.36 0 0 Z " fill="#AA3065" transform="translate(341,88)"/>
<path d="M0 0 C0.33 0 0.66 0 1 0 C1.61340343 7.51419197 -0.94668037 10.92002056 -5 17 C-6 14 -6 14 -5.29296875 12.16796875 C-4.92816406 11.51441406 -4.56335938 10.86085938 -4.1875 10.1875 C-2.41281338 6.86533577 -1.08588288 3.6196096 0 0 Z " fill="#9C4F8C" transform="translate(112,74)"/>
<path d="M0 0 C-0.78318689 3.91593446 -2.39179858 7.36406635 -4 11 C-4.93423645 7.98968256 -5.04449911 7.13349732 -4 4 C-4.66 4 -5.32 4 -6 4 C-5.67 3.01 -5.34 2.02 -5 1 C-2 0 -2 0 0 0 Z " fill="#AD4974" transform="translate(321,61)"/>
<path d="M0 0 C1.67542976 0.28604898 3.34385343 0.61781233 5 1 C4.67 2.32 4.34 3.64 4 5 C4 4.34 4 3.68 4 3 C3.34 3 2.68 3 2 3 C2.33 4.98 2.66 6.96 3 9 C2.34 9 1.68 9 1 9 C0.63877119 7.68942607 0.28619689 6.37646376 -0.0625 5.0625 C-0.35833984 3.96615234 -0.35833984 3.96615234 -0.66015625 2.84765625 C-0.77230469 2.23792969 -0.88445313 1.62820312 -1 1 C-0.67 0.67 -0.34 0.34 0 0 Z " fill="#B4326A" transform="translate(17,87)"/>
<path d="M0 0 C2.625 0.375 2.625 0.375 5 1 C4.67 2.65 4.34 4.3 4 6 C2.35 6.33 0.7 6.66 -1 7 C-1.625 4.625 -1.625 4.625 -2 2 C-1.34 1.34 -0.68 0.68 0 0 Z " fill="#BC417A" transform="translate(239,61)"/>
<path d="M0 0 C2.49609375 -0.36328125 2.49609375 -0.36328125 5.4375 -0.3125 C6.40558594 -0.30863281 7.37367188 -0.30476563 8.37109375 -0.30078125 C11 0 11 0 14 2 C13.67 2.66 13.34 3.32 13 4 C11.824375 3.649375 10.64875 3.29875 9.4375 2.9375 C5.25308347 1.87088402 2.20108938 2.12477305 -2 3 C-1.34 2.01 -0.68 1.02 0 0 Z " fill="#B56688" transform="translate(240,57)"/>
<path d="M0 0 C-0.33 0.66 -0.66 1.32 -1 2 C-3.3984375 2.484375 -3.3984375 2.484375 -6.375 2.75 C-7.35210937 2.84796875 -8.32921875 2.9459375 -9.3359375 3.046875 C-12 3 -12 3 -15 1 C-13.25215171 0.63536268 -11.50159498 0.2836922 -9.75 -0.0625 C-8.28820313 -0.35833984 -8.28820313 -0.35833984 -6.796875 -0.66015625 C-4.131881 -0.98397535 -2.51128277 -0.85503199 0 0 Z " fill="#90467F" transform="translate(57,73)"/>
<path d="M0 0 C1.14926266 0.95421808 2.29430541 1.91352045 3.4375 2.875 C4.07558594 3.40867187 4.71367187 3.94234375 5.37109375 4.4921875 C7 6 7 6 8 8 C7.34 8.66 6.68 9.32 6 10 C6 9.01 6 8.02 6 7 C3.69 7 1.38 7 -1 7 C-0.34 5.68 0.32 4.36 1 3 C0.34 2.67 -0.32 2.34 -1 2 C-0.67 1.34 -0.34 0.68 0 0 Z " fill="#F3DEEA" transform="translate(256,86)"/>
<path d="M0 0 C-0.33 2.31 -0.66 4.62 -1 7 C-3.97 6.505 -3.97 6.505 -7 6 C-6.34 5.67 -5.68 5.34 -5 5 C-5 4.34 -5 3.68 -5 3 C-5.66 2.34 -6.32 1.68 -7 1 C-4 0 -4 0 0 0 Z " fill="#B63168" transform="translate(277,85)"/>
<path d="M0 0 C1 2 1 2 0.25 4.5 C-1 7 -1 7 -4 9 C-4.99 8.67 -5.98 8.34 -7 8 C-5.61918777 3.8575633 -3.40174442 2.67796901 0 0 Z " fill="#924282" transform="translate(74,67)"/>
<path d="M0 0 C4.93872549 4.77941176 4.93872549 4.77941176 5.09765625 7.9453125 C5.06510417 9.96354167 5.03255208 11.98177083 5 14 C4.67 14 4.34 14 4 14 C3.67 11.36 3.34 8.72 3 6 C2.01 6.33 1.02 6.66 0 7 C0 4.69 0 2.38 0 0 Z " fill="#E8C8E1" transform="translate(52,36)"/>
<path d="M0 0 C5.70709064 0.46588495 9.15939723 1.93757784 14 5 C9.44402067 6.51865978 6.87342145 4.4284709 2.6875 2.375 C1.800625 1.92125 0.91375 1.4675 0 1 C0 0.67 0 0.34 0 0 Z " fill="#A6378E" transform="translate(77,97)"/>
<path d="M0 0 C0.66 0 1.32 0 2 0 C2.33 1.65 2.66 3.3 3 5 C2.01 5.495 2.01 5.495 1 6 C0.31527335 7.88764903 0.31527335 7.88764903 -0.125 10.0625 C-0.29257813 10.79597656 -0.46015625 11.52945313 -0.6328125 12.28515625 C-0.75398437 12.85105469 -0.87515625 13.41695312 -1 14 C-1.33 14 -1.66 14 -2 14 C-1.03644647 4.58997722 -1.03644647 4.58997722 0 0 Z " fill="#EBC9DD" transform="translate(253,80)"/>
<path d="M0 0 C0.33 0 0.66 0 1 0 C1.33 4.29 1.66 8.58 2 13 C1.67 12.34 1.34 11.68 1 11 C0.34 11 -0.32 11 -1 11 C-1.33 11.99 -1.66 12.98 -2 14 C-1.03644647 4.58997722 -1.03644647 4.58997722 0 0 Z " fill="#EECDDF" transform="translate(222,57)"/>
<path d="M0 0 C0.99 1.32 1.98 2.64 3 4 C2 6 2 6 0 7 C-0.33 7.66 -0.66 8.32 -1 9 C-1.99 9 -2.98 9 -4 9 C-2.80100302 5.9168649 -1.52299523 2.93720508 0 0 Z " fill="#BB5280" transform="translate(300,80)"/>
<path d="M0 0 C2.125 0.9375 2.125 0.9375 4 2 C4.08090971 3.62418745 4.13914995 5.24951745 4.1875 6.875 C4.22230469 7.77992187 4.25710937 8.68484375 4.29296875 9.6171875 C4.19628906 10.40351562 4.09960938 11.18984375 4 12 C3.01 12.66 2.02 13.32 1 14 C1.03480469 13.22914062 1.06960937 12.45828125 1.10546875 11.6640625 C1.13253906 10.66117188 1.15960938 9.65828125 1.1875 8.625 C1.22230469 7.62726563 1.25710937 6.62953125 1.29296875 5.6015625 C1.19628906 4.74304688 1.09960938 3.88453125 1 3 C0.01 2.34 -0.98 1.68 -2 1 C-1.34 0.67 -0.68 0.34 0 0 Z " fill="#B7507F" transform="translate(206,65)"/>
<path d="M0 0 C1.51400391 0.01740234 1.51400391 0.01740234 3.05859375 0.03515625 C4.07050781 0.04417969 5.08242188 0.05320313 6.125 0.0625 C7.29869141 0.07990234 7.29869141 0.07990234 8.49609375 0.09765625 C8.82609375 0.75765625 9.15609375 1.41765625 9.49609375 2.09765625 C8.27921875 2.05640625 7.06234375 2.01515625 5.80859375 1.97265625 C2.27715248 1.96011117 -0.30394191 2.49767408 -3.50390625 4.09765625 C-3.50390625 0.13665781 -3.50390625 0.13665781 0 0 Z " fill="#F0DAE6" transform="translate(350.50390625,41.90234375)"/>
<path d="M0 0 C2.87529818 1.28892677 5.05008298 2.49296383 7 5 C7.6875 7.6875 7.6875 7.6875 8 10 C6.33333333 8.33333333 4.66666667 6.66666667 3 5 C2.401875 4.443125 1.80375 3.88625 1.1875 3.3125 C0 2 0 2 0 0 Z " fill="#954388" transform="translate(99,27)"/>
<path d="M0 0 C-1.65 1.32 -3.3 2.64 -5 4 C-6.98 3.01 -8.96 2.02 -11 1 C-7.2297564 -1.56376565 -4.32597804 -0.83191885 0 0 Z " fill="#EFE4EE" transform="translate(60,29)"/>
<path d="M0 0 C3.37503669 1.1858237 5.64722731 2.27573689 8 5 C5.75 5.75 5.75 5.75 3 6 C0.6875 4.0625 0.6875 4.0625 -1 2 C-0.67 1.34 -0.34 0.68 0 0 Z " fill="#A44D97" transform="translate(91,19)"/>
<path d="M0 0 C1.98 0.495 1.98 0.495 4 1 C3.34 2.98 2.68 4.96 2 7 C1.01 6.67 0.02 6.34 -1 6 C-0.67 4.02 -0.34 2.04 0 0 Z " fill="#F9FAFD" transform="translate(356,76)"/>
<path d="M0 0 C2.97 0 5.94 0 9 0 C8.01 0.495 8.01 0.495 7 1 C7 1.66 7 2.32 7 3 C6.34 3 5.68 3 5 3 C4.67 4.32 4.34 5.64 4 7 C3.67 5.02 3.34 3.04 3 1 C2.01 0.67 1.02 0.34 0 0 Z " fill="#B82F6A" transform="translate(348,59)"/>
<path d="M0 0 C0.66 0.33 1.32 0.66 2 1 C2.625 3.5625 2.625 3.5625 3 6 C2.01 6.33 1.02 6.66 0 7 C-1.65 5.02 -3.3 3.04 -5 1 C-2.525 1.495 -2.525 1.495 0 2 C0 1.34 0 0.68 0 0 Z " fill="#F4E8EF" transform="translate(289,57)"/>
<path d="M0 0 C2 3 2 3 1.625 5.1875 C1.41875 5.785625 1.2125 6.38375 1 7 C-0.32 7.33 -1.64 7.66 -3 8 C-3.33 6.68 -3.66 5.36 -4 4 C-3.01 3.67 -2.02 3.34 -1 3 C-0.67 2.01 -0.34 1.02 0 0 Z " fill="#D2BED2" transform="translate(58,48)"/>
<path d="M0 0 C0.99 0 1.98 0 3 0 C3.04241723 2.33294775 3.04092937 4.66702567 3 7 C2 8 2 8 0.15234375 8.09765625 C-1.8984375 8.06510417 -3.94921875 8.03255208 -6 8 C-6 7.67 -6 7.34 -6 7 C-4.865625 6.71125 -3.73125 6.4225 -2.5625 6.125 C-1.386875 5.75375 -0.21125 5.3825 1 5 C1.33 4.34 1.66 3.68 2 3 C1.34 2.67 0.68 2.34 0 2 C0 1.34 0 0.68 0 0 Z " fill="#AC3767" transform="translate(357,45)"/>
<path d="M0 0 C0.99 0 1.98 0 3 0 C3.77916092 5.02125926 4.13016601 8.97703996 3 14 C2.67 14 2.34 14 2 14 C1.93941406 13.24074219 1.87882812 12.48148438 1.81640625 11.69921875 C1.73261719 10.70535156 1.64882812 9.71148437 1.5625 8.6875 C1.48128906 7.70136719 1.40007812 6.71523438 1.31640625 5.69921875 C1.08187441 2.90624401 1.08187441 2.90624401 0 0 Z " fill="#F2D2EB" transform="translate(71,42)"/>
<path d="M0 0 C2.03144641 0.93446535 4.03533587 1.93224776 6 3 C6 4.98 6 6.96 6 9 C5.34 9 4.68 9 4 9 C3.7525 8.236875 3.505 7.47375 3.25 6.6875 C1.89004442 3.7635955 0.68414174 2.69995644 -2 1 C-1.34 0.67 -0.68 0.34 0 0 Z " fill="#DACBD4" transform="translate(90,10)"/>
<path d="M0 0 C4.50884026 2.31883213 6.93906776 5.06451569 10 9 C7.33289346 8.84759391 5.5494129 8.50635081 3.5546875 6.66796875 C0 2.49375 0 2.49375 0 0 Z " fill="#A8426C" transform="translate(31,103)"/>
<path d="M0 0 C2.00993705 2.00993705 2.89940919 3.59211232 4.125 6.125 C4.47820313 6.84945312 4.83140625 7.57390625 5.1953125 8.3203125 C5.46085937 8.87460938 5.72640625 9.42890625 6 10 C4.68 10.33 3.36 10.66 2 11 C0.80712589 7.12315913 0 4.08378077 0 0 Z " fill="#B34E7A" transform="translate(22,88)"/>
<path d="M0 0 C0.99 0 1.98 0 3 0 C2.46930939 3.82097239 1.50298434 6.06171403 -1 9 C-1.09765625 2.84765625 -1.09765625 2.84765625 -1 1 C-0.67 0.67 -0.34 0.34 0 0 Z " fill="#F9E3F1" transform="translate(313,48)"/>
<path d="M0 0 C3.96 0.33 7.92 0.66 12 1 C12 1.99 12 2.98 12 4 C7.80530429 3.40075776 3.99000166 2.42500059 0 1 C0 0.67 0 0.34 0 0 Z " fill="#A36498" transform="translate(80,101)"/>
<path d="M0 0 C1.09658936 3.28976808 0.79953138 4.71303767 0 8 C-1.32 7.67 -2.64 7.34 -4 7 C-3.43628586 3.73045798 -2.50037734 2.17424117 0 0 Z " fill="#F8F0F6" transform="translate(148,86)"/>
<path d="M0 0 C0.33 0 0.66 0 1 0 C1.125 7.625 1.125 7.625 0 11 C-0.66 11 -1.32 11 -2 11 C-1.85892253 9.54119891 -1.71197585 8.08296449 -1.5625 6.625 C-1.48128906 5.81289062 -1.40007812 5.00078125 -1.31640625 4.1640625 C-1 2 -1 2 0 0 Z " fill="#B65B83" transform="translate(222,78)"/>
<path d="M0 0 C0 0.66 0 1.32 0 2 C-0.66 2 -1.32 2 -2 2 C-2.33 2.99 -2.66 3.98 -3 5 C-3.33 4.34 -3.66 3.68 -4 3 C-6.01669827 1.86649466 -6.01669827 1.86649466 -8 1 C-4.93251126 -0.86240388 -3.40254489 -1.2151946 0 0 Z " fill="#F0D6EB" transform="translate(71,78)"/>
<path d="M0 0 C0.99 0.33 1.98 0.66 3 1 C2.01 3.97 1.02 6.94 0 10 C-0.33 10 -0.66 10 -1 10 C-1.125 2.25 -1.125 2.25 0 0 Z " fill="#B24E7A" transform="translate(235,67)"/>
<path d="M0 0 C0.99 0.33 1.98 0.66 3 1 C3 1.66 3 2.32 3 3 C3.99 3.33 4.98 3.66 6 4 C4.68 4 3.36 4 2 4 C2 3.34 2 2.68 2 2 C1.34 2 0.68 2 0 2 C0.33 2.99 0.66 3.98 1 5 C0.01 5 -0.98 5 -2 5 C-2.33 4.01 -2.66 3.02 -3 2 C-2.01 1.34 -1.02 0.68 0 0 Z " fill="#BF4379" transform="translate(177,67)"/>
<path d="M0 0 C0.66 0.33 1.32 0.66 2 1 C1 4 1 4 -1 5 C-2.99960012 5.039992 -5.00047242 5.04346799 -7 5 C-2.25 1.125 -2.25 1.125 0 0 Z " fill="#F6E1F2" transform="translate(53,53)"/>
<path d="M0 0 C0.66 0.66 1.32 1.32 2 2 C1.00102287 4.99693138 0.34869747 6.02709413 -2 8 C-2.66 8 -3.32 8 -4 8 C-2.25 2.25 -2.25 2.25 0 0 Z " fill="#F0D2E1" transform="translate(26,30)"/>
<path d="M0 0 C1.09658936 3.28976808 0.79953138 4.71303767 0 8 C-1.65 7.67 -3.3 7.34 -5 7 C-5 6.34 -5 5.68 -5 5 C-4.01 4.67 -3.02 4.34 -2 4 C-0.79117904 1.99983534 -0.79117904 1.99983534 0 0 Z " fill="#973784" transform="translate(72,88)"/>
<path d="M0 0 C3.0916909 2.52956528 3.90931332 5.22454612 5 9 C4.01 9 3.02 9 2 9 C0.50178941 5.62902617 0 3.79557881 0 0 Z " fill="#B6517C" transform="translate(17,79)"/>
<path d="M0 0 C-1.75 5.75 -1.75 5.75 -4 8 C-4.33 6.02 -4.66 4.04 -5 2 C-2 0 -2 0 0 0 Z " fill="#F7E7F1" transform="translate(301,78)"/>
<path d="M0 0 C2.05078125 0.03255208 4.1015625 0.06510417 6.15234375 0.09765625 C4.81901042 0.76432292 3.48567708 1.43098958 2.15234375 2.09765625 C1.47171875 2.44828125 0.79109375 2.79890625 0.08984375 3.16015625 C-1.84765625 4.09765625 -1.84765625 4.09765625 -4.84765625 5.09765625 C-2.44354091 0.12915121 -2.44354091 0.12915121 0 0 Z " fill="#F1D9E6" transform="translate(378.84765625,68.90234375)"/>
<path d="M0 0 C0.33 1.32 0.66 2.64 1 4 C1.66 4 2.32 4 3 4 C3 5.98 3 7.96 3 10 C2.34 9.67 1.68 9.34 1 9 C1 8.01 1 7.02 1 6 C0.34 6 -0.32 6 -1 6 C-0.67 4.02 -0.34 2.04 0 0 Z " fill="#B13E6E" transform="translate(310,60)"/>
<path d="M0 0 C0 0.33 0 0.66 0 1 C-2.31 1 -4.62 1 -7 1 C-7 2.65 -7 4.3 -7 6 C-8.32 5.01 -9.64 4.02 -11 3 C-8.21756596 -1.17365106 -4.53441502 -0.22300402 0 0 Z " fill="#B35981" transform="translate(387,57)"/>
<path d="M0 0 C1.485 0.99 1.485 0.99 3 2 C3.66 1.67 4.32 1.34 5 1 C4.1875 3.4375 4.1875 3.4375 3 6 C2.01 6.33 1.02 6.66 0 7 C-1.04449911 3.86650268 -0.93423645 3.01031744 0 0 Z " fill="#F5F1F4" transform="translate(255,56)"/>
<path d="M0 0 C0.99 0.33 1.98 0.66 3 1 C2.67 3.64 2.34 6.28 2 9 C1.34 9 0.68 9 0 9 C0 6.03 0 3.06 0 0 Z " fill="#F9E9F5" transform="translate(223,57)"/>
<path d="M0 0 C1.32 0 2.64 0 4 0 C4 1.98 4 3.96 4 6 C3.01 6.495 3.01 6.495 2 7 C1.34 6.01 0.68 5.02 0 4 C-0.66 3.67 -1.32 3.34 -2 3 C-1.34 2.01 -0.68 1.02 0 0 Z " fill="#BD4B7D" transform="translate(14,27)"/>
<path d="M0 0 C0.99 0.33 1.98 0.66 3 1 C3 3.31 3 5.62 3 8 C2.67 7.34 2.34 6.68 2 6 C-0.02463255 5.34786708 -0.02463255 5.34786708 -2 5 C-1 2 -1 2 0 0 Z " fill="#BC3D77" transform="translate(307,80)"/>
<path d="M0 0 C0.66 1.32 1.32 2.64 2 4 C-0.91482778 4.80967438 -2.46113217 5.21845993 -5.3125 4.0625 C-5.869375 3.711875 -6.42625 3.36125 -7 3 C-4.69 2.01 -2.38 1.02 0 0 Z " fill="#9C528E" transform="translate(67,73)"/>
<path d="M0 0 C0.33 0 0.66 0 1 0 C1 2.97 1 5.94 1 9 C-0.32 9.33 -1.64 9.66 -3 10 C-2.01 6.7 -1.02 3.4 0 0 Z " fill="#EFD3E0" transform="translate(361,45)"/>
<path d="M0 0 C0.81210938 0.29003906 1.62421875 0.58007812 2.4609375 0.87890625 C3.27820313 1.16636719 4.09546875 1.45382813 4.9375 1.75 C5.56398438 1.97816406 6.19046875 2.20632813 6.8359375 2.44140625 C6.8359375 2.77140625 6.8359375 3.10140625 6.8359375 3.44140625 C2.77987585 2.97339914 -0.62994929 2.56187417 -4.1640625 0.44140625 C-2.1640625 -0.55859375 -2.1640625 -0.55859375 0 0 Z " fill="#A7738A" transform="translate(83.1640625,7.55859375)"/>
<path d="M0 0 C1.5 1.375 1.5 1.375 3 3 C3 3.66 3 4.32 3 5 C1.68 5.33 0.36 5.66 -1 6 C-1.66 5.01 -2.32 4.02 -3 3 C-2.01 2.01 -1.02 1.02 0 0 Z " fill="#F3E8F1" transform="translate(79,87)"/>
<path d="M0 0 C0.33 0 0.66 0 1 0 C2.125 6.625 2.125 6.625 1 10 C0.34 10 -0.32 10 -1 10 C-2.15837626 5.94568308 -1.83691257 3.78187881 0 0 Z " fill="#F0E4EC" transform="translate(3,75)"/>
<path d="M0 0 C0.598125 0.20625 1.19625 0.4125 1.8125 0.625 C-0.1875 3.625 -0.1875 3.625 -3.3125 4.3125 C-4.26125 4.415625 -5.21 4.51875 -6.1875 4.625 C-5.03076352 1.15479057 -3.91311293 -0.67081936 0 0 Z " fill="#AD3269" transform="translate(243.1875,58.375)"/>
<path d="M0 0 C0.99 0.33 1.98 0.66 3 1 C2.25 5.75 2.25 5.75 0 8 C0 5.36 0 2.72 0 0 Z " fill="#F8FBFC" transform="translate(0,46)"/>
<path d="M0 0 C1.98 0.66 3.96 1.32 6 2 C5.67 3.32 5.34 4.64 5 6 C4.01 5.67 3.02 5.34 2 5 C0.8125 2.4375 0.8125 2.4375 0 0 Z " fill="#F2E3F1" transform="translate(114,37)"/>
<path d="M0 0 C2.62187494 1.04874998 3.79371361 1.64931313 5.25 4.125 C5.4975 4.74375 5.745 5.3625 6 6 C3 6 3 6 1.3125 4.6875 C0 3 0 3 0 0 Z " fill="#F4E0EE" transform="translate(59,32)"/>
<path d="M0 0 C2.125 0.9375 2.125 0.9375 4 2 C3.67 2.99 3.34 3.98 3 5 C2.01 5 1.02 5 0 5 C0 4.34 0 3.68 0 3 C-0.66 3 -1.32 3 -2 3 C-2 2.34 -2 1.68 -2 1 C-1.34 0.67 -0.68 0.34 0 0 Z " fill="#EAE2EA" transform="translate(33,29)"/>
<path d="M0 0 C0.66 0.33 1.32 0.66 2 1 C1.67 1.66 1.34 2.32 1 3 C2.32 3.33 3.64 3.66 5 4 C2.6875 4.6875 2.6875 4.6875 0 5 C-1.8125 3.5625 -1.8125 3.5625 -3 2 C-2.01 1.34 -1.02 0.68 0 0 Z " fill="#C1316E" transform="translate(28,17)"/>
<path d="M0 0 C2.64 0 5.28 0 8 0 C8 0.66 8 1.32 8 2 C5.36 2.33 2.72 2.66 0 3 C0 2.01 0 1.02 0 0 Z " fill="#FDF8FD" transform="translate(64,9)"/>
<path d="M0 0 C0.33 0.66 0.66 1.32 1 2 C-0.625 3.5625 -0.625 3.5625 -3 5 C-6.25 4.6875 -6.25 4.6875 -9 4 C-6.06279492 2.47700477 -3.0831351 1.19899698 0 0 Z " fill="#E7CBE2" transform="translate(90,111)"/>
<path d="M0 0 C2.375 -0.1875 2.375 -0.1875 5 0 C5.66 0.99 6.32 1.98 7 3 C5.68 3.33 4.36 3.66 3 4 C2.01 2.68 1.02 1.36 0 0 Z " fill="#B9517D" transform="translate(18,104)"/>
<path d="M0 0 C0.33 0.66 0.66 1.32 1 2 C1.66 2 2.32 2 3 2 C3.33 3.32 3.66 4.64 4 6 C3.01 6.33 2.02 6.66 1 7 C1 6.01 1 5.02 1 4 C0.34 3.67 -0.32 3.34 -1 3 C-0.67 2.01 -0.34 1.02 0 0 Z " fill="#F0EDF1" transform="translate(308,89)"/>
<path d="M0 0 C0 0.99 0 1.98 0 3 C-2.27837542 5.27837542 -3.50812237 5.96646289 -6.75 6.1875 C-7.86375 6.0946875 -7.86375 6.0946875 -9 6 C-6 4 -3 2 0 0 Z " fill="#EFD1E2" transform="translate(284,88)"/>
<path d="M0 0 C1.32 0.33 2.64 0.66 4 1 C2.71937515 2.7074998 1.38232443 4.37373596 0 6 C-0.66 6 -1.32 6 -2 6 C-2 5.34 -2 4.68 -2 4 C-1.34 4 -0.68 4 0 4 C0 2.68 0 1.36 0 0 Z " fill="#AC4470" transform="translate(282,85)"/>
<path d="M0 0 C1.10844919 3.32534757 0.84454356 5.62182575 0 9 C-0.66 8.67 -1.32 8.34 -2 8 C-2 6.02 -2 4.04 -2 2 C-1.34 2 -0.68 2 0 2 C0 1.34 0 0.68 0 0 Z " fill="#F7E2F0" transform="translate(240,80)"/>
<path d="M0 0 C0.66 0 1.32 0 2 0 C1.25 4.75 1.25 4.75 -1 7 C-1.625 4.625 -1.625 4.625 -2 2 C-1.34 1.34 -0.68 0.68 0 0 Z " fill="#B24775" transform="translate(184,63)"/>
<path d="M0 0 C0.33 0 0.66 0 1 0 C1 2.31 1 4.62 1 7 C0.01 7.495 0.01 7.495 -1 8 C-1.66 7.67 -2.32 7.34 -3 7 C-2.1654738 4.49642139 -1.20628008 2.33214148 0 0 Z " fill="#F4EFF5" transform="translate(172,58)"/>
<path d="M0 0 C0.66 0 1.32 0 2 0 C1.8125 1.875 1.8125 1.875 1 4 C-1.5625 5.25 -1.5625 5.25 -4 6 C-2.84826645 3.53199953 -1.95216435 1.95216435 0 0 Z " fill="#F1CCE0" transform="translate(32,23)"/>
<path d="M0 0 C0.99 0.33 1.98 0.66 3 1 C2.01 1.495 2.01 1.495 1 2 C1.33 2.99 1.66 3.98 2 5 C-0.97 4.505 -0.97 4.505 -4 4 C-2.68 2.68 -1.36 1.36 0 0 Z " fill="#AB3467" transform="translate(34,11)"/>
</svg>
