<?xml version="1.0" encoding="UTF-8"?>
<svg version="1.1" xmlns="http://www.w3.org/2000/svg" width="432" height="117">
<path d="M0 0 C142.56 0 285.12 0 432 0 C432 38.61 432 77.22 432 117 C289.44 117 146.88 117 0 117 C0 78.39 0 39.78 0 0 Z " fill="#FBFCFD" transform="translate(0,0)"/>
<path d="M0 0 C37.29 0 74.58 0 113 0 C113 37.29 113 74.58 113 113 C105.41 113 97.82 113 90 113 C92 102 92 102 93 97 C94.14968607 74.73588708 89.06113679 55.41711731 74.8125 37.875 C70.22343062 32.80176275 64.55404097 28.93981232 59 25 C59.43828125 25.57621094 59.8765625 26.15242188 60.328125 26.74609375 C61.86540989 28.81855492 63.33614495 30.90429185 64.75 33.0625 C65.42289063 34.06990234 65.42289063 34.06990234 66.109375 35.09765625 C67 37 67 37 66 40 C65.7215625 39.1028125 65.7215625 39.1028125 65.4375 38.1875 C63.34417638 35.00200754 60.44836593 34.44204394 57 33 C56.67 32.01 56.34 31.02 56 30 C57.32 30 58.64 30 60 30 C58.90398831 28.99106869 57.79786082 27.99311775 56.6875 27 C56.07261719 26.443125 55.45773437 25.88625 54.82421875 25.3125 C52.96868665 23.70798502 52.96868665 23.70798502 50 24 C50.44472656 24.61488281 50.88945312 25.22976562 51.34765625 25.86328125 C51.91355469 26.67152344 52.47945313 27.47976562 53.0625 28.3125 C53.63097656 29.11300781 54.19945312 29.91351562 54.78515625 30.73828125 C55.18605469 31.48464844 55.58695312 32.23101562 56 33 C55.67 33.99 55.34 34.98 55 36 C54.505 34.02 54.505 34.02 54 32 C53.07767578 31.90912109 53.07767578 31.90912109 52.13671875 31.81640625 C51.32847656 31.73261719 50.52023437 31.64882813 49.6875 31.5625 C48.88699219 31.48128906 48.08648437 31.40007813 47.26171875 31.31640625 C45 31 45 31 42 30 C42.495 31.485 42.495 31.485 43 33 C44.50460762 47.74515472 38.8976682 60.16795263 29.77197266 71.52880859 C21.34018544 81.63881265 11.94754823 88.48379156 0 94 C0.33 93.01 0.66 92.02 1 91 C1.99 91 2.98 91 4 91 C3.71125 90.41992188 3.4225 89.83984375 3.125 89.2421875 C0.94184832 84.64847252 -0.52007435 81.20074351 0 76 C0 75.67 0 75.34 0 75 C0 71 0 67 0 63 C1.175625 64.2375 1.175625 64.2375 2.375 65.5 C4.63721264 68.22988506 4.63721264 68.22988506 7 68 C6.40716379 64.60807637 5.23256811 62.7892243 2.9375 60.25 C2.38964844 59.63640625 1.84179688 59.0228125 1.27734375 58.390625 C0.85582031 57.93171875 0.43429687 57.4728125 0 57 C1.65 55.68 3.3 54.36 5 53 C5.79664063 53.66708984 5.79664063 53.66708984 6.609375 54.34765625 C7.31578125 54.91355469 8.0221875 55.47945312 8.75 56.0625 C9.44609375 56.63097656 10.1421875 57.19945312 10.859375 57.78515625 C12.92531301 59.24492279 12.92531301 59.24492279 15.265625 58.68359375 C16.12414062 58.34521484 16.12414062 58.34521484 17 58 C13.80331012 55.3513141 10.60513403 53.06007659 7 51 C7.33 49.68 7.66 48.36 8 47 C12.86896303 47.59619955 17.32790951 48.56976822 22 50 C22.66 48.68 23.32 47.36 24 46 C22.783125 45.87625 21.56625 45.7525 20.3125 45.625 C16.93520941 45.21108694 14.10243305 44.45426549 11 43 C11 42.01 11 41.02 11 40 C16.4185766 39.77422598 20.77487721 40.53329887 26 42 C26 40.35 26 38.7 26 37 C21.38 37 16.76 37 12 37 C12 36.01 12 35.02 12 34 C16.95 34 21.9 34 27 34 C27.33 33.01 27.66 32.02 28 31 C28.33 31.99 28.66 32.98 29 34 C32.96 34.33 36.92 34.66 41 35 C40.505 33.02 40.505 33.02 40 31 C36.37 30.67 32.74 30.34 29 30 C29 29.01 29 28.02 29 27 C31.97 27 34.94 27 38 27 C37.34 26.01 36.68 25.02 36 24 C33.56306689 23.63583953 33.56306689 23.63583953 30.875 23.8125 C29.96492188 23.83957031 29.05484375 23.86664062 28.1171875 23.89453125 C27.41851562 23.92933594 26.71984375 23.96414062 26 24 C26.33 25.98 26.66 27.96 27 30 C22.05 30.33 17.1 30.66 12 31 C11.7525 32.485 11.505 33.97 11.25 35.5 C10.00411553 41.72058629 8.43037206 47.37975196 3 51 C1.5 49.75 1.5 49.75 0 48 C0 46.68 0 45.36 0 44 C2.31 44.33 4.62 44.66 7 45 C7 44.01 7 43.02 7 42 C4.69 42 2.38 42 0 42 C0 41.34 0 40.68 0 40 C2.97 40 5.94 40 9 40 C9 39.01 9 38.02 9 37 C6.03 37 3.06 37 0 37 C3.76687864 35.11656068 5.02958963 34.77942165 9 35 C9 34.01 9 33.02 9 32 C7.68 31.67 6.36 31.34 5 31 C5.99 30.34 6.98 29.68 8 29 C5.36 29.66 2.72 30.32 0 31 C0.99 29.515 0.99 29.515 2 28 C1.34 27.67 0.68 27.34 0 27 C0.99 25.515 0.99 25.515 2 24 C1.34 23.34 0.68 22.68 0 22 C4.31392226 22.4793247 6.16569547 23.7457985 9 27 C9.33 26.34 9.66 25.68 10 25 C13.6128101 23.55487596 16.06687842 23 20 23 C19.67 22.34 19.34 21.68 19 21 C13.44946714 21.74359673 13.44946714 21.74359673 8 23 C9.375 21.5 9.375 21.5 11 20 C11.66 20 12.32 20 13 20 C13 19.34 13 18.68 13 18 C11.906875 18.33 10.81375 18.66 9.6875 19 C6 20 6 20 3 20 C3 19.01 3 18.02 3 17 C6.96 16.505 6.96 16.505 11 16 C11 15.67 11 15.34 11 15 C20.84433694 14.55025872 28.695459 15.37434319 37 21 C37.66 20.34 38.32 19.68 39 19 C38.30132812 18.80664062 37.60265625 18.61328125 36.8828125 18.4140625 C35.97273438 18.15367188 35.06265625 17.89328125 34.125 17.625 C32.76761719 17.24214844 32.76761719 17.24214844 31.3828125 16.8515625 C29 16 29 16 27 14 C17.82231148 13.20194013 9.00691369 14.22085656 0 16 C0 10.72 0 5.44 0 0 Z " fill="#265CA6" transform="translate(306,2)"/>
<path d="M0 0 C3.35530407 5.81138664 2.68934545 12.11255301 1.171875 18.46875 C-0.25827837 23.20746712 -1.78302308 27.56604616 -4 32 C-1.03 34.31 1.94 36.62 5 39 C7.37158027 36.9714169 7.37158027 36.9714169 8 33 C5.36 31.02 2.72 29.04 0 27 C0.66 24.36 1.32 21.72 2 19 C5.95820859 19.56545837 8.6659053 20.80902348 12 23 C12 20.03 12 17.06 12 14 C11.236875 13.71125 10.47375 13.4225 9.6875 13.125 C7 12 7 12 4 10 C4 8.68 4 7.36 4 6 C6.31 6.66 8.62 7.32 11 8 C11.33 7.01 11.66 6.02 12 5 C14.42011709 11.01306015 13.91636933 16.17349893 13.484375 22.5390625 C13.64376136 26.27291559 13.64376136 26.27291559 17.015625 28.4609375 C18.00046875 28.96882813 18.9853125 29.47671875 20 30 C20.28516646 26.62236173 20.46516061 23.36557385 20 20 C17.57327433 18.21030974 17.57327433 18.21030974 15 17 C14.6875 13.8125 14.6875 13.8125 15 11 C16.32 11.33 17.64 11.66 19 12 C19 10.02 19 8.04 19 6 C21.79872437 8.52788007 23.45773019 10.20411134 24 14 C24.66 14 25.32 14 26 14 C31.41798222 27.41595597 29.90602253 41.68159177 25 55 C22.95805462 59.5438339 20.61269948 63.76273739 18 68 C17.24976563 69.39025391 17.24976563 69.39025391 16.484375 70.80859375 C14.82352 73.49699793 13.60770776 75.20095423 11 77 C6.23915675 77.73243742 1.77413955 77.53634578 -3 77 C-1.35 74.69 0.3 72.38 2 70 C1.54109375 70.5053125 1.0821875 71.010625 0.609375 71.53125 C-0.31101562 72.50578125 -0.31101562 72.50578125 -1.25 73.5 C-1.85328125 74.1496875 -2.4565625 74.799375 -3.078125 75.46875 C-5 77 -5 77 -9 77 C-11.08617534 74.54050908 -12.41010396 71.82648185 -14 69 C-10.7 65.7 -7.4 62.4 -4 59 C-2.35 60.65 -0.7 62.3 1 64 C1.99 64.66 2.98 65.32 4 66 C5.4606285 63.35261084 6 62.10551666 6 59 C5.0206121 57.97980427 4.02104551 56.97850195 3 56 C3 55.34 3 54.68 3 54 C-1.10113204 53.54175043 -1.10113204 53.54175043 -3.55078125 56.4140625 C-4.48122663 57.47580387 -5.40135483 58.54665042 -6.3125 59.625 C-10.28673433 64.15822555 -14.27820984 68.22256787 -19 72 C-18.34 73.98 -17.68 75.96 -17 78 C-18.299375 77.979375 -19.59875 77.95875 -20.9375 77.9375 C-22.29165633 77.91600546 -23.64756083 77.92851801 -25 78 C-25.33 78.33 -25.66 78.66 -26 79 C-28.78106538 79.10222294 -31.53145978 79.14063951 -34.3125 79.125 C-35.52752197 79.12209961 -35.52752197 79.12209961 -36.76708984 79.11914062 C-43.22071107 79.07308902 -49.57762304 78.65870533 -56 78 C-56 72.06 -56 66.12 -56 60 C-54.515 59.505 -54.515 59.505 -53 59 C-52.16151196 60.45537568 -51.32936066 61.91440373 -50.5 63.375 C-50.0359375 64.18710938 -49.571875 64.99921875 -49.09375 65.8359375 C-48 68 -48 68 -48 70 C-46.515 69.505 -46.515 69.505 -45 69 C-46.23035145 64.93037598 -47.78976481 61.61674849 -50 58 C-50 57.34 -50 56.68 -50 56 C-47.91796875 54.4921875 -47.91796875 54.4921875 -45.1875 52.875 C-44.29417969 52.33617187 -43.40085937 51.79734375 -42.48046875 51.2421875 C-40 50 -40 50 -37 50 C-35.39453125 51.75 -35.39453125 51.75 -33.8125 54 C-33.28269531 54.7425 -32.75289063 55.485 -32.20703125 56.25 C-31.80871094 56.8275 -31.41039062 57.405 -31 58 C-29.02 57.505 -29.02 57.505 -27 57 C-27.61198376 53.56049636 -28.92058847 51.48435515 -31.0625 48.75 C-32.031875 47.5125 -33.00125 46.275 -34 45 C-31.36 42.36 -28.72 39.72 -26 37 C-24.30729167 38.49739583 -22.61458333 39.99479167 -20.921875 41.4921875 C-19.02581254 42.9797487 -17.18709995 44.00322436 -15 45 C-14.34 43.35 -13.68 41.7 -13 40 C-15.97 37.69 -18.94 35.38 -22 33 C-20 28 -20 28 -16 24 C-12.37 26.31 -8.74 28.62 -5 31 C-4.34 28.69 -3.68 26.38 -3 24 C-3.70125 23.7525 -4.4025 23.505 -5.125 23.25 C-8.37002459 21.83911974 -11.10316737 20.02104602 -14 18 C-13.67 16.02 -13.34 14.04 -13 12 C-8.15340923 12.59104765 -4.39251833 13.97944157 0 16 C0 13.69 0 11.38 0 9 C-3.63 7.68 -7.26 6.36 -11 5 C-11 3.68 -11 2.36 -11 1 C-6.05 1.99 -6.05 1.99 -1 3 C-0.67 2.01 -0.34 1.02 0 0 Z " fill="#E8ECF4" transform="translate(362,38)"/>
<path d="M0 0 C2.59853524 0.39160169 4.97301599 0.88763951 7.5 1.5625 C8.22324463 1.75521484 8.94648926 1.94792969 9.69165039 2.14648438 C21.64388798 5.46573509 28.63976883 10.10502542 35 21 C35.74609375 23.875 35.74609375 23.875 36 26 C35.278125 25.21625 34.55625 24.4325 33.8125 23.625 C31.12239567 21.11423596 29.33469476 20.29682574 26 19 C25.505 17.515 25.505 17.515 25 16 C26.32 16 27.64 16 29 16 C27.90398831 14.99106869 26.79786082 13.99311775 25.6875 13 C24.76517578 12.1646875 24.76517578 12.1646875 23.82421875 11.3125 C21.96868665 9.70798502 21.96868665 9.70798502 19 10 C19.44472656 10.61488281 19.88945312 11.22976562 20.34765625 11.86328125 C20.91355469 12.67152344 21.47945313 13.47976562 22.0625 14.3125 C22.63097656 15.11300781 23.19945312 15.91351563 23.78515625 16.73828125 C24.18605469 17.48464844 24.58695312 18.23101562 25 19 C24.505 20.485 24.505 20.485 24 22 C23.505 20.02 23.505 20.02 23 18 C22.07767578 17.90912109 22.07767578 17.90912109 21.13671875 17.81640625 C20.32847656 17.73261719 19.52023437 17.64882813 18.6875 17.5625 C17.88699219 17.48128906 17.08648437 17.40007813 16.26171875 17.31640625 C14 17 14 17 11 16 C11.495 17.485 11.495 17.485 12 19 C13.50460762 33.74515472 7.8976682 46.16795263 -1.22802734 57.52880859 C-9.65981456 67.63881265 -19.05245177 74.48379156 -31 80 C-30.67 79.01 -30.34 78.02 -30 77 C-29.01 77 -28.02 77 -27 77 C-27.28875 76.41992188 -27.5775 75.83984375 -27.875 75.2421875 C-30.05815168 70.64847252 -31.52007435 67.20074351 -31 62 C-31 61.67 -31 61.34 -31 61 C-31 57 -31 53 -31 49 C-30.21625 49.825 -29.4325 50.65 -28.625 51.5 C-26.36278736 54.22988506 -26.36278736 54.22988506 -24 54 C-24.59283621 50.60807637 -25.76743189 48.7892243 -28.0625 46.25 C-28.61035156 45.63640625 -29.15820312 45.0228125 -29.72265625 44.390625 C-30.14417969 43.93171875 -30.56570313 43.4728125 -31 43 C-29.35 41.68 -27.7 40.36 -26 39 C-25.20335937 39.66708984 -25.20335937 39.66708984 -24.390625 40.34765625 C-23.68421875 40.91355469 -22.9778125 41.47945312 -22.25 42.0625 C-21.55390625 42.63097656 -20.8578125 43.19945312 -20.140625 43.78515625 C-18.07468699 45.24492279 -18.07468699 45.24492279 -15.734375 44.68359375 C-14.87585938 44.34521484 -14.87585938 44.34521484 -14 44 C-17.19668988 41.3513141 -20.39486597 39.06007659 -24 37 C-23.67 35.68 -23.34 34.36 -23 33 C-18.13103697 33.59619955 -13.67209049 34.56976822 -9 36 C-8.34 34.68 -7.68 33.36 -7 32 C-8.8253125 31.814375 -8.8253125 31.814375 -10.6875 31.625 C-14.06479059 31.21108694 -16.89756695 30.45426549 -20 29 C-20 28.01 -20 27.02 -20 26 C-14.5814234 25.77422598 -10.22512279 26.53329887 -5 28 C-5 26.35 -5 24.7 -5 23 C-9.62 23 -14.24 23 -19 23 C-19 22.01 -19 21.02 -19 20 C-14.05 20 -9.1 20 -4 20 C-3.67 19.01 -3.34 18.02 -3 17 C-2.67 17.99 -2.34 18.98 -2 20 C1.96 20.33 5.92 20.66 10 21 C9.505 19.02 9.505 19.02 9 17 C5.37 16.67 1.74 16.34 -2 16 C-2 15.01 -2 14.02 -2 13 C0.97 13 3.94 13 7 13 C6.34 12.01 5.68 11.02 5 10 C2.56306689 9.63583953 2.56306689 9.63583953 -0.125 9.8125 C-1.49011719 9.85310547 -1.49011719 9.85310547 -2.8828125 9.89453125 C-3.58148438 9.92933594 -4.28015625 9.96414062 -5 10 C-4.67 11.98 -4.34 13.96 -4 16 C-8.95 16.33 -13.9 16.66 -19 17 C-19.2475 18.485 -19.495 19.97 -19.75 21.5 C-20.99588447 27.72058629 -22.56962794 33.37975196 -28 37 C-29.5 35.75 -29.5 35.75 -31 34 C-31 32.68 -31 31.36 -31 30 C-28.69 30.33 -26.38 30.66 -24 31 C-24 30.01 -24 29.02 -24 28 C-26.31 28 -28.62 28 -31 28 C-31 27.34 -31 26.68 -31 26 C-28.03 26 -25.06 26 -22 26 C-22 25.01 -22 24.02 -22 23 C-24.97 23 -27.94 23 -31 23 C-27.23312136 21.11656068 -25.97041037 20.77942165 -22 21 C-22 20.01 -22 19.02 -22 18 C-23.32 17.67 -24.64 17.34 -26 17 C-25.01 16.34 -24.02 15.68 -23 15 C-25.64 15.66 -28.28 16.32 -31 17 C-30.01 15.515 -30.01 15.515 -29 14 C-29.66 13.67 -30.32 13.34 -31 13 C-30.34 12.01 -29.68 11.02 -29 10 C-29.66 9.34 -30.32 8.68 -31 8 C-26.68607774 8.4793247 -24.83430453 9.7457985 -22 13 C-21.67 12.34 -21.34 11.68 -21 11 C-17.3871899 9.55487596 -14.93312158 9 -11 9 C-11.33 8.34 -11.66 7.68 -12 7 C-17.55053286 7.74359673 -17.55053286 7.74359673 -23 9 C-21.625 7.5 -21.625 7.5 -20 6 C-19.34 6 -18.68 6 -18 6 C-18 5.34 -18 4.68 -18 4 C-19.093125 4.33 -20.18625 4.66 -21.3125 5 C-25 6 -25 6 -28 6 C-28 5.01 -28 4.02 -28 3 C-25.36 2.67 -22.72 2.34 -20 2 C-20 1.67 -20 1.34 -20 1 C-10.15566306 0.55025872 -2.304541 1.37434319 6 7 C6.66 6.34 7.32 5.68 8 5 C4.7 4.01 1.4 3.02 -2 2 C-1.34 1.34 -0.68 0.68 0 0 Z " fill="#F1F4F8" transform="translate(337,16)"/>
<path d="M0 0 C1.27230469 0.00902344 2.54460937 0.01804688 3.85546875 0.02734375 C5.31919922 0.04474609 5.31919922 0.04474609 6.8125 0.0625 C6.82280746 0.60929413 6.83311493 1.15608826 6.84373474 1.7194519 C6.95169328 7.39691385 7.06629974 13.07421364 7.18481445 18.75146484 C7.22819752 20.87187313 7.26987007 22.99231712 7.30981445 25.11279297 C7.36743543 28.15603408 7.43115325 31.1990949 7.49609375 34.2421875 C7.51280624 35.19431122 7.52951874 36.14643494 7.54673767 37.12741089 C7.5766555 38.44855392 7.5766555 38.44855392 7.60717773 39.79638672 C7.63049416 40.96220779 7.63049416 40.96220779 7.65428162 42.15158081 C7.70033251 44.14806935 7.70033251 44.14806935 8.8125 46.0625 C9.8025 46.7225 10.7925 47.3825 11.8125 48.0625 C-17.51829303 50.17100374 -17.51829303 50.17100374 -25.1875 46.0625 C-28.93418958 42.625687 -31.00721112 39.27621106 -31.42578125 34.13671875 C-31.67439823 22.79193327 -31.67439823 22.79193327 -27.1875 18.0625 C-23.0914687 14.45409147 -20.74437921 12.91529584 -15.3125 12.875 C-14.01699219 12.85373047 -14.01699219 12.85373047 -12.6953125 12.83203125 C-10.0633712 13.07390748 -8.44769456 13.73266459 -6.1875 15.0625 C-6.07934775 13.29300905 -6.00183917 11.52162513 -5.9375 9.75 C-5.86789062 8.27080078 -5.86789062 8.27080078 -5.796875 6.76171875 C-5.91846572 3.91846306 -5.91846572 3.91846306 -8.203125 2.20703125 C-8.85796875 1.82933594 -9.5128125 1.45164063 -10.1875 1.0625 C-6.62704823 -0.12431726 -3.74941663 -0.03439832 0 0 Z " fill="#275EA6" transform="translate(269.1875,1.9375)"/>
<path d="M0 0 C2.97 0 5.94 0 9 0 C11.7390072 6.42144191 14.37028834 12.87421209 16.82421875 19.41015625 C17.05932159 20.03626801 17.29442444 20.66237976 17.53665161 21.3074646 C18.50219031 23.88474728 19.46457678 26.46318603 20.42407227 29.04272461 C21.13750892 30.9581134 21.85558007 32.87171432 22.57421875 34.78515625 C22.99276123 35.90801025 23.41130371 37.03086426 23.8425293 38.18774414 C24.94756148 41.13396836 24.94756148 41.13396836 27 44 C29.5 44.5 29.5 44.5 32 44 C34.26598448 40.60102327 34.23742654 39.43680827 34.1953125 35.45703125 C34.18564453 33.84731445 34.18564453 33.84731445 34.17578125 32.20507812 C34.15902344 31.08552734 34.14226563 29.96597656 34.125 28.8125 C34.11597656 27.68134766 34.10695312 26.55019531 34.09765625 25.38476562 C34.07406862 22.58963172 34.041153 19.79492155 34 17 C32.68 16.34 31.36 15.68 30 15 C30 14.34 30 13.68 30 13 C37.92 12.505 37.92 12.505 46 12 C46.05607422 15.30451172 46.05607422 15.30451172 46.11328125 18.67578125 C46.1594998 20.81056621 46.21073195 22.94517605 46.26245117 25.07983398 C46.29569423 26.56279854 46.32372823 28.04588944 46.34643555 29.52905273 C46.37999468 31.66184293 46.43230638 33.79347612 46.48828125 35.92578125 C46.51446533 37.20880127 46.54064941 38.49182129 46.56762695 39.8137207 C46.71613369 43.32173684 46.71613369 43.32173684 50 46 C35.48 46 20.96 46 6 46 C7.32 45.01 8.64 44.02 10 43 C9.855625 41.7625 9.71125 40.525 9.5625 39.25 C9.48128906 38.55390625 9.40007813 37.8578125 9.31640625 37.140625 C8.98698863 34.67008077 8.98698863 34.67008077 8 31 C3.05 31.33 -1.9 31.66 -7 32 C-8.77405355 36.43513389 -9.49640433 38.43308015 -9 43 C-8.01 43.99 -7.02 44.98 -6 46 C-11.28 46 -16.56 46 -22 46 C-20.35 44.68 -18.7 43.36 -17 42 C-15.71194142 40.20073609 -15.71194142 40.20073609 -14.88964844 38.26367188 C-14.56830933 37.5662085 -14.24697021 36.86874512 -13.91589355 36.15014648 C-12.45497521 32.72050291 -11.07587979 29.27119315 -9.765625 25.78125 C-9.48273621 25.03790405 -9.19984741 24.29455811 -8.90838623 23.52868652 C-8.01834128 21.18725479 -7.13407482 18.84369153 -6.25 16.5 C-5.64231032 14.89829205 -5.03424074 13.29672818 -4.42578125 11.6953125 C-2.94613036 7.79852435 -1.47165248 3.89981547 0 0 Z " fill="#245CA6" transform="translate(22,69)"/>
<path d="M0 0 C7.26 0 14.52 0 22 0 C20.68 0.99 19.36 1.98 18 3 C17.60610534 5.68040047 17.46203945 7.94612535 17.50390625 10.625 C17.50245102 11.36830566 17.50099579 12.11161133 17.49949646 12.87744141 C17.50115508 14.44763105 17.51271253 16.01783701 17.53344727 17.58789062 C17.56239868 19.99158769 17.55405834 22.39307869 17.54101562 24.796875 C17.54725336 26.32292739 17.55564458 27.84897281 17.56640625 29.375 C17.56347061 30.09381348 17.56053497 30.81262695 17.55751038 31.55322266 C17.61233986 34.45285154 17.66548396 36.50704203 19.32006836 38.9453125 C22.29309611 40.81182607 24.59655046 40.46148468 28 40 C32.85108281 36.86503101 32.85108281 36.86503101 34.76049805 31.63427734 C34.76090088 30.3808252 34.76130371 29.12737305 34.76171875 27.8359375 C34.76508743 27.16204987 34.76845612 26.48816223 34.77192688 25.79385376 C34.77162919 24.37681402 34.75648775 22.95970778 34.72729492 21.54296875 C34.68746349 19.37301113 34.70663456 17.20912634 34.73242188 15.0390625 C34.72486568 13.65883048 34.7139151 12.27861197 34.69921875 10.8984375 C34.68721436 9.64724121 34.67520996 8.39604492 34.6628418 7.10693359 C34.31695067 3.79899598 34.31695067 3.79899598 31.45629883 2.13134766 C30.64572021 1.75800293 29.8351416 1.3846582 29 1 C29 0.67 29 0.34 29 0 C36.26 0 43.52 0 51 0 C50.01 0.33 49.02 0.66 48 1 C48 13.87 48 26.74 48 40 C49.32 40.66 50.64 41.32 52 42 C52 42.66 52 43.32 52 44 C46.39 44 40.78 44 35 44 C34.505 42.02 34.505 42.02 34 40 C33.236875 40.639375 32.47375 41.27875 31.6875 41.9375 C27.03306307 45.50950974 22.64863721 45.50753146 17 45 C11.18030345 43.28271249 8.8973926 41.27630441 6 36 C5.50170898 32.52075195 5.50170898 32.52075195 5.49609375 28.73828125 C5.48667252 28.06580856 5.47725128 27.39333588 5.46754456 26.70048523 C5.43906845 24.57084035 5.43581101 22.4423192 5.4375 20.3125 C5.4338898 18.17213512 5.42437477 16.03257581 5.39674377 13.89237976 C5.37230046 11.9587402 5.37002289 10.02485817 5.36889648 8.09106445 C5.27276323 5.03236531 5.27276323 5.03236531 3.60180664 3.19604492 C3.07321045 2.8013501 2.54461426 2.40665527 2 2 C1.34 1.34 0.68 0.68 0 0 Z " fill="#285FA7" transform="translate(39,6)"/>
<path d="M0 0 C2.59853524 0.39160169 4.97301599 0.88763951 7.5 1.5625 C8.22324463 1.75521484 8.94648926 1.94792969 9.69165039 2.14648438 C21.64388798 5.46573509 28.63976883 10.10502542 35 21 C35.74609375 23.875 35.74609375 23.875 36 26 C35.278125 25.21625 34.55625 24.4325 33.8125 23.625 C31.12239567 21.11423596 29.33469476 20.29682574 26 19 C25.505 17.515 25.505 17.515 25 16 C26.32 16 27.64 16 29 16 C27.90398831 14.99106869 26.79786082 13.99311775 25.6875 13 C24.76517578 12.1646875 24.76517578 12.1646875 23.82421875 11.3125 C21.96868665 9.70798502 21.96868665 9.70798502 19 10 C19.44472656 10.61488281 19.88945312 11.22976562 20.34765625 11.86328125 C20.91355469 12.67152344 21.47945313 13.47976562 22.0625 14.3125 C22.63097656 15.11300781 23.19945312 15.91351563 23.78515625 16.73828125 C24.18605469 17.48464844 24.58695312 18.23101562 25 19 C24.505 20.485 24.505 20.485 24 22 C23.505 20.02 23.505 20.02 23 18 C22.07767578 17.90912109 22.07767578 17.90912109 21.13671875 17.81640625 C20.32847656 17.73261719 19.52023437 17.64882813 18.6875 17.5625 C17.88699219 17.48128906 17.08648437 17.40007813 16.26171875 17.31640625 C14 17 14 17 11 16 C11.495 17.485 11.495 17.485 12 19 C13.43810388 33.09341799 8.44255144 44.85668274 0 56 C-0.99 56.495 -0.99 56.495 -2 57 C-1.67 55.35 -1.34 53.7 -1 52 C-3.97 49.69 -6.94 47.38 -10 45 C-8 40 -8 40 -6.203125 39.03515625 C-3.18503399 38.98699522 -1.39241385 40.01198726 1.25 41.4375 C2.14203125 41.91058594 3.0340625 42.38367187 3.953125 42.87109375 C4.62859375 43.24363281 5.3040625 43.61617187 6 44 C6.33 42.02 6.66 40.04 7 38 C6.37351562 37.79503906 5.74703125 37.59007812 5.1015625 37.37890625 C4.28429687 37.10949219 3.46703125 36.84007812 2.625 36.5625 C1.81289063 36.29566406 1.00078125 36.02882812 0.1640625 35.75390625 C-2 35 -2 35 -4 34 C-3.67 32.35 -3.34 30.7 -3 29 C-1.20767663 29.30871122 0.58384321 29.62209064 2.375 29.9375 C3.87160156 30.19853516 3.87160156 30.19853516 5.3984375 30.46484375 C8 31 8 31 10 32 C10 29.69 10 27.38 10 25 C9.06027344 24.90912109 9.06027344 24.90912109 8.1015625 24.81640625 C6.87566406 24.69072266 6.87566406 24.69072266 5.625 24.5625 C4.40683594 24.44068359 4.40683594 24.44068359 3.1640625 24.31640625 C1 24 1 24 -1 23 C-1 22.34 -1 21.68 -1 21 C2.63 21 6.26 21 10 21 C9.505 19.02 9.505 19.02 9 17 C5.37 16.67 1.74 16.34 -2 16 C-2 15.01 -2 14.02 -2 13 C0.97 13 3.94 13 7 13 C6.34 12.01 5.68 11.02 5 10 C2.56306689 9.63583953 2.56306689 9.63583953 -0.125 9.8125 C-1.49011719 9.85310547 -1.49011719 9.85310547 -2.8828125 9.89453125 C-3.58148438 9.92933594 -4.28015625 9.96414062 -5 10 C-4.67 11.98 -4.34 13.96 -4 16 C-8.95 16.33 -13.9 16.66 -19 17 C-19.2475 18.485 -19.495 19.97 -19.75 21.5 C-20.99588447 27.72058629 -22.56962794 33.37975196 -28 37 C-29.5 35.75 -29.5 35.75 -31 34 C-31 32.68 -31 31.36 -31 30 C-28.69 30.33 -26.38 30.66 -24 31 C-24 30.01 -24 29.02 -24 28 C-26.31 28 -28.62 28 -31 28 C-31 27.34 -31 26.68 -31 26 C-28.03 26 -25.06 26 -22 26 C-22 25.01 -22 24.02 -22 23 C-24.97 23 -27.94 23 -31 23 C-27.23312136 21.11656068 -25.97041037 20.77942165 -22 21 C-22 20.01 -22 19.02 -22 18 C-23.32 17.67 -24.64 17.34 -26 17 C-25.01 16.34 -24.02 15.68 -23 15 C-25.64 15.66 -28.28 16.32 -31 17 C-30.01 15.515 -30.01 15.515 -29 14 C-29.66 13.67 -30.32 13.34 -31 13 C-30.34 12.01 -29.68 11.02 -29 10 C-29.66 9.34 -30.32 8.68 -31 8 C-26.68607774 8.4793247 -24.83430453 9.7457985 -22 13 C-21.67 12.34 -21.34 11.68 -21 11 C-17.3871899 9.55487596 -14.93312158 9 -11 9 C-11.33 8.34 -11.66 7.68 -12 7 C-17.55053286 7.74359673 -17.55053286 7.74359673 -23 9 C-21.625 7.5 -21.625 7.5 -20 6 C-19.34 6 -18.68 6 -18 6 C-18 5.34 -18 4.68 -18 4 C-19.093125 4.33 -20.18625 4.66 -21.3125 5 C-25 6 -25 6 -28 6 C-28 5.01 -28 4.02 -28 3 C-25.36 2.67 -22.72 2.34 -20 2 C-20 1.67 -20 1.34 -20 1 C-10.15566306 0.55025872 -2.304541 1.37434319 6 7 C6.66 6.34 7.32 5.68 8 5 C4.7 4.01 1.4 3.02 -2 2 C-1.34 1.34 -0.68 0.68 0 0 Z " fill="#EAEEF5" transform="translate(337,16)"/>
<path d="M0 0 C2.5390625 2.24609375 2.5390625 2.24609375 5.078125 4.4921875 C6.97418746 5.9797487 8.81290005 7.00322436 11 8 C11 11 11 11 8.4453125 13.84765625 C7.34604242 14.9269638 6.23890355 15.99830153 5.125 17.0625 C4.56941406 17.60455078 4.01382813 18.14660156 3.44140625 18.70507812 C1.96660935 20.14256089 0.48373809 21.57174796 -1 23 C-1.66 23.66 -2.32 24.32 -3 25 C-2.21625 25.7425 -1.4325 26.485 -0.625 27.25 C1.56504531 29.54433318 2.82731386 31.12158858 4 34 C5.65 33.34 7.3 32.68 9 32 C8.62875 32.7425 8.2575 33.485 7.875 34.25 C6.70484137 36.94283647 6.70484137 36.94283647 7.875 39.3125 C8.24625 39.869375 8.6175 40.42625 9 41 C7.0509375 40.9690625 7.0509375 40.9690625 5.0625 40.9375 C3.70834367 40.91600546 2.35243917 40.92851801 1 41 C0.67 41.33 0.34 41.66 0 42 C-2.78106538 42.10222294 -5.53145978 42.14063951 -8.3125 42.125 C-9.12251465 42.12306641 -9.9325293 42.12113281 -10.76708984 42.11914062 C-17.22071107 42.07308902 -23.57762304 41.65870533 -30 41 C-30 35.06 -30 29.12 -30 23 C-29.01 22.67 -28.02 22.34 -27 22 C-26.16151196 23.45537568 -25.32936066 24.91440373 -24.5 26.375 C-24.0359375 27.18710938 -23.571875 27.99921875 -23.09375 28.8359375 C-22 31 -22 31 -22 33 C-20.515 32.505 -20.515 32.505 -19 32 C-20.23035145 27.93037598 -21.78976481 24.61674849 -24 21 C-24 20.34 -24 19.68 -24 19 C-21.91796875 17.4921875 -21.91796875 17.4921875 -19.1875 15.875 C-18.29417969 15.33617188 -17.40085937 14.79734375 -16.48046875 14.2421875 C-14 13 -14 13 -11 13 C-9.39453125 14.75 -9.39453125 14.75 -7.8125 17 C-7.28269531 17.7425 -6.75289063 18.485 -6.20703125 19.25 C-5.80871094 19.8275 -5.41039062 20.405 -5 21 C-3.68 20.67 -2.36 20.34 -1 20 C-1.61198376 16.56049636 -2.92058847 14.48435515 -5.0625 11.75 C-6.031875 10.5125 -7.00125 9.275 -8 8 C-5.36 5.36 -2.72 2.72 0 0 Z " fill="#E9EDF4" transform="translate(336,75)"/>
<path d="M0 0 C0 1.65 0 3.3 0 5 C0.556875 4.6390625 1.11375 4.278125 1.6875 3.90625 C7.09658578 0.61694108 10.66159315 -1.03908309 17 0 C20.00918619 1.77934488 22.41093767 3.82187535 24 7 C24.15266612 8.73868744 24.24932596 10.48247501 24.31640625 12.2265625 C24.35830078 13.2578125 24.40019531 14.2890625 24.44335938 15.3515625 C24.48267578 16.43179688 24.52199219 17.51203125 24.5625 18.625 C24.60568359 19.71296875 24.64886719 20.8009375 24.69335938 21.921875 C24.7996453 24.6144517 24.90168057 27.30712253 25 30 C26.32 30.66 27.64 31.32 29 32 C29 32.66 29 33.32 29 34 C22.07 34 15.14 34 8 34 C9.32 33.34 10.64 32.68 12 32 C12.08701039 28.39598519 12.14039388 24.79223988 12.1875 21.1875 C12.21263672 20.16333984 12.23777344 19.13917969 12.26367188 18.08398438 C12.27333984 17.10107422 12.28300781 16.11816406 12.29296875 15.10546875 C12.3086792 14.19949951 12.32438965 13.29353027 12.34057617 12.36010742 C12.17939601 9.94782135 12.17939601 9.94782135 10.66918945 8.1652832 C8.92671141 6.68462018 8.92671141 6.68462018 6 7.25 C2.97763019 7.96484744 2.97763019 7.96484744 0 9 C0.05208246 12.23045973 0.14720154 15.45828759 0.25 18.6875 C0.26417969 19.59951172 0.27835938 20.51152344 0.29296875 21.45117188 C0.32519531 22.33740234 0.35742188 23.22363281 0.390625 24.13671875 C0.41157227 24.94842529 0.43251953 25.76013184 0.45410156 26.59643555 C0.97973811 29.71990577 0.97973811 29.71990577 5 34 C-1.6 34 -8.2 34 -15 34 C-15 33.34 -15 32.68 -15 32 C-14.01 31.67 -13.02 31.34 -12 31 C-12 22.09 -12 13.18 -12 4 C-13.32 3.67 -14.64 3.34 -16 3 C-16 2.34 -16 1.68 -16 1 C-13.70839646 0.83246763 -11.41671509 0.66599948 -9.125 0.5 C-7.84882812 0.4071875 -6.57265625 0.314375 -5.2578125 0.21875 C-3.50763316 0.10123196 -1.75412035 0 0 0 Z " fill="#245CA6" transform="translate(111,16)"/>
<path d="M0 0 C2.64233769 2.19257809 4.46669809 3.93339618 6 7 C6.14049632 8.64250334 6.22570082 10.28993491 6.28125 11.9375 C6.33732422 13.40316406 6.33732422 13.40316406 6.39453125 14.8984375 C6.46484375 16.96614583 6.53515625 19.03385417 6.60546875 21.1015625 C6.66154297 22.56722656 6.66154297 22.56722656 6.71875 24.0625 C6.74904297 24.96097656 6.77933594 25.85945313 6.81054688 26.78515625 C6.86607457 29.03994695 6.86607457 29.03994695 8 31 C8.99 31.66 9.98 32.32 11 33 C4.07 33 -2.86 33 -10 33 C-8.68 31.68 -7.36 30.36 -6 29 C-5.42479528 26.72957002 -5.42479528 26.72957002 -5.5390625 24.3046875 C-5.54486328 22.98404297 -5.54486328 22.98404297 -5.55078125 21.63671875 C-5.57527344 20.72535156 -5.59976563 19.81398438 -5.625 18.875 C-5.62628906 17.95589844 -5.62757813 17.03679687 -5.62890625 16.08984375 C-5.40823865 11.01702644 -5.40823865 11.01702644 -8 7 C-11.5 6.66666667 -11.5 6.66666667 -15 7 C-17.18511386 8.77302166 -17.18511386 8.77302166 -17.24291992 11.03125 C-17.23881104 11.8459375 -17.23470215 12.660625 -17.23046875 13.5 C-17.22756836 14.8303125 -17.22756836 14.8303125 -17.22460938 16.1875 C-17.21236328 17.115625 -17.20011719 18.04375 -17.1875 19 C-17.18685547 19.928125 -17.18621094 20.85625 -17.18554688 21.8125 C-17.329909 26.56382549 -17.329909 26.56382549 -16 31 C-15.01 31.66 -14.02 32.32 -13 33 C-19.6 33 -26.2 33 -33 33 C-32.01 32.01 -31.02 31.02 -30 30 C-29.35114885 25.69680348 -29.53684973 21.34655449 -29.5625 17 C-29.54251953 15.79859375 -29.52253906 14.5971875 -29.50195312 13.359375 C-29.50259766 12.20953125 -29.50324219 11.0596875 -29.50390625 9.875 C-29.50205322 8.82054688 -29.5002002 7.76609375 -29.49829102 6.6796875 C-29.75012036 3.8555594 -29.75012036 3.8555594 -32.03100586 2.1328125 C-32.68077393 1.75898437 -33.33054199 1.38515625 -34 1 C-30.53777385 -0.06723961 -27.35960734 -0.10173486 -23.75 -0.0625 C-22.67234375 -0.05347656 -21.5946875 -0.04445313 -20.484375 -0.03515625 C-19.66453125 -0.02355469 -18.8446875 -0.01195313 -18 0 C-17.67 1.32 -17.34 2.64 -17 4 C-15.6078125 3.0409375 -15.6078125 3.0409375 -14.1875 2.0625 C-9.36164327 -1.06011318 -5.51868647 -1.60289334 0 0 Z " fill="#225BA5" transform="translate(194,82)"/>
<path d="M0 0 C4.76751958 4.56023612 5.00976564 6.06835949 6 13 C-1.92 13 -9.84 13 -18 13 C-16.39302366 21.11786052 -16.39302366 21.11786052 -11 26 C-7.55322538 26.63125694 -4.44398941 26.65627454 -1 26 C1.63516042 24.20808542 1.63516042 24.20808542 3 22 C3.99 22.33 4.98 22.66 6 23 C2.26236647 27.99720234 -0.78978398 31.26928406 -7 33 C-13.73475186 33.89729478 -18.8280108 33.47074985 -24.41015625 29.4296875 C-28.94453487 25.35208903 -29.86758425 21.0193402 -30.25 15.1875 C-30.14678416 10.1299239 -28.90865191 6.04696002 -25.3828125 2.265625 C-17.99051733 -4.39695863 -8.72386033 -5.03299635 0 0 Z " fill="#2A60A7" transform="translate(227,18)"/>
<path d="M0 0 C4.34213343 1.61489839 7.12634074 3.90792593 10 7.5 C11 10 11 10 11 15 C3.08 15 -4.84 15 -13 15 C-11.60016158 23.79825406 -11.60016158 23.79825406 -6 29 C-1.96631289 29.91571508 1.44791589 29.82285995 5.13671875 27.8671875 C7.28695352 26.38295522 7.28695352 26.38295522 10 24 C9.78320856 27.79385021 9.0563797 28.9436203 6.3125 31.6875 C1.4126501 35.37980395 -3.62225085 36.5324262 -9.69140625 36.37890625 C-15.30221257 35.45801249 -19.02832821 32.24573306 -22.4375 27.875 C-25.17743042 22.83352804 -25.51222881 18.62485218 -25 13 C-23.16108509 7.48325526 -19.55861354 4.37227556 -15 1 C-10.54745357 -1.22627321 -4.8309639 -0.5022848 0 0 Z " fill="#275EA6" transform="translate(233,81)"/>
<path d="M0 0 C1.96102954 0.22788722 3.91890505 0.48305057 5.875 0.75 C6.96554687 0.88921875 8.05609375 1.0284375 9.1796875 1.171875 C12 2 12 2 13.4453125 3.828125 C14 6 14 6 13 10 C9.7 9.01 6.4 8.02 3 7 C3 8.32 3 9.64 3 11 C3.61488281 11.12117188 4.22976563 11.24234375 4.86328125 11.3671875 C6.07564453 11.61855469 6.07564453 11.61855469 7.3125 11.875 C8.11300781 12.03742187 8.91351563 12.19984375 9.73828125 12.3671875 C12 13 12 13 15 15 C14.67 17.31 14.34 19.62 14 22 C13.39671875 21.79503906 12.7934375 21.59007813 12.171875 21.37890625 C11.37265625 21.10949219 10.5734375 20.84007813 9.75 20.5625 C8.96109375 20.29566406 8.1721875 20.02882813 7.359375 19.75390625 C5.25178012 19.08045292 3.15246027 18.50849405 1 18 C0.16060731 20.7392959 0.16060731 20.7392959 1 24 C4.11323005 26.42504235 7.48176333 28.22831653 11 30 C10.125 34.75 10.125 34.75 9 37 C4.69235185 35.43358249 0.93828536 33.31663844 -3 31 C-4.65 33.64 -6.3 36.28 -8 39 C-6.68 39.66 -5.36 40.32 -4 41 C-1.9138278 42.57898354 0.01776069 44.28806605 2 46 C1.34 47.65 0.68 49.3 0 51 C-4 51 -4 51 -5.921875 49.46875 C-6.52515625 48.8190625 -7.1284375 48.169375 -7.75 47.5 C-8.36359375 46.8503125 -8.9771875 46.200625 -9.609375 45.53125 C-10.06828125 45.0259375 -10.5271875 44.520625 -11 44 C-12.17539996 44.92652701 -13.34010577 45.86663387 -14.5 46.8125 C-15.47453125 47.59560547 -15.47453125 47.59560547 -16.46875 48.39453125 C-18.34509128 49.99204833 -18.34509128 49.99204833 -18 53 C-16.51518295 54.85494536 -14.88290089 56.49284195 -13.21484375 58.18359375 C-12 60 -12 60 -12.31640625 62.22265625 C-12.65478516 63.10244141 -12.65478516 63.10244141 -13 64 C-14.98 64.495 -14.98 64.495 -17 65 C-19.31 62.03 -21.62 59.06 -24 56 C-24.69867188 56.433125 -25.39734375 56.86625 -26.1171875 57.3125 C-27.02726562 57.869375 -27.93734375 58.42625 -28.875 59 C-29.77992188 59.556875 -30.68484375 60.11375 -31.6171875 60.6875 C-34 62 -34 62 -36 62 C-35.55527344 62.75925781 -35.11054688 63.51851562 -34.65234375 64.30078125 C-34.08644531 65.29464844 -33.52054687 66.28851563 -32.9375 67.3125 C-32.08478516 68.79169922 -32.08478516 68.79169922 -31.21484375 70.30078125 C-30 73 -30 73 -31 76 C-31.99 76 -32.98 76 -34 76 C-36.31 71.71 -38.62 67.42 -41 63 C-39.22625 62.01 -37.4525 61.02 -35.625 60 C-19.68627399 50.6617817 -5.81693725 36.73259272 -0.38671875 18.57421875 C0.53433392 12.44317117 0.20468631 6.17849423 0 0 Z " fill="#F4F6FA" transform="translate(348,32)"/>
<path d="M0 0 C0.88945312 0.00644531 1.77890625 0.01289062 2.6953125 0.01953125 C3.61570312 0.03628906 4.53609375 0.05304688 5.484375 0.0703125 C6.42023438 0.07933594 7.35609375 0.08835937 8.3203125 0.09765625 C10.62510989 0.12117459 12.92977533 0.15704424 15.234375 0.1953125 C15.234375 3.4953125 15.234375 6.7953125 15.234375 10.1953125 C11.52783769 8.95980006 10.58522065 7.22866172 8.234375 4.1953125 C5.82891862 2.99258431 4.28440547 3.09459778 1.609375 3.1328125 C0.79210937 3.14183594 -0.02515625 3.15085937 -0.8671875 3.16015625 C-1.49367188 3.17175781 -2.12015625 3.18335937 -2.765625 3.1953125 C-2.76367576 6.12606235 -2.76367576 6.12606235 -1.765625 9.1953125 C1.03117984 10.83664613 1.03117984 10.83664613 4.484375 11.7578125 C13.70252621 14.97556451 13.70252621 14.97556451 16.234375 19.1953125 C17.03879265 22.74666745 17.38457566 25.7185696 16.234375 29.1953125 C13.64342993 32.70849382 10.94498155 34.88698525 6.59716797 35.6706543 C3.64117685 35.78500647 0.75100659 35.72022939 -2.203125 35.5703125 C-3.72969727 35.52970703 -3.72969727 35.52970703 -5.28710938 35.48828125 C-7.78087082 35.41803445 -10.27353179 35.31043058 -12.765625 35.1953125 C-12.765625 31.2353125 -12.765625 27.2753125 -12.765625 23.1953125 C-12.105625 23.1953125 -11.445625 23.1953125 -10.765625 23.1953125 C-10.3325 23.9378125 -9.899375 24.6803125 -9.453125 25.4453125 C-7.53233619 28.57548685 -5.87431527 30.24334419 -2.765625 32.1953125 C0.39982951 32.50565118 2.38113063 32.62193469 5.234375 31.1953125 C5.234375 29.5453125 5.234375 27.8953125 5.234375 26.1953125 C4.18636719 25.67582031 3.13835937 25.15632813 2.05859375 24.62109375 C0.67932156 23.91738345 -0.69956469 23.21291635 -2.078125 22.5078125 C-2.76841797 22.16814453 -3.45871094 21.82847656 -4.16992188 21.47851562 C-8.32766782 19.3293426 -10.83239876 17.66048803 -12.765625 13.1953125 C-13.3281676 9.33787752 -13.1220498 7.75540861 -11.015625 4.4453125 C-7.53159494 0.96128244 -4.90264434 -0.06285441 0 0 Z " fill="#255DA6" transform="translate(263.765625,80.8046875)"/>
<path d="M0 0 C0.01030746 0.54679413 0.02061493 1.09358826 0.03123474 1.6569519 C0.13919328 7.33441385 0.25379974 13.01171364 0.37231445 18.68896484 C0.41569752 20.80937313 0.45737007 22.92981712 0.49731445 25.05029297 C0.55493543 28.09353408 0.61865325 31.1365949 0.68359375 34.1796875 C0.70030624 35.13181122 0.71701874 36.08393494 0.73423767 37.06491089 C0.75418289 37.94567291 0.77412811 38.82643494 0.79467773 39.73388672 C0.81799416 40.89970779 0.81799416 40.89970779 0.84178162 42.08908081 C0.88783251 44.08556935 0.88783251 44.08556935 2 46 C2.99 46.66 3.98 47.32 5 48 C-1.93 48 -8.86 48 -16 48 C-14.68 46.68 -13.36 45.36 -12 44 C-11.43233635 42.03946615 -11.43233635 42.03946615 -11.54589844 39.96582031 C-11.54635162 38.79505951 -11.54635162 38.79505951 -11.54681396 37.60064697 C-11.56745911 36.76821472 -11.58810425 35.93578247 -11.609375 35.078125 C-11.61503479 34.21813904 -11.62069458 33.35815308 -11.62652588 32.47210693 C-11.64888049 29.73083351 -11.69907398 26.99087696 -11.75 24.25 C-11.77006624 22.38934182 -11.78831679 20.52866311 -11.8046875 18.66796875 C-11.84874216 14.11147334 -11.91776246 9.55595978 -12 5 C-13.32 4.34 -14.64 3.68 -16 3 C-16 2.34 -16 1.68 -16 1 C-13.70839646 0.83246763 -11.41671509 0.66599948 -9.125 0.5 C-7.84882812 0.4071875 -6.57265625 0.314375 -5.2578125 0.21875 C-3.50763316 0.10123196 -1.75412035 0 0 0 Z " fill="#205AA4" transform="translate(125,67)"/>
<path d="M0 0 C0.66 0 1.32 0 2 0 C2 3.96 2 7.92 2 12 C5.3 12 8.6 12 12 12 C12 12.99 12 13.98 12 15 C8.7 15 5.4 15 2 15 C2.11347156 18.79233901 2.24022786 22.58341049 2.375 26.375 C2.4059375 27.45523438 2.436875 28.53546875 2.46875 29.6484375 C2.50742188 30.6796875 2.54609375 31.7109375 2.5859375 32.7734375 C2.63306885 34.20308838 2.63306885 34.20308838 2.68115234 35.66162109 C2.78555796 38.18895176 2.78555796 38.18895176 5 40 C6.9931567 40.02375926 6.9931567 40.02375926 9.125 39.625 C10.40375 39.41875 11.6825 39.2125 13 39 C11.97386916 41.97577944 11.03368909 42.97754061 8.375 44.75 C4.07006701 46.34441963 1.57970114 46.50885568 -3 46 C-6.44312714 43.8755173 -7.71617547 42.85147359 -9 39 C-9.08239169 37.15389468 -9.10743359 35.30494836 -9.09765625 33.45703125 C-9.09443359 32.38388672 -9.09121094 31.31074219 -9.08789062 30.20507812 C-9.07951172 29.08552734 -9.07113281 27.96597656 -9.0625 26.8125 C-9.05798828 25.68134766 -9.05347656 24.55019531 -9.04882812 23.38476562 C-9.03703498 20.58979073 -9.0205765 17.7949218 -9 15 C-10.65 15 -12.3 15 -14 15 C-14 14.34 -14 13.68 -14 13 C-12.46411063 11.67221777 -10.86970418 10.41164059 -9.25 9.1875 C-6.36211607 7.00469884 -4.06097069 5.07642957 -1.796875 2.23828125 C-1.20390625 1.49964844 -0.6109375 0.76101562 0 0 Z " fill="#205BA5" transform="translate(182,5)"/>
<path d="M0 0 C3.23238414 0.07696153 5.33227795 0.37438655 7.734375 2.625 C9.21851673 4.37770071 10.63844334 6.15079362 12 8 C10.68 8 9.36 8 8 8 C8 8.66 8 9.32 8 10 C9.670625 10.433125 9.670625 10.433125 11.375 10.875 C15 12 15 12 17 14 C16.51789063 13.31292969 16.03578125 12.62585937 15.5390625 11.91796875 C14.90742188 11.01691406 14.27578125 10.11585937 13.625 9.1875 C12.99851562 8.29417969 12.37203125 7.40085937 11.7265625 6.48046875 C10.46449761 4.66732122 9.22541192 2.83811789 8 1 C12.98012761 2.50912958 16.24259942 5.55661849 20 9 C19.67 9.66 19.34 10.32 19 11 C19.73248651 14.04713017 19.73248651 14.04713017 21.875 15.625 C24.88088956 18.98452363 25.79207656 22.71736235 27 27 C25.68 26.34 24.36 25.68 23 25 C22.67 26.65 22.34 28.3 22 30 C22.804375 30.309375 23.60875 30.61875 24.4375 30.9375 C27 32 27 32 28 33 C28.07226502 34.85287502 28.0838122 36.70833878 28.0625 38.5625 C28.05347656 39.57441406 28.04445313 40.58632812 28.03515625 41.62890625 C28.02355469 42.41136719 28.01195312 43.19382813 28 44 C26.20963542 42.95833333 24.41927083 41.91666667 22.62890625 40.875 C21.16134961 39.92113038 21.16134961 39.92113038 20 40 C20.01160156 38.89140625 20.02320313 37.7828125 20.03515625 36.640625 C20.04453792 35.17708502 20.05363771 33.71354322 20.0625 32.25 C20.07087891 31.52039063 20.07925781 30.79078125 20.08789062 30.0390625 C20.10391684 26.51329442 19.95292713 23.38965084 19 20 C18.01 20.33 17.02 20.66 16 21 C13.3125 20.0625 13.3125 20.0625 11 19 C10.96474868 20.88658874 10.96474868 20.88658874 12 23 C14.24164322 24.59501537 16.53566643 25.74543018 19 27 C19 29.97 19 32.94 19 36 C15.66666667 34.66666667 12.33333333 33.33333333 9 32 C8.7834375 33.423125 8.7834375 33.423125 8.5625 34.875 C8 38 8 38 7 40 C7.7425 40.226875 8.485 40.45375 9.25 40.6875 C12.51139591 42.24407532 13.92894975 44.08518854 16 47 C15.01 48.98 14.02 50.96 13 53 C9.1626772 50.50127818 5.54039134 47.9156164 2 45 C2.26554687 44.443125 2.53109375 43.88625 2.8046875 43.3125 C7.44259407 33.29191354 10.13567498 23.26387211 6.8125 12.3125 C5.1341048 7.84215895 2.70195758 3.91944044 0 0 Z " fill="#F5F7FA" transform="translate(355,25)"/>
<path d="M0 0 C-0.14107747 1.45880109 -0.28802415 2.91703551 -0.4375 4.375 C-0.51871094 5.18710938 -0.59992188 5.99921875 -0.68359375 6.8359375 C-1 9 -1 9 -2 11 C-2.99 10.67 -3.98 10.34 -5 10 C-8.54178598 9.74996036 -8.54178598 9.74996036 -12 10 C-14.42558939 11.98324441 -14.42558939 11.98324441 -14.23046875 15.84375 C-14.22647524 17.39589428 -14.21170957 18.9480394 -14.1875 20.5 C-14.1865332 21.67755859 -14.1865332 21.67755859 -14.18554688 22.87890625 C-14.25225279 27.07342326 -14.25225279 27.07342326 -13 31 C-12.01 31.66 -11.02 32.32 -10 33 C-16.93 33 -23.86 33 -31 33 C-29.68 32.01 -28.36 31.02 -27 30 C-26.446903 27.00242418 -26.446903 27.00242418 -26.609375 23.58203125 C-26.62871094 21.70161133 -26.62871094 21.70161133 -26.6484375 19.78320312 C-26.68195313 18.47287109 -26.71546875 17.16253906 -26.75 15.8125 C-26.77006693 14.4772399 -26.78831738 13.14195117 -26.8046875 11.80664062 C-26.85190197 8.53703854 -26.91774816 5.26887808 -27 2 C-28.32 2 -29.64 2 -31 2 C-31 1.34 -31 0.68 -31 0 C-25.72 0 -20.44 0 -15 0 C-14.67 2.31 -14.34 4.62 -14 7 C-13.59007813 6.50628906 -13.18015625 6.01257813 -12.7578125 5.50390625 C-12.21898438 4.86324219 -11.68015625 4.22257812 -11.125 3.5625 C-10.59132813 2.92441406 -10.05765625 2.28632812 -9.5078125 1.62890625 C-6.42151529 -1.7052542 -4.21171966 -0.82403211 0 0 Z " fill="#235BA5" transform="translate(108,82)"/>
<path d="M0 0 C37.29 0 74.58 0 113 0 C113 37.29 113 74.58 113 113 C105.41 113 97.82 113 90 113 C90.33 112.34 90.66 111.68 91 111 C97.6 111.33 104.2 111.66 111 112 C111 75.7 111 39.4 111 2 C74.7 2 38.4 2 1 2 C1 6.62 1 11.24 1 16 C0.67 16 0.34 16 0 16 C0 10.72 0 5.44 0 0 Z " fill="#4C78B4" transform="translate(306,2)"/>
<path d="M0 0 C1.48828125 1.14453125 1.48828125 1.14453125 3 3 C3.29296875 5.69921875 3.29296875 5.69921875 3.1875 8.6875 C3.14689453 10.17830078 3.14689453 10.17830078 3.10546875 11.69921875 C3.07066406 12.45847656 3.03585937 13.21773437 3 14 C2.34 14 1.68 14 1 14 C-0.72038887 17.70958851 -1.18292265 20.4299711 -1 24.5 C-0.81707735 28.5700289 -1.27961113 31.29041149 -3 35 C-3.99 34.34 -4.98 33.68 -6 33 C-10.61163942 38.67074599 -10.61163942 38.67074599 -11.875 45.5625 C-11.58625 46.366875 -11.2975 47.17125 -11 48 C-10.01 47.67 -9.02 47.34 -8 47 C-8 47.66 -8 48.32 -8 49 C-6.35 49 -4.7 49 -3 49 C-3 49.33 -3 49.66 -3 50 C-20.49 50 -37.98 50 -56 50 C-55.34 49.34 -54.68 48.68 -54 48 C-50.375 48.375 -50.375 48.375 -47 49 C-47.99 47.68 -48.98 46.36 -50 45 C-48.49596748 41.32255785 -46.37972264 39.36604911 -43.375 36.8125 C-38.48786102 32.53625339 -34.19110184 27.95205608 -30 23 C-29.67 23.66 -29.34 24.32 -29 25 C-28.34 25 -27.68 25 -27 25 C-25.7109375 26.53125 -25.7109375 26.53125 -24.375 28.5 C-23.92898438 29.1496875 -23.48296875 29.799375 -23.0234375 30.46875 C-22.68570313 30.9740625 -22.34796875 31.479375 -22 32 C-23.98 34.475 -23.98 34.475 -26 37 C-29.66240092 35.43039961 -30.93903646 34.06096354 -34 31 C-36.97 33.97 -39.94 36.94 -43 40 C-42.34 40.94875 -41.68 41.8975 -41 42.875 C-39 46 -39 46 -39 48 C-34.01987239 46.49087042 -30.75740058 43.44338151 -27 40 C-28.29299694 42.88437779 -29.65941363 44.87219421 -32 47 C-27.44022075 47.82456595 -23.53237279 48.07573752 -19 47 C-14.96616215 43.18863797 -12.59610315 38.87109501 -10 34 C-9.49855469 33.16597656 -8.99710937 32.33195312 -8.48046875 31.47265625 C-3.12247667 22.00309322 -1.19119833 10.69696104 0 0 Z " fill="#F8F9FB" transform="translate(392,67)"/>
<path d="M0 0 C1.69270833 1.49739583 3.38541667 2.99479167 5.078125 4.4921875 C6.97418746 5.9797487 8.81290005 7.00322436 11 8 C11 11.63277923 9.88713005 12.54611783 7.44335938 15.07495117 C6.92580078 15.58646729 6.40824219 16.0979834 5.875 16.625 C5.07932617 17.41644409 5.07932617 17.41644409 4.26757812 18.22387695 C-1.82964246 24.08298018 -10.41871086 31.59081771 -19 33 C-19.12375 31.9790625 -19.12375 31.9790625 -19.25 30.9375 C-19.92791968 28.28231457 -20.68912448 26.63219434 -22.0625 24.3125 C-24 21 -24 21 -24 19 C-21.91796875 17.4921875 -21.91796875 17.4921875 -19.1875 15.875 C-18.29417969 15.33617188 -17.40085937 14.79734375 -16.48046875 14.2421875 C-14 13 -14 13 -11 13 C-9.39453125 14.75 -9.39453125 14.75 -7.8125 17 C-7.28269531 17.7425 -6.75289063 18.485 -6.20703125 19.25 C-5.80871094 19.8275 -5.41039062 20.405 -5 21 C-3.68 20.67 -2.36 20.34 -1 20 C-1.61198376 16.56049636 -2.92058847 14.48435515 -5.0625 11.75 C-6.031875 10.5125 -7.00125 9.275 -8 8 C-5.36 5.36 -2.72 2.72 0 0 Z " fill="#265DA6" transform="translate(336,75)"/>
<path d="M0 0 C6.23157529 0.22660274 6.23157529 0.22660274 8.69775391 2.70874023 C10.28979004 5.50987617 10.38718352 7.32428766 10.3984375 10.53515625 C10.40230469 11.59154297 10.40617187 12.64792969 10.41015625 13.73632812 C10.39855469 14.83396484 10.38695312 15.93160156 10.375 17.0625 C10.38660156 18.16400391 10.39820313 19.26550781 10.41015625 20.40039062 C10.40628906 21.45548828 10.40242188 22.51058594 10.3984375 23.59765625 C10.39505371 24.56195557 10.39166992 25.52625488 10.38818359 26.51977539 C10 29 10 29 8.68994141 30.80249023 C5.74530304 32.8890911 3.46278366 32.54675531 0 32 C-4.44430921 26.73700226 -5.17014447 22.41532814 -5.25 15.6875 C-5.27578125 14.39199219 -5.3015625 13.09648437 -5.328125 11.76171875 C-4.89860976 6.83763335 -3.49909743 3.49909743 0 0 Z " fill="#FAFBFC" transform="translate(254,17)"/>
<path d="M0 0 C5.28 0 10.56 0 16 0 C16.02578125 2.04703125 16.0515625 4.0940625 16.078125 6.203125 C16.11985489 8.19224995 16.16172403 10.18137465 16.20751953 12.17041016 C16.23569099 13.54951651 16.25692472 14.92878318 16.27099609 16.30810547 C16.29247545 18.29422949 16.34123132 20.27999909 16.390625 22.265625 C16.41157227 23.45961914 16.43251953 24.65361328 16.45410156 25.88378906 C16.78984261 29.55582572 16.78984261 29.55582572 21 33 C14.07 33 7.14 33 0 33 C0 32.34 0 31.68 0 31 C1.32 30.34 2.64 29.68 4 29 C4 20.75 4 12.5 4 4 C2.68 3.34 1.36 2.68 0 2 C0 1.34 0 0.68 0 0 Z " fill="#205AA5" transform="translate(144,17)"/>
<path d="M0 0 C5.28 0 10.56 0 16 0 C16.02578125 1.96324219 16.0515625 3.92648438 16.078125 5.94921875 C16.1344039 8.52866813 16.19175127 11.10809435 16.25 13.6875 C16.26417969 14.98107422 16.27835938 16.27464844 16.29296875 17.60742188 C16.32519531 18.85458984 16.35742188 20.10175781 16.390625 21.38671875 C16.41157227 22.53358154 16.43251953 23.68044434 16.45410156 24.86206055 C16.85129216 28.63687567 16.85129216 28.63687567 21 33 C14.4 33 7.8 33 1 33 C1.99 32.01 2.98 31.02 4 30 C4.50664617 27.09912345 4.50664617 27.09912345 4.51171875 23.80078125 C4.54716797 22.59228516 4.58261719 21.38378906 4.61914062 20.13867188 C4.65297852 18.2447168 4.65297852 18.2447168 4.6875 16.3125 C4.72166016 15.03826172 4.75582031 13.76402344 4.79101562 12.45117188 C4.87360784 9.30086897 4.94272335 6.15084843 5 3 C3.35 2.67 1.7 2.34 0 2 C0 1.34 0 0.68 0 0 Z " fill="#285EA7" transform="translate(134,82)"/>
<path d="M0 0 C0.66 1.32 1.32 2.64 2 4 C-0.97 4 -3.94 4 -7 4 C-7 4.99 -7 5.98 -7 7 C-3.37 7 0.26 7 4 7 C4.495 9.475 4.495 9.475 5 12 C0.83861737 12.08159574 -2.9472484 11.98248524 -7 11 C-7.33 12.32 -7.66 13.64 -8 15 C-8.33 13.68 -8.66 12.36 -9 11 C-13.95 11 -18.9 11 -24 11 C-24 11.99 -24 12.98 -24 14 C-19.38 14 -14.76 14 -10 14 C-10 15.65 -10 17.3 -10 19 C-15.00890086 18.38487182 -20.00632136 17.7282448 -25 17 C-25 17.99 -25 18.98 -25 20 C-20.71 20.99 -16.42 21.98 -12 23 C-12.99 25.475 -12.99 25.475 -14 28 C-18.62 26.68 -23.24 25.36 -28 24 C-28 25.32 -28 26.64 -28 28 C-25.7952413 29.80910141 -25.7952413 29.80910141 -23 31.25 C-22.071875 31.77078125 -21.14375 32.2915625 -20.1875 32.828125 C-19.465625 33.21484375 -18.74375 33.6015625 -18 34 C-18.66 34.99 -19.32 35.98 -20 37 C-23.21852831 36.36934243 -25.50801069 35.21979305 -28.25 33.4375 C-28.95640625 32.98246094 -29.6628125 32.52742188 -30.390625 32.05859375 C-30.92171875 31.70925781 -31.4528125 31.35992187 -32 31 C-32.99 31.66 -33.98 32.32 -35 33 C-35.66 32.67 -36.32 32.34 -37 32 C-37 30.35 -37 28.7 -37 27 C-36.2575 27.12375 -35.515 27.2475 -34.75 27.375 C-31.73185817 27.2784134 -31.73185817 27.2784134 -29.8125 24.375 C-26.7157704 18.60867592 -25.66509818 13.42928236 -25 7 C-19.72 7 -14.44 7 -9 7 C-9.33 5.02 -9.66 3.04 -10 1 C-6.78548731 -0.60725635 -3.56387464 -0.05748185 0 0 Z " fill="#F5F7FA" transform="translate(342,25)"/>
<path d="M0 0 C0.33 0 0.66 0 1 0 C1.84237917 9.9400742 -1.31645047 18.84985624 -7.3125 26.8125 C-8.5151665 28.23122996 -9.74475844 29.62756784 -11 31 C-11.64195312 31.71027344 -12.28390625 32.42054687 -12.9453125 33.15234375 C-17.23232702 37.66631786 -21.5992376 40.91385006 -27 44 C-27 40.04 -27 36.08 -27 32 C-26.21625 32.825 -25.4325 33.65 -24.625 34.5 C-22.36278736 37.22988506 -22.36278736 37.22988506 -20 37 C-20.59283621 33.60807637 -21.76743189 31.7892243 -24.0625 29.25 C-24.61035156 28.63640625 -25.15820312 28.0228125 -25.72265625 27.390625 C-26.14417969 26.93171875 -26.56570313 26.4728125 -27 26 C-25.35 24.68 -23.7 23.36 -22 22 C-21.46890625 22.44472656 -20.9378125 22.88945313 -20.390625 23.34765625 C-19.33101563 24.19650391 -19.33101563 24.19650391 -18.25 25.0625 C-17.55390625 25.63097656 -16.8578125 26.19945313 -16.140625 26.78515625 C-14.07468699 28.24492279 -14.07468699 28.24492279 -11.734375 27.68359375 C-10.87585938 27.34521484 -10.87585938 27.34521484 -10 27 C-13.19668988 24.3513141 -16.39486597 22.06007659 -20 20 C-19.67 18.68 -19.34 17.36 -19 16 C-14.13103697 16.59619955 -9.67209049 17.56976822 -5 19 C-4.34 17.68 -3.68 16.36 -3 15 C-4.216875 14.87625 -5.43375 14.7525 -6.6875 14.625 C-10.06479059 14.21108694 -12.89756695 13.45426549 -16 12 C-16 11.01 -16 10.02 -16 9 C-10.5814234 8.77422598 -6.22512279 9.53329887 -1 11 C-1 9.35 -1 7.7 -1 6 C-5.62 6 -10.24 6 -15 6 C-15 5.01 -15 4.02 -15 3 C-10.05 3 -5.1 3 0 3 C0 2.01 0 1.02 0 0 Z " fill="#225CA5" transform="translate(333,33)"/>
<path d="M0 0 C0.02505615 0.9286084 0.0501123 1.8572168 0.07592773 2.81396484 C0.17097932 6.25435804 0.27021707 9.69457713 0.37231445 13.13476562 C0.41566589 14.62462641 0.45734084 16.11453695 0.49731445 17.60449219 C0.55501215 19.74429327 0.61870755 21.88384385 0.68359375 24.0234375 C0.72025146 25.31169434 0.75690918 26.59995117 0.79467773 27.92724609 C0.79530675 30.9127682 0.79530675 30.9127682 2 33 C-3.28 33 -8.56 33 -14 33 C-13.34 31.68 -12.68 30.36 -12 29 C-11.72588595 26.29177736 -11.72588595 26.29177736 -11.8046875 23.359375 C-11.81113281 22.28945312 -11.81757812 21.21953125 -11.82421875 20.1171875 C-11.84097656 19.00601563 -11.85773437 17.89484375 -11.875 16.75 C-11.88402344 15.62335938 -11.89304687 14.49671875 -11.90234375 13.3359375 C-11.92589342 10.55707635 -11.9587832 7.7786461 -12 5 C-13.32 4.34 -14.64 3.68 -16 3 C-16 2.34 -16 1.68 -16 1 C-14.27111445 0.83044205 -12.54187557 0.66448486 -10.8125 0.5 C-9.84957031 0.4071875 -8.88664062 0.314375 -7.89453125 0.21875 C-5.24683246 0.01865401 -2.65332819 -0.01564232 0 0 Z " fill="#2A60A7" transform="translate(68,81)"/>
<path d="M0 0 C4.95 0 9.9 0 15 0 C18.61643836 7.68493151 18.61643836 7.68493151 18 12 C17.34 12.66 16.68 13.32 16 14 C29.86 14 43.72 14 58 14 C58 14.66 58 15.32 58 16 C33.66356996 16.62422387 9.34594378 17.19672878 -15 17 C-15 16.34 -15 15.68 -15 15 C-10.38 14.67 -5.76 14.34 -1 14 C-1.66 13.34 -2.32 12.68 -3 12 C-3.60489185 6.67695175 -2.59034148 5.18068295 0 0 Z " fill="#ECF0F6" transform="translate(15,100)"/>
<path d="M0 0 C2.17108075 1.58510458 2.9058246 2.46150198 3.37231445 5.12890625 C3.3693335 5.93199219 3.36635254 6.73507813 3.36328125 7.5625 C3.36263672 8.44164063 3.36199219 9.32078125 3.36132812 10.2265625 C3.34521484 11.14179687 3.32910156 12.05703125 3.3125 13 C3.31733398 14.37285156 3.31733398 14.37285156 3.32226562 15.7734375 C3.26721939 22.59917092 3.26721939 22.59917092 1 26 C6.94 26.33 12.88 26.66 19 27 C19 27.33 19 27.66 19 28 C3.90941216 28.82159867 -10.92103822 29.09512013 -26 28 C-25.67 27.34 -25.34 26.68 -25 26 C-19.39 26 -13.78 26 -8 26 C-8.66 25.01 -9.32 24.02 -10 23 C-10.42821391 19.68086639 -10.32427403 16.34382422 -10.3125 13 C-10.32861328 12.08476563 -10.34472656 11.16953125 -10.36132812 10.2265625 C-10.36197266 9.34742187 -10.36261719 8.46828125 -10.36328125 7.5625 C-10.36626221 6.75941406 -10.36924316 5.95632812 -10.37231445 5.12890625 C-9.36232925 -0.64622225 -5.05672046 -0.54179148 0 0 Z " fill="#EBEFF5" transform="translate(186,88)"/>
<path d="M0 0 C3.30985574 5.73267014 2.6578853 11.91616265 1.3125 18.22265625 C-1.55740914 28.25538029 -5.91301305 37.28769067 -13 45 C-13 44.01 -13 43.02 -13 42 C-14.36220042 37.45933194 -18.22702161 35.46151531 -22 33 C-20.56375905 28.69127714 -19.45397435 27.45397435 -16 24 C-12.37 26.31 -8.74 28.62 -5 31 C-4.01 27.535 -4.01 27.535 -3 24 C-3.70125 23.7525 -4.4025 23.505 -5.125 23.25 C-8.37002459 21.83911974 -11.10316737 20.02104602 -14 18 C-13.67 16.02 -13.34 14.04 -13 12 C-8.15340923 12.59104765 -4.39251833 13.97944157 0 16 C0 13.69 0 11.38 0 9 C-3.63 7.68 -7.26 6.36 -11 5 C-11 3.68 -11 2.36 -11 1 C-7.7 1.66 -4.4 2.32 -1 3 C-0.67 2.01 -0.34 1.02 0 0 Z " fill="#295FA7" transform="translate(362,38)"/>
<path d="M0 0 C3.52398424 3.04344093 4.77918115 6.289235 5.37109375 10.875 C5.64727511 23.87177006 0.79521486 34.7111018 -7 45 C-7.99 45.495 -7.99 45.495 -9 46 C-8.67 44.35 -8.34 42.7 -8 41 C-12.455 37.535 -12.455 37.535 -17 34 C-15 29 -15 29 -13.203125 28.03515625 C-10.18503399 27.98699522 -8.39241385 29.01198726 -5.75 30.4375 C-4.85796875 30.91058594 -3.9659375 31.38367188 -3.046875 31.87109375 C-2.37140625 32.24363281 -1.6959375 32.61617187 -1 33 C-0.67 31.02 -0.34 29.04 0 27 C-0.62648438 26.79503906 -1.25296875 26.59007813 -1.8984375 26.37890625 C-2.71570313 26.10949219 -3.53296875 25.84007813 -4.375 25.5625 C-5.18710937 25.29566406 -5.99921875 25.02882813 -6.8359375 24.75390625 C-9 24 -9 24 -11 23 C-10.67 21.35 -10.34 19.7 -10 18 C-8.20767663 18.30871122 -6.41615679 18.62209064 -4.625 18.9375 C-3.12839844 19.19853516 -3.12839844 19.19853516 -1.6015625 19.46484375 C1 20 1 20 3 21 C3 18.69 3 16.38 3 14 C2.37351562 13.93941406 1.74703125 13.87882812 1.1015625 13.81640625 C0.28429687 13.73261719 -0.53296875 13.64882813 -1.375 13.5625 C-2.59316406 13.44068359 -2.59316406 13.44068359 -3.8359375 13.31640625 C-6 13 -6 13 -8 12 C-8 11.34 -8 10.68 -8 10 C-4.37 10 -0.74 10 3 10 C2.67 8.68 2.34 7.36 2 6 C-1.63 5.67 -5.26 5.34 -9 5 C-9 4.01 -9 3.02 -9 2 C-6.03 2 -3.06 2 0 2 C0 1.34 0 0.68 0 0 Z " fill="#265DA6" transform="translate(344,27)"/>
<path d="M0 0 C4.51012241 4.51012241 4.27445249 11.51011858 4.375 17.5625 C4.32767759 31.54219334 0.08347847 46.54049756 -9.72265625 56.8671875 C-10.47417969 57.57101563 -11.22570312 58.27484375 -12 59 C-11.7525 58.443125 -11.505 57.88625 -11.25 57.3125 C-10.7004776 54.77221085 -10.7004776 54.77221085 -13 52.5 C-13.66 51.675 -14.32 50.85 -15 50 C-14.63247112 46.7657459 -13.18958439 44.44551445 -11.4375 41.75 C-10.98246094 41.04359375 -10.52742188 40.3371875 -10.05859375 39.609375 C-9.70925781 39.07828125 -9.35992187 38.5471875 -9 38 C-6.00667261 38.9977758 -5.05233685 39.7522025 -3 42 C-1.71514394 38.71295284 -1.71514394 38.71295284 -1 35 C-1.99307821 33.66150329 -2.99357052 32.32848691 -4 31 C-4.12439419 26.64620339 -3.42096149 23.63144224 -1 20 C-0.01 20.99 0.98 21.98 2 23 C2.08114106 21.22992286 2.13925505 19.45877902 2.1875 17.6875 C2.22230469 16.70136719 2.25710938 15.71523437 2.29296875 14.69921875 C1.94724539 11.51395417 1.19139204 11.14476667 -1 9 C-1.07421875 6.73828125 -1.07421875 6.73828125 -0.6875 4.3125 C-0.56761719 3.50425781 -0.44773437 2.69601563 -0.32421875 1.86328125 C-0.21722656 1.24839844 -0.11023438 0.63351563 0 0 Z " fill="#275EA7" transform="translate(387,52)"/>
<path d="M0 0 C0.99 0.33 1.98 0.66 3 1 C5.30064317 15.23406056 4.19660117 28.24863725 0 42 C-1.32 42 -2.64 42 -4 42 C-3.01 38.37 -2.02 34.74 -1 31 C-2.65 34.63 -4.3 38.26 -6 42 C-7.65 42 -9.3 42 -11 42 C-10.40917986 40.51545194 -9.80187345 39.03745649 -9.1875 37.5625 C-8.85105469 36.73878906 -8.51460938 35.91507813 -8.16796875 35.06640625 C-7 33 -7 33 -4 32 C-2.98034946 28.94104838 -2.95814632 27.06005591 -3.0625 23.875 C-3.10961543 19.39903378 -2.61356045 15.53625127 -1.51171875 11.21484375 C-0.65623243 7.51208998 -0.35995088 3.77948428 0 0 Z " fill="#D1DAE9" transform="translate(396,73)"/>
<path d="M0 0 C2.96404505 2.80804268 5.44499019 5.18315774 7 9 C8.65 8.34 10.3 7.68 12 7 C4.33376289 14.87918814 4.33376289 14.87918814 -0.234375 15.29296875 C-1.39453125 15.25816406 -2.5546875 15.22335938 -3.75 15.1875 C-4.92046875 15.16042969 -6.0909375 15.13335937 -7.296875 15.10546875 C-8.18890625 15.07066406 -9.0809375 15.03585938 -10 15 C-10.99 13.02 -11.98 11.04 -13 9 C-11.71802734 8.15115234 -11.71802734 8.15115234 -10.41015625 7.28515625 C-9.2942305 6.54433159 -8.17834728 5.80344286 -7.0625 5.0625 C-6.49853516 4.68931641 -5.93457031 4.31613281 -5.35351562 3.93164062 C-2.53966389 2.14034283 -2.53966389 2.14034283 0 0 Z " fill="#245CA5" transform="translate(333,100)"/>
<path d="M0 0 C2.37056898 2.30649955 4.64998319 4.52882352 6.625 7.1875 C8.04770058 9.26842487 8.04770058 9.26842487 11 11 C5.36986818 15.57644793 -0.42184562 18.95355965 -7 22 C-6.505 20.515 -6.505 20.515 -6 19 C-5.01 19 -4.02 19 -3 19 C-3.28875 18.41992188 -3.5775 17.83984375 -3.875 17.2421875 C-6.05480801 12.65550815 -7.53310477 9.19777151 -7 4 C-4.69 2.68 -2.38 1.36 0 0 Z " fill="#275EA6" transform="translate(313,74)"/>
<path d="M0 0 C3.96790076 1.67872725 6.86931494 4.08277074 10 7 C10 10 10 10 7.8125 12.48046875 C6.884375 13.37378906 5.95625 14.26710938 5 15.1875 C4.071875 16.08855469 3.14375 16.98960938 2.1875 17.91796875 C1.465625 18.60503906 0.74375 19.29210937 0 20 C-2.57365089 18.71317455 -2.72348972 17.55302057 -4 15 C-5.3050581 13.31110128 -6.63360658 11.6396721 -8 10 C-6.34908222 5.70761377 -3.26245434 3.1206085 0 0 Z " fill="#285EA6" transform="translate(347,87)"/>
<path d="M0 0 C6.76953147 -0.55997962 11.78881762 -0.51223308 17.40625 3.57421875 C19.59789635 5.53488277 20.9057495 7.26437376 22 10 C22 11.65 22 13.3 22 15 C14.08 15 6.16 15 -2 15 C-2 14.01 -2 13.02 -2 12 C2.29 12 6.58 12 11 12 C9.78200737 6.53224992 9.78200737 6.53224992 6.01953125 2.80078125 C3.57347894 1.87522247 3.57347894 1.87522247 0 1 C0 0.67 0 0.34 0 0 Z " fill="#1C5AA4" transform="translate(222,81)"/>
<path d="M0 0 C3.12155909 3.12155909 3.20340471 6.51601785 3.375 10.8125 C3.35459606 18.341554 0.62769629 25.04598947 -2 32 C-2.12181641 31.11054687 -2.12181641 31.11054687 -2.24609375 30.203125 C-3.23118234 27.32442051 -4.59207507 26.47537614 -7.0625 24.75 C-7.79597656 24.22921875 -8.52945312 23.7084375 -9.28515625 23.171875 C-9.85105469 22.78515625 -10.41695313 22.3984375 -11 22 C-10.34 19.36 -9.68 16.72 -9 14 C-5.04179141 14.56545837 -2.3340947 15.80902348 1 18 C1 15.03 1 12.06 1 9 C-0.1446875 8.566875 -0.1446875 8.566875 -1.3125 8.125 C-4 7 -4 7 -7 5 C-7 3.68 -7 2.36 -7 1 C-4.69 1.66 -2.38 2.32 0 3 C0 2.01 0 1.02 0 0 Z " fill="#265EA6" transform="translate(373,43)"/>
<path d="M0 0 C1.65 1.65 3.3 3.3 5 5 C5.99 5.66 6.98 6.32 8 7 C6.61369489 10.10202926 4.99905084 12.32411399 2.625 14.75 C2.03976562 15.36359375 1.45453125 15.9771875 0.8515625 16.609375 C-1 18 -1 18 -5 18 C-7.08617534 15.54050908 -8.41010396 12.82648185 -10 10 C-6.7 6.7 -3.4 3.4 0 0 Z " fill="#295FA7" transform="translate(358,97)"/>
<path d="M0 0 C3.99455527 0.61454696 6.74466336 2.70646737 10 5 C10.66 4.34 11.32 3.68 12 3 C11.44733314 7.53019353 9.66797015 10.43824914 7.125 14.1875 C6.42632812 15.23292969 5.72765625 16.27835938 5.0078125 17.35546875 C3 20 3 20 0 22 C0.66 20.02 1.32 18.04 2 16 C-0.31 14.02 -2.62 12.04 -5 10 C-3.66511872 6.40608886 -2.03977277 3.24509304 0 0 Z " fill="#245CA6" transform="translate(358,72)"/>
<path d="M0 0 C4.20233434 2.41952583 8.07927649 5.15555353 12 8 C9.62245212 12.49092377 6.6393937 15.52235713 3 19 C2.34 18.67 1.68 18.34 1 18 C1 17.01 1 16.02 1 15 C-0.53927949 12.95228486 -0.53927949 12.95228486 -2.5 10.9375 C-6 7.20833333 -6 7.20833333 -6 5 C-4.04072937 3.2856382 -2.04119788 1.61594832 0 0 Z " fill="#285FA7" transform="translate(323,65)"/>
<path d="M0 0 C0.33 0 0.66 0 1 0 C1 1.65 1 3.3 1 5 C5.29 5.99 9.58 6.98 14 8 C13.34 9.65 12.68 11.3 12 13 C7.38 11.68 2.76 10.36 -2 9 C-2 10.32 -2 11.64 -2 13 C0.2047587 14.80910141 0.2047587 14.80910141 3 16.25 C3.928125 16.77078125 4.85625 17.2915625 5.8125 17.828125 C6.534375 18.21484375 7.25625 18.6015625 8 19 C7.34 19.99 6.68 20.98 6 22 C2.78147169 21.36934243 0.49198931 20.21979305 -2.25 18.4375 C-2.95640625 17.98246094 -3.6628125 17.52742188 -4.390625 17.05859375 C-4.92171875 16.70925781 -5.4528125 16.35992187 -6 16 C-6.99 16.66 -7.98 17.32 -9 18 C-9.66 17.67 -10.32 17.34 -11 17 C-11 15.35 -11 13.7 -11 12 C-9.88625 12.185625 -9.88625 12.185625 -8.75 12.375 C-5.73185817 12.2784134 -5.73185817 12.2784134 -3.8125 9.375 C-2.14657524 6.2729332 -0.96516319 3.37807116 0 0 Z " fill="#EBEFF5" transform="translate(316,40)"/>
<path d="M0 0 C4.35392338 4.35392338 3.28773165 11.04767551 3.33007812 16.84326172 C3.24233537 24.10982398 1.6823668 30.22223389 -1 37 C-1.495 35.515 -1.495 35.515 -2 34 C-3.01382591 31.68268363 -3.67329776 30.25410174 -5.6875 28.6875 C-7 27 -7 27 -6.8125 23.5 C-6 20 -6 20 -4 17 C-1.525 18.98 -1.525 18.98 1 21 C1.28516646 17.62236173 1.46516061 14.36557385 1 11 C-1.42672567 9.21030974 -1.42672567 9.21030974 -4 8 C-4.3125 4.8125 -4.3125 4.8125 -4 2 C-2.68 2.33 -1.36 2.66 0 3 C0 2.01 0 1.02 0 0 Z " fill="#265DA6" transform="translate(381,47)"/>
<path d="M0 0 C6.19101124 4.56179775 6.19101124 4.56179775 7 8 C4.9 13.1 4.9 13.1 3 15 C0.64686445 15.07271741 -1.70833668 15.08370868 -4.0625 15.0625 C-5.35285156 15.05347656 -6.64320313 15.04445313 -7.97265625 15.03515625 C-8.97167969 15.02355469 -9.97070312 15.01195313 -11 15 C-10.236875 14.13375 -9.47375 13.2675 -8.6875 12.375 C-6.23907466 9.45758051 -4.67390265 6.42389178 -3 3 C-1.3125 1.125 -1.3125 1.125 0 0 Z " fill="#F5F7FA" transform="translate(370,100)"/>
<path d="M0 0 C2.59853524 0.39160169 4.97301599 0.88763951 7.5 1.5625 C8.22324463 1.75521484 8.94648926 1.94792969 9.69165039 2.14648438 C21.64388798 5.46573509 28.63976883 10.10502542 35 21 C35.74609375 23.875 35.74609375 23.875 36 26 C35.278125 25.21625 34.55625 24.4325 33.8125 23.625 C31.12239567 21.11423596 29.33469476 20.29682574 26 19 C25.67 18.01 25.34 17.02 25 16 C26.32 16 27.64 16 29 16 C27.90398831 14.99106869 26.79786082 13.99311775 25.6875 13 C24.76517578 12.1646875 24.76517578 12.1646875 23.82421875 11.3125 C21.96868665 9.70798502 21.96868665 9.70798502 19 10 C19 10.99 19 11.98 19 13 C18.505 12.360625 18.01 11.72125 17.5 11.0625 C14.85278003 8.87854352 14.07424847 8.68536386 10.8125 8.375 C9.554375 8.25125 8.29625 8.1275 7 8 C6.67 7.34 6.34 6.68 6 6 C6.66 5.67 7.32 5.34 8 5 C4.7 4.01 1.4 3.02 -2 2 C-1.34 1.34 -0.68 0.68 0 0 Z " fill="#CFD9E9" transform="translate(337,16)"/>
<path d="M0 0 C3.61223909 1.67711101 7.16719443 3.33438885 9 7 C7.890625 9.3828125 7.890625 9.3828125 6.25 12.125 C5.71890625 13.03507812 5.1878125 13.94515625 4.640625 14.8828125 C4.09921875 15.58148438 3.5578125 16.28015625 3 17 C2.01 17 1.02 17 0 17 C-4.96666667 12.03333333 -4.96666667 12.03333333 -5.0625 9.0625 C-3.47252948 5.97608663 -1.77839782 2.98311893 0 0 Z " fill="#245DA6" transform="translate(369,81)"/>
<path d="M0 0 C1.48828125 1.14453125 1.48828125 1.14453125 3 3 C3.29296875 5.69921875 3.29296875 5.69921875 3.1875 8.6875 C3.16042969 9.68136719 3.13335937 10.67523438 3.10546875 11.69921875 C3.07066406 12.45847656 3.03585937 13.21773437 3 14 C2.34 14 1.68 14 1 14 C-0.72038887 17.70958851 -1.18292265 20.4299711 -1 24.5 C-0.81707735 28.5700289 -1.27961113 31.29041149 -3 35 C-3.99 34.34 -4.98 33.68 -6 33 C-6.40992188 33.62648437 -6.81984375 34.25296875 -7.2421875 34.8984375 C-7.78101563 35.71570313 -8.31984375 36.53296875 -8.875 37.375 C-9.67550781 38.59316406 -9.67550781 38.59316406 -10.4921875 39.8359375 C-12 42 -12 42 -14 44 C-13.42627953 39.45305122 -11.45771415 36.07190657 -9.1875 32.1875 C-3.51450882 22.04587509 -1.31146348 11.49758758 0 0 Z " fill="#E8ECF4" transform="translate(392,67)"/>
<path d="M0 0 C0.33 0 0.66 0 1 0 C1.4946164 7.54290017 -0.09382609 13.058915 -3 20 C-3.66 19.67 -4.32 19.34 -5 19 C-4.34 17.68 -3.68 16.36 -3 15 C-4.216875 14.87625 -5.43375 14.7525 -6.6875 14.625 C-10.06479059 14.21108694 -12.89756695 13.45426549 -16 12 C-16 11.01 -16 10.02 -16 9 C-10.5814234 8.77422598 -6.22512279 9.53329887 -1 11 C-1 9.35 -1 7.7 -1 6 C-5.62 6 -10.24 6 -15 6 C-15 5.01 -15 4.02 -15 3 C-10.05 3 -5.1 3 0 3 C0 2.01 0 1.02 0 0 Z " fill="#245EA7" transform="translate(333,33)"/>
<path d="M0 0 C3.30199431 0.28302808 5.01486081 1.01047012 7.75 2.9375 C10.87817516 7.19529397 11.40334896 10.77197689 11 16 C9.53021289 21.24224068 7.25853103 25.50192094 3 29 C1.5 27.75 1.5 27.75 0 26 C0 24.68 0 23.36 0 22 C2.31 22.33 4.62 22.66 7 23 C7 22.01 7 21.02 7 20 C4.69 20 2.38 20 0 20 C0 19.34 0 18.68 0 18 C2.97 18 5.94 18 9 18 C9 17.01 9 16.02 9 15 C6.03 15 3.06 15 0 15 C3.76687864 13.11656068 5.02958963 12.77942165 9 13 C9 12.01 9 11.02 9 10 C7.68 9.67 6.36 9.34 5 9 C5.99 8.34 6.98 7.68 8 7 C5.36 7.66 2.72 8.32 0 9 C0.66 8.01 1.32 7.02 2 6 C1.34 5.67 0.68 5.34 0 5 C0.66 4.01 1.32 3.02 2 2 C1.34 1.34 0.68 0.68 0 0 Z " fill="#2E64AA" transform="translate(306,24)"/>
<path d="M0 0 C2 3 2 3 1.75 6.625 C1.5025 7.73875 1.255 8.8525 1 10 C-2.04300316 11.52150158 -4.654085 11.23899393 -8 11 C-10.31361802 7.52957297 -10.51020728 6.08165827 -10 2 C-6.96457461 -1.61916104 -4.32701626 -1.31691799 0 0 Z " fill="#235CA6" transform="translate(66,66)"/>
<path d="M0 0 C2.9375 0.75 2.9375 0.75 4.9375 2.75 C5.26765665 5.85347254 5.44281294 7.90781176 3.8125 10.625 C1.05659116 12.27854531 -0.91325452 12.14365568 -4.0625 11.75 C-6 10.6875 -6 10.6875 -7.0625 8.75 C-6.9375 5.1875 -6.9375 5.1875 -6.0625 1.75 C-3.0625 -0.25 -3.0625 -0.25 0 0 Z " fill="#255DA6" transform="translate(155.0625,0.25)"/>
<path d="M0 0 C3.5625 0.3125 3.5625 0.3125 5.5625 1.4375 C7.08982345 4.30123147 6.40528671 6.26550191 5.5625 9.3125 C3.5625 11.3125 3.5625 11.3125 0.125 11.6875 C-3.4375 11.3125 -3.4375 11.3125 -5.4375 9.625 C-6.70076211 6.70370636 -6.45766252 5.29451353 -5.4375 2.3125 C-3.4375 0.3125 -3.4375 0.3125 0 0 Z " fill="#275EA6" transform="translate(144.4375,65.6875)"/>
<path d="M0 0 C3.79598549 1.49128001 5.71720399 3.65733441 8 7 C8 7.99 8 8.98 8 10 C6.41058594 10.09087891 6.41058594 10.09087891 4.7890625 10.18359375 C3.40102779 10.26800127 2.01300768 10.35264917 0.625 10.4375 C-0.07367188 10.47681641 -0.77234375 10.51613281 -1.4921875 10.55664062 C-5.37360492 10.74280134 -5.37360492 10.74280134 -9 12 C-9 9.69 -9 7.38 -9 5 C-5.38026598 3.68373308 -2.90432869 3 1 3 C0.67 2.01 0.34 1.02 0 0 Z " fill="#E7ECF4" transform="translate(325,22)"/>
<path d="M0 0 C3.28520222 3.06618874 5.90393133 5.58992941 6.08984375 10.25390625 C5.98809873 11.79573463 5.88392313 13.3374045 5.77734375 14.87890625 C5.77545024 17.09575443 5.77545024 17.09575443 7.4921875 18.390625 C9.78137468 20.83400614 9.29275308 22.92465454 9.1875 26.1875 C9.16042969 27.27417969 9.13335937 28.36085938 9.10546875 29.48046875 C9.07066406 30.31191406 9.03585937 31.14335938 9 32 C8.195625 31.505 7.39125 31.01 6.5625 30.5 C4.35103815 28.91580347 4.35103815 28.91580347 3 29 C2.98018066 28.44127197 2.96036133 27.88254395 2.93994141 27.30688477 C2.8434781 24.72502582 2.73430188 22.14384608 2.625 19.5625 C2.5940625 18.68400391 2.563125 17.80550781 2.53125 16.90039062 C2.27193381 11.04416673 1.42355815 5.68844577 0 0 Z " fill="#F9FAFC" transform="translate(381,44)"/>
<path d="M0 0 C0 3 0 3 -1.3125 4.60546875 C-1.869375 5.12753906 -2.42625 5.64960937 -3 6.1875 C-3.556875 6.71730469 -4.11375 7.24710937 -4.6875 7.79296875 C-5.120625 8.19128906 -5.55375 8.58960937 -6 9 C-4.85022447 11.58699494 -3.67229432 13.38388379 -1.8125 15.5625 C-0.9153125 16.7690625 -0.9153125 16.7690625 0 18 C-0.33 18.99 -0.66 19.98 -1 21 C-3.5625 22.1875 -3.5625 22.1875 -6 23 C-6.59748047 22.15115234 -6.59748047 22.15115234 -7.20703125 21.28515625 C-7.73683594 20.55167969 -8.26664062 19.81820312 -8.8125 19.0625 C-9.33457031 18.33160156 -9.85664063 17.60070312 -10.39453125 16.84765625 C-11.95867127 14.73116774 -11.95867127 14.73116774 -15 14 C-14.16855469 13.24074219 -13.33710938 12.48148438 -12.48046875 11.69921875 C-11.38277925 10.69534886 -10.28512484 9.6914406 -9.1875 8.6875 C-8.64029297 8.18798828 -8.09308594 7.68847656 -7.52929688 7.17382812 C-4.96878163 4.83056872 -2.42060466 2.48855146 0 0 Z " fill="#F6F8FB" transform="translate(346,86)"/>
<path d="M0 0 C1.75 1.0625 1.75 1.0625 3 3 C3.6875 6.6875 3.6875 6.6875 4 10 C-0.29 10 -4.58 10 -9 10 C-8.39779006 3.61657459 -8.39779006 3.61657459 -6.75 1.0625 C-4.31689101 -0.41474475 -2.79657176 -0.41948576 0 0 Z " fill="#F3F5F9" transform="translate(229,83)"/>
<path d="M0 0 C2.76683076 2.38953566 3.88205053 4.53050164 5 8 C5.1953125 11.33203125 5.1953125 11.33203125 5.125 14.8125 C5.10695313 15.97394531 5.08890625 17.13539062 5.0703125 18.33203125 C5.04710937 19.21246094 5.02390625 20.09289062 5 21 C4.34 20.67 3.68 20.34 3 20 C3 18.02 3 16.04 3 14 C2.37351562 13.93941406 1.74703125 13.87882812 1.1015625 13.81640625 C0.28429687 13.73261719 -0.53296875 13.64882813 -1.375 13.5625 C-2.59316406 13.44068359 -2.59316406 13.44068359 -3.8359375 13.31640625 C-6 13 -6 13 -8 12 C-8 11.34 -8 10.68 -8 10 C-4.37 10 -0.74 10 3 10 C2.67 8.68 2.34 7.36 2 6 C-1.63 5.67 -5.26 5.34 -9 5 C-9 4.01 -9 3.02 -9 2 C-6.03 2 -3.06 2 0 2 C0 1.34 0 0.68 0 0 Z " fill="#4574B2" transform="translate(344,27)"/>
<path d="M0 0 C1.65 0 3.3 0 5 0 C3.68 0.33 2.36 0.66 1 1 C1 1.66 1 2.32 1 3 C4.63 3.66 8.26 4.32 12 5 C12 7.31 12 9.62 12 12 C7.71 11.01 3.42 10.02 -1 9 C-1.33 10.65 -1.66 12.3 -2 14 C-3.25127906 10.45332822 -2.72285053 8.27746562 -1.5625 4.75 C-1.27503906 3.85796875 -0.98757813 2.9659375 -0.69140625 2.046875 C-0.46324219 1.37140625 -0.23507812 0.6959375 0 0 Z " fill="#EBEFF5" transform="translate(335,36)"/>
<path d="M0 0 C3.0625 0.3125 3.0625 0.3125 4.875 1.4375 C6.0625 3.3125 6.0625 3.3125 7.0625 9.3125 C2.7725 9.3125 -1.5175 9.3125 -5.9375 9.3125 C-4.96142344 0.527811 -4.96142344 0.527811 0 0 Z " fill="#F9FAFC" transform="translate(214.9375,17.6875)"/>
<path d="M0 0 C0.825 0.144375 1.65 0.28875 2.5 0.4375 C5 1 5 1 7 3 C5.35 3.33 3.7 3.66 2 4 C2 4.66 2 5.32 2 6 C2.66 6.33 3.32 6.66 4 7 C3.01 7.33 2.02 7.66 1 8 C0.525625 7.319375 0.05125 6.63875 -0.4375 5.9375 C-3.38988165 3.70521144 -3.97600186 3.79271932 -7.5 4.1875 C-10.37959614 4.63620419 -13.18111418 5.26324575 -16 6 C-14.625 4.5 -14.625 4.5 -13 3 C-12.34 3 -11.68 3 -11 3 C-11 2.34 -11 1.68 -11 1 C-12.093125 1.33 -13.18625 1.66 -14.3125 2 C-18 3 -18 3 -21 3 C-21 2.01 -21 1.02 -21 0 C-3.26213592 -1.63106796 -3.26213592 -1.63106796 0 0 Z " fill="#ECEFF6" transform="translate(330,19)"/>
<path d="M0 0 C3.83392734 4.51050276 4.58297768 9.33191073 6 15 C2.37 15 -1.26 15 -5 15 C-4.43174347 9.45949887 -2.37113483 4.96284034 0 0 Z " fill="#F5F7FA" transform="translate(22,81)"/>
<path d="M0 0 C0.66 0 1.32 0 2 0 C2.83848804 1.45537568 3.67063934 2.91440373 4.5 4.375 C5.19609375 5.59316406 5.19609375 5.59316406 5.90625 6.8359375 C7 9 7 9 7 11 C7.99 11.33 8.98 11.66 10 12 C8.5437455 12.67119549 7.08492133 13.33681807 5.625 14 C4.40683594 14.556875 4.40683594 14.556875 3.1640625 15.125 C1 16 1 16 -1 16 C-1.02685095 13.52076199 -1.04676547 11.0418116 -1.0625 8.5625 C-1.07506836 7.50192383 -1.07506836 7.50192383 -1.08789062 6.41992188 C-1.09653588 4.61306441 -1.05220011 2.80612397 -1 1 C-0.67 0.67 -0.34 0.34 0 0 Z " fill="#1E59A4" transform="translate(307,97)"/>
<path d="M0 0 C0.66 0 1.32 0 2 0 C0.52440331 4.42679007 -1.90057368 4.91432696 -6 7 C-6.66 7 -7.32 7 -8 7 C-7.55527344 7.75925781 -7.11054688 8.51851562 -6.65234375 9.30078125 C-6.08644531 10.29464844 -5.52054687 11.28851563 -4.9375 12.3125 C-4.36902344 13.29863281 -3.80054688 14.28476563 -3.21484375 15.30078125 C-2 18 -2 18 -3 21 C-3.99 21 -4.98 21 -6 21 C-8.31 16.71 -10.62 12.42 -13 8 C-9.90755208 6.20963542 -6.81510417 4.41927083 -3.72265625 2.62890625 C-1.1716429 1.25289773 -1.1716429 1.25289773 0 0 Z " fill="#ECF0F6" transform="translate(320,87)"/>
<path d="M0 0 C0.99 0.66 1.98 1.32 3 2 C3.66 1.67 4.32 1.34 5 1 C4.41512359 5.00748653 3.15605425 7.85736768 1.0625 11.3125 C0.53785156 12.19550781 0.01320313 13.07851562 -0.52734375 13.98828125 C-1.01332031 14.65214844 -1.49929688 15.31601563 -2 16 C-2.66 16 -3.32 16 -4 16 C-6 13 -6 13 -5.9375 10.8125 C-4.59973409 6.79920228 -2.35019768 3.49494341 0 0 Z " fill="#265EA7" transform="translate(385,99)"/>
<path d="M0 0 C0.66 0 1.32 0 2 0 C1.34977233 10.5381726 -1.47934913 19.49974893 -6 29 C-7.65 29 -9.3 29 -11 29 C-10.40917986 27.51545194 -9.80187345 26.03745649 -9.1875 24.5625 C-8.85105469 23.73878906 -8.51460938 22.91507813 -8.16796875 22.06640625 C-7 20 -7 20 -4 19 C-3.20993767 17.08768436 -3.20993767 17.08768436 -2.83203125 14.74609375 C-2.66123047 13.89208984 -2.49042969 13.03808594 -2.31445312 12.15820312 C-2.14880859 11.26037109 -1.98316406 10.36253906 -1.8125 9.4375 C-1.63525391 8.53580078 -1.45800781 7.63410156 -1.27539062 6.70507812 C-0.83824494 4.47209073 -0.41372907 2.23742403 0 0 Z " fill="#3B6EAF" transform="translate(396,86)"/>
<path d="M0 0 C0.33 0 0.66 0 1 0 C1.48982336 7.18407598 0.87191022 13.67513015 -0.875 20.625 C-1.13555176 21.67300781 -1.13555176 21.67300781 -1.40136719 22.7421875 C-2.72907759 27.72907759 -2.72907759 27.72907759 -5 30 C-5.0544452 27.79194476 -5.09299283 25.58349446 -5.125 23.375 C-5.14820313 22.14523438 -5.17140625 20.91546875 -5.1953125 19.6484375 C-5.0030428 16.05683959 -4.30258556 13.33338825 -3 10 C-2.01 10.33 -1.02 10.66 0 11 C0 7.37 0 3.74 0 0 Z " fill="#2C63A9" transform="translate(395,70)"/>
<path d="M0 0 C2.2421875 -0.26171875 2.2421875 -0.26171875 5 0 C7.1328125 1.79296875 7.1328125 1.79296875 9.125 4.1875 C9.78757812 4.96480469 10.45015625 5.74210937 11.1328125 6.54296875 C12.95596178 8.94205013 14.50511241 11.38626797 16 14 C15.01 15.485 15.01 15.485 14 17 C12.02 13.535 12.02 13.535 10 10 C9.34 10.66 8.68 11.32 8 12 C5 7.25 5 7.25 5 5 C4.360625 4.731875 3.72125 4.46375 3.0625 4.1875 C1 3 1 3 0 0 Z " fill="#A5B9D7" transform="translate(372,35)"/>
<path d="M0 0 C2.80478513 2.80478513 2.96108361 4.88543472 3.09765625 8.796875 C3.08605469 9.77140625 3.07445312 10.7459375 3.0625 11.75 C3.05347656 12.73484375 3.04445313 13.7196875 3.03515625 14.734375 C3.02355469 15.48203125 3.01195312 16.2296875 3 17 C0.8480563 13.77208445 0.79913557 12.71599191 1 9 C-0.1446875 8.566875 -0.1446875 8.566875 -1.3125 8.125 C-4 7 -4 7 -7 5 C-7 3.68 -7 2.36 -7 1 C-4.69 1.66 -2.38 2.32 0 3 C0 2.01 0 1.02 0 0 Z " fill="#4070B0" transform="translate(373,43)"/>
<path d="M0 0 C0.78375 0.825 1.5675 1.65 2.375 2.5 C4.63721264 5.22988506 4.63721264 5.22988506 7 5 C7.66 4.67 8.32 4.34 9 4 C8.34 5.32 7.68 6.64 7 8 C2.38 8 -2.24 8 -7 8 C-1.125 1.125 -1.125 1.125 0 0 Z " fill="#255FA7" transform="translate(366,107)"/>
<path d="M0 0 C3 1 3 1 4 3 C6.58605332 3.4683265 6.58605332 3.4683265 9.5625 3.625 C11.08037109 3.73714844 11.08037109 3.73714844 12.62890625 3.8515625 C13.80259766 3.92503906 13.80259766 3.92503906 15 4 C15 4.33 15 4.66 15 5 C14.31292969 5.06058594 13.62585938 5.12117188 12.91796875 5.18359375 C11.56638672 5.30927734 11.56638672 5.30927734 10.1875 5.4375 C8.84751953 5.55931641 8.84751953 5.55931641 7.48046875 5.68359375 C4.87256441 5.93489767 4.87256441 5.93489767 2 7 C1.67 8.65 1.34 10.3 1 12 C-0.65 12 -2.3 12 -4 12 C-2.68 8.04 -1.36 4.08 0 0 Z " fill="#3869AC" transform="translate(13,92)"/>
<path d="M0 0 C0.33 0.99 0.66 1.98 1 3 C5.62 3 10.24 3 15 3 C15 4.65 15 6.3 15 8 C9.99109914 7.38487182 4.99367864 6.7282448 0 6 C0 4.02 0 2.04 0 0 Z " fill="#F9FAFC" transform="translate(317,36)"/>
<path d="M0 0 C9.14739159 -0.41790114 17.22439035 -0.33351304 24.5625 5.6875 C25.7690625 6.8321875 25.7690625 6.8321875 27 8 C26.67 8.66 26.34 9.32 26 10 C25.67 9.67 25.34 9.34 25 9 C23.31816052 8.76712992 21.6287584 8.58735834 19.9375 8.4375 C19.01839844 8.35371094 18.09929687 8.26992188 17.15234375 8.18359375 C16.44207031 8.12300781 15.73179687 8.06242187 15 8 C15 7.34 15 6.68 15 6 C15.99 5.34 16.98 4.68 18 4 C14.59437148 3.22157062 11.49234244 2.90021879 8 3 C8 2.67 8 2.34 8 2 C5.36 1.67 2.72 1.34 0 1 C0 0.67 0 0.34 0 0 Z " fill="#6185BB" transform="translate(317,17)"/>
<path d="M0 0 C0.33 0 0.66 0 1 0 C1 2.97 1 5.94 1 9 C0.34 9 -0.32 9 -1 9 C-1 8.01 -1 7.02 -1 6 C-5.62 6 -10.24 6 -15 6 C-15 5.01 -15 4.02 -15 3 C-10.05 3 -5.1 3 0 3 C0 2.01 0 1.02 0 0 Z " fill="#3469AD" transform="translate(333,33)"/>
<path d="M0 0 C2.41696872 -0.05411124 4.83271787 -0.09372278 7.25 -0.125 C7.93191406 -0.14175781 8.61382812 -0.15851562 9.31640625 -0.17578125 C13.08202801 -0.21234068 15.80568156 -0.06331574 19 2 C22.23385755 3.72472403 25.50786908 4.88886744 29 6 C28.01 6.99 27.02 7.98 26 9 C23.3099385 8.0008343 20.93951868 6.96219918 18.5 5.4375 C15.94325637 3.96737241 13.89973855 3.41424836 11 3 C11 2.67 11 2.34 11 2 C7.37 1.67 3.74 1.34 0 1 C0 0.67 0 0.34 0 0 Z " fill="#D7DFEC" transform="translate(318,15)"/>
<path d="M0 0 C3.3 0 6.6 0 10 0 C10 3.3 10 6.6 10 10 C6.27929177 8.75976392 5.37478909 7.04269852 3 4 C2.01 3.34 1.02 2.68 0 2 C0 1.34 0 0.68 0 0 Z " fill="#3669AC" transform="translate(269,81)"/>
<path d="M0 0 C5.15464734 0.48324819 8.81550319 3.18610761 13 6 C12.01 7.485 12.01 7.485 11 9 C7.56049636 8.38801624 5.48435515 7.07941153 2.75 4.9375 C2.04359375 4.38964844 1.3371875 3.84179688 0.609375 3.27734375 C0.07828125 2.85582031 -0.4528125 2.43429688 -1 2 C-0.67 1.34 -0.34 0.68 0 0 Z " fill="#F3F5F9" transform="translate(311,53)"/>
<path d="M0 0 C2.80478513 2.80478513 2.96108361 4.88543472 3.09765625 8.796875 C3.08605469 9.77140625 3.07445312 10.7459375 3.0625 11.75 C3.05347656 12.73484375 3.04445313 13.7196875 3.03515625 14.734375 C3.02355469 15.48203125 3.01195312 16.2296875 3 17 C2.67 17 2.34 17 2 17 C1.938125 16.071875 1.87625 15.14375 1.8125 14.1875 C1.544375 13.135625 1.27625 12.08375 1 11 C0.154375 10.505 -0.69125 10.01 -1.5625 9.5 C-2.366875 9.005 -3.17125 8.51 -4 8 C-4.3125 4.8125 -4.3125 4.8125 -4 2 C-2.68 2.33 -1.36 2.66 0 3 C0 2.01 0 1.02 0 0 Z " fill="#3368AB" transform="translate(381,47)"/>
<path d="M0 0 C2.375 -0.125 2.375 -0.125 5 0 C7 2 7 2 7.25 4.5 C7 7 7 7 5 9 C2 9.3125 2 9.3125 -1 9 C-3 6 -3 6 -2.625 3.8125 C-2.41875 3.214375 -2.2125 2.61625 -2 2 C-1.67 2 -1.34 2 -1 2 C-0.67 3.65 -0.34 5.3 0 7 C0.99 7 1.98 7 3 7 C2.690625 6.401875 2.38125 5.80375 2.0625 5.1875 C1 3 1 3 0 0 Z " fill="#A2B6D5" transform="translate(425,106)"/>
<path d="M0 0 C2.08168944 3.34779159 2.1006308 5.25190391 1.25 9.0625 C1.06953125 9.91972656 0.8890625 10.77695313 0.703125 11.66015625 C0 14 0 14 -2 17 C-2.99 17 -3.98 17 -5 17 C-4.80664062 16.35933594 -4.61328125 15.71867187 -4.4140625 15.05859375 C-2.9059252 10.04889015 -1.42282214 5.03460143 0 0 Z " fill="#96AED2" transform="translate(397,98)"/>
<path d="M0 0 C2.67860919 2.50003525 4.79239321 4.51651888 6 8 C5.8244176 10.66205569 5.55547336 13.13252406 5.125 15.75 C5.02058594 16.44738281 4.91617187 17.14476563 4.80859375 17.86328125 C4.55032364 19.57725559 4.27667048 21.2888995 4 23 C3.67 23 3.34 23 3 23 C2.92652344 21.64068359 2.92652344 21.64068359 2.8515625 20.25390625 C2.42420873 13.29098709 1.74718596 6.75578571 0 0 Z " fill="#E4E9F2" transform="translate(381,44)"/>
<path d="M0 0 C3.53264443 1.4582881 5.35982394 3.30823263 7.6875 6.3125 C8.28949219 7.07175781 8.89148438 7.83101562 9.51171875 8.61328125 C11.08115514 11.13014642 11.61247182 13.08062107 12 16 C11.278125 15.21625 10.55625 14.4325 9.8125 13.625 C7.12239567 11.11423596 5.33469476 10.29682574 2 9 C1.67 8.01 1.34 7.02 1 6 C2.32 6 3.64 6 5 6 C3.35 4.02 1.7 2.04 0 0 Z " fill="#4674B2" transform="translate(361,26)"/>
<path d="M0 0 C0 0.66 0 1.32 0 2 C-3.3 2.66 -6.6 3.32 -10 4 C-10.33 4.99 -10.66 5.98 -11 7 C-11.66 6.01 -12.32 5.02 -13 4 C-12.67 3.01 -12.34 2.02 -12 1 C-7.64334521 -0.67563646 -4.50462014 -1.36503641 0 0 Z " fill="#ECEFF6" transform="translate(326,23)"/>
<path d="M0 0 C3 3 3 3 3.29296875 5.69921875 C3.25816406 6.68535156 3.22335937 7.67148438 3.1875 8.6875 C3.16042969 9.68136719 3.13335937 10.67523438 3.10546875 11.69921875 C3.07066406 12.45847656 3.03585937 13.21773437 3 14 C1.68 13.67 0.36 13.34 -1 13 C-0.67 8.71 -0.34 4.42 0 0 Z " fill="#F7F8FB" transform="translate(392,67)"/>
<path d="M0 0 C2 2 2 2 2.265625 4.49609375 C2.26046875 5.46675781 2.2553125 6.43742187 2.25 7.4375 C2.25515625 8.40558594 2.2603125 9.37367187 2.265625 10.37109375 C2 13 2 13 0 16 C-0.66 15.67 -1.32 15.34 -2 15 C-1.03644647 4.44191344 -1.03644647 4.44191344 0 0 Z " fill="#E7ECF4" transform="translate(398,86)"/>
<path d="M0 0 C3.2542015 2.83430453 4.5206753 4.68607774 5 9 C4.7628125 8.35417969 4.525625 7.70835938 4.28125 7.04296875 C3.19535294 4.79975549 3.19535294 4.79975549 0.90625 4.42578125 C0.1121875 4.38839844 -0.681875 4.35101563 -1.5 4.3125 C-5.87179487 4.06410256 -5.87179487 4.06410256 -8 3 C-8 2.34 -8 1.68 -8 1 C-6.865625 1.020625 -5.73125 1.04125 -4.5625 1.0625 C-1.18424326 1.41577477 -1.18424326 1.41577477 0 0 Z " fill="#2E63A9" transform="translate(357,29)"/>
<path d="M0 0 C1.72880982 -0.05449838 3.45812712 -0.09301688 5.1875 -0.125 C6.15042969 -0.14820312 7.11335938 -0.17140625 8.10546875 -0.1953125 C11.12812778 0.0086456 13.26769985 0.73125368 16 2 C12.49461443 3.96301592 8.86648272 4.95902388 5 6 C6.375 4.5 6.375 4.5 8 3 C8.66 3 9.32 3 10 3 C10 2.34 10 1.68 10 1 C8.906875 1.33 7.81375 1.66 6.6875 2 C3 3 3 3 0 3 C0 2.01 0 1.02 0 0 Z " fill="#3668AC" transform="translate(309,19)"/>
<path d="M0 0 C1.5 1.3125 1.5 1.3125 3 3 C3 3.99 3 4.98 3 6 C-1.95 6.33 -6.9 6.66 -12 7 C-12 6.34 -12 5.68 -12 5 C-6.555 4.01 -6.555 4.01 -1 3 C-0.67 2.01 -0.34 1.02 0 0 Z " fill="#2A63A9" transform="translate(330,26)"/>
<path d="M0 0 C0.33 0 0.66 0 1 0 C1.3690205 9.41002278 1.3690205 9.41002278 -1 14 C-1.33 13.34 -1.66 12.68 -2 12 C-2.66 12 -3.32 12 -4 12 C-2.66666667 8 -1.33333333 4 0 0 Z " fill="#F7F8FB" transform="translate(393,93)"/>
<path d="M0 0 C1.9375 0.8125 1.9375 0.8125 4 2 C4.33 2.99 4.66 3.98 5 5 C2.98177083 4.96744792 0.96354167 4.93489583 -1.0546875 4.90234375 C-3.08185404 4.87350758 -3.08185404 4.87350758 -5 6 C-3.86695008 2.60085025 -2.87481525 1.94745549 0 0 Z " fill="#9FB7D7" transform="translate(340,111)"/>
<path d="M0 0 C2.31 0.33 4.62 0.66 7 1 C5.25 5.875 5.25 5.875 3 7 C1.5 5.75 1.5 5.75 0 4 C0 2.68 0 1.36 0 0 Z " fill="#245DA6" transform="translate(306,46)"/>
<path d="M0 0 C2.375 0.25 2.375 0.25 5 1 C6.3125 3.0625 6.3125 3.0625 7 5 C4.82575883 7.50037734 3.26954202 8.43628586 0 9 C0.66 8.01 1.32 7.02 2 6 C1.34 5.67 0.68 5.34 0 5 C0.66 4.01 1.32 3.02 2 2 C1.34 1.34 0.68 0.68 0 0 Z " fill="#6186BD" transform="translate(306,24)"/>
<path d="M0 0 C-0.875 4.75 -0.875 4.75 -2 7 C-3.65 7 -5.3 7 -7 7 C-3.72340426 0 -3.72340426 0 0 0 Z " fill="#1F5BA5" transform="translate(392,108)"/>
<path d="M0 0 C3.875 1.75 3.875 1.75 5 4 C-1.93 5.485 -1.93 5.485 -9 7 C-9 6.34 -9 5.68 -9 5 C-5.38026598 3.68373308 -2.90432869 3 1 3 C0.67 2.01 0.34 1.02 0 0 Z " fill="#2B63AA" transform="translate(325,22)"/>
<path d="M0 0 C0 0.66 0 1.32 0 2 C-0.969375 2.268125 -1.93875 2.53625 -2.9375 2.8125 C-3.948125 3.204375 -4.95875 3.59625 -6 4 C-6.33 4.99 -6.66 5.98 -7 7 C-7.99 6.01 -8.98 5.02 -10 4 C-6.58908673 0.88145073 -4.68377325 -0.53528837 0 0 Z " fill="#F4F6F9" transform="translate(319,20)"/>
<path d="M0 0 C1.98 1.32 3.96 2.64 6 4 C5.67 4.66 5.34 5.32 5 6 C4.67 5.67 4.34 5.34 4 5 C2.31816052 4.76712992 0.6287584 4.58735834 -1.0625 4.4375 C-1.98160156 4.35371094 -2.90070313 4.26992188 -3.84765625 4.18359375 C-4.91306641 4.09271484 -4.91306641 4.09271484 -6 4 C-6 3.34 -6 2.68 -6 2 C-4.02 2 -2.04 2 0 2 C0 1.34 0 0.68 0 0 Z " fill="#3A6EAF" transform="translate(338,21)"/>
<path d="M0 0 C0.99 0.33 1.98 0.66 3 1 C3 3.31 3 5.62 3 8 C2.34 8 1.68 8 1 8 C0.67 8.99 0.34 9.98 0 11 C0 7.37 0 3.74 0 0 Z " fill="#F4F6FA" transform="translate(396,73)"/>
<path d="M0 0 C2.05078125 0.03255208 4.1015625 0.06510417 6.15234375 0.09765625 C6.15234375 1.08765625 6.15234375 2.07765625 6.15234375 3.09765625 C3.51234375 3.42765625 0.87234375 3.75765625 -1.84765625 4.09765625 C-2.17765625 3.10765625 -2.50765625 2.11765625 -2.84765625 1.09765625 C-1.84765625 0.09765625 -1.84765625 0.09765625 0 0 Z " fill="#B3C3DD" transform="translate(308.84765625,33.90234375)"/>
<path d="M0 0 C1.65 0 3.3 0 5 0 C5 0.99 5 1.98 5 3 C4.01 3.495 4.01 3.495 3 4 C3.99 5.485 3.99 5.485 5 7 C3.35 6.67 1.7 6.34 0 6 C0 4.02 0 2.04 0 0 Z " fill="#E1E7F1" transform="translate(424,107)"/>
<path d="M0 0 C2.18043828 2.18043828 2.56240225 3.02433527 3 6 C2.5625 8.25 2.5625 8.25 2 10 C1.01 9.67 0.02 9.34 -1 9 C-0.67 6.03 -0.34 3.06 0 0 Z " fill="#3167AB" transform="translate(387,52)"/>
<path d="M0 0 C4.455 0.99 4.455 0.99 9 2 C7 4 7 4 3.375 4.125 C2.26125 4.08375 1.1475 4.0425 0 4 C0 2.68 0 1.36 0 0 Z " fill="#1C59A4" transform="translate(351,39)"/>
<path d="M0 0 C1.02104551 0.97850195 2.0206121 1.97980427 3 3 C3 3.33 3 3.66 3 4 C-0.63 4 -4.26 4 -8 4 C-5.33440687 2.22293791 -2.9719385 1.12451727 0 0 Z " fill="#1656A3" transform="translate(315,111)"/>
<path d="M0 0 C2.5654594 2.5654594 2.54046087 4.47686668 3 8 C2.34 7.67 1.68 7.34 1 7 C0.67 9.31 0.34 11.62 0 14 C-0.33 14 -0.66 14 -1 14 C-1.18451025 4.58997722 -1.18451025 4.58997722 0 0 Z " fill="#84A1CA" transform="translate(392,61)"/>
<path d="M0 0 C2.31 0 4.62 0 7 0 C6.67 1.32 6.34 2.64 6 4 C3.03 3.505 3.03 3.505 0 3 C0 2.01 0 1.02 0 0 Z " fill="#386BAD" transform="translate(317,42)"/>
<path d="M0 0 C0.99 0.33 1.98 0.66 3 1 C2.34 1 1.68 1 1 1 C0.7525 1.7425 0.505 2.485 0.25 3.25 C-1.09147301 6.20124062 -2.60905526 7.84814974 -5 10 C-5 6.60406522 -4.47834052 5.93380119 -2.5 3.3125 C-2.0359375 2.68988281 -1.571875 2.06726563 -1.09375 1.42578125 C-0.7328125 0.95527344 -0.371875 0.48476562 0 0 Z " fill="#DBE2ED" transform="translate(357,71)"/>
<path d="M0 0 C2.37590142 3.70416126 2.20500286 6.92984573 2.125 11.25 C2.10695313 12.51328125 2.08890625 13.7765625 2.0703125 15.078125 C2.03550781 16.52445313 2.03550781 16.52445313 2 18 C1.67 18 1.34 18 1 18 C0.93941406 17.15695313 0.87882812 16.31390625 0.81640625 15.4453125 C0.73261719 14.34960938 0.64882813 13.25390625 0.5625 12.125 C0.48128906 11.03445312 0.40007812 9.94390625 0.31640625 8.8203125 C0.16998297 6.05271029 0.16998297 6.05271029 -1 4 C-0.5625 1.875 -0.5625 1.875 0 0 Z " fill="#1854A3" transform="translate(389,58)"/>
<path d="M0 0 C2.31 0 4.62 0 7 0 C7.33 0.99 7.66 1.98 8 3 C2.25 3.125 2.25 3.125 0 2 C0 1.34 0 0.68 0 0 Z " fill="#1556A3" transform="translate(336,37)"/>
<path d="M0 0 C1.36125 0.37125 1.36125 0.37125 2.75 0.75 C2.75 1.08 2.75 1.41 2.75 1.75 C-3.875 3.75 -3.875 3.75 -7.25 3.75 C-4.05 -0.31153846 -4.05 -0.31153846 0 0 Z " fill="#4271B0" transform="translate(63.25,65.25)"/>
<path d="M0 0 C1.98 0.99 1.98 0.99 4 2 C4 2.99 4 3.98 4 5 C3.01 5.495 3.01 5.495 2 6 C1.34 5.67 0.68 5.34 0 5 C0 3.35 0 1.7 0 0 Z " fill="#95AFD3" transform="translate(305,52)"/>
<path d="M0 0 C1.98 0.66 3.96 1.32 6 2 C5.01 2.66 4.02 3.32 3 4 C3 4.99 3 5.98 3 7 C1.68 5.35 0.36 3.7 -1 2 C-0.67 1.34 -0.34 0.68 0 0 Z " fill="#6E91C2" transform="translate(353,22)"/>
<path d="M0 0 C2.375 -0.125 2.375 -0.125 5 0 C7 2 7 2 7.125 4.625 C7.08375 5.40875 7.0425 6.1925 7 7 C6.566875 6.54625 6.13375 6.0925 5.6875 5.625 C3.89201658 3.79975666 3.89201658 3.79975666 1 2 C0.67 1.34 0.34 0.68 0 0 Z " fill="#7C97C3" transform="translate(425,106)"/>
<path d="M0 0 C1.98 0 3.96 0 6 0 C6 0.99 6 1.98 6 3 C3.69 2.67 1.38 2.34 -1 2 C-0.67 1.34 -0.34 0.68 0 0 Z " fill="#E8ECF4" transform="translate(307,44)"/>
<path d="M0 0 C2.31 0 4.62 0 7 0 C7 0.66 7 1.32 7 2 C2.25 3.125 2.25 3.125 0 2 C0 1.34 0 0.68 0 0 Z " fill="#245EA7" transform="translate(349,30)"/>
<path d="M0 0 C0 0.33 0 0.66 0 1 C-2.64 1 -5.28 1 -8 1 C-8.33 0.34 -8.66 -0.32 -9 -1 C-5.38055101 -2.34053666 -3.42632833 -1.61798838 0 0 Z " fill="#1053A2" transform="translate(352,23)"/>
</svg>
