<?xml version="1.0" encoding="UTF-8"?>
<svg version="1.1" xmlns="http://www.w3.org/2000/svg" width="419" height="120">
<path d="M0 0 C138.27 0 276.54 0 419 0 C419 39.6 419 79.2 419 120 C280.73 120 142.46 120 0 120 C0 80.4 0 40.8 0 0 Z " fill="#FDFCFD" transform="translate(0,0)"/>
<path d="M0 0 C57.09 0 114.18 0 173 0 C173 8.58 173 17.16 173 26 C148.164295 39.07142368 122.7111055 43.04792013 95.078125 46.48828125 C86.83257886 47.58072112 80.45522533 49.62064556 74 55 C73.02391783 52.07175348 72.91773332 50.04386724 73 47 C66.57824717 43.80041048 60.45695593 42.0943096 53.4375 40.75 C37.22266713 37.30240926 25.44219131 30.93745033 14 19 C13.23945313 18.21238281 12.47890625 17.42476562 11.6953125 16.61328125 C0 3.96910377 0 3.96910377 0 0 Z " fill="#FEFEFE" transform="translate(246,0)"/>
<path d="M0 0 C1.46535356 0.02652224 2.93044676 0.07413383 4.39453125 0.140625 C5.14412109 0.15867187 5.89371094 0.17671875 6.66601562 0.1953125 C8.51356835 0.24238391 10.36046284 0.31412734 12.20703125 0.390625 C16.69614824 15.98525448 21.11500618 31.59414065 25.3984375 47.24658203 C27.44054885 54.68701475 29.53875312 62.10544943 31.83666992 69.47143555 C32.80986483 72.66274823 33.20703125 74.99521853 33.20703125 78.390625 C24.95703125 78.390625 16.70703125 78.390625 8.20703125 78.390625 C7.54703125 75.68875 6.88703125 72.986875 6.20703125 70.203125 C5.99820313 69.36112549 5.789375 68.51912598 5.57421875 67.65161133 C5.41179688 66.97380615 5.249375 66.29600098 5.08203125 65.59765625 C4.91445313 64.9116333 4.746875 64.22561035 4.57421875 63.51879883 C4.15874559 61.11076719 4.14740795 58.82959073 4.20703125 56.390625 C-11.6519338 54.4536978 -11.6519338 54.4536978 -26.06835938 59.15625 C-29.44426701 63.43012633 -31.46581031 68.2427728 -33.09228516 73.41357422 C-33.79296875 75.390625 -33.79296875 75.390625 -35.79296875 78.390625 C-39.05078125 78.68359375 -39.05078125 78.68359375 -42.91796875 78.578125 C-44.83996094 78.53751953 -44.83996094 78.53751953 -46.80078125 78.49609375 C-47.78820313 78.46128906 -48.775625 78.42648438 -49.79296875 78.390625 C-45.39770203 69.11768423 -40.33470148 60.34922958 -35.07666016 51.54785156 C-33.88201955 49.5402737 -32.69958217 47.5262684 -31.5234375 45.5078125 C-26.43801408 36.78463295 -21.24428323 28.12761975 -16.01370239 19.49087524 C-15.24617483 18.22335159 -14.47930054 16.9554321 -13.71310425 15.68710327 C-12.62867469 13.89290397 -11.54133591 12.1005015 -10.453125 10.30859375 C-9.50385132 8.74274536 -9.50385132 8.74274536 -8.53540039 7.14526367 C-4.29552921 0.442382 -4.29552921 0.442382 0 0 Z " fill="#040DA6" transform="translate(49.79296875,14.609375)"/>
<path d="M0 0 C6.27 0 12.54 0 19 0 C18.52738456 6.69538545 17.88969941 13.19143258 16.609375 19.77734375 C15.79768287 24.06994637 15.08731404 28.37745343 14.375 32.6875 C14.23980957 33.50299316 14.10461914 34.31848633 13.96533203 35.15869141 C13.64284064 37.10567613 13.32131666 39.05282106 13 41 C17.38403153 39.61749582 19.49389664 37.68721849 22.44921875 34.2109375 C37.15725978 17.70899214 37.15725978 17.70899214 44.3828125 16.61328125 C48.72353802 16.46613801 52.77674789 17.02540336 57 18 C57 18.66 57 19.32 57 20 C55.6015625 21.375 55.6015625 21.375 53.625 23 C49.30144745 26.66311646 45.34832841 30.61197328 41.39453125 34.66796875 C39.04262897 36.95848369 36.59631146 38.99396894 34 41 C35.43358157 44.84192829 37.21522422 48.29831592 39.2578125 51.8515625 C39.88300781 52.94984375 40.50820312 54.048125 41.15234375 55.1796875 C42.14288598 56.90970384 43.13346789 58.6397024 44.12841797 60.3671875 C45.09380137 62.04628032 46.05093125 63.73010999 47.0078125 65.4140625 C47.58160645 66.4138916 48.15540039 67.4137207 48.74658203 68.44384766 C50 71 50 71 50 74 C42.08 74 34.16 74 26 74 C21.53358443 65.06716886 21.53358443 65.06716886 20.21875 61.75390625 C19.93386719 61.06232422 19.64898437 60.37074219 19.35546875 59.65820312 C18.77557557 58.23759722 18.20555028 56.8129305 17.64453125 55.38476562 C16.71633914 53.06648379 16.71633914 53.06648379 15 50 C12.95336046 49.24838311 12.95336046 49.24838311 11 49 C10.95101562 49.72703125 10.90203125 50.4540625 10.8515625 51.203125 C9.32963989 71.67036011 9.32963989 71.67036011 7 74 C5.65732587 74.08631874 4.31025678 74.10706473 2.96484375 74.09765625 C2.15595703 74.09443359 1.34707031 74.09121094 0.51367188 74.08789062 C-0.33646484 74.07951172 -1.18660156 74.07113281 -2.0625 74.0625 C-2.91650391 74.05798828 -3.77050781 74.05347656 -4.65039062 74.04882812 C-6.76695663 74.03700373 -8.88348685 74.01906769 -11 74 C-10.27301855 65.9462997 -9.23416348 57.94661296 -8.125 49.9375 C-7.94718994 48.65125732 -7.76937988 47.36501465 -7.58618164 46.03979492 C-6.36632691 37.33633698 -4.97788824 28.69327683 -3.37207031 20.05371094 C-2.16383351 13.38462435 -1.10562198 6.68638056 0 0 Z " fill="#030CA5" transform="translate(194,19)"/>
<path d="M0 0 C3.42946991 3.10795711 6.03511865 6.38916078 8.6875 10.1875 C21.81822073 28.45739795 38.53671646 36.86474982 60.17114258 41.12548828 C65.85066374 42.29229942 70.13357735 43.82507874 75 47 C74.6927738 53.10612071 72.71679843 56.14710243 68.5 60.3125 C67.4017716 61.44736327 66.30412057 62.58278553 65.20703125 63.71875 C64.66256348 64.27304688 64.1180957 64.82734375 63.55712891 65.3984375 C61.37066156 67.64729698 59.27716128 69.97381173 57.1875 72.3125 C56.47078125 73.11171875 55.7540625 73.9109375 55.015625 74.734375 C52.58513789 77.46631788 50.1753233 80.21556198 47.7734375 82.97265625 C44.53952142 86.66957793 41.267917 90.33314248 38 94 C36.6839735 90.05192049 37.95611815 87.64697037 39.375 83.9375 C39.60960937 83.30005859 39.84421875 82.66261719 40.0859375 82.00585938 C40.97104359 79.61959325 41.86100741 77.27798518 43 75 C43 65.72226241 39.09707438 60.12447956 32.6640625 53.6484375 C27.79517819 49.17889386 22.64020794 45.07749903 17.4609375 40.9765625 C14.95508137 38.96392249 12.49443324 36.91387921 10.0625 34.8125 C9.35222656 34.20019531 8.64195312 33.58789062 7.91015625 32.95703125 C5.79372286 30.78866084 4.34561949 28.71344393 3 26 C3.33 25.34 3.66 24.68 4 24 C6.31 25.65 8.62 27.3 11 29 C10.175 28.38125 9.35 27.7625 8.5 27.125 C7.675 26.42375 6.85 25.7225 6 25 C6 24.34 6 23.68 6 23 C5.071875 22.690625 5.071875 22.690625 4.125 22.375 C1.15346355 20.45224112 0.86975341 18.33405473 0 15 C0.67095703 15.58007812 0.67095703 15.58007812 1.35546875 16.171875 C1.96003906 16.69265625 2.56460938 17.2134375 3.1875 17.75 C3.77917969 18.26046875 4.37085938 18.7709375 4.98046875 19.296875 C7.28650436 21.24161683 9.63817511 23.12359335 12 25 C11.0615625 24.11957031 10.123125 23.23914063 9.15625 22.33203125 C7.93684927 21.15953055 6.71813474 19.98631591 5.5 18.8125 C4.56994141 17.9452832 4.56994141 17.9452832 3.62109375 17.06054688 C-0.90907525 12.65483307 -0.90907525 12.65483307 -1.40625 9.07421875 C-1.2721875 8.38972656 -1.138125 7.70523437 -1 7 C0.2065625 8.2375 0.2065625 8.2375 1.4375 9.5 C3.52263018 12.11638731 3.52263018 12.11638731 5 12 C4.6390625 11.55269531 4.278125 11.10539063 3.90625 10.64453125 C0.06861063 5.64493997 0.06861063 5.64493997 -0.3125 2.0625 C-0.209375 1.381875 -0.10625 0.70125 0 0 Z " fill="#9C9C9C" transform="translate(245,0)"/>
<path d="M0 0 C0.99 0.495 0.99 0.495 2 1 C-7.86341026 9.88652298 -21.48992766 13.41363862 -34 17 C-32.948125 16.70996094 -32.948125 16.70996094 -31.875 16.4140625 C-26.26507866 14.874383 -20.64989553 13.38582343 -15 12 C-17.56144704 14.98835487 -20.51549525 16.25774762 -24 18 C-25.69321939 19.29944744 -27.36395804 20.62926214 -29 22 C-46.08169071 33.38779381 -64.5766215 39.24078561 -84.68603516 42.69580078 C-98.57291065 45.23573485 -108.00119419 52.21386366 -118.90039062 60.78515625 C-123.13128813 64.05076778 -126.67791091 66.78451473 -132 68 C-127.77572597 62.08083809 -123.14729865 56.75188944 -118.125 51.5 C-117.45597656 50.79230469 -116.78695313 50.08460937 -116.09765625 49.35546875 C-112.07758674 45.11851688 -107.98718364 40.96307771 -103.82446289 36.86621094 C-101.89800075 34.89566677 -100.10033778 32.84651458 -98.3125 30.75 C-92.7186521 24.31203541 -86.65065057 20.29106809 -78.00390625 19.48046875 C-76.52379942 19.3774725 -75.04328818 19.28018672 -73.5625 19.1875 C-50.26874261 17.21223257 -23.40791239 13.8956776 -3.0390625 1.6953125 C-2.03617188 1.13585937 -1.03328125 0.57640625 0 0 Z " fill="#9B9B9B" transform="translate(417,26)"/>
<path d="M0 0 C0.24991456 6.65050424 -0.26044666 12.56986533 -2 19 C-2.495 18.01 -2.495 18.01 -3 17 C-4.5843317 17.08768248 -6.16753567 17.19587329 -7.75 17.3125 C-8.63171875 17.37050781 -9.5134375 17.42851563 -10.421875 17.48828125 C-13.47219474 18.0937235 -14.82238017 18.77977456 -17 21 C-18.66467375 25.26429592 -19.45512442 29.36495081 -20.03515625 33.89453125 C-20.20466797 35.17908203 -20.37417969 36.46363281 -20.54882812 37.78710938 C-20.7205761 39.12883928 -20.89179394 40.47063714 -21.0625 41.8125 C-21.40253839 44.46555722 -21.74861523 47.11762191 -22.09765625 49.76953125 C-22.24726807 50.94104736 -22.39687988 52.11256348 -22.55102539 53.31958008 C-23 56 -23 56 -24 57 C-25.56172745 57.08685603 -27.12729344 57.10702219 -28.69140625 57.09765625 C-29.63564453 57.09443359 -30.57988281 57.09121094 -31.55273438 57.08789062 C-32.54595703 57.07951172 -33.53917969 57.07113281 -34.5625 57.0625 C-35.55958984 57.05798828 -36.55667969 57.05347656 -37.58398438 57.04882812 C-40.05604849 57.03700007 -42.52799518 57.02051849 -45 57 C-43.70318425 44.21544528 -41.93213953 31.55784002 -39.875 18.875 C-39.59465966 17.12636495 -39.31471009 15.37766721 -39.03515625 13.62890625 C-38.36195428 9.41840634 -37.68085277 5.20929733 -37 1 C-30.07 1 -23.14 1 -16 1 C-16.33 3.64 -16.66 6.28 -17 9 C-16.67 8.67 -16.34 8.34 -16 8 C-14.90319828 7.01259058 -13.79770204 6.03481827 -12.6875 5.0625 C-12.09324219 4.53785156 -11.49898437 4.01320313 -10.88671875 3.47265625 C-7.21628474 0.60774192 -4.68349149 -0.26019397 0 0 Z " fill="#020BA6" transform="translate(140,36)"/>
<path d="M0 0 C6.6 0 13.2 0 20 0 C17.98060215 15.14548384 15.77605764 30.24893483 13.40527344 45.34326172 C13.05743385 47.62349688 12.74404927 49.90438447 12.4453125 52.19140625 C12 55 12 55 11 56 C9.5112814 56.08669432 8.018555 56.10703494 6.52734375 56.09765625 C5.62822266 56.09443359 4.72910156 56.09121094 3.80273438 56.08789062 C2.38444336 56.07532227 2.38444336 56.07532227 0.9375 56.0625 C-0.01189453 56.05798828 -0.96128906 56.05347656 -1.93945312 56.04882812 C-4.29303065 56.0370011 -6.64648477 56.02052025 -9 56 C-8.89115479 55.38463379 -8.78230957 54.76926758 -8.67016602 54.13525391 C-7.5018871 47.34243583 -6.48696605 40.53598228 -5.52734375 33.7109375 C-5.39832672 32.7944342 -5.26930969 31.87793091 -5.13638306 30.93365479 C-4.59811427 27.10145968 -4.06174637 23.26900943 -3.52905273 19.43603516 C-3.13571932 16.61056256 -2.73809084 13.78572108 -2.33984375 10.9609375 C-2.22003647 10.09020599 -2.10022919 9.21947449 -1.97679138 8.32235718 C-1.1134234 2.2268468 -1.1134234 2.2268468 0 0 Z " fill="#050EA7" transform="translate(154,37)"/>
<path d="M0 0 C0.66 0 1.32 0 2 0 C2.81446084 3.22867533 3.62621989 6.4580241 4.4375 9.6875 C4.66759766 10.59951172 4.89769531 11.51152344 5.13476562 12.45117188 C5.35712891 13.33740234 5.57949219 14.22363281 5.80859375 15.13671875 C6.01282959 15.94842529 6.21706543 16.76013184 6.42749023 17.59643555 C7.01207204 20.05068199 7.50521716 22.5260858 8 25 C0.74 25 -6.52 25 -14 25 C-11.80514945 19.51287362 -9.028842 14.74152291 -6 9.6875 C-5.4534375 8.75615234 -4.906875 7.82480469 -4.34375 6.86523438 C-3.8178125 5.98544922 -3.291875 5.10566406 -2.75 4.19921875 C-2.27046875 3.39315186 -1.7909375 2.58708496 -1.296875 1.7565918 C-0.86890625 1.1769165 -0.4409375 0.59724121 0 0 Z " fill="#EFEFF8" transform="translate(44,38)"/>
<path d="M0 0 C0.66 0.33 1.32 0.66 2 1 C2.48461538 7.3 2.48461538 7.3 0.3125 10.4375 C-2.42208961 12.28519568 -3.76418539 12.5109181 -7 12 C-9 10 -9 10 -9.3125 6.5625 C-9 3 -9 3 -7.875 1.0625 C-5.1769493 -0.46639539 -3.04470288 -0.25912365 0 0 Z " fill="#6B1D48" transform="translate(166,108)"/>
<path d="M0 0 C0 4.14033512 -2.22529804 5.78781177 -4.9375 8.625 C-5.43604492 9.15770508 -5.93458984 9.69041016 -6.44824219 10.23925781 C-10.19503394 14.22007479 -14.05927571 18.07732615 -17.9453125 21.921875 C-23.8150857 27.85860379 -28.94752789 34.36575091 -34 41 C-34.495 39.515 -34.495 39.515 -35 38 C-34.31035156 37.24976563 -33.62070312 36.49953125 -32.91015625 35.7265625 C-19.39037556 21.04801064 -19.39037556 21.04801064 -6.3046875 5.984375 C-5.77101563 5.35015625 -5.23734375 4.7159375 -4.6875 4.0625 C-4.21699219 3.49660156 -3.74648438 2.93070313 -3.26171875 2.34765625 C-2 1 -2 1 0 0 Z " fill="#F2F2F2" transform="translate(319,54)"/>
<path d="M0 0 C0.66 0 1.32 0 2 0 C2 2.64 2 5.28 2 8 C2.66 8 3.32 8 4 8 C4.309375 7.05125 4.61875 6.1025 4.9375 5.125 C6 2 6 2 7 0 C7.99 0 8.98 0 10 0 C10.33 2.31 10.66 4.62 11 7 C12.32 4.69 13.64 2.38 15 0 C15.66 0.33 16.32 0.66 17 1 C15.35 4.3 13.7 7.6 12 11 C11.01 11 10.02 11 9 11 C9 8.36 9 5.72 9 3 C8.34 3 7.68 3 7 3 C6.690625 3.94875 6.38125 4.8975 6.0625 5.875 C5 9 5 9 4 11 C3.01 11 2.02 11 1 11 C0.67 7.37 0.34 3.74 0 0 Z " fill="#661443" transform="translate(55,108)"/>
<path d="M0 0 C1.32 0 2.64 0 4 0 C4.33 3.63 4.66 7.26 5 11 C4.34 11 3.68 11 3 11 C3 10.34 3 9.68 3 9 C0.03 9.66 -2.94 10.32 -6 11 C-4.54780852 6.88545746 -2.71245508 3.4304579 0 0 Z " fill="#9E6C88" transform="translate(307,108)"/>
<path d="M0 0 C0.66 0.33 1.32 0.66 2 1 C-5.38659232 7.65501289 -15.29949478 11.91782085 -25 14 C-25.33 13.01 -25.66 12.02 -26 11 C-25.46109131 10.80889648 -24.92218262 10.61779297 -24.36694336 10.42089844 C-21.88796759 9.53742943 -19.41276988 8.64379679 -16.9375 7.75 C-16.08994141 7.44964844 -15.24238281 7.14929687 -14.36914062 6.83984375 C-10.37155548 5.38898273 -6.65291348 3.90180086 -3.00390625 1.703125 C-2.01261719 1.14109375 -1.02132813 0.5790625 0 0 Z " fill="#A7A7A7" transform="translate(417,26)"/>
<path d="M0 0 C0.99 0 1.98 0 3 0 C3.66 1.98 4.32 3.96 5 6 C5.66 6 6.32 6 7 6 C7.33 4.02 7.66 2.04 8 0 C8.66 0.33 9.32 0.66 10 1 C9.34 4.3 8.68 7.6 8 11 C6.68 10.67 5.36 10.34 4 10 C2.75 6.9375 2.75 6.9375 2 4 C1.34 6.31 0.68 8.62 0 11 C-0.66 11 -1.32 11 -2 11 C-1.85957123 9.35369672 -1.71250671 7.70795821 -1.5625 6.0625 C-1.48128906 5.14597656 -1.40007812 4.22945313 -1.31640625 3.28515625 C-1 1 -1 1 0 0 Z " fill="#6B1D48" transform="translate(201,108)"/>
<path d="M0 0 C0.99 0 1.98 0 3 0 C3.99 1.98 4.98 3.96 6 6 C6.66 4.02 7.32 2.04 8 0 C8.66 0 9.32 0 10 0 C9.34 3.63 8.68 7.26 8 11 C6.68 10.67 5.36 10.34 4 10 C2.75 7.4375 2.75 7.4375 2 5 C1.34 6.98 0.68 8.96 0 11 C-0.66 11 -1.32 11 -2 11 C-1.85957123 9.35369672 -1.71250671 7.70795821 -1.5625 6.0625 C-1.48128906 5.14597656 -1.40007812 4.22945313 -1.31640625 3.28515625 C-1 1 -1 1 0 0 Z " fill="#6C1E4A" transform="translate(94,108)"/>
<path d="M0 0 C2.31 0 4.62 0 7 0 C7.33 1.32 7.66 2.64 8 4 C7.01 4.33 6.02 4.66 5 5 C5.33 6.98 5.66 8.96 6 11 C4.35 9.35 2.7 7.7 1 6 C1 7.65 1 9.3 1 11 C0.34 11 -0.32 11 -1 11 C-0.67 7.37 -0.34 3.74 0 0 Z " fill="#925B7A" transform="translate(272,108)"/>
<path d="M0 0 C0 0.33 0 0.66 0 1 C-1.11375 1.12375 -2.2275 1.2475 -3.375 1.375 C-7.03103677 1.6465813 -7.03103677 1.6465813 -9 4 C-8.67958603 6.60280568 -8.67958603 6.60280568 -8 9 C-6.68 9.33 -5.36 9.66 -4 10 C-4 9.01 -4 8.02 -4 7 C-4.66 7 -5.32 7 -6 7 C-6 6.34 -6 5.68 -6 5 C-4.35 5 -2.7 5 -1 5 C-1.33 6.98 -1.66 8.96 -2 11 C-8.0546875 11.1953125 -8.0546875 11.1953125 -10 11 C-10.66 10.34 -11.32 9.68 -12 9 C-11.9375 5.5625 -11.9375 5.5625 -11 2 C-7.30531314 -1.37799941 -4.71069654 -1.2050619 0 0 Z " fill="#671A43" transform="translate(125,108)"/>
<path d="M0 0 C0.33 1.32 0.66 2.64 1 4 C8.26 4 15.52 4 23 4 C23.33 3.01 23.66 2.02 24 1 C24.33 2.65 24.66 4.3 25 6 C16.75 6 8.5 6 0 6 C0 4.02 0 2.04 0 0 Z " fill="#2022AC" transform="translate(58,87)"/>
<path d="M0 0 C-5.28501968 4.2851511 -8.80526045 7.00740492 -15.625 7.5625 C-16.62789063 7.64628906 -17.63078125 7.73007812 -18.6640625 7.81640625 C-19.43492187 7.87699219 -20.20578125 7.93757813 -21 8 C-18.8614515 5.8614515 -17.86724686 5.57344937 -15 5 C-15 4.01 -15 3.02 -15 2 C-9.92523206 0.73694665 -5.27203646 -0.27036084 0 0 Z " fill="#C2C2C2" transform="translate(393,44)"/>
<path d="M0 0 C2.625 0.375 2.625 0.375 5 1 C4.125 7.875 4.125 7.875 3 9 C1.33382885 9.04063832 -0.33388095 9.042721 -2 9 C-2.125 5.625 -2.125 5.625 -2 2 C-1.34 1.34 -0.68 0.68 0 0 Z " fill="#EFE7EC" transform="translate(161,109)"/>
<path d="M0 0 C0 0.33 0 0.66 0 1 C-2.64 1.66 -5.28 2.32 -8 3 C-8 4.65 -8 6.3 -8 8 C-5.525 8.99 -5.525 8.99 -3 10 C-3 9.01 -3 8.02 -3 7 C-3.66 7 -4.32 7 -5 7 C-5 6.34 -5 5.68 -5 5 C-3.68 5 -2.36 5 -1 5 C-1 6.98 -1 8.96 -1 11 C-7.0546875 11.1953125 -7.0546875 11.1953125 -9 11 C-11 9 -11 9 -11.3125 6.0625 C-11 3 -11 3 -10 1.125 C-6.74686316 -0.70488947 -3.68609891 -0.18128355 0 0 Z " fill="#661841" transform="translate(244,108)"/>
<path d="M0 0 C2.31 0 4.62 0 7 0 C7 0.33 7 0.66 7 1 C5.35 1 3.7 1 2 1 C2 2.32 2 3.64 2 5 C3.32 5.33 4.64 5.66 6 6 C4.35 6.33 2.7 6.66 1 7 C0.67 7.99 0.34 8.98 0 10 C1.65 10 3.3 10 5 10 C5 10.66 5 11.32 5 12 C2.69 12 0.38 12 -2 12 C-1.85904936 10.3745692 -1.71207913 8.74965949 -1.5625 7.125 C-1.48128906 6.22007813 -1.40007812 5.31515625 -1.31640625 4.3828125 C-1 2 -1 2 0 0 Z " fill="#6D264A" transform="translate(255,108)"/>
<path d="M0 0 C0 0.33 0 0.66 0 1 C-1.65 1.33 -3.3 1.66 -5 2 C-3.68 2.66 -2.36 3.32 -1 4 C-2.65 4 -4.3 4 -6 4 C-6 4.66 -6 5.32 -6 6 C-5.34 6 -4.68 6 -4 6 C-4 6.99 -4 7.98 -4 9 C-5.65 8.67 -7.3 8.34 -9 8 C-9.6875 5.6875 -9.6875 5.6875 -10 3 C-7.7638263 -1.05306482 -4.16821004 -0.23593642 0 0 Z " fill="#E8DDE3" transform="translate(125,109)"/>
<path d="M0 0 C0.66 0 1.32 0 2 0 C2 2.64 2 5.28 2 8 C2.66 8.33 3.32 8.66 4 9 C0.7 9 -2.6 9 -6 9 C-5.01 8.67 -4.02 8.34 -3 8 C-1.82917122 5.07085835 -1.82917122 5.07085835 -1 2 C-0.67 1.34 -0.34 0.68 0 0 Z " fill="#DDCDD6" transform="translate(62,111)"/>
<path d="M0 0 C1.98 0 3.96 0 6 0 C4.02 0.99 4.02 0.99 2 2 C2 2.66 2 3.32 2 4 C2.99 4.66 3.98 5.32 5 6 C4.67 7.65 4.34 9.3 4 11 C1.69 11 -0.62 11 -3 11 C-3 10.67 -3 10.34 -3 10 C-1.35 9.67 0.3 9.34 2 9 C2 8.34 2 7.68 2 7 C1.01 6.34 0.02 5.68 -1 5 C-0.67 3.35 -0.34 1.7 0 0 Z " fill="#620F3D" transform="translate(136,108)"/>
<path d="M0 0 C1.89213369 2.38573379 3.02391783 4.07175348 4 7 C4.99 7.66 5.98 8.32 7 9 C3.37 9 -0.26 9 -4 9 C-3.67 8.01 -3.34 7.02 -3 6 C-3 6.66 -3 7.32 -3 8 C-2.34 8 -1.68 8 -1 8 C-0.67 5.36 -0.34 2.72 0 0 Z " fill="#E8DDE4" transform="translate(95,111)"/>
<path d="M0 0 C0.66 0.33 1.32 0.66 2 1 C2.309375 1.969375 2.61875 2.93875 2.9375 3.9375 C3.74744122 7.2680443 3.74744122 7.2680443 7 9 C3.37 9 -0.26 9 -4 9 C-3.67 8.01 -3.34 7.02 -3 6 C-3 6.66 -3 7.32 -3 8 C-2.34 8 -1.68 8 -1 8 C-0.67 5.36 -0.34 2.72 0 0 Z " fill="#E8DCE3" transform="translate(202,111)"/>
<path d="M0 0 C2 2 2 2 2 5 C-5.92 5 -13.84 5 -22 5 C-22.33 4.34 -22.66 3.68 -23 3 C-15.74 3 -8.48 3 -1 3 C-0.67 2.01 -0.34 1.02 0 0 Z " fill="#3436A4" transform="translate(242,88)"/>
<path d="M0 0 C3 1 3 1 4 3 C4.66 2.67 5.32 2.34 6 2 C6 3.32 6 4.64 6 6 C3.03 6 0.06 6 -3 6 C-2.67 4.68 -2.34 3.36 -2 2 C-2 2.99 -2 3.98 -2 5 C-1.34 5 -0.68 5 0 5 C0 3.35 0 1.7 0 0 Z " fill="#DCCCD5" transform="translate(273,114)"/>
<path d="M0 0 C2.31 0 4.62 0 7 0 C7 0.33 7 0.66 7 1 C5.35 1 3.7 1 2 1 C2 2.32 2 3.64 2 5 C3.32 5.33 4.64 5.66 6 6 C4.35 6 2.7 6 1 6 C0.67 7.65 0.34 9.3 0 11 C-0.33 11 -0.66 11 -1 11 C-1.14285714 3.57142857 -1.14285714 3.57142857 0 0 Z " fill="#63183B" transform="translate(179,108)"/>
<path d="M0 0 C0.66 0 1.32 0 2 0 C1.67 1.65 1.34 3.3 1 5 C-5.93 5 -12.86 5 -20 5 C-20 4.67 -20 4.34 -20 4 C-13.73 3.67 -7.46 3.34 -1 3 C-0.67 2.01 -0.34 1.02 0 0 Z " fill="#3436B0" transform="translate(115,88)"/>
<path d="M0 0 C-0.33 0.99 -0.66 1.98 -1 3 C-3.28515625 3.94921875 -3.28515625 3.94921875 -6.0625 4.6875 C-7.44115234 5.06455078 -7.44115234 5.06455078 -8.84765625 5.44921875 C-9.55792969 5.63097656 -10.26820313 5.81273437 -11 6 C-11.33 5.01 -11.66 4.02 -12 3 C-10.56445975 2.49440092 -9.1264798 1.9957251 -7.6875 1.5 C-6.88699219 1.2215625 -6.08648437 0.943125 -5.26171875 0.65625 C-3 0 -3 0 0 0 Z " fill="#A1A1A1" transform="translate(403,34)"/>
<path d="M0 0 C0 0.66 0 1.32 0 2 C0.99 1.67 1.98 1.34 3 1 C3 1.66 3 2.32 3 3 C-1.29 3 -5.58 3 -10 3 C-8.0130571 -0.97388579 -3.91761109 -0.08705802 0 0 Z " fill="#EFE7EC" transform="translate(310,117)"/>
<path d="M0 0 C0.99 0 1.98 0 3 0 C1.515 5.445 1.515 5.445 0 11 C-0.66 11 -1.32 11 -2 11 C-1.85957123 9.35369672 -1.71250671 7.70795821 -1.5625 6.0625 C-1.48128906 5.14597656 -1.40007812 4.22945313 -1.31640625 3.28515625 C-1 1 -1 1 0 0 Z " fill="#70244F" transform="translate(201,108)"/>
<path d="M0 0 C0.99 0 1.98 0 3 0 C3.33 3.63 3.66 7.26 4 11 C3.34 11 2.68 11 2 11 C2 10.01 2 9.02 2 8 C0.02 8 -1.96 8 -4 8 C-4 7.67 -4 7.34 -4 7 C-2.02 7 -0.04 7 2 7 C1.34 4.69 0.68 2.38 0 0 Z " fill="#620C3D" transform="translate(308,108)"/>
<path d="M0 0 C0.66 0 1.32 0 2 0 C1.67 3.3 1.34 6.6 1 10 C0.01 10.33 -0.98 10.66 -2 11 C-1.125 3.375 -1.125 3.375 0 0 Z " fill="#6F244E" transform="translate(81,108)"/>
<path d="M0 0 C0.66 0 1.32 0 2 0 C1.34 3.63 0.68 7.26 0 11 C-0.66 11 -1.32 11 -2 11 C-1.85892253 9.54119891 -1.71197585 8.08296449 -1.5625 6.625 C-1.48128906 5.81289062 -1.40007812 5.00078125 -1.31640625 4.1640625 C-1 2 -1 2 0 0 Z " fill="#6C1D4A" transform="translate(291,108)"/>
<path d="M0 0 C1.65 0 3.3 0 5 0 C4.67 1.98 4.34 3.96 4 6 C3.34 5.67 2.68 5.34 2 5 C2 4.01 2 3.02 2 2 C1.34 2 0.68 2 0 2 C0 1.34 0 0.68 0 0 Z " fill="#7D3D5F" transform="translate(119,113)"/>
<path d="M0 0 C1.98 0 3.96 0 6 0 C6.33 1.32 6.66 2.64 7 4 C6.01 4 5.02 4 4 4 C4 3.34 4 2.68 4 2 C3.01 1.67 2.02 1.34 1 1 C0.67 1.66 0.34 2.32 0 3 C0 2.01 0 1.02 0 0 Z " fill="#60093A" transform="translate(273,108)"/>
<path d="M0 0 C1.98 0 3.96 0 6 0 C5.360625 0.2475 4.72125 0.495 4.0625 0.75 C1.81258459 1.81562433 1.81258459 1.81562433 1.25 4.125 C1.1675 4.74375 1.085 5.3625 1 6 C0.34 5.67 -0.32 5.34 -1 5 C-0.67 3.35 -0.34 1.7 0 0 Z " fill="#681D45" transform="translate(136,108)"/>
</svg>
