<?xml version="1.0" encoding="UTF-8"?>
<svg version="1.1" xmlns="http://www.w3.org/2000/svg" width="456" height="110">
<path d="M0 0 C150.48 0 300.96 0 456 0 C456 36.3 456 72.6 456 110 C305.52 110 155.04 110 0 110 C0 73.7 0 37.4 0 0 Z " fill="#04381E" transform="translate(0,0)"/>
<path d="M0 0 C15.84 0 31.68 0 48 0 C48 31.02 48 62.04 48 94 C32.16 94 16.32 94 0 94 C0 62.98 0 31.96 0 0 Z " fill="#FCDC8A" transform="translate(7,8)"/>
<path d="M0 0 C0.66 -1.65 1.32 -3.3 2 -5 C3.65 -5 5.3 -5 7 -5 C7.09933715 0.83491118 7.17168936 6.66932337 7.21972656 12.50488281 C7.23976497 14.48739199 7.26700353 16.46984263 7.30175781 18.45214844 C7.35061954 21.31199641 7.37304673 24.17105881 7.390625 27.03125 C7.41127014 27.90865845 7.43191528 28.78606689 7.45318604 29.69006348 C7.45565696 36.56218776 5.73144627 41.70189005 1.32421875 47.0234375 C-4.47795844 51.81473418 -10.2055742 53.50020848 -17.72265625 53.3203125 C-22.45849884 52.65420771 -26.43515362 50.65396064 -29.71484375 47.1875 C-31.29267727 44.50182592 -31.30944219 42.83920209 -31.1875 39.75 C-31.16042969 38.85796875 -31.13335937 37.9659375 -31.10546875 37.046875 C-31.07066406 36.37140625 -31.03585937 35.6959375 -31 35 C-25.25 34.875 -25.25 34.875 -23 36 C-23.061875 36.928125 -23.12375 37.85625 -23.1875 38.8125 C-23.2872972 41.90542747 -23.2872972 41.90542747 -21.8203125 43.66796875 C-18.68185028 45.96456878 -15.50161482 45.52048766 -11.73828125 45.42578125 C-7.46749975 44.76170823 -5.83662985 43.20987062 -3 40 C-1.8422494 36.52674819 -1.93133348 33.63932552 -2 30 C-3.11375 30.66 -4.2275 31.32 -5.375 32 C-11.3203593 34.96213823 -16.98626895 34.98525823 -23.25 32.9375 C-28.11439596 29.51031194 -32.58989244 24.92245174 -34 19 C-34.80485651 12.47311675 -33.83294298 7.40150118 -30 2 C-20.77635859 -7.95647868 -10.74754355 -6.28248892 0 0 Z " fill="#F2F4F3" transform="translate(291,48)"/>
<path d="M0 0 C0 14.85 0 29.7 0 45 C-15.84 45 -31.68 45 -48 45 C-46.80964308 30.71571697 -46.80964308 30.71571697 -43 24 C-42.5771875 23.24976562 -42.154375 22.49953125 -41.71875 21.7265625 C-35.15716774 11.04576471 -26.07909315 5.08474466 -14.5625 0.6875 C-11 0 -11 0 0 0 Z " fill="#FADB8A" transform="translate(108,57)"/>
<path d="M0 0 C15.51 0 31.02 0 47 0 C47 14.85 47 29.7 47 45 C32.29667893 45 21.80967632 40.64029837 11.25 30.6875 C7.22637944 26.51641691 4.39484377 22.26261887 2 17 C1.566875 16.05125 1.13375 15.1025 0.6875 14.125 C0 11 0 11 0 0 Z " fill="#FBDC8A" transform="translate(61,8)"/>
<path d="M0 0 C2.05078125 0.03255208 4.1015625 0.06510417 6.15234375 0.09765625 C8.48241573 5.57430475 10.81189944 11.05120297 13.14086914 16.52832031 C13.93107723 18.38645979 14.72143817 20.24453427 15.51196289 22.10253906 C17.73917142 27.33739479 19.96321042 32.57357326 22.18255615 37.81176758 C23.05847235 39.87639174 23.93822246 41.93933472 24.81884766 44.00195312 C25.27565918 45.08025391 25.7324707 46.15855469 26.203125 47.26953125 C26.58766846 48.1728418 26.97221191 49.07615234 27.3684082 50.00683594 C28.15234375 52.09765625 28.15234375 52.09765625 28.15234375 54.09765625 C25.51234375 54.09765625 22.87234375 54.09765625 20.15234375 54.09765625 C19.31207979 52.33010099 18.48035653 50.55848362 17.65234375 48.78515625 C17.18828125 47.79902344 16.72421875 46.81289062 16.24609375 45.796875 C15.15234375 43.09765625 15.15234375 43.09765625 15.15234375 40.09765625 C6.57234375 40.42765625 -2.00765625 40.75765625 -10.84765625 41.09765625 C-12.49765625 45.05765625 -14.14765625 49.01765625 -15.84765625 53.09765625 C-16.84765625 54.09765625 -16.84765625 54.09765625 -18.6953125 54.1953125 C-20.74609375 54.16276042 -22.796875 54.13020833 -24.84765625 54.09765625 C-19.89968785 41.45114073 -14.70419365 28.91488646 -9.41015625 16.41015625 C-9.09375183 15.66057648 -8.77734741 14.9109967 -8.45135498 14.13870239 C-7.54581539 11.99494668 -6.63680379 9.85270042 -5.7265625 7.7109375 C-5.31297737 6.73099823 -5.31297737 6.73099823 -4.89103699 5.73126221 C-2.50159234 0.13221947 -2.50159234 0.13221947 0 0 Z " fill="#F7F8F7" transform="translate(379.84765625,27.90234375)"/>
<path d="M0 0 C11.55 0 23.1 0 35 0 C35 2.31 35 4.62 35 7 C26.09 7 17.18 7 8 7 C8 11.95 8 16.9 8 22 C16.25 22 24.5 22 33 22 C33 24.64 33 27.28 33 30 C24.75 30 16.5 30 8 30 C8 35.61 8 41.22 8 47 C17.24 47 26.48 47 36 47 C36 49.31 36 51.62 36 54 C24.12 54 12.24 54 0 54 C0 36.18 0 18.36 0 0 Z " fill="#F4F5F5" transform="translate(138,28)"/>
<path d="M0 0 C2.64 0 5.28 0 8 0 C8.01401855 1.24088379 8.01401855 1.24088379 8.02832031 2.50683594 C8.08200319 6.25516415 8.1656571 10.00224162 8.25 13.75 C8.26417969 15.05195312 8.27835938 16.35390625 8.29296875 17.6953125 C8.32519531 18.94570313 8.35742188 20.19609375 8.390625 21.484375 C8.41157227 22.63647461 8.43251953 23.78857422 8.45410156 24.97558594 C9.10812962 28.5990652 10.10000093 29.79557755 13 32 C16.0749342 32.60161756 17.96457805 32.62942123 20.68359375 30.9765625 C23.4151973 28.81486185 24.88822667 27.33531998 26 24 C26.14889747 22.15533558 26.2479101 20.30642725 26.31640625 18.45703125 C26.35830078 17.38388672 26.40019531 16.31074219 26.44335938 15.20507812 C26.48267578 14.08552734 26.52199219 12.96597656 26.5625 11.8125 C26.60568359 10.68134766 26.64886719 9.55019531 26.69335938 8.38476562 C26.79949099 5.58996646 26.90154385 2.79507838 27 0 C29.64 0 32.28 0 35 0 C35 12.87 35 25.74 35 39 C32.36 39 29.72 39 27 39 C27 37.68 27 36.36 27 35 C26.071875 35.66 25.14375 36.32 24.1875 37 C19.30724599 39.75194851 14.45763218 40.06588118 9 39 C4.14419495 36.39465718 1.71928879 33.18634788 0 28 C-0.22705078 24.86206055 -0.22705078 24.86206055 -0.1953125 21.38671875 C-0.18886719 20.13955078 -0.18242187 18.89238281 -0.17578125 17.60742188 C-0.15902344 16.31384766 -0.14226562 15.02027344 -0.125 13.6875 C-0.11597656 12.37458984 -0.10695312 11.06167969 -0.09765625 9.70898438 C-0.07411797 6.47247087 -0.0412352 3.23632851 0 0 Z " fill="#F1F3F2" transform="translate(218,43)"/>
<path d="M0 0 C2.64 0 5.28 0 8 0 C8.01981934 0.79696289 8.03963867 1.59392578 8.06005859 2.41503906 C8.15533248 6.02702472 8.26500307 9.63843399 8.375 13.25 C8.4059375 14.50425781 8.436875 15.75851563 8.46875 17.05078125 C8.50742187 18.25605469 8.54609375 19.46132813 8.5859375 20.703125 C8.6173584 21.81333008 8.6487793 22.92353516 8.68115234 24.06738281 C8.99089737 26.9162781 9.43462483 28.6230776 11 31 C13.82001327 32.41000664 15.87007255 32.24548451 19 32 C22.79717641 30.27401072 24.48851669 28.85332369 26 25 C26.36448829 22.19682164 26.36448829 22.19682164 26.4140625 19.140625 C26.45273437 18.02558594 26.49140625 16.91054688 26.53125 15.76171875 C26.5621875 14.60285156 26.593125 13.44398437 26.625 12.25 C26.66367187 11.07566406 26.70234375 9.90132812 26.7421875 8.69140625 C26.8363982 5.79442732 26.92201602 2.89745374 27 0 C29.64 0 32.28 0 35 0 C35 12.87 35 25.74 35 39 C32.36 39 29.72 39 27 39 C26.67 38.01 26.34 37.02 26 36 C25.236875 36.495 24.47375 36.99 23.6875 37.5 C18.69208281 39.53203411 14.32457522 39.83196488 9 39 C4.74839533 37.07134869 2.34255443 33.59324469 0.59326172 29.32983398 C-0.75274751 24.04383972 -0.29821437 18.47614861 -0.1875 13.0625 C-0.17396484 11.80630859 -0.16042969 10.55011719 -0.14648438 9.25585938 C-0.11128591 6.17012721 -0.06204305 3.08528976 0 0 Z " fill="#F2F4F3" transform="translate(302,43)"/>
<path d="M0 0 C2.31 0 4.62 0 7 0 C7 1.65 7 3.3 7 5 C7.928125 4.360625 8.85625 3.72125 9.8125 3.0625 C14.44771246 0.06324488 18.54346605 -0.73513076 24 0 C28.87214198 2.43607099 31.3458578 5.29403939 34 10 C34.45410156 13.34326172 34.45410156 13.34326172 34.390625 16.9296875 C34.37773437 18.21875 34.36484375 19.5078125 34.3515625 20.8359375 C34.31814906 22.18230268 34.28428937 23.52865685 34.25 24.875 C34.22991356 26.24476569 34.21166655 27.61455966 34.1953125 28.984375 C34.1482806 32.32363986 34.08255864 35.66145562 34 39 C31.69 39 29.38 39 27 39 C25.96080503 35.88241508 25.9255524 33.8578255 26.0078125 30.59765625 C26.02457031 29.54255859 26.04132813 28.48746094 26.05859375 27.40039062 C26.10279027 25.17886555 26.1548478 22.95748267 26.21484375 20.73632812 C26.23611328 19.15174805 26.23611328 19.15174805 26.2578125 17.53515625 C26.2798877 16.569729 26.30196289 15.60430176 26.32470703 14.60961914 C25.9387941 11.50809786 25.22801075 10.17538305 23 8 C18.31827903 7.39590697 16.16219217 7.29257868 12.125 9.75 C8.60441811 13.47767494 7.75565472 16.33035841 7.5859375 21.421875 C7.54726562 22.44667969 7.50859375 23.47148438 7.46875 24.52734375 C7.4378125 25.59082031 7.406875 26.65429688 7.375 27.75 C7.31699219 29.36841797 7.31699219 29.36841797 7.2578125 31.01953125 C7.16365369 33.67951775 7.07802613 36.3394994 7 39 C4.69 39 2.38 39 0 39 C0 26.13 0 13.26 0 0 Z " fill="#F8F9F9" transform="translate(179,43)"/>
<path d="M0 0 C4.09964471 2.08709185 6.28541564 3.76396805 8 8 C8.74148241 12.74203866 8.43787689 16.16954383 6.1875 20.4375 C3.90277746 23.11388926 2.2738156 24.7917169 -1.26953125 25.37109375 C-5.75791286 25.48830187 -8.98845813 25.56577717 -12.5625 22.625 C-16.47721947 18.40914826 -16.38880263 15.3794017 -16.359375 9.7734375 C-15.80289254 5.47884463 -14.16828113 3.86654007 -11 1 C-7.52817697 -0.73591152 -3.79591036 -0.46571673 0 0 Z " fill="#04371D" transform="translate(282,50)"/>
<path d="M0 0 C2.64 0 5.28 0 8 0 C8.33 1.65 8.66 3.3 9 5 C9.639375 4.360625 10.27875 3.72125 10.9375 3.0625 C14.91930882 0.38087365 18.294792 0.20501996 23 0 C23 2.31 23 4.62 23 7 C22.39671875 7.09796875 21.7934375 7.1959375 21.171875 7.296875 C16.33527786 8.20178672 13.03817212 8.82251333 10 13 C9.00544091 15.98367726 8.80440368 18.2004192 8.68359375 21.32421875 C8.64169922 22.35224609 8.59980469 23.38027344 8.55664062 24.43945312 C8.51732422 25.51130859 8.47800781 26.58316406 8.4375 27.6875 C8.39431641 28.77095703 8.35113281 29.85441406 8.30664062 30.97070312 C8.20053162 33.64700791 8.09847639 36.32340526 8 39 C5.69 39 3.38 39 1 39 C0.67 26.13 0.34 13.26 0 0 Z " fill="#F9FAFA" transform="translate(425,43)"/>
<path d="M0 0 C2.64 0 5.28 0 8 0 C8 12.87 8 25.74 8 39 C5.36 39 2.72 39 0 39 C0 26.13 0 13.26 0 0 Z " fill="#EDF0EE" transform="translate(412,43)"/>
<path d="M0 0 C2.36290557 2.13731198 3.62888368 3.99661415 4.82421875 6.94140625 C5.13037109 7.68970703 5.43652344 8.43800781 5.75195312 9.20898438 C6.06068359 9.98564453 6.36941406 10.76230469 6.6875 11.5625 C7.00783203 12.34302734 7.32816406 13.12355469 7.65820312 13.92773438 C10 19.71481876 10 19.71481876 10 22 C3.73 22 -2.54 22 -9 22 C-8.071875 19.669375 -7.14375 17.33875 -6.1875 14.9375 C-5.90156982 14.21812256 -5.61563965 13.49874512 -5.32104492 12.75756836 C-3.61188763 8.47563661 -1.83207479 4.23082738 0 0 Z " fill="#08391E" transform="translate(381,39)"/>
<path d="M0 0 C4.55555556 0.55555556 4.55555556 0.55555556 6 2 C6.125 4.5 6.125 4.5 6 7 C5 8 5 8 2 8.125 C-1 8 -1 8 -2 7 C-2.1875 4.5625 -2.1875 4.5625 -2 2 C-1.34 1.34 -0.68 0.68 0 0 Z " fill="#EEF1EF" transform="translate(414,30)"/>
</svg>
