<?xml version="1.0" encoding="UTF-8"?>
<svg version="1.1" xmlns="http://www.w3.org/2000/svg" width="225" height="224">
<path d="M0 0 C74.25 0 148.5 0 225 0 C225 73.92 225 147.84 225 224 C150.75 224 76.5 224 0 224 C0 150.08 0 76.16 0 0 Z " fill="#FEFEFE" transform="translate(0,0)"/>
<path d="M0 0 C1.36934919 1.29631723 2.71600016 2.61909451 4 4 C2.75023244 7.65316671 2.32901247 8.78065836 -1 11 C-1.87398437 10.32904297 -1.87398437 10.32904297 -2.765625 9.64453125 C-15.91467195 -0.05185715 -28.87560399 -3.33716325 -45 -2 C-57.53047459 0.39362345 -68.6475043 7.60675663 -76 18 C-83.56449225 30.77034549 -86.85383058 45.3142684 -83.125 59.96484375 C-78.60952021 73.64496508 -69.49720411 83.89239571 -56.6875 90.4375 C-49.83940088 93.72279723 -44.38770077 94.2080296 -36.875 94.25 C-35.97523437 94.270625 -35.07546875 94.29125 -34.1484375 94.3125 C-20.26033653 94.39231667 -9.28729312 88.84691771 0.70703125 79.44140625 C9.20905266 70.38899845 13.23118899 59.01598333 13.02392578 46.70288086 C12.9677176 45.06696874 12.88295722 43.43170393 12.76513672 41.79907227 C12.46125732 35.55244307 14.22642223 31.9332503 18 27 C18.66 27.33 19.32 27.66 20 28 C24.98192488 43.63476425 22.53962478 60.1532721 15.375 74.625 C7.09704974 88.85726537 -6.1189964 98.79624656 -21.9375 103.25 C-34.12866774 105.59856121 -46.5319515 104.7175734 -58 100 C-58.88042969 99.649375 -59.76085938 99.29875 -60.66796875 98.9375 C-67.55037489 95.86442563 -72.69218821 91.28007061 -78 86 C-78.55429688 85.48050781 -79.10859375 84.96101563 -79.6796875 84.42578125 C-87.2535759 76.6267232 -93.23649663 63.80276041 -94 53 C-94.13728516 51.32744141 -94.13728516 51.32744141 -94.27734375 49.62109375 C-94.89357028 35.20740502 -90.75472301 22.50202103 -82 11 C-81.40445313 10.21109375 -80.80890625 9.4221875 -80.1953125 8.609375 C-60.10931387 -15.89387645 -24.98962151 -17.1615473 0 0 Z " fill="#C6CAC7" transform="translate(100,76)"/>
<path d="M0 0 C-1.4091811 3.40552098 -2.82071902 5.11892542 -6 7 C-9.171875 7.3359375 -9.171875 7.3359375 -12.75 7.375 C-19.06833209 7.70996355 -23.34650175 8.60437823 -28 13 C-32.23393481 18.42812155 -33.44682022 22.78124737 -33.328125 29.546875 C-33.13170093 32.2483173 -33.13170093 32.2483173 -31.125 35.125 C-26.57489097 37.85506542 -23.25431584 37.35028772 -18 37 C-17.01 33.7 -16.02 30.4 -15 27 C-17.31 27 -19.62 27 -22 27 C-21.08214949 23.91268466 -20.41337632 22.31298493 -17.8125 20.34375 C-14.51497394 18.76826533 -12.319633 18.69275935 -8.6875 18.8125 C-7.08455078 18.85310547 -7.08455078 18.85310547 -5.44921875 18.89453125 C-4.64097656 18.92933594 -3.83273438 18.96414062 -3 19 C-3.59885717 22.34887231 -4.28470589 25.67408445 -5 29 C-5.13422363 29.63147949 -5.26844727 30.26295898 -5.40673828 30.91357422 C-5.8509759 32.94880236 -6.32799839 34.97401313 -6.8125 37 C-7.10769531 38.27875 -7.40289062 39.5575 -7.70703125 40.875 C-9 44 -9 44 -11.4765625 45.3984375 C-12.72566406 45.69621094 -12.72566406 45.69621094 -14 46 C-14.845625 46.20625 -15.69125 46.4125 -16.5625 46.625 C-25.52719157 47.60296635 -34.12116739 48.01380257 -42 43 C-47.35227355 38.41723028 -51.21474302 33.12434482 -54.9375 27.1875 C-55.43056641 26.42501953 -55.92363281 25.66253906 -56.43164062 24.87695312 C-60 19.27942961 -60 19.27942961 -60 17 C-60.66 17 -61.32 17 -62 17 C-62.09796875 17.58265625 -62.1959375 18.1653125 -62.296875 18.765625 C-65.93260474 38.69945355 -65.93260474 38.69945355 -73 44 C-76.11845651 46.04648708 -78.32603234 46.06646981 -82 46 C-77.99364033 30.23260558 -73.64290769 14.59163781 -69 -1 C-58.12959329 -1.56990482 -58.12959329 -1.56990482 -54 2 C-51.8671875 4.59375 -51.8671875 4.59375 -49.875 7.5 C-46.75471465 12.02017652 -46.75471465 12.02017652 -43 16 C-42.64808594 15.49210937 -42.29617187 14.98421875 -41.93359375 14.4609375 C-32.37911112 1.13954396 -16.44058525 -7.69690321 0 0 Z " fill="#6AAC4B" transform="translate(218,100)"/>
<path d="M0 0 C0.33 0 0.66 0 1 0 C1.55353075 13.6332574 1.55353075 13.6332574 -2 20 C-1.67 20 -1.34 20 -1 20 C-0.67 20 -0.34 20 0 20 C-0.33287446 28.12213692 -1.7211027 34.35678078 -7.25 40.5 C-7.8275 40.995 -8.405 41.49 -9 42 C-7.68 41.67 -6.36 41.34 -5 41 C-8.99620487 54.54269427 -15.60525649 63.69452602 -26 73 C-26.99 73.495 -26.99 73.495 -28 74 C-27.34 74.66 -26.68 75.32 -26 76 C-32.05022986 78.66557258 -37.38914524 80.51030705 -44 81 C-42.68 81.66 -41.36 82.32 -40 83 C-41.25554687 83.04898438 -42.51109375 83.09796875 -43.8046875 83.1484375 C-52.38293989 83.51917143 -60.62785486 83.94127579 -69 86 C-66.45549765 83.45549765 -63.83103704 82.45183863 -60.5625 80.9375 C-50.10298924 75.88543515 -41.95958312 68.37010604 -34 60 C-36.59429192 62.06880578 -39.17744397 64.14677151 -41.734375 66.26171875 C-61.72857129 82.34513313 -80.47574446 87.96795602 -106 87 C-106 86.67 -106 86.34 -106 86 C-105.04738281 85.95101562 -104.09476563 85.90203125 -103.11328125 85.8515625 C-101.23189453 85.73941406 -101.23189453 85.73941406 -99.3125 85.625 C-97.45044922 85.52058594 -97.45044922 85.52058594 -95.55078125 85.4140625 C-92.30682228 85.03577906 -89.93432815 84.38020024 -87 83 C-87.97325373 79.39896119 -88.65848022 78.21530595 -91.875 76.1875 C-95.06601909 74.76318816 -95.06601909 74.76318816 -99 75 C-97.96008872 71.98425729 -97.03085171 71.02008949 -94.3125 69.25 C-89.60086147 67.4720232 -86.20544143 67.00909964 -81.49609375 69.125 C-80.13677734 69.805625 -80.13677734 69.805625 -78.75 70.5 C-71.94441674 73.74031181 -66.41025297 74.39911473 -59.16796875 72.1015625 C-30.42296981 59.40296859 -11.92996543 27.44861966 0 0 Z " fill="#69AB4A" transform="translate(128,45)"/>
<path d="M0 0 C0.89203125 0.01804688 1.7840625 0.03609375 2.703125 0.0546875 C3.71632812 0.08949219 3.71632812 0.08949219 4.75 0.125 C2.36716897 16.89887632 2.36716897 16.89887632 -3.5625 22.1875 C-6.90490805 23.3534563 -9.73633503 23.33168617 -13.25 23.125 C-13.25 22.135 -13.25 21.145 -13.25 20.125 C-6.5 18.125 -6.5 18.125 -4.25 18.125 C-4.25 17.135 -4.25 16.145 -4.25 15.125 C-5.013125 15.33125 -5.77625 15.5375 -6.5625 15.75 C-9.25 16.125 -9.25 16.125 -12.25 14.125 C-12.68058485 10.32150051 -12.56092683 7.82458536 -11 4.3125 C-7.8627512 0.390939 -4.89229751 -0.12874467 0 0 Z " fill="#C8CCC9" transform="translate(182.25,156.875)"/>
<path d="M0 0 C2 2 2 2 2 4.4375 C1 7 1 7 -1.8125 8.8125 C-5 10 -5 10 -9 10 C-8.67 10.66 -8.34 11.32 -8 12 C-5.69 12 -3.38 12 -1 12 C-1.66 13.32 -2.32 14.64 -3 16 C-10.35678392 16.36180905 -10.35678392 16.36180905 -13 14.875 C-14.57111163 11.9291657 -14.57264296 10.30860376 -14 7 C-10.49983479 0.61508324 -7.12038368 -1.06805755 0 0 Z " fill="#C8CCC9" transform="translate(150,157)"/>
<path d="M0 0 C3.8125 0.5 3.8125 0.5 5.8125 2.5 C5.625 5 5.625 5 4.8125 7.5 C1.1683226 9.9294516 -0.89991272 9.66179575 -5.1875 9.5 C-4.8575 10.49 -4.5275 11.48 -4.1875 12.5 C-1.2175 12.995 -1.2175 12.995 1.8125 13.5 C1.4825 14.49 1.1525 15.48 0.8125 16.5 C-6.57283178 16.98428405 -6.57283178 16.98428405 -9.25 14.875 C-10.55997593 11.55639432 -10.27496152 9.89831724 -9.1875 6.5 C-6.64003948 2.33142824 -4.93758163 0.1256839 0 0 Z " fill="#C6CBC7" transform="translate(205.1875,156.5)"/>
<path d="M0 0 C0.91007813 0.00902344 1.82015625 0.01804688 2.7578125 0.02734375 C3.45648438 0.03894531 4.15515625 0.05054688 4.875 0.0625 C4.56454268 1.9794986 4.25155329 3.89608723 3.9375 5.8125 C3.76347656 6.87984375 3.58945313 7.9471875 3.41015625 9.046875 C2.98795829 11.42597593 2.50297116 13.73165211 1.875 16.0625 C0.555 15.7325 -0.765 15.4025 -2.125 15.0625 C-1.45833333 11.0625 -0.79166667 7.0625 -0.125 3.0625 C-2.64186936 3.46561361 -2.64186936 3.46561361 -5.125 5.0625 C-6.20741903 7.72775288 -6.61772107 10.2032915 -7.125 13.0625 C-5.805 13.3925 -4.485 13.7225 -3.125 14.0625 C-5.125 16.0625 -5.125 16.0625 -7.625 16.3125 C-10.125 16.0625 -10.125 16.0625 -12.125 14.0625 C-12.56852075 10.76777446 -12.82834013 8.2390913 -11.07421875 5.3046875 C-7.46136649 0.89253164 -5.53234633 -0.07092752 0 0 Z " fill="#C6CBC7" transform="translate(164.125,156.9375)"/>
<path d="M0 0 C0 4.2150212 -1.74224153 5.17554002 -4.6875 8.125 C-12.07097019 15.40521337 -24.11695026 27 -35 27 C-35 27.66 -35 28.32 -35 29 C-36.32 28.67 -37.64 28.34 -39 28 C-38 25 -38 25 -34.60546875 23.2734375 C-33.13508157 22.6353704 -31.6622559 22.00290375 -30.1875 21.375 C-18.52289994 16.14839947 -9.35844012 8.67309981 0 0 Z " fill="#EEF5EC" transform="translate(94,103)"/>
<path d="M0 0 C0.99 0.33 1.98 0.66 3 1 C2.35401634 5.87310005 1.49028264 10.63131839 0.4375 15.4375 C0.16808594 16.67371094 -0.10132813 17.90992188 -0.37890625 19.18359375 C-0.58386719 20.11300781 -0.78882813 21.04242188 -1 22 C-2.32 21.34 -3.64 20.68 -5 20 C-3.76583013 13.17576662 -2.1084005 6.60632156 0 0 Z " fill="#C8CDC9" transform="translate(192,151)"/>
<path d="M0 0 C0.25 6.625 0.25 6.625 -2 10 C-3.65 9.67 -5.3 9.34 -7 9 C-6.39285714 3.53571429 -6.39285714 3.53571429 -4.625 1.125 C-3 0 -3 0 0 0 Z " fill="#FDFDFD" transform="translate(181,160)"/>
<path d="M0 0 C1.32 0 2.64 0 4 0 C3.67 1.32 3.34 2.64 3 4 C1.35 4.33 -0.3 4.66 -2 5 C-1.125 1.125 -1.125 1.125 0 0 Z " fill="#FAFAFA" transform="translate(202,160)"/>
<path d="M0 0 C1.32 0 2.64 0 4 0 C3.67 1.32 3.34 2.64 3 4 C1.35 4.33 -0.3 4.66 -2 5 C-1.125 1.125 -1.125 1.125 0 0 Z " fill="#FAFAFA" transform="translate(143,160)"/>
<path d="M0 0 C0 3 0 3 -1.53125 4.82421875 C-2.1809375 5.43910156 -2.830625 6.05398437 -3.5 6.6875 C-4.1496875 7.31011719 -4.799375 7.93273437 -5.46875 8.57421875 C-5.9740625 9.04472656 -6.479375 9.51523438 -7 10 C-7.66 9.34 -8.32 8.68 -9 8 C-6.03 5.36 -3.06 2.72 0 0 Z " fill="#E6F0E2" transform="translate(94,103)"/>
</svg>
