<?xml version="1.0" encoding="UTF-8"?>
<svg version="1.1" xmlns="http://www.w3.org/2000/svg" width="225" height="225">
<path d="M0 0 C74.25 0 148.5 0 225 0 C225 74.25 225 148.5 225 225 C150.75 225 76.5 225 0 225 C0 150.75 0 76.5 0 0 Z " fill="#FEFDFD" transform="translate(0,0)"/>
<path d="M0 0 C4.76966308 3.60158232 9.55679858 7.60036708 13.359375 12.234375 C13.359375 12.894375 13.359375 13.554375 13.359375 14.234375 C14.03742188 13.90824219 14.71546875 13.58210938 15.4140625 13.24609375 C26.18816135 8.18734096 35.43092829 5.77657712 47.359375 5.234375 C47.359375 6.554375 47.359375 7.874375 47.359375 9.234375 C45.049375 9.564375 42.739375 9.894375 40.359375 10.234375 C40.070625 11.1625 39.781875 12.090625 39.484375 13.046875 C38.2530899 16.5355161 37.35871624 18.64765375 34.1171875 20.55078125 C33.24835938 20.96199219 32.37953125 21.37320313 31.484375 21.796875 C30.62070313 22.21066406 29.75703125 22.62445313 28.8671875 23.05078125 C27.62582031 23.63666016 27.62582031 23.63666016 26.359375 24.234375 C25.02495585 24.89886559 23.6914356 25.56516892 22.359375 26.234375 C22.37508545 27.0907959 22.3907959 27.9472168 22.40698242 28.82958984 C22.4585793 32.0538503 22.49595046 35.277898 22.52416992 38.50244141 C22.53911447 39.88923127 22.55947778 41.27597507 22.58569336 42.66259766 C22.73868843 50.97233004 22.47713761 58.4301993 19.359375 66.234375 C18.73869141 67.82572266 18.73869141 67.82572266 18.10546875 69.44921875 C12.47709604 81.1595942 4.14695195 90.4763881 -7.640625 96.234375 C-10.46484375 96.9140625 -10.46484375 96.9140625 -12.640625 97.234375 C-10.40145969 95.41505318 -8.1713072 93.60664461 -5.80859375 91.94921875 C3.45716218 85.38825943 9.4215559 77.89930172 13.359375 67.234375 C13.6790625 66.40550781 13.99875 65.57664062 14.328125 64.72265625 C18.0001395 53.62161242 18.12757904 39.96283408 13.359375 29.234375 C9.73356516 29.8425257 9.36059698 30.23291458 6.796875 33.296875 C4.25725716 37.07494845 2.79492245 40.92773264 1.359375 45.234375 C3.009375 45.564375 4.659375 45.894375 6.359375 46.234375 C6.854375 49.699375 6.854375 49.699375 7.359375 53.234375 C6.64523438 53.28980469 5.93109375 53.34523438 5.1953125 53.40234375 C1.45465948 54.49980807 -0.46991937 56.75267609 -3.015625 59.546875 C-12.10859232 69.01574762 -20.63815325 71.06407184 -33.51171875 71.890625 C-35.93481655 72.13079781 -35.93481655 72.13079781 -38.640625 74.234375 C-38.640625 75.554375 -38.640625 76.874375 -38.640625 78.234375 C-53.41012432 77.10511751 -53.41012432 77.10511751 -57.578125 73.609375 C-57.92875 73.155625 -58.279375 72.701875 -58.640625 72.234375 C-57.16183798 68.50060507 -57.16183798 68.50060507 -54.85302734 67.32128906 C-54.15129395 67.13276367 -53.44956055 66.94423828 -52.7265625 66.75 C-51.58574219 66.43095703 -51.58574219 66.43095703 -50.421875 66.10546875 C-49.6278125 65.90050781 -48.83375 65.69554688 -48.015625 65.484375 C-47.21382812 65.26394531 -46.41203125 65.04351562 -45.5859375 64.81640625 C-43.6080086 64.27483048 -41.62476937 63.75271678 -39.640625 63.234375 C-50.53232472 55.54611638 -63.83217771 56.04756693 -76.640625 58.234375 C-78.43130306 58.29742704 -80.22400079 58.32108614 -82.015625 58.296875 C-82.88960937 58.28785156 -83.76359375 58.27882813 -84.6640625 58.26953125 C-85.31632812 58.25792969 -85.96859375 58.24632813 -86.640625 58.234375 C-82.86708452 54.00365558 -79.35533224 51.81623474 -74.140625 49.671875 C-73.07896118 49.22799438 -73.07896118 49.22799438 -71.99584961 48.77514648 C-69.88497686 47.90777831 -67.76536577 47.06710581 -65.640625 46.234375 C-64.53847656 45.79351562 -63.43632813 45.35265625 -62.30078125 44.8984375 C-49.41599172 40.31645686 -36.15552745 40.69466051 -23.640625 46.234375 C-22.95613281 46.60820313 -22.27164063 46.98203125 -21.56640625 47.3671875 C-19.38475065 48.50810525 -19.38475065 48.50810525 -15.640625 48.234375 C-15.14433594 47.32816406 -14.64804688 46.42195313 -14.13671875 45.48828125 C-10.1265666 38.26185989 -5.95052637 31.60083838 -0.640625 25.234375 C0.101875 24.265 0.844375 23.295625 1.609375 22.296875 C3.359375 20.234375 3.359375 20.234375 6.359375 18.234375 C2.24435281 8.71706726 -8.60253467 3.18396823 -17.640625 -0.765625 C-31.59982529 -5.63150198 -45.9845233 -5.23890386 -59.640625 0.234375 C-60.94773437 0.74291016 -60.94773437 0.74291016 -62.28125 1.26171875 C-76.4180658 7.50770183 -85.64509427 19.93465846 -91.140625 34.046875 C-94.06617121 43.86370783 -93.90355728 54.75098098 -90.19921875 64.31640625 C-89.640625 66.234375 -89.640625 66.234375 -90.640625 69.234375 C-91.29106219 67.50693484 -91.93577344 65.7773381 -92.578125 64.046875 C-92.93777344 63.08394531 -93.29742187 62.12101562 -93.66796875 61.12890625 C-98.3090761 47.3174181 -96.00814473 32.13902187 -90.015625 19.171875 C-82.21299605 4.48909539 -71.27619478 -4.42713762 -55.640625 -9.765625 C-36.26878615 -15.47732181 -16.56441834 -11.07561699 0 0 Z " fill="#392C5E" transform="translate(136.640625,48.765625)"/>
<path d="M0 0 C4.85601292 3.66678527 9.18333535 7.81663531 13.359375 12.234375 C12.864375 13.719375 12.864375 13.719375 12.359375 15.234375 C9.796875 16.421875 9.796875 16.421875 7.359375 17.234375 C6.90949219 16.73808594 6.45960938 16.24179688 5.99609375 15.73046875 C-1.81977858 7.47603043 -10.83370886 1.77150709 -21.640625 -1.765625 C-22.32125 -1.99121094 -23.001875 -2.21679688 -23.703125 -2.44921875 C-35.73939091 -5.75463268 -48.21047838 -4.34675519 -59.640625 0.234375 C-60.94773437 0.74291016 -60.94773437 0.74291016 -62.28125 1.26171875 C-76.4180658 7.50770183 -85.64509427 19.93465846 -91.140625 34.046875 C-94.06617121 43.86370783 -93.90355728 54.75098098 -90.19921875 64.31640625 C-89.640625 66.234375 -89.640625 66.234375 -90.640625 69.234375 C-91.29106219 67.50693484 -91.93577344 65.7773381 -92.578125 64.046875 C-92.93777344 63.08394531 -93.29742187 62.12101562 -93.66796875 61.12890625 C-98.3090761 47.3174181 -96.00814473 32.13902187 -90.015625 19.171875 C-82.21299605 4.48909539 -71.27619478 -4.42713762 -55.640625 -9.765625 C-36.26878615 -15.47732181 -16.56441834 -11.07561699 0 0 Z " fill="#B20606" transform="translate(136.640625,48.765625)"/>
<path d="M0 0 C5.94 0 11.88 0 18 0 C17.67 1.65 17.34 3.3 17 5 C15.93458984 5.07347656 15.93458984 5.07347656 14.84765625 5.1484375 C13.92855469 5.22320312 13.00945312 5.29796875 12.0625 5.375 C11.14597656 5.44460937 10.22945312 5.51421875 9.28515625 5.5859375 C8.15400391 5.79089844 8.15400391 5.79089844 7 6 C6.67 6.66 6.34 7.32 6 8 C6.69867188 8 7.39734375 8 8.1171875 8 C11.41145833 8 14.70572917 8 18 8 C18.88327014 6.67213079 19.75650298 5.3375783 20.625 4 C22.51802295 1.69756523 23.91084076 0.21800041 26.89306641 -0.37890625 C31.61319228 -0.71706452 36.29289981 -0.4068562 41 0 C43.28571429 8.42857143 43.28571429 8.42857143 43 13 C40.69 13 38.38 13 36 13 C35.34 10.36 34.68 7.72 34 5 C31.70808151 4.96747064 31.70808151 4.96747064 29 6 C28.19087737 7.15810073 27.41315565 8.3383667 26.65625 9.53125 C24.50496006 12.13091895 23.43240891 12.91504318 20.07861328 13.57397461 C16.5714239 13.68866711 13.12968401 13.61026611 9.625 13.4375 C8.41199219 13.40591797 7.19898437 13.37433594 5.94921875 13.34179688 C2.96365816 13.25951765 -0.0169161 13.14460933 -3 13 C-2.68991116 11.39536551 -2.37683713 9.79130769 -2.0625 8.1875 C-1.88847656 7.29417969 -1.71445313 6.40085938 -1.53515625 5.48046875 C-1 3 -1 3 0 0 Z " fill="#322659" transform="translate(120,175)"/>
<path d="M0 0 C1.4540625 0.0309375 1.4540625 0.0309375 2.9375 0.0625 C5.37646502 5.77609135 5.26962891 11.21183627 5.25 17.3125 C5.26611328 18.29863281 5.28222656 19.28476563 5.29882812 20.30078125 C5.30880913 35.45194111 -0.90903415 48.69054773 -11.3359375 59.57421875 C-16.80146985 64.56210429 -22.61435864 68.96600522 -30.0625 70.0625 C-27.82333469 68.24317818 -25.5931822 66.43476961 -23.23046875 64.77734375 C-13.96471282 58.21638443 -8.0003191 50.72742672 -4.0625 40.0625 C-3.7428125 39.23363281 -3.423125 38.40476563 -3.09375 37.55078125 C0.6644825 26.18908764 0.6069559 12.12466339 -4.0625 1.0625 C-3.0625 0.0625 -3.0625 0.0625 0 0 Z " fill="#B10808" transform="translate(154.0625,75.9375)"/>
<path d="M0 0 C1.4539304 0.03304387 2.90746075 0.09241162 4.359375 0.17578125 C5.10445312 0.19833984 5.84953125 0.22089844 6.6171875 0.24414062 C8.448784 0.30284564 10.27934153 0.39252368 12.109375 0.48828125 C12.439375 3.78828125 12.769375 7.08828125 13.109375 10.48828125 C13.769375 10.48828125 14.429375 10.48828125 15.109375 10.48828125 C15.25375 9.20953125 15.398125 7.93078125 15.546875 6.61328125 C15.81580246 4.23135231 16.03163846 2.64375434 17.109375 0.48828125 C19.419375 0.48828125 21.729375 0.48828125 24.109375 0.48828125 C23.79928616 2.09291574 23.48621213 3.69697356 23.171875 5.30078125 C22.91083984 6.64076172 22.91083984 6.64076172 22.64453125 8.0078125 C22.109375 10.48828125 22.109375 10.48828125 21.109375 13.48828125 C16.489375 13.48828125 11.869375 13.48828125 7.109375 13.48828125 C5.109375 7.48828125 5.109375 7.48828125 5.109375 5.48828125 C0.819375 5.48828125 -3.470625 5.48828125 -7.890625 5.48828125 C-3.890625 0.48828125 -3.890625 0.48828125 0 0 Z " fill="#382B5E" transform="translate(23.890625,174.51171875)"/>
<path d="M0 0 C7.26 0 14.52 0 22 0 C21.34 1.65 20.68 3.3 20 5 C19.56111075 7.20254027 19.56111075 7.20254027 19.375 9.3125 C19.25125 10.529375 19.1275 11.74625 19 13 C16.69 13 14.38 13 12 13 C12.875 7.25 12.875 7.25 14 5 C11.36 5 8.72 5 6 5 C5.855625 5.763125 5.71125 6.52625 5.5625 7.3125 C5 10 5 10 4 13 C1.69 13 -0.62 13 -3 13 C-2.01 8.71 -1.02 4.42 0 0 Z " fill="#322459" transform="translate(52,175)"/>
<path d="M0 0 C5.94 0 11.88 0 18 0 C17.67 1.65 17.34 3.3 17 5 C13.37 5 9.74 5 6 5 C6 5.99 6 6.98 6 8 C9.3 8 12.6 8 16 8 C15.67 9.65 15.34 11.3 15 13 C8.73 13 2.46 13 -4 13 C-2.68 8.71 -1.36 4.42 0 0 Z " fill="#32255A" transform="translate(189,175)"/>
<path d="M0 0 C7.26 0 14.52 0 22 0 C20 4 20 4 18 5 C15.9625237 5.22858114 13.91959697 5.41024278 11.875 5.5625 C10.77929688 5.64628906 9.68359375 5.73007813 8.5546875 5.81640625 C7.29011719 5.90728516 7.29011719 5.90728516 6 6 C5.34 8.31 4.68 10.62 4 13 C1.69 13 -0.62 13 -3 13 C-2.68991116 11.39536551 -2.37683713 9.79130769 -2.0625 8.1875 C-1.88847656 7.29417969 -1.71445313 6.40085938 -1.53515625 5.48046875 C-1 3 -1 3 0 0 Z " fill="#302258" transform="translate(95,175)"/>
<path d="M0 0 C2.31 0 4.62 0 7 0 C6.125 5.75 6.125 5.75 5 8 C8.63 8 12.26 8 16 8 C15.67 9.65 15.34 11.3 15 13 C12.72975032 13.08097324 10.45867925 13.13917704 8.1875 13.1875 C6.29064453 13.23970703 6.29064453 13.23970703 4.35546875 13.29296875 C1 13 1 13 -0.96484375 11.70703125 C-2.7241445 8.80584472 -1.68200265 6.18267903 -1 3 C-0.67 2.01 -0.34 1.02 0 0 Z " fill="#33275A" transform="translate(166,175)"/>
<path d="M0 0 C-4.11254041 14.75676264 -12.66827345 24.51296556 -25.3515625 32.6171875 C-27.95799432 33.97806783 -30.10388009 34.59224305 -33 35 C-30.76083469 33.18067818 -28.5306822 31.37226961 -26.16796875 29.71484375 C-15.88991269 22.43708808 -9.9700057 13.9100171 -6 2 C-3 0 -3 0 0 0 Z " fill="#B01110" transform="translate(157,111)"/>
<path d="M0 0 C3.10398978 -0.08710289 6.20766548 -0.14042309 9.3125 -0.1875 C10.19357422 -0.21263672 11.07464844 -0.23777344 11.98242188 -0.26367188 C13.25375977 -0.27817383 13.25375977 -0.27817383 14.55078125 -0.29296875 C15.72120972 -0.31653442 15.72120972 -0.31653442 16.9152832 -0.34057617 C19.53135906 0.08680711 20.4137087 0.91420918 22 3 C22 3.66 22 4.32 22 5 C14.08 5 6.16 5 -2 5 C-1.34 3.35 -0.68 1.7 0 0 Z " fill="#B00F0E" transform="translate(54,168)"/>
<path d="M0 0 C3.12492251 -0.05791844 6.24970766 -0.09356746 9.375 -0.125 C10.26445313 -0.14175781 11.15390625 -0.15851563 12.0703125 -0.17578125 C12.92109375 -0.18222656 13.771875 -0.18867188 14.6484375 -0.1953125 C15.82672119 -0.21102295 15.82672119 -0.21102295 17.02880859 -0.22705078 C19 0 19 0 21 2 C21 2.99 21 3.98 21 5 C13.41 5 5.82 5 -2 5 C-1.34 3.35 -0.68 1.7 0 0 Z " fill="#B60000" transform="translate(97,168)"/>
<path d="M0 0 C2.31 0 4.62 0 7 0 C6.68991116 1.60463449 6.37683713 3.20869231 6.0625 4.8125 C5.88847656 5.70582031 5.71445312 6.59914062 5.53515625 7.51953125 C5 10 5 10 4 13 C-0.62 13 -5.24 13 -10 13 C-9.67 12.34 -9.34 11.68 -9 11 C-6.69 11 -4.38 11 -2 11 C-1.93941406 10.37351563 -1.87882812 9.74703125 -1.81640625 9.1015625 C-1.73261719 8.28429687 -1.64882813 7.46703125 -1.5625 6.625 C-1.48128906 5.81289062 -1.40007813 5.00078125 -1.31640625 4.1640625 C-1 2 -1 2 0 0 Z " fill="#2E2356" transform="translate(41,175)"/>
<path d="M0 0 C1.10758667 0.03927612 1.10758667 0.03927612 2.23754883 0.0793457 C3.44121094 0.10351562 3.44121094 0.10351562 4.66918945 0.12817383 C5.50256836 0.17006836 6.33594727 0.21196289 7.19458008 0.25512695 C8.03956055 0.27768555 8.88454102 0.30024414 9.75512695 0.32348633 C11.83986806 0.38237732 13.92369812 0.47205897 16.00708008 0.56762695 C15.67708008 2.21762695 15.34708008 3.86762695 15.00708008 5.56762695 C8.40708008 5.56762695 1.80708008 5.56762695 -4.99291992 5.56762695 C-1.99291992 0.56762695 -1.99291992 0.56762695 0 0 Z " fill="#AA1717" transform="translate(192.992919921875,167.432373046875)"/>
<path d="M0 0 C5.94 0 11.88 0 18 0 C17.67 1.65 17.34 3.3 17 5 C10.73 5 4.46 5 -2 5 C-1.34 3.35 -0.68 1.7 0 0 Z " fill="#A61514" transform="translate(122,168)"/>
<path d="M0 0 C0.80179688 0.00451172 1.60359375 0.00902344 2.4296875 0.01367188 C4.41149006 0.02546832 6.39325433 0.04340395 8.375 0.0625 C7.44921875 2.54296875 7.44921875 2.54296875 5.375 5.0625 C2.30424082 5.71725435 -0.69019173 5.53196059 -3.8125 5.375 C-4.65748047 5.35244141 -5.50246094 5.32988281 -6.37304688 5.30664062 C-8.45778798 5.24774963 -10.54161804 5.15806798 -12.625 5.0625 C-9.87304944 -1.03110481 -6.13756978 -0.06476332 0 0 Z " fill="#AD0606" transform="translate(179.625,167.9375)"/>
<path d="M0 0 C0.99 0 1.98 0 3 0 C2.84015625 0.99386719 2.6803125 1.98773438 2.515625 3.01171875 C1.18255214 12.41650053 0.98051869 22.14525049 4.44140625 31.08203125 C5 33 5 33 4 36 C3.34956281 34.27255984 2.70485156 32.5429631 2.0625 30.8125 C1.70285156 29.84957031 1.34320313 28.88664062 0.97265625 27.89453125 C-0.83166356 22.52504942 -1.15601855 17.57770569 -1.125 11.9375 C-1.12886719 11.23044922 -1.13273437 10.52339844 -1.13671875 9.79492188 C-1.13032651 6.39105469 -1.06453812 3.25275537 0 0 Z " fill="#A61616" transform="translate(42,82)"/>
<path d="M0 0 C0.66 0 1.32 0 2 0 C2.33 0.99 2.66 1.98 3 3 C-3.05107202 9.79454845 -10.71611442 16.69288254 -20 18 C-17.74835423 16.17053782 -15.50229616 14.35518013 -13.1328125 12.6796875 C-8.54447217 9.41250353 -4.98054411 5.92932687 -1.4453125 1.5390625 C-0.96835938 1.03117188 -0.49140625 0.52328125 0 0 Z " fill="#B02727" transform="translate(144,128)"/>
<path d="M0 0 C3.12492251 -0.05791844 6.24970766 -0.09356746 9.375 -0.125 C10.26445313 -0.14175781 11.15390625 -0.15851563 12.0703125 -0.17578125 C12.92109375 -0.18222656 13.771875 -0.18867188 14.6484375 -0.1953125 C15.82672119 -0.21102295 15.82672119 -0.21102295 17.02880859 -0.22705078 C19 0 19 0 21 2 C21 2.99 21 3.98 21 5 C13.41 5 5.82 5 -2 5 C-1.67 4.34 -1.34 3.68 -1 3 C5.27 3 11.54 3 18 3 C18 2.67 18 2.34 18 2 C15.37493198 1.97309156 12.75013827 1.95320596 10.125 1.9375 C9.37863281 1.92912109 8.63226563 1.92074219 7.86328125 1.91210938 C3.80154422 1.79311916 3.80154422 1.79311916 0 3 C0 2.01 0 1.02 0 0 Z " fill="#AB1817" transform="translate(97,168)"/>
<path d="M0 0 C0.69609375 0.05800781 1.3921875 0.11601562 2.109375 0.17578125 C3.965625 0.33046875 3.965625 0.33046875 5.859375 0.48828125 C6.189375 2.13828125 6.519375 3.78828125 6.859375 5.48828125 C2.569375 5.48828125 -1.720625 5.48828125 -6.140625 5.48828125 C-2.140625 0.48828125 -2.140625 0.48828125 0 0 Z " fill="#AC0B0A" transform="translate(28.140625,167.51171875)"/>
<path d="M0 0 C0.69609375 0.05800781 1.3921875 0.11601562 2.109375 0.17578125 C3.965625 0.33046875 3.965625 0.33046875 5.859375 0.48828125 C6.189375 2.13828125 6.519375 3.78828125 6.859375 5.48828125 C2.569375 5.48828125 -1.720625 5.48828125 -6.140625 5.48828125 C-2.140625 0.48828125 -2.140625 0.48828125 0 0 Z " fill="#AF0F0F" transform="translate(153.140625,167.51171875)"/>
<path d="M0 0 C4.95 0 9.9 0 15 0 C15 0.99 15 1.98 15 3 C9.72 3 4.44 3 -1 3 C-0.67 2.01 -0.34 1.02 0 0 Z " fill="#B70000" transform="translate(123,169)"/>
<path d="M0 0 C4.62 0 9.24 0 14 0 C14.33 0.99 14.66 1.98 15 3 C10.05 3 5.1 3 0 3 C0 2.01 0 1.02 0 0 Z " fill="#B60000" transform="translate(193,169)"/>
<path d="M0 0 C0.71929687 0.47566406 0.71929687 0.47566406 1.453125 0.9609375 C5.16222106 2.47415767 8.77809202 2.46691411 12.75 2.625 C13.93916016 2.68300781 13.93916016 2.68300781 15.15234375 2.7421875 C17.10119416 2.836108 19.05056451 2.91912822 21 3 C20.67 3.66 20.34 4.32 20 5 C14.06 4.67 8.12 4.34 2 4 C1.67 4.99 1.34 5.98 1 7 C0.34 6.67 -0.32 6.34 -1 6 C-1.625 3.9375 -1.625 3.9375 -2 2 C-1.34 2 -0.68 2 0 2 C0 1.34 0 0.68 0 0 Z " fill="#DCDAE4" transform="translate(118,171)"/>
<path d="M0 0 C2.31 0 4.62 0 7 0 C6.67 1.65 6.34 3.3 6 5 C3.69 5 1.38 5 -1 5 C-0.67 3.35 -0.34 1.7 0 0 Z " fill="#AB0F0E" transform="translate(43,168)"/>
<path d="M0 0 C0 0.66 0 1.32 0 2 C2.64 2.33 5.28 2.66 8 3 C8 3.33 8 3.66 8 4 C3.03926578 5.32286246 -1.91111512 5.08893197 -7 5 C-2.25 0 -2.25 0 0 0 Z " fill="#302658" transform="translate(57,102)"/>
<path d="M0 0 C0 0.33 0 0.66 0 1 C-1.30324219 1.00386719 -1.30324219 1.00386719 -2.6328125 1.0078125 C-10.4650188 1.05241067 -10.4650188 1.05241067 -16.8125 5.0625 C-17.534375 6.031875 -18.25625 7.00125 -19 8 C-19.66 7.67 -20.32 7.34 -21 7 C-16.41234161 -1.94707506 -8.78385512 -0.70404946 0 0 Z " fill="#271651" transform="translate(160,175)"/>
<path d="M0 0 C3.3 0 6.6 0 10 0 C9.01 0.495 9.01 0.495 8 1 C8 1.66 8 2.32 8 3 C5.03 3 2.06 3 -1 3 C-0.67 2.01 -0.34 1.02 0 0 Z " fill="#F4F1F6" transform="translate(127,180)"/>
<path d="M0 0 C0.99 0.33 1.98 0.66 3 1 C1.26194659 2.36946622 -0.49091233 3.72015954 -2.25 5.0625 C-3.22453125 5.81660156 -4.1990625 6.57070312 -5.203125 7.34765625 C-8 9 -8 9 -10.359375 8.74609375 C-10.90078125 8.49988281 -11.4421875 8.25367188 -12 8 C-11.21753906 7.50628906 -10.43507813 7.01257813 -9.62890625 6.50390625 C-8.61699219 5.86324219 -7.60507813 5.22257813 -6.5625 4.5625 C-5.55316406 3.92441406 -4.54382813 3.28632813 -3.50390625 2.62890625 C-1.15446165 1.22350458 -1.15446165 1.22350458 0 0 Z " fill="#A31F1E" transform="translate(136,137)"/>
<path d="M0 0 C0.66 0.66 1.32 1.32 2 2 C-1.75 7.875 -1.75 7.875 -4 9 C-4.33 8.01 -4.66 7.02 -5 6 C-2.66666667 1.33333333 -2.66666667 1.33333333 0 0 Z " fill="#AB0B0B" transform="translate(150,121)"/>
<path d="M0 0 C0.99 0.33 1.98 0.66 3 1 C3.33 1.99 3.66 2.98 4 4 C3.67 4.66 3.34 5.32 3 6 C1.35 6 -0.3 6 -2 6 C-1.34 4.02 -0.68 2.04 0 0 Z " fill="#B21C1C" transform="translate(150,116)"/>
<path d="M0 0 C1.0625 1.875 1.0625 1.875 2 4 C1.67 4.66 1.34 5.32 1 6 C-0.32 6 -1.64 6 -3 6 C-2.625 3.5625 -2.625 3.5625 -2 1 C-1.34 0.67 -0.68 0.34 0 0 Z " fill="#B21312" transform="translate(45,76)"/>
<path d="M0 0 C1.32 0.99 2.64 1.98 4 3 C3.34 3 2.68 3 2 3 C1.67 4.32 1.34 5.64 1 7 C0.34 6.67 -0.32 6.34 -1 6 C-1.625 3.9375 -1.625 3.9375 -2 2 C-1.34 2 -0.68 2 0 2 C0 1.34 0 0.68 0 0 Z " fill="#EFE8EA" transform="translate(118,171)"/>
<path d="M0 0 C0 3 0 3 -2 5.1875 C-2.66 5.785625 -3.32 6.38375 -4 7 C-4.66 6.67 -5.32 6.34 -6 6 C-2.25 1.125 -2.25 1.125 0 0 Z " fill="#AE1B1A" transform="translate(61,50)"/>
</svg>
