<?xml version="1.0" encoding="UTF-8"?>
<svg version="1.1" xmlns="http://www.w3.org/2000/svg" width="340" height="148">
<path d="M0 0 C112.2 0 224.4 0 340 0 C340 48.84 340 97.68 340 148 C227.8 148 115.6 148 0 148 C0 99.16 0 50.32 0 0 Z " fill="#FDFCFD" transform="translate(0,0)"/>
<path d="M0 0 C2.0625 0.4375 2.0625 0.4375 4 1 C3.51456189 8.89255415 1.32777163 15.65992301 -1.375 23.0625 C-1.81690674 24.28606201 -2.25881348 25.50962402 -2.71411133 26.77026367 C-6.79409495 37.91849858 -11.62443153 48.68219742 -16.75 59.38525391 C-18.27549651 62.57628273 -19.76675958 65.78249936 -21.25512695 68.9909668 C-22.49576641 71.66423783 -23.74738837 74.33232198 -25 77 C-24.07445312 76.51273437 -23.14890625 76.02546875 -22.1953125 75.5234375 C-18.71468959 73.86397181 -16.7992057 73.50445143 -13 74 C-10.86328125 75.203125 -10.86328125 75.203125 -9 77 C-8.42578125 79.4453125 -8.42578125 79.4453125 -8.3125 82.125 C-8.41422594 85.3689441 -8.41422594 85.3689441 -7 88 C-5.00041636 88.04080783 -2.99954746 88.04254356 -1 88 C-1.45375 87.195625 -1.9075 86.39125 -2.375 85.5625 C-9.5425071 69.84911905 -7.67309149 50.76734599 -2.04711914 34.83203125 C0.64391396 27.89204559 4.1758223 20.81779405 10 16 C13.34542226 14.94584351 15.10016157 14.62033395 18.3515625 15.9921875 C21.93937319 20.36217493 20.36338318 27.59956695 20 33 C19.63658645 36.13630874 18.93147945 38.98610314 18 42 C17.68160156 43.10601562 17.36320312 44.21203125 17.03515625 45.3515625 C13.84301649 55.73407769 9.64412564 66.25743769 2.75390625 74.77734375 C0.74834221 76.84702889 0.74834221 76.84702889 1 79.4375 C2.78405317 84.00913625 4.90423781 87.26949187 9 90 C11.62531524 90.16713569 11.62531524 90.16713569 14 90 C13.505 89.05125 13.01 88.1025 12.5 87.125 C11 84 11 84 11 82 C14.465 81.505 14.465 81.505 18 81 C18.495 84.465 18.495 84.465 19 88 C21.48858887 87.57093295 22.74896408 87.25103592 24.5625 85.4375 C25.036875 84.963125 25.51125 84.48875 26 84 C26.99 84 27.98 84 29 84 C29.66 85.98 30.32 87.96 31 90 C33.31 90.33 35.62 90.66 38 91 C37.9175 90.13375 37.835 89.2675 37.75 88.375 C38.06868097 84.07280684 39.10939013 82.18708267 42 79 C45.75 78.125 45.75 78.125 49 78 C51 81 51 81 50.75 84.375 C50.10626078 87.48640622 49.30944157 90.11922854 48 93 C50.64458379 94.32229189 52.67761301 94.09677194 55.625 94.0625 C56.62789063 94.05347656 57.63078125 94.04445313 58.6640625 94.03515625 C59.43492187 94.02355469 60.20578125 94.01195313 61 94 C61.33 91.03 61.66 88.06 62 85 C63.32 85.33 64.64 85.66 66 86 C68.22425673 86.30341694 68.22425673 86.30341694 70.5 86.375 C71.62921875 86.44847656 71.62921875 86.44847656 72.78125 86.5234375 C76.20085319 85.71670013 77.12171473 83.90265088 79 81 C79.63865034 77.42999366 79.63865034 77.42999366 79.609375 73.51171875 C79.62591125 72.80852005 79.64244751 72.10532135 79.65948486 71.3808136 C79.7078094 69.14961888 79.7292991 66.9191048 79.75 64.6875 C79.77817302 63.16858583 79.80810232 61.64970316 79.83984375 60.13085938 C79.91356111 56.42072029 79.96323205 52.7107102 80 49 C81.87144695 48.17934931 83.74734336 47.3688416 85.625 46.5625 C86.66914063 46.11003906 87.71328125 45.65757813 88.7890625 45.19140625 C92 44 92 44 98 43 C98.33 51.91 98.66 60.82 99 70 C100.32 67.36 101.64 64.72 103 62 C104.7109375 60.01171875 104.7109375 60.01171875 106.375 58.6875 C106.91898438 58.23761719 107.46296875 57.78773437 108.0234375 57.32421875 C115.52902196 52.29577383 122.15338899 52.1552056 131 53 C137.03886217 54.61951304 140.39638025 58.04502284 144 63 C144.33 60.36 144.66 57.72 145 55 C147.31 55 149.62 55 152 55 C152 50.38 152 45.76 152 41 C157.65490846 39.77731709 162.15955528 39 168 39 C168 43.95 168 48.9 168 54 C171.3 54 174.6 54 178 54 C178 58.29 178 62.58 178 67 C174.7 67 171.4 67 168 67 C168.02282808 71.23035716 168.10017884 75.45802119 168.1875 79.6875 C168.19330078 80.88568359 168.19910156 82.08386719 168.20507812 83.31835938 C168.08765933 90.38968807 168.08765933 90.38968807 171.48828125 96.20703125 C172.31714844 96.79871094 173.14601563 97.39039062 174 98 C174.33 98.66 174.66 99.32 175 100 C172.08368173 100.27603012 169.17010285 100.52158705 166.25 100.75 C165.425 100.83121094 164.6 100.91242188 163.75 100.99609375 C157.61765648 101.4411832 157.61765648 101.4411832 154.484375 99.203125 C151.86354356 95.31325939 151.88163555 92.15854324 151.90234375 87.58203125 C151.90556641 86.32841797 151.90878906 85.07480469 151.91210938 83.78320312 C151.92048828 82.47287109 151.92886719 81.16253906 151.9375 79.8125 C151.94251683 78.47721519 151.94707941 77.14192859 151.95117188 75.80664062 C151.96297305 72.53771527 151.97943703 69.26888009 152 66 C149.69 66 147.38 66 145 66 C145.01160156 66.85464844 145.02320313 67.70929688 145.03515625 68.58984375 C145.04417969 69.69457031 145.05320312 70.79929687 145.0625 71.9375 C145.07410156 73.03964844 145.08570313 74.14179687 145.09765625 75.27734375 C145 78 145 78 144 79 C141.70848583 79.08790975 139.41427476 79.10694038 137.12109375 79.09765625 C136.09110008 79.09553383 136.09110008 79.09553383 135.04029846 79.09336853 C132.83932199 79.08775479 130.63844591 79.07520007 128.4375 79.0625 C126.94856917 79.05748676 125.45963676 79.05292355 123.97070312 79.04882812 C120.31376925 79.03778093 116.65689442 79.02050713 113 79 C115.23012667 85.05330124 115.23012667 85.05330124 120 89 C127.3346645 90.4283294 133.42632104 88.00338727 140 85 C140.99 84.67 141.98 84.34 143 84 C143.35066505 94.16928658 143.35066505 94.16928658 141 98 C133.14411456 102.57431304 124.28494119 103.18270277 115.48828125 101.52734375 C108.70467785 99.60397912 103.80406095 95.94663288 100.125 89.9375 C99.10130171 87.26451001 98.51988009 84.8026263 98 82 C97.8040625 82.71285156 97.608125 83.42570312 97.40625 84.16015625 C95.17888866 91.29347297 92.48102465 96.04449919 86 100 C81.49234618 101.88080131 77.67684991 102.24485032 72.8125 102.1875 C71.60207031 102.18105469 70.39164063 102.17460938 69.14453125 102.16796875 C66 102 66 102 63 101 C63 99.35 63 97.7 63 96 C62.195625 96.33 61.39125 96.66 60.5625 97 C56.23276893 98.21536311 52.45808908 98.7911967 48 98 C45.9609375 96.84375 45.9609375 96.84375 44 95.4375 C40.83631037 93.17681959 39.16745556 92.73903554 35.3125 93.3125 C34.17554688 93.52519531 34.17554688 93.52519531 33.015625 93.7421875 C31 94 31 94 28.5625 92.9375 C24.93075184 91.60881165 22.26577179 92.62752779 18.56640625 93.4765625 C14.55981771 94.29373581 9.91232663 95.09578008 6.234375 92.98828125 C2.99374928 91.55492757 0.14665655 91.84963432 -3.375 91.9375 C-8.10144502 92.04642609 -12.35275114 91.82122617 -17 91 C-18.74953241 90.95954838 -20.50052669 90.95706814 -22.25 91 C-26.78034682 91.10982659 -26.78034682 91.10982659 -29 90 C-29 87.69 -29 85.38 -29 83 C-29.42128174 83.73150269 -29.42128174 83.73150269 -29.85107422 84.4777832 C-42.34772235 106.0009149 -42.34772235 106.0009149 -50 112 C-53.29296875 112.77734375 -53.29296875 112.77734375 -56 113 C-60.38062693 102.02585213 -62.97864023 90.95609629 -64.875 79.3125 C-65.08987061 78.03173584 -65.30474121 76.75097168 -65.52612305 75.43139648 C-66.86352984 66.7921132 -68.05816305 57.73722283 -67 49 C-65.47998047 47.0793457 -65.47998047 47.0793457 -64 46 C-63.01 46.33 -62.02 46.66 -61 47 C-60.95512451 47.73412109 -60.91024902 48.46824219 -60.86401367 49.22460938 C-59.38702591 73.9731127 -59.38702591 73.9731127 -53.55078125 97.984375 C-53 100 -53 100 -53 104 C-32.38829703 94.6310441 -20.56480283 53.78971979 -13.125 34 C-11.39432909 29.34128985 -9.69195533 24.67288806 -8 20 C-6.93605477 17.09017389 -5.86930627 14.1814051 -4.80029297 11.2734375 C-4.20120331 9.63961409 -3.60620537 8.00428209 -3.01611328 6.3671875 C-1.10757838 1.10757838 -1.10757838 1.10757838 0 0 Z " fill="#5F1C4F" transform="translate(115,1)"/>
<path d="M0 0 C2.0625 0.4375 2.0625 0.4375 4 1 C3.51456189 8.89255415 1.32777163 15.65992301 -1.375 23.0625 C-1.81690674 24.28606201 -2.25881348 25.50962402 -2.71411133 26.77026367 C-6.79409495 37.91849858 -11.62443153 48.68219742 -16.75 59.38525391 C-18.27549651 62.57628273 -19.76675958 65.78249936 -21.25512695 68.9909668 C-22.49576641 71.66423783 -23.74738837 74.33232198 -25 77 C-24.07445312 76.51273437 -23.14890625 76.02546875 -22.1953125 75.5234375 C-18.71468959 73.86397181 -16.7992057 73.50445143 -13 74 C-10.86328125 75.203125 -10.86328125 75.203125 -9 77 C-8.42578125 79.4453125 -8.42578125 79.4453125 -8.3125 82.125 C-8.41422594 85.3689441 -8.41422594 85.3689441 -7 88 C-5.00041636 88.04080783 -2.99954746 88.04254356 -1 88 C-1.45375 87.195625 -1.9075 86.39125 -2.375 85.5625 C-9.5425071 69.84911905 -7.67309149 50.76734599 -2.04711914 34.83203125 C0.64391396 27.89204559 4.1758223 20.81779405 10 16 C13.34542226 14.94584351 15.10016157 14.62033395 18.3515625 15.9921875 C21.93937319 20.36217493 20.36338318 27.59956695 20 33 C19.63658645 36.13630874 18.93147945 38.98610314 18 42 C17.68160156 43.10601562 17.36320312 44.21203125 17.03515625 45.3515625 C13.84301649 55.73407769 9.64412564 66.25743769 2.75390625 74.77734375 C0.74834221 76.84702889 0.74834221 76.84702889 1 79.4375 C2.78405317 84.00913625 4.90423781 87.26949187 9 90 C11.62531524 90.16713569 11.62531524 90.16713569 14 90 C13.505 89.05125 13.01 88.1025 12.5 87.125 C11 84 11 84 11 82 C14.465 81.505 14.465 81.505 18 81 C18.495 84.465 18.495 84.465 19 88 C21.48858887 87.57093295 22.74896408 87.25103592 24.5625 85.4375 C25.036875 84.963125 25.51125 84.48875 26 84 C26.99 84 27.98 84 29 84 C29.66 85.98 30.32 87.96 31 90 C33.31 90.33 35.62 90.66 38 91 C37.9175 90.13375 37.835 89.2675 37.75 88.375 C38.06868097 84.07280684 39.10939013 82.18708267 42 79 C45.75 78.125 45.75 78.125 49 78 C51 81 51 81 50.75 84.375 C50.10626078 87.48640622 49.30944157 90.11922854 48 93 C50.76452033 94.38226016 53.0461363 94.09525387 56.125 94.0625 C57.22070312 94.05347656 58.31640625 94.04445313 59.4453125 94.03515625 C60.28835937 94.02355469 61.13140625 94.01195313 62 94 C62 94.66 62 95.32 62 96 C57.46957205 98.3382854 52.9900071 98.87220292 48 98 C45.95703125 96.84375 45.95703125 96.84375 44 95.4375 C40.83631037 93.17681959 39.16745556 92.73903554 35.3125 93.3125 C34.17554688 93.52519531 34.17554688 93.52519531 33.015625 93.7421875 C31 94 31 94 28.5625 92.9375 C24.93075184 91.60881165 22.26577179 92.62752779 18.56640625 93.4765625 C14.55981771 94.29373581 9.91232663 95.09578008 6.234375 92.98828125 C2.99374928 91.55492757 0.14665655 91.84963432 -3.375 91.9375 C-8.10144502 92.04642609 -12.35275114 91.82122617 -17 91 C-18.74953241 90.95954838 -20.50052669 90.95706814 -22.25 91 C-26.78034682 91.10982659 -26.78034682 91.10982659 -29 90 C-29 87.69 -29 85.38 -29 83 C-29.42128174 83.73150269 -29.42128174 83.73150269 -29.85107422 84.4777832 C-42.34772235 106.0009149 -42.34772235 106.0009149 -50 112 C-53.29296875 112.77734375 -53.29296875 112.77734375 -56 113 C-60.38062693 102.02585213 -62.97864023 90.95609629 -64.875 79.3125 C-65.08987061 78.03173584 -65.30474121 76.75097168 -65.52612305 75.43139648 C-66.86352984 66.7921132 -68.05816305 57.73722283 -67 49 C-65.47998047 47.0793457 -65.47998047 47.0793457 -64 46 C-63.01 46.33 -62.02 46.66 -61 47 C-60.95512451 47.73412109 -60.91024902 48.46824219 -60.86401367 49.22460938 C-59.38702591 73.9731127 -59.38702591 73.9731127 -53.55078125 97.984375 C-53 100 -53 100 -53 104 C-32.38829703 94.6310441 -20.56480283 53.78971979 -13.125 34 C-11.39432909 29.34128985 -9.69195533 24.67288806 -8 20 C-6.93605477 17.09017389 -5.86930627 14.1814051 -4.80029297 11.2734375 C-4.20120331 9.63961409 -3.60620537 8.00428209 -3.01611328 6.3671875 C-1.10757838 1.10757838 -1.10757838 1.10757838 0 0 Z " fill="#AE3292" transform="translate(115,1)"/>
<path d="M0 0 C0 4.95 0 9.9 0 15 C3.3 15 6.6 15 10 15 C10 19.29 10 23.58 10 28 C6.7 28 3.4 28 0 28 C0.02282808 32.23035716 0.10017884 36.45802119 0.1875 40.6875 C0.19330078 41.88568359 0.19910156 43.08386719 0.20507812 44.31835938 C0.08765933 51.38968807 0.08765933 51.38968807 3.48828125 57.20703125 C4.31714844 57.79871094 5.14601563 58.39039063 6 59 C6.33 59.66 6.66 60.32 7 61 C4.08368173 61.27603012 1.17010285 61.52158705 -1.75 61.75 C-2.575 61.83121094 -3.4 61.91242188 -4.25 61.99609375 C-10.38234352 62.4411832 -10.38234352 62.4411832 -13.515625 60.203125 C-16.13645644 56.31325939 -16.11836445 53.15854324 -16.09765625 48.58203125 C-16.09443359 47.32841797 -16.09121094 46.07480469 -16.08789062 44.78320312 C-16.07951172 43.47287109 -16.07113281 42.16253906 -16.0625 40.8125 C-16.05748317 39.47721519 -16.05292059 38.14192859 -16.04882812 36.80664062 C-16.03702695 33.53771527 -16.02056297 30.26888009 -16 27 C-18.31 27 -20.62 27 -23 27 C-23 23.37 -23 19.74 -23 16 C-20.69 16 -18.38 16 -16 16 C-16 11.38 -16 6.76 -16 2 C-10.34509154 0.77731709 -5.84044472 0 0 0 Z " fill="#601E50" transform="translate(283,40)"/>
<path d="M0 0 C2.0625 0.4375 2.0625 0.4375 4 1 C3.51456189 8.89255415 1.32777163 15.65992301 -1.375 23.0625 C-1.81690674 24.28606201 -2.25881348 25.50962402 -2.71411133 26.77026367 C-6.79409495 37.91849858 -11.62443153 48.68219742 -16.75 59.38525391 C-18.27549651 62.57628273 -19.76675958 65.78249936 -21.25512695 68.9909668 C-22.49576641 71.66423783 -23.74738837 74.33232198 -25 77 C-24.01 76.34 -23.02 75.68 -22 75 C-18.8125 74.875 -18.8125 74.875 -16 75 C-16 75.66 -16 76.32 -16 77 C-17.65532623 78.01866229 -19.32260138 79.01810813 -21 80 C-22.35439668 82.70879335 -22.06501451 85.00933268 -22 88 C-21.01 88.33 -20.02 88.66 -19 89 C-19 89.66 -19 90.32 -19 91 C-26.75 91.125 -26.75 91.125 -29 90 C-29 87.69 -29 85.38 -29 83 C-29.42128174 83.73150269 -29.42128174 83.73150269 -29.85107422 84.4777832 C-42.34772235 106.0009149 -42.34772235 106.0009149 -50 112 C-53.29296875 112.77734375 -53.29296875 112.77734375 -56 113 C-60.38062693 102.02585213 -62.97864023 90.95609629 -64.875 79.3125 C-65.08987061 78.03173584 -65.30474121 76.75097168 -65.52612305 75.43139648 C-66.86352984 66.7921132 -68.05816305 57.73722283 -67 49 C-65.47998047 47.0793457 -65.47998047 47.0793457 -64 46 C-63.01 46.33 -62.02 46.66 -61 47 C-60.95512451 47.73412109 -60.91024902 48.46824219 -60.86401367 49.22460938 C-59.38702591 73.9731127 -59.38702591 73.9731127 -53.55078125 97.984375 C-53 100 -53 100 -53 104 C-32.38829703 94.6310441 -20.56480283 53.78971979 -13.125 34 C-11.39432909 29.34128985 -9.69195533 24.67288806 -8 20 C-6.93605477 17.09017389 -5.86930627 14.1814051 -4.80029297 11.2734375 C-4.20120331 9.63961409 -3.60620537 8.00428209 -3.01611328 6.3671875 C-1.10757838 1.10757838 -1.10757838 1.10757838 0 0 Z " fill="#AD3292" transform="translate(115,1)"/>
<path d="M0 0 C0.09931654 5.97732771 0.17167995 11.9541688 0.21972656 17.93212891 C0.23976836 19.96313857 0.26700947 21.99409106 0.30175781 24.02490234 C0.35060414 26.95424556 0.37304343 29.882822 0.390625 32.8125 C0.41127014 33.71178223 0.43191528 34.61106445 0.45318604 35.53759766 C0.45562298 42.4767045 -1.1963178 47.68422972 -5.7109375 53.0234375 C-6.26007813 53.46945313 -6.80921875 53.91546875 -7.375 54.375 C-7.91898438 54.83648437 -8.46296875 55.29796875 -9.0234375 55.7734375 C-13.90758899 58.80431412 -18.53201568 59.25417774 -24.1875 59.1875 C-25.39792969 59.18105469 -26.60835937 59.17460938 -27.85546875 59.16796875 C-31 59 -31 59 -34 58 C-34.85298376 54.32612505 -35.10789471 50.9552607 -35.0625 47.1875 C-35.05347656 46.21167969 -35.04445312 45.23585937 -35.03515625 44.23046875 C-35.02355469 43.49441406 -35.01195312 42.75835937 -35 42 C-34.14921875 42.23589844 -34.14921875 42.23589844 -33.28125 42.4765625 C-30.9801949 43.00454432 -28.8575003 43.27004279 -26.5 43.375 C-25.7471875 43.42398438 -24.994375 43.47296875 -24.21875 43.5234375 C-20.79914681 42.71670013 -19.87828527 40.90265088 -18 38 C-17.36134966 34.42999366 -17.36134966 34.42999366 -17.390625 30.51171875 C-17.37408875 29.80852005 -17.35755249 29.10532135 -17.34051514 28.3808136 C-17.2921906 26.14961888 -17.2707009 23.9191048 -17.25 21.6875 C-17.22182698 20.16858583 -17.19189768 18.64970316 -17.16015625 17.13085938 C-17.08643889 13.42072029 -17.03676795 9.7107102 -17 6 C-15.06305322 5.18618205 -13.12542289 4.37399084 -11.1875 3.5625 C-10.10855469 3.11003906 -9.02960938 2.65757813 -7.91796875 2.19140625 C-2.55081967 0 -2.55081967 0 0 0 Z " fill="#5E1C4E" transform="translate(212,44)"/>
<path d="M0 0 C2.125 0.375 2.125 0.375 4 1 C5.55415159 19.73616078 -0.63225344 38.44838017 -11 54 C-11.66 54 -12.32 54 -13 54 C-13.67580787 34.79579315 -11.98049523 18.74068289 -2 2 C-1.34 1.34 -0.68 0.68 0 0 Z " fill="#FCF9FB" transform="translate(127,19)"/>
<path d="M0 0 C1.28583984 -0.02513672 1.28583984 -0.02513672 2.59765625 -0.05078125 C5.40038306 0.38436665 6.07024763 1.27485453 7.9375 3.3125 C7.05344482 3.63710205 6.16938965 3.9617041 5.25854492 4.29614258 C1.70729729 5.60044943 -1.84334513 6.90639847 -5.39389038 8.21261597 C-7.04756393 8.82072507 -8.7013929 9.42841167 -10.3553772 10.03567505 C-21.53554678 14.14092194 -32.69476957 18.29781593 -43.8359375 22.5078125 C-47.32346618 23.82164304 -50.81127101 25.13473779 -54.29916382 26.44760132 C-56.60187838 27.31668123 -58.90333347 28.18910549 -61.20352173 29.06484985 C-64.44903035 30.30020679 -67.69860999 31.52423236 -70.94921875 32.74609375 C-71.92881561 33.12246979 -72.90841248 33.49884583 -73.91769409 33.8866272 C-74.81714752 34.22237762 -75.71660095 34.55812805 -76.64331055 34.90405273 C-77.8204084 35.35034279 -77.8204084 35.35034279 -79.02128601 35.8056488 C-81.0625 36.3125 -81.0625 36.3125 -84.0625 35.3125 C-78.87621481 32.99726988 -73.68859714 30.68504428 -68.5 28.375 C-67.70916016 28.02290466 -66.91832031 27.67080933 -66.10351562 27.30804443 C-51.25580647 20.70148469 -36.36721334 14.19104951 -21.45874023 7.72290039 C-20.65786484 7.37500961 -19.85698944 7.02711884 -19.03184509 6.66868591 C-17.5357447 6.01889962 -16.03924012 5.37004284 -14.54225159 4.7223053 C-11.90830627 3.57813318 -9.29499106 2.43161534 -6.73852539 1.12182617 C-4.44917724 0.01633613 -2.52861988 0.01144172 0 0 Z " fill="#5F1B4F" transform="translate(254.0625,19.6875)"/>
<path d="M0 0 C5.33987665 -0.3640825 5.33987665 -0.3640825 8.16015625 1.19140625 C10.53108028 3.52205981 10.54903667 4.84962616 10.6875 8.125 C10.58577406 11.3689441 10.58577406 11.3689441 12 14 C13.51165654 14.39148761 15.03469632 14.73972457 16.5625 15.0625 C17.38878906 15.23910156 18.21507813 15.41570312 19.06640625 15.59765625 C19.70449219 15.73042969 20.34257813 15.86320312 21 16 C20.67 16.66 20.34 17.32 20 18 C13.2314676 18.10152799 6.69675136 18.03026944 0 17 C0 16.34 0 15.68 0 15 C-1.32 14.67 -2.64 14.34 -4 14 C-4.35475877 10.18634321 -4.2619932 8.41557542 -2.1875 5.125 C0 3 0 3 3 3 C3 2.34 3 1.68 3 1 C2.01 0.67 1.02 0.34 0 0 Z " fill="#AF3794" transform="translate(96,75)"/>
<path d="M0 0 C1.35851319 6.29856115 1.35851319 6.29856115 -0.4375 9.8125 C-0.953125 10.534375 -1.46875 11.25625 -2 12 C-2 12.66 -2 13.32 -2 14 C0.76452033 15.38226016 3.0461363 15.09525387 6.125 15.0625 C7.22070312 15.05347656 8.31640625 15.04445313 9.4453125 15.03515625 C10.28835937 15.02355469 11.13140625 15.01195313 12 15 C12 15.66 12 16.32 12 17 C7.46957205 19.3382854 2.9900071 19.87220292 -2 19 C-4.04296875 17.84375 -4.04296875 17.84375 -6 16.4375 C-9.21636547 14.12897962 -11.0588498 13.71948841 -15 14.1875 C-16.33886841 14.42949142 -17.67516468 14.69025841 -19 15 C-18.67 14.01 -18.34 13.02 -18 12 C-16.02 12 -14.04 12 -12 12 C-12.0825 11.13375 -12.165 10.2675 -12.25 9.375 C-11.939442 5.18246703 -10.62903631 3.22995889 -8 0 C-4.71023192 -1.09658936 -3.28696233 -0.79953138 0 0 Z " fill="#B64A9E" transform="translate(165,80)"/>
<path d="M0 0 C2.625 1.6875 2.625 1.6875 4 4 C4 5.65 4 7.3 4 9 C-2.6 9 -9.2 9 -16 9 C-12.97929287 -0.06212138 -9.09559354 -1.35980634 0 0 Z " fill="#F5F2F4" transform="translate(244,65)"/>
<path d="M0 0 C1.32 0 2.64 0 4 0 C4 0.66 4 1.32 4 2 C4.66 2 5.32 2 6 2 C6 1.34 6 0.68 6 0 C8.97 0 11.94 0 15 0 C14.67 2.97 14.34 5.94 14 9 C12.68 8.67 11.36 8.34 10 8 C10 5.69 10 3.38 10 1 C9.01 1 8.02 1 7 1 C7 3.31 7 5.62 7 8 C4.6739143 8.38063221 2.33944736 8.71269945 0 9 C-1 8 -1 8 -1.125 4.5 C-1 1 -1 1 0 0 Z " fill="#CDBAC8" transform="translate(247,118)"/>
<path d="M0 0 C4.50961573 0.6620334 8.66760093 1.49775517 12.94921875 3.14453125 C12.94921875 3.80453125 12.94921875 4.46453125 12.94921875 5.14453125 C9.69243341 6.9998311 6.6560711 8.48296837 2.94921875 9.14453125 C-0.30224445 7.72136684 -2.60341283 5.68760682 -5.05078125 3.14453125 C-2.64288651 0.18626057 -2.64288651 0.18626057 0 0 Z " fill="#601D50" transform="translate(198.05078125,30.85546875)"/>
<path d="M0 0 C6.0546875 -0.1953125 6.0546875 -0.1953125 8 0 C8.66 0.66 9.32 1.32 10 2 C10.33 1.34 10.66 0.68 11 0 C11.66 0 12.32 0 13 0 C13.66 2.97 14.32 5.94 15 9 C12.525 8.01 12.525 8.01 10 7 C9.67 7.66 9.34 8.32 9 9 C9 7.68 9 6.36 9 5 C7.68 5 6.36 5 5 5 C5 6.32 5 7.64 5 9 C3.68 9 2.36 9 1 9 C0.67 6.03 0.34 3.06 0 0 Z " fill="#9E7995" transform="translate(265,118)"/>
<path d="M0 0 C0.99 0.495 0.99 0.495 2 1 C2.625 3.0625 2.625 3.0625 3 5 C3.66 3.35 4.32 1.7 5 0 C5.66 1.32 6.32 2.64 7 4 C7.33 4 7.66 4 8 4 C8 2.68 8 1.36 8 0 C8.99 0.33 9.98 0.66 11 1 C11.6875 3.0625 11.6875 3.0625 12 5 C12.33 3.35 12.66 1.7 13 0 C13.66 0 14.32 0 15 0 C15 2.64 15 5.28 15 8 C15.99 8.33 16.98 8.66 18 9 C15.69 9 13.38 9 11 9 C11 8.01 11 7.02 11 6 C10.01 6 9.02 6 8 6 C8 6.99 8 7.98 8 9 C7.34 9 6.68 9 6 9 C6 8.34 6 7.68 6 7 C5.34 7 4.68 7 4 7 C4 7.66 4 8.32 4 9 C3.34 9 2.68 9 2 9 C1.34 6.03 0.68 3.06 0 0 Z " fill="#97748E" transform="translate(164,118)"/>
<path d="M0 0 C1.65 0.33 3.3 0.66 5 1 C4.29445932 4.66881155 2.72264494 7.70450534 1 11 C-0.65 11 -2.3 11 -4 11 C-4.36630156 7.06225823 -4.30233203 5.43460229 -2 2.125 C-1.34 1.42375 -0.68 0.7225 0 0 Z " fill="#F8F1F6" transform="translate(96,78)"/>
<path d="M0 0 C2.97 0 5.94 0 9 0 C8.01 0.495 8.01 0.495 7 1 C7 3.64 7 6.28 7 9 C5.68 9 4.36 9 3 9 C3 8.34 3 7.68 3 7 C1.68 7 0.36 7 -1 7 C-1.33 7.66 -1.66 8.32 -2 9 C-1.34 6.03 -0.68 3.06 0 0 Z " fill="#BB9FB4" transform="translate(216,118)"/>
<path d="M0 0 C3.375 -0.125 3.375 -0.125 7 0 C7.66 0.66 8.32 1.32 9 2 C9.33 1.34 9.66 0.68 10 0 C10.66 0 11.32 0 12 0 C12 1.98 12 3.96 12 6 C11.21625 5.814375 10.4325 5.62875 9.625 5.4375 C7.02910225 4.74037734 7.02910225 4.74037734 5 6 C5 4.68 5 3.36 5 2 C4.34 2 3.68 2 3 2 C3 3.32 3 4.64 3 6 C2.34 6 1.68 6 1 6 C0.67 4.02 0.34 2.04 0 0 Z " fill="#89637D" transform="translate(299,50)"/>
<path d="M0 0 C2.97 0 5.94 0 9 0 C8.67 2.97 8.34 5.94 8 9 C6.68 8.67 5.36 8.34 4 8 C4 5.69 4 3.38 4 1 C3.01 1 2.02 1 1 1 C1 3.31 1 5.62 1 8 C0.67 8 0.34 8 0 8 C0 5.36 0 2.72 0 0 Z " fill="#9A7891" transform="translate(253,118)"/>
<path d="M0 0 C0.99 0.99 1.98 1.98 3 3 C3.66 2.01 4.32 1.02 5 0 C5.99 0 6.98 0 8 0 C8 2.97 8 5.94 8 9 C7.34 9 6.68 9 6 9 C5.67 8.01 5.34 7.02 5 6 C4.01 6.99 3.02 7.98 2 9 C1.34 6.03 0.68 3.06 0 0 Z " fill="#946E8A" transform="translate(205,118)"/>
<path d="M0 0 C2.64 0 5.28 0 8 0 C8 2.64 8 5.28 8 8 C7.67 8 7.34 8 7 8 C7 5.69 7 3.38 7 1 C6.01 1 5.02 1 4 1 C4 3.31 4 5.62 4 8 C2.68 8.33 1.36 8.66 0 9 C0 6.03 0 3.06 0 0 Z " fill="#976F8C" transform="translate(226,118)"/>
<path d="M0 0 C1.32 0 2.64 0 4 0 C4 2.64 4 5.28 4 8 C2.0625 8.5625 2.0625 8.5625 0 9 C-1 8 -1 8 -1.125 4.5 C-1 1 -1 1 0 0 Z " fill="#B9A0B2" transform="translate(152,118)"/>
<path d="M0 0 C0 0.66 0 1.32 0 2 C-4.95 3.65 -9.9 5.3 -15 7 C-15.33 6.01 -15.66 5.02 -16 4 C-13.71144298 3.13656269 -11.4198072 2.2840189 -9.125 1.4375 C-8.47402344 1.19064453 -7.82304687 0.94378906 -7.15234375 0.68945312 C-2.2265625 -1.11328125 -2.2265625 -1.11328125 0 0 Z " fill="#E9E2E7" transform="translate(213,42)"/>
<path d="M0 0 C2.475 0.99 2.475 0.99 5 2 C5 6.29 5 10.58 5 15 C4.67 15 4.34 15 4 15 C3.814375 13.6078125 3.814375 13.6078125 3.625 12.1875 C3.18466918 8.86074765 3.18466918 8.86074765 1 6 C0.60986284 4.0103005 0.26797351 2.00980131 0 0 Z " fill="#AA278D" transform="translate(130,18)"/>
<path d="M0 0 C0.66 0 1.32 0 2 0 C2.66 2.97 3.32 5.94 4 9 C3.67 8.34 3.34 7.68 3 7 C1.68 7 0.36 7 -1 7 C-1.33 7.66 -1.66 8.32 -2 9 C-1.34 6.03 -0.68 3.06 0 0 Z " fill="#9A7691" transform="translate(216,118)"/>
<path d="M0 0 C2.8125 0.9375 2.8125 0.9375 4.8125 3.9375 C4.07 3.73125 3.3275 3.525 2.5625 3.3125 C-0.60534763 2.88052078 -1.44162747 3.52027547 -4.1875 4.9375 C-6.4375 4.5625 -6.4375 4.5625 -8.1875 3.9375 C-4.04888614 -0.07938992 -4.04888614 -0.07938992 0 0 Z " fill="#B23E98" transform="translate(130.1875,16.0625)"/>
<path d="M0 0 C2 1 2 1 2.6328125 2.84765625 C2.79523438 3.57855469 2.95765625 4.30945313 3.125 5.0625 C3.29257813 5.79597656 3.46015625 6.52945313 3.6328125 7.28515625 C3.75398437 7.85105469 3.87515625 8.41695312 4 9 C3.34 9 2.68 9 2 9 C2 8.01 2 7.02 2 6 C1.01 6 0.02 6 -1 6 C-1 6.99 -1 7.98 -1 9 C-1.66 8.67 -2.32 8.34 -3 8 C-2.01 5.36 -1.02 2.72 0 0 Z " fill="#99778F" transform="translate(201,118)"/>
<path d="M0 0 C1.65 0 3.3 0 5 0 C4.67 1.65 4.34 3.3 4 5 C3.01 5 2.02 5 1 5 C0.67 6.32 0.34 7.64 0 9 C0 6.03 0 3.06 0 0 Z " fill="#916485" transform="translate(158,118)"/>
<path d="M0 0 C2.31 0 4.62 0 7 0 C6.01 0.33 5.02 0.66 4 1 C4 1.99 4 2.98 4 4 C4.66 4.33 5.32 4.66 6 5 C5.34 5 4.68 5 4 5 C4 6.32 4 7.64 4 9 C3.34 9 2.68 9 2 9 C1.855625 8.071875 1.71125 7.14375 1.5625 6.1875 C1.07899889 2.99274889 1.07899889 2.99274889 0 0 Z " fill="#9E7F95" transform="translate(143,118)"/>
<path d="M0 0 C0.66 0 1.32 0 2 0 C2.33 2.64 2.66 5.28 3 8 C2.67 7.34 2.34 6.68 2 6 C1.01 6 0.02 6 -1 6 C-1 6.99 -1 7.98 -1 9 C-1.66 8.67 -2.32 8.34 -3 8 C-2.01 5.36 -1.02 2.72 0 0 Z " fill="#96728C" transform="translate(122,118)"/>
<path d="M0 0 C1.32 0 2.64 0 4 0 C3.34 2.97 2.68 5.94 2 9 C1.01 8.67 0.02 8.34 -1 8 C-0.67 5.36 -0.34 2.72 0 0 Z " fill="#A5879D" transform="translate(285,118)"/>
<path d="M0 0 C0.33 1.32 0.66 2.64 1 4 C-1.64738916 5.4606285 -2.89448334 6 -6 6 C-6 4.68 -6 3.36 -6 2 C-2.25 0 -2.25 0 0 0 Z " fill="#5A1349" transform="translate(222,33)"/>
<path d="M0 0 C0.99 0 1.98 0 3 0 C3 2.64 3 5.28 3 8 C2.01 8 1.02 8 0 8 C0 5.36 0 2.72 0 0 Z " fill="#E9E0E7" transform="translate(254,119)"/>
<path d="M0 0 C0.99 0 1.98 0 3 0 C3 2.64 3 5.28 3 8 C2.01 8 1.02 8 0 8 C0 5.36 0 2.72 0 0 Z " fill="#E9E0E7" transform="translate(230,119)"/>
<path d="M0 0 C0.66 0 1.32 0 2 0 C2.66 2.97 3.32 5.94 4 9 C3.34 8.67 2.68 8.34 2 8 C2 7.34 2 6.68 2 6 C1.01 6 0.02 6 -1 6 C-0.67 4.02 -0.34 2.04 0 0 Z " fill="#99768F" transform="translate(276,118)"/>
<path d="M0 0 C2.875 -0.125 2.875 -0.125 6 0 C6.66 0.66 7.32 1.32 8 2 C7 3 7 3 5.15234375 3.09765625 C3.1015625 3.06510417 1.05078125 3.03255208 -1 3 C-0.67 2.01 -0.34 1.02 0 0 Z " fill="#B4439B" transform="translate(124,92)"/>
<path d="M0 0 C0 3.99904969 -1.72586967 5.80200422 -4 9 C-5 6 -5 6 -4.25 3.375 C-3 1 -3 1 0 0 Z " fill="#5D194C" transform="translate(237,33)"/>
<path d="M0 0 C1.32 0 2.64 0 4 0 C4.33 1.65 4.66 3.3 5 5 C5.99 5.33 6.98 5.66 8 6 C7.01 6 6.02 6 5 6 C4.67 6.66 4.34 7.32 4 8 C3.896875 7.360625 3.79375 6.72125 3.6875 6.0625 C3.460625 5.381875 3.23375 4.70125 3 4 C2.01 3.67 1.02 3.34 0 3 C0 2.01 0 1.02 0 0 Z " fill="#C5B0BF" transform="translate(270,119)"/>
<path d="M0 0 C2.31 0 4.62 0 7 0 C5.02 0.99 5.02 0.99 3 2 C3 3.32 3 4.64 3 6 C2.34 6 1.68 6 1 6 C0.67 4.02 0.34 2.04 0 0 Z " fill="#AC8EA4" transform="translate(299,50)"/>
<path d="M0 0 C0.66 0 1.32 0 2 0 C2 2.97 2 5.94 2 9 C1.34 9 0.68 9 0 9 C-1.125 2.25 -1.125 2.25 0 0 Z " fill="#AD8FA5" transform="translate(211,118)"/>
<path d="M0 0 C0.66 0.33 1.32 0.66 2 1 C2.59355614 3.64860427 2.74209269 6.29197322 3 9 C2.01 9 1.02 9 0 9 C-1.125 2.25 -1.125 2.25 0 0 Z " fill="#F7F5F7" transform="translate(204,117)"/>
<path d="M0 0 C0 3 0 3 -1.3125 4.38671875 C-2.875 5.59114583 -4.4375 6.79557292 -6 8 C-5.65120368 4.74456771 -4.97866739 3.98126893 -2.4375 1.75 C-1.633125 1.1725 -0.82875 0.595 0 0 Z " fill="#642454" transform="translate(224,58)"/>
<path d="M0 0 C1.32 0 2.64 0 4 0 C4 0.66 4 1.32 4 2 C4.66 2 5.32 2 6 2 C6 3.65 6 5.3 6 7 C5.01 7.33 4.02 7.66 3 8 C3 7.01 3 6.02 3 5 C3.66 5 4.32 5 5 5 C5 4.34 5 3.68 5 3 C4.34 3 3.68 3 3 3 C3 2.34 3 1.68 3 1 C2.01 0.67 1.02 0.34 0 0 Z " fill="#AE91A6" transform="translate(247,118)"/>
<path d="M0 0 C1.32 0.33 2.64 0.66 4 1 C3.67 1.99 3.34 2.98 3 4 C2.01 4 1.02 4 0 4 C-0.33 4.66 -0.66 5.32 -1 6 C-1.66 5.67 -2.32 5.34 -3 5 C-2.01 3.35 -1.02 1.7 0 0 Z " fill="#B13D97" transform="translate(118,26)"/>
</svg>
