<?xml version="1.0" encoding="UTF-8"?>
<svg version="1.1" xmlns="http://www.w3.org/2000/svg" width="352" height="143">
<path d="M0 0 C116.16 0 232.32 0 352 0 C352 47.19 352 94.38 352 143 C235.84 143 119.68 143 0 143 C0 95.81 0 48.62 0 0 Z " fill="#FEFDFD" transform="translate(0,0)"/>
<path d="M0 0 C10.23 0 20.46 0 31 0 C34.3 7.59 37.6 15.18 41 23 C41.66 23 42.32 23 43 23 C44.43549726 21.40665761 45.79827327 19.74748918 47.125 18.0625 C50.11960568 14.33127909 53.11656376 10.6159616 56.25 7 C56.85328125 6.29875 57.4565625 5.5975 58.078125 4.875 C61.27642433 1.75470797 63.81041649 0.12197494 68.3215332 -0.34057617 C69.55218506 -0.32486572 70.78283691 -0.30915527 72.05078125 -0.29296875 C72.70958786 -0.28872391 73.36839447 -0.28447906 74.04716492 -0.28010559 C76.13603885 -0.26341196 78.22392139 -0.22578058 80.3125 -0.1875 C81.73501203 -0.17244097 83.1575393 -0.15875469 84.58007812 -0.14648438 C88.05370351 -0.11354003 91.52675487 -0.06182408 95 0 C92 2 92 2 90.1953125 2.98046875 C82.4013189 7.52451407 77.20926042 14.36372064 71.51757812 21.19921875 C69.48920233 23.60612027 67.37673954 25.9299205 65.25 28.25 C56.80902078 36.80945124 56.80902078 36.80945124 51 47 C51.82746685 49.34695266 52.71648868 51.52887836 53.74609375 53.78515625 C54.18103905 54.77049599 54.18103905 54.77049599 54.62477112 55.77574158 C55.55328539 57.87549234 56.49466254 59.96914634 57.4375 62.0625 C58.37466999 64.16027283 59.30906933 66.25920703 60.23951721 68.35997009 C60.81938584 69.66739694 61.40353131 70.97293674 61.99229431 72.27638245 C64 76.77786509 64 76.77786509 64 79 C91.39 79 118.78 79 147 79 C144.42945675 81.57054325 141.74708855 82.5522994 138.4375 84.0625 C132.46301 86.89288492 128.19737221 90.18460879 123.76953125 95.1796875 C121.20500221 97.8178123 119.30943296 97.98879852 115.67805481 98.12025452 C114.28512694 98.12315386 112.89218103 98.12049464 111.49926758 98.11352539 C110.73805099 98.11367142 109.97683441 98.11381744 109.19255066 98.1139679 C106.6765152 98.11327124 104.16055378 98.10549038 101.64453125 98.09765625 C99.90004008 98.09579119 98.1555484 98.0943677 96.41105652 98.09336853 C91.81941278 98.08955026 87.22780067 98.07972584 82.63616943 98.06866455 C77.95081002 98.05843561 73.26544549 98.05386773 68.58007812 98.04882812 C59.38670485 98.03810298 50.19335506 98.02103481 41 98 C39.42885366 94.3357646 37.86239884 90.66956379 36.30029297 87.00146484 C35.76805615 85.75351727 35.23453322 84.5061174 34.69970703 83.25927734 C33.93185131 81.46856372 33.16897715 79.67571657 32.40625 77.8828125 C31.94541016 76.80402832 31.48457031 75.72524414 31.00976562 74.61376953 C30 72 30 72 30 70 C26.28721194 73.67198819 22.67417789 77.41975544 19.125 81.25 C18.6005127 81.81557617 18.07602539 82.38115234 17.53564453 82.96386719 C13.88635954 86.93855895 10.49857313 91.03677096 7.3046875 95.390625 C6 97 6 97 4 98 C2.0406396 98.08510205 0.07837206 98.10717656 -1.8828125 98.09765625 C-3.04941406 98.09443359 -4.21601563 98.09121094 -5.41796875 98.08789062 C-6.64128906 98.07951172 -7.86460938 98.07113281 -9.125 98.0625 C-10.35605469 98.05798828 -11.58710938 98.05347656 -12.85546875 98.04882812 C-15.90369392 98.0370133 -18.95182314 98.02054028 -22 98 C-18.59637436 93.34627056 -15.13716469 88.89916566 -11.1875 84.6875 C-7.8674031 81.09031603 -4.68760622 77.4435308 -1.625 73.625 C2.33009377 68.71814569 6.5228161 64.08954096 10.83935547 59.50244141 C12.23781105 58.01240638 13.61933932 56.50653857 15 55 C16.19689453 53.78957031 16.19689453 53.78957031 17.41796875 52.5546875 C19.21292533 49.65616502 19.09314497 48.35627675 18.52659607 45.07687378 C17.47399946 40.92547498 15.69142271 37.07178233 13.96484375 33.1640625 C13.56672989 32.24410492 13.16861603 31.32414734 12.75843811 30.37631226 C11.49276666 27.45566565 10.21559055 24.54023046 8.9375 21.625 C7.65819587 18.68737421 6.38126477 15.74873418 5.10585022 12.80941772 C4.31292177 10.9841733 3.51728138 9.16010425 2.71873474 7.33731079 C2.3615889 6.51910858 2.00444305 5.70090637 1.63647461 4.85791016 C1.31972275 4.13511871 1.00297089 3.41232727 0.67662048 2.66763306 C0 1 0 1 0 0 Z " fill="#AE2830" transform="translate(29,13)"/>
<path d="M0 0 C5.77482435 5.14712605 5.77482435 5.14712605 6.2734375 9.25 C6.60701656 18.28229447 4.02807681 24.88916501 -1.9375 31.6875 C-11.08024427 40.07661242 -24.9865432 45.08849633 -37.3125 45.1875 C-38.199375 45.125625 -39.08625 45.06375 -40 45 C-38.91938785 49.96702426 -38.04908627 53.92532626 -34.4375 57.625 C-27.40218509 60.43912597 -21.71725353 59.54407831 -14.75 56.8125 C-6.65102248 53.10478395 -2.07190845 48.24815286 3 41 C4.39518305 45.18554916 3.10921923 47.28433387 1.41796875 51.23828125 C-3.98401505 61.75950038 -11.8983419 68.09904419 -23 71.875 C-32.91187665 74.4809394 -41.45106453 73.14090687 -50.3125 68.125 C-55.10089815 64.33882472 -57.3820242 60.85651923 -59 55 C-60.52921223 38.48095163 -56.38118655 25.21035428 -45.81640625 12.33984375 C-34.92659393 0.48443231 -15.39325807 -9.11029559 0 0 Z " fill="#AE262F" transform="translate(293,39)"/>
<path d="M0 0 C1.60246582 0.03927612 1.60246582 0.03927612 3.23730469 0.0793457 C4.97753906 0.10351562 4.97753906 0.10351562 6.75292969 0.12817383 C7.95949219 0.17006836 9.16605469 0.21196289 10.40917969 0.25512695 C12.24222656 0.28896484 12.24222656 0.28896484 14.11230469 0.32348633 C17.12916471 0.38240938 20.14355483 0.4646343 23.15917969 0.56762695 C22.41667969 1.12450195 21.67417969 1.68137695 20.90917969 2.25512695 C15.81673624 6.53740894 13.58569499 10.21038684 12.34667969 16.69262695 C12.19054199 17.44487549 12.0344043 18.19712402 11.87353516 18.97216797 C11.28537379 21.83416888 10.72217378 24.7005676 10.15917969 27.56762695 C9.6272454 30.240929 9.09473825 32.91411174 8.56152344 35.5871582 C8.26990783 37.0499614 7.97832313 38.51277077 7.68676758 39.97558594 C7.4644194 41.09089188 7.4644194 41.09089188 7.23757935 42.22872925 C6.93479531 43.74892645 6.63244895 45.26921088 6.33053589 46.7895813 C4.28455014 57.09144832 2.17488432 67.37388348 -0.09082031 77.63012695 C-0.32462402 78.69803467 -0.55842773 79.76594238 -0.79931641 80.86621094 C-6.46025965 106.17026252 -6.46025965 106.17026252 -17.84082031 113.56762695 C-27.96129184 119.47123534 -43.62017387 119.45494811 -54.84082031 116.56762695 C-54.84082031 116.23762695 -54.84082031 115.90762695 -54.84082031 115.56762695 C-54.07898438 115.42067383 -53.31714844 115.2737207 -52.53222656 115.12231445 C-41.51299916 112.7286246 -34.87118731 108.84875237 -28.44628906 99.52075195 C-23.7023328 90.79464263 -21.70586958 81.98252815 -19.96582031 72.25512695 C-19.45460039 69.48997892 -18.93627663 66.72616839 -18.41894531 63.9621582 C-18.28918304 63.26316406 -18.15942078 62.56416992 -18.02572632 61.84399414 C-16.46725465 53.48062684 -14.7108155 45.15991318 -12.95507812 36.8359375 C-11.7992181 31.32269895 -10.68490545 25.81235635 -9.71582031 20.26293945 C-9.54453613 19.29501465 -9.37325195 18.32708984 -9.19677734 17.32983398 C-8.88764108 15.55441891 -8.59070202 13.77681328 -8.30908203 11.99682617 C-8.17260254 11.21581543 -8.03612305 10.43480469 -7.89550781 9.63012695 C-7.78706543 8.96110352 -7.67862305 8.29208008 -7.56689453 7.6027832 C-6.11124993 3.52267111 -4.35166294 0.86950983 0 0 Z " fill="#AE262E" transform="translate(227.8408203125,12.432373046875)"/>
<path d="M0 0 C-1.485 6.93 -1.485 6.93 -3 14 C1.62 14 6.24 14 11 14 C9 16 9 16 5.6875 16.8125 C1.39674625 18.19426816 -0.23520093 19.46720119 -3 23 C-6.04576045 29.80962701 -7.39626148 36.95098499 -8.78979492 44.24389648 C-9.1851115 46.3000766 -9.59869303 48.35200657 -10.01367188 50.40429688 C-13.14989229 63.09750001 -13.14989229 63.09750001 -10.61865234 75.26000977 C-8.53863487 77.49595012 -7.31774207 77.57578307 -4.3125 77.75 C-3.10013672 77.83507812 -3.10013672 77.83507812 -1.86328125 77.921875 C-1.24839844 77.94765625 -0.63351562 77.9734375 0 78 C-1.385988 81.35066172 -2.7756177 82.83371851 -5.875 84.6875 C-6.55304688 85.10386719 -7.23109375 85.52023438 -7.9296875 85.94921875 C-12.40337476 88.21982606 -17.04144487 88.52648751 -22 88 C-27.34740414 86.04614079 -30.45618143 83.08763713 -33 78 C-34.17176985 66.12719651 -31.84395 54.28984481 -29.66137695 42.66796875 C-29.2624322 40.47434182 -28.8935069 38.27504105 -28.55493164 36.07128906 C-25.42823381 15.79375616 -25.42823381 15.79375616 -16.69737244 9.19473267 C-13.81244169 7.29647453 -10.88147347 5.57369966 -7.81832886 3.97979736 C-0.43253597 0 -0.43253597 0 0 0 Z " fill="#AE2830" transform="translate(332,24)"/>
<path d="M0 0 C0.99617844 -0.00043808 0.99617844 -0.00043808 2.01248169 -0.00088501 C4.18765753 0.00049817 6.36248234 0.0160109 8.53759766 0.03173828 C10.05359714 0.03547202 11.56959904 0.03831729 13.08560181 0.04031372 C17.06075798 0.04792176 21.03576622 0.06754568 25.01086426 0.08972168 C29.07314046 0.1102413 33.13544073 0.11932848 37.19775391 0.12939453 C45.15745694 0.15079447 53.1170401 0.18489593 61.07666016 0.22705078 C57.38707458 2.6867745 53.62530287 5.02445602 49.86572266 7.37548828 C45.10682383 10.53475725 41.59352564 13.7400155 38.07666016 18.22705078 C35.26450504 19.63312834 32.93621796 19.34655564 29.79101562 19.34057617 C29.14698792 19.3407222 28.50296021 19.34086823 27.8394165 19.34101868 C25.70752613 19.34032118 23.57572279 19.33253644 21.44384766 19.32470703 C19.96697029 19.32284227 18.49009231 19.32141864 17.01321411 19.32041931 C13.12353817 19.3165987 9.23389949 19.3067723 5.34423828 19.29571533 C1.37614445 19.28549142 -2.59195539 19.28091959 -6.56005859 19.27587891 C-14.34783601 19.26514963 -22.13558271 19.24807867 -29.92333984 19.22705078 C-23.07077267 7.73611641 -13.90244601 -0.05168196 0 0 Z " fill="#AD242D" transform="translate(122.92333984375,49.77294921875)"/>
<path d="M0 0 C1.39674926 0.00561017 2.79350451 0.00987353 4.19026184 0.01286316 C7.82842934 0.02420043 11.46622522 0.05356837 15.10424805 0.0869751 C18.83181738 0.11791903 22.55944803 0.13141992 26.28710938 0.14648438 C33.57308426 0.17845162 40.85875526 0.22950907 48.14453125 0.29296875 C45.12018922 2.59837688 42.03204586 4.58728773 38.76953125 6.54296875 C34.53095077 9.20125291 31.40670773 11.77707182 28.4609375 15.8125 C26.05660624 18.51648085 23.78064858 19.24108366 20.19586182 19.53347778 C19.05002625 19.52903656 17.90419067 19.52459534 16.72363281 19.52001953 C14.77206268 19.51979294 14.77206268 19.51979294 12.78106689 19.51956177 C11.36576178 19.50934921 9.95045824 19.49891723 8.53515625 19.48828125 C7.08355911 19.48454946 5.63195945 19.48170327 4.18035889 19.47970581 C0.36628218 19.47208239 -3.44764137 19.4524451 -7.26165771 19.43029785 C-11.15618824 19.40981153 -15.05074359 19.40069814 -18.9453125 19.390625 C-26.58210095 19.3691979 -34.21876336 19.33507767 -41.85546875 19.29296875 C-35.85260195 9.11045545 -29.55911801 3.89702724 -18.06967163 0.89950562 C-12.07951085 -0.230869 -6.07274125 -0.07263384 0 0 Z " fill="#AD242C" transform="translate(153.85546875,12.70703125)"/>
<path d="M0 0 C3.01054501 2.00703001 3.82479821 3.22911213 4.625 6.75 C3.70749623 11.52101961 1.4328447 14.61051755 -2 18 C-6.87793769 21.20602685 -11.82299703 23.1474928 -17.6875 23.0625 C-18.89986328 23.04896484 -18.89986328 23.04896484 -20.13671875 23.03515625 C-20.75160156 23.02355469 -21.36648437 23.01195313 -22 23 C-21.6727301 15.47279224 -18.31909667 9.39300368 -13.0703125 4.02734375 C-8.83440556 0.54137364 -5.63009742 -1.08271104 0 0 Z " fill="#FCF8F8" transform="translate(277,49)"/>
</svg>
