<?xml version="1.0" encoding="UTF-8"?>
<svg version="1.1" xmlns="http://www.w3.org/2000/svg" width="364" height="138">
<path d="M0 0 C120.12 0 240.24 0 364 0 C364 45.54 364 91.08 364 138 C243.88 138 123.76 138 0 138 C0 92.46 0 46.92 0 0 Z " fill="#FEFDFD" transform="translate(0,0)"/>
<path d="M0 0 C0.33 8.25 0.66 16.5 1 25 C3.97 22.525 3.97 22.525 7 20 C10.7389865 18.94062049 14.3431022 19.16979219 17.83984375 20.921875 C21.55389082 23.71876131 23.12124693 26.51835933 24 31 C24.83483522 38.15573044 22.80410092 42.94897134 19 49 C14.07292941 54.81141659 8.50161499 58.499677 1 60 C-3.54010129 60.26991456 -7.65959067 60.44680311 -12 59 C-11.67692871 58.05398926 -11.35385742 57.10797852 -11.02099609 56.13330078 C-9.67505993 51.39499402 -9.67603274 46.76485746 -9.6640625 41.8671875 C-9.6574057 40.91232452 -9.6507489 39.95746155 -9.64389038 38.97366333 C-9.6338088 36.96504634 -9.62907196 34.95639617 -9.62939453 32.94775391 C-9.62500339 29.87737293 -9.58858709 26.8084101 -9.55078125 23.73828125 C-9.54491572 21.78125489 -9.54094456 19.82422174 -9.5390625 17.8671875 C-9.51750595 16.49516678 -9.51750595 16.49516678 -9.49551392 15.09542847 C-9.52657886 10.76408061 -9.61024965 8.59874283 -12.02880859 4.88330078 C-12.67930176 4.26181152 -13.32979492 3.64032227 -14 3 C-12.4188708 2.49307308 -10.83498617 1.99473557 -9.25 1.5 C-7.92742188 1.08234375 -7.92742188 1.08234375 -6.578125 0.65625 C-4 0 -4 0 0 0 Z " fill="#F06F11" transform="translate(71,47)"/>
<path d="M0 0 C0.33 2.31 0.66 4.62 1 7 C1.804375 6.175 2.60875 5.35 3.4375 4.5 C6.83212916 1.66979849 9.59853906 1.32472899 13.94140625 1.56640625 C16.94643516 2.19934403 18.30414232 3.49307994 20 6 C20 6.66 20 7.32 20 8 C20.556875 7.566875 21.11375 7.13375 21.6875 6.6875 C28.70883365 1.56382409 28.70883365 1.56382409 33.25 1.3125 C37.86452801 2.1584968 39.10615699 3.36751231 42 7 C42.61181641 10.27392578 42.61181641 10.27392578 42.6015625 13.9453125 C42.60956879 14.59700409 42.61757507 15.24869568 42.62582397 15.9201355 C42.64879316 17.98906671 42.63946503 20.0560179 42.625 22.125 C42.62114978 24.20074961 42.62458727 26.27563557 42.64559937 28.35128784 C42.66320688 30.22906383 42.65573006 32.10702517 42.64697266 33.98486328 C42.73300847 37.00875451 42.73300847 37.00875451 44.52099609 38.91748047 C45.00906738 39.27471191 45.49713867 39.63194336 46 40 C45.505 40.99 45.505 40.99 45 42 C39.72 41.67 34.44 41.34 29 41 C29.99 40.01 30.98 39.02 32 38 C32.4473169 35.12930489 32.4473169 35.12930489 32.36328125 31.87109375 C32.36263672 30.67162109 32.36199219 29.47214844 32.36132812 28.23632812 C32.34521484 26.98271484 32.32910156 25.72910156 32.3125 24.4375 C32.31572266 23.18001953 32.31894531 21.92253906 32.32226562 20.62695312 C32.77531413 14.22466853 32.77531413 14.22466853 30 9 C27 8.58333333 27 8.58333333 24 9 C20.82670312 13.75994532 21.671808 18.84173347 21.6875 24.4375 C21.67138672 25.58283203 21.65527344 26.72816406 21.63867188 27.90820312 C21.63802734 29.00970703 21.63738281 30.11121094 21.63671875 31.24609375 C21.63373779 32.25341553 21.63075684 33.2607373 21.62768555 34.29858398 C21.84108095 37.46193621 21.84108095 37.46193621 25 41 C16.585 41.495 16.585 41.495 8 42 C9 40 10 38 11 36 C11.26855112 32.23499463 11.23160387 28.46100555 11.25 24.6875 C11.270625 23.64142578 11.29125 22.59535156 11.3125 21.51757812 C11.31765625 20.50501953 11.3228125 19.49246094 11.328125 18.44921875 C11.3374707 17.52455811 11.34681641 16.59989746 11.35644531 15.6472168 C10.93311303 12.50324975 9.77819558 10.59540262 8 8 C6.02 8.33 4.04 8.66 2 9 C0.30589605 14.88902803 -0.31113853 20.13614727 -0.25 26.25 C-0.25773438 27.03890625 -0.26546875 27.8278125 -0.2734375 28.640625 C-0.31533724 34.13052796 -0.31533724 34.13052796 2 39 C2.66 39.33 3.32 39.66 4 40 C4 40.66 4 41.32 4 42 C-1.94 41.67 -7.88 41.34 -14 41 C-12.68 38.69 -11.36 36.38 -10 34 C-9.45804892 30.53408529 -9.45804892 30.53408529 -9.609375 26.97265625 C-9.62226563 25.68681641 -9.63515625 24.40097656 -9.6484375 23.07617188 C-9.68184819 21.7382701 -9.71570784 20.40037947 -9.75 19.0625 C-9.77009327 17.69729179 -9.78833906 16.33205507 -9.8046875 14.96679688 C-9.85165567 11.64379866 -9.91733274 8.32227008 -10 5 C-11.32 4.67 -12.64 4.34 -14 4 C-11.72385081 1.72385081 -10.64803179 1.51338589 -7.5625 0.875 C-6.78003906 0.70742187 -5.99757812 0.53984375 -5.19140625 0.3671875 C-3 0 -3 0 0 0 Z " fill="#F17013" transform="translate(149,64)"/>
<path d="M0 0 C4.36386737 4.23162896 6.29204485 8.86899072 6.5 14.9375 C6.18003752 22.10907282 4.31455209 28.89383825 -0.9375 34 C-6.02597449 37.84231747 -9.98278793 38.64956595 -16.34765625 38.37890625 C-20.15127489 37.82241906 -22.19188554 36.6769741 -24.9375 34 C-28.41205082 28.32490033 -29.00051508 22.54954451 -27.9375 16 C-25.51909024 9.32518907 -22.86468036 4.09768847 -16.9375 0 C-11.52178762 -1.80523746 -5.41016665 -1.84175886 0 0 Z " fill="#F17116" transform="translate(125.9375,68)"/>
<path d="M0 0 C0.33733154 1.23975586 0.67466309 2.47951172 1.0222168 3.75683594 C2.29086157 8.41091831 3.57007402 13.06204373 4.85229492 17.71240234 C5.40297761 19.71520679 5.95089394 21.71877421 6.49584961 23.72314453 C10.94610087 41.59601137 10.94610087 41.59601137 19 58 C12.4 58 5.8 58 -1 58 C-0.01 56.68 0.98 55.36 2 54 C2.39098176 48.91723707 1.70543897 44.02625265 1 39 C-1.27057377 38.94601013 -3.54151288 38.90721258 -5.8125 38.875 C-7.07707031 38.85179687 -8.34164062 38.82859375 -9.64453125 38.8046875 C-13.1338024 38.72418082 -13.1338024 38.72418082 -16 41 C-17.09506492 44.28519475 -17.09960608 46.73663415 -17.0625 50.1875 C-17.05347656 51.27417969 -17.04445312 52.36085937 -17.03515625 53.48046875 C-17.02355469 54.31191406 -17.01195312 55.14335938 -17 56 C-16.01 56.33 -15.02 56.66 -14 57 C-14.33 57.66 -14.66 58.32 -15 59 C-18.63 58.67 -22.26 58.34 -26 58 C-24.95672661 55.39181653 -23.90561614 52.78568251 -22.7734375 50.21484375 C-19.04631056 41.48004066 -16.25855045 32.5599076 -13.625 23.4375 C-13.26712402 22.21216553 -12.90924805 20.98683105 -12.54052734 19.72436523 C-12.21004395 18.55591064 -11.87956055 17.38745605 -11.5390625 16.18359375 C-11.24209473 15.13743896 -10.94512695 14.09128418 -10.63916016 13.01342773 C-9.98311634 9.92039914 -9.88399028 7.15199006 -10 4 C-8.71086513 3.32845067 -7.41859796 2.66291141 -6.125 2 C-5.40570313 1.62875 -4.68640625 1.2575 -3.9453125 0.875 C-2 0 -2 0 0 0 Z " fill="#085437" transform="translate(256,47)"/>
<path d="M0 0 C5.94 0 11.88 0 18 0 C18 0.66 18 1.32 18 2 C17.26852753 2.66800377 17.26852753 2.66800377 16.52227783 3.34950256 C14.55913328 5.47800038 14.63019767 6.54761948 14.64355469 9.40795898 C14.64055359 10.29575546 14.63755249 11.18355194 14.63446045 12.09825134 C14.64680725 13.05453934 14.65915405 14.01082733 14.671875 14.99609375 C14.67374817 15.98118423 14.67562134 16.96627472 14.67755127 17.98121643 C14.68427527 20.06506736 14.69819661 22.1489056 14.71875 24.23266602 C14.74984405 27.42150618 14.75971538 30.60985153 14.765625 33.79882812 C14.77479771 35.82292269 14.78517433 37.84701222 14.796875 39.87109375 C14.80112488 40.82535751 14.80537476 41.77962128 14.80975342 42.76280212 C14.81936096 43.65375076 14.82896851 44.5446994 14.83886719 45.46264648 C14.84910919 46.63488014 14.84910919 46.63488014 14.85955811 47.83079529 C15.00368521 50.0569201 15.20444089 51.91087783 16 54 C17.485 54.495 17.485 54.495 19 55 C18.67 55.66 18.34 56.32 18 57 C11.73 57 5.46 57 -1 57 C-1 56.34 -1 55.68 -1 55 C-0.0409375 54.071875 -0.0409375 54.071875 0.9375 53.125 C4.9534379 48.98736702 4.16049809 43.73693346 4.16796875 38.25390625 C4.17129715 37.40577866 4.17462555 36.55765106 4.17805481 35.68382263 C4.18311016 33.89265484 4.18546357 32.10147766 4.18530273 30.31030273 C4.18748932 27.57585083 4.20565993 24.84180245 4.22460938 22.10742188 C4.2275436 20.36458471 4.2295282 18.62174563 4.23046875 16.87890625 C4.23765427 16.0641835 4.24483978 15.24946075 4.25224304 14.41004944 C4.22896199 8.60216933 3.27007481 4.90511222 0 0 Z " fill="#F06E0E" transform="translate(36,49)"/>
<path d="M0 0 C3.625 0.5 3.625 0.5 6 3.25 C8.72367091 8.69734183 8.8362973 13.38575731 8.875 19.375 C8.895625 20.16519531 8.91625 20.95539063 8.9375 21.76953125 C8.97087228 26.78371663 8.34122889 30.12385346 5.625 34.5 C4.625 35.5 4.625 35.5 1.8125 35.8125 C-1.375 35.5 -1.375 35.5 -3.5625 34.125 C-8.57278807 26.86872073 -9.29332219 18.09114578 -8.375 9.5 C-7.01437601 4.48487953 -5.46576244 0.80974258 0 0 Z " fill="#FEFBF9" transform="translate(114.375,68.5)"/>
<path d="M0 0 C0.33 2.31 0.66 4.62 1 7 C1.680625 6.360625 2.36125 5.72125 3.0625 5.0625 C6.54545833 2.61701862 8.76407233 2.07701687 13 2 C15.4375 3.0625 15.4375 3.0625 17 5 C17.375 8.0625 17.375 8.0625 17 11 C16.34 11.66 15.68 12.32 15 13 C12.5 12.8125 12.5 12.8125 10 12 C9.34 11.01 8.68 10.02 8 9 C5.41619823 8.74969023 5.41619823 8.74969023 3 9 C0.39152833 14.97774758 -0.32500853 20.23929429 -0.375 26.6875 C-0.38853516 27.41187256 -0.40207031 28.13624512 -0.41601562 28.88256836 C-0.41021484 29.58518799 -0.40441406 30.28780762 -0.3984375 31.01171875 C-0.39505371 31.63522217 -0.39166992 32.25872559 -0.38818359 32.90112305 C0.04423596 35.78120101 0.04423596 35.78120101 3 41 C-2.28 41 -7.56 41 -13 41 C-12.01 39.35 -11.02 37.7 -10 36 C-9.54179026 32.7492836 -9.54179026 32.7492836 -9.6015625 29.23828125 C-9.59769531 27.95501953 -9.59382813 26.67175781 -9.58984375 25.34960938 C-9.59612793 24.68727295 -9.60241211 24.02493652 -9.60888672 23.3425293 C-9.62503764 21.30775742 -9.60896745 19.27494724 -9.58984375 17.24023438 C-9.59371094 15.96083984 -9.59757812 14.68144531 -9.6015625 13.36328125 C-9.60494629 12.19063721 -9.60833008 11.01799316 -9.61181641 9.80981445 C-9.73991699 8.88257568 -9.86801758 7.95533691 -10 7 C-10.99 6.34 -11.98 5.68 -13 5 C-13 4.34 -13 3.68 -13 3 C-11.2092015 2.49689942 -9.41733089 1.99761372 -7.625 1.5 C-6.62726563 1.2215625 -5.62953125 0.943125 -4.6015625 0.65625 C-2 0 -2 0 0 0 Z " fill="#035133" transform="translate(310,64)"/>
<path d="M0 0 C0.01458252 1.06959961 0.02916504 2.13919922 0.04418945 3.24121094 C0.10222301 7.21485594 0.17945519 11.18793725 0.26245117 15.16113281 C0.29567681 16.87978965 0.32371616 18.59855499 0.34643555 20.31738281 C0.38002561 22.79018323 0.43234178 25.26199156 0.48828125 27.734375 C0.49467117 28.50118591 0.5010611 29.26799683 0.50764465 30.05804443 C0.62605799 34.36791626 1.07737979 36.79790089 4 40 C4 40.66 4 41.32 4 42 C-1.61 41.67 -7.22 41.34 -13 41 C-12.01 39.02 -11.02 37.04 -10 35 C-9.54602023 31.90200508 -9.54602023 31.90200508 -9.6015625 28.68359375 C-9.59769531 27.50732422 -9.59382813 26.33105469 -9.58984375 25.11914062 C-9.60144531 23.90419922 -9.61304688 22.68925781 -9.625 21.4375 C-9.61339844 20.21869141 -9.60179687 18.99988281 -9.58984375 17.74414062 C-9.59371094 16.56916016 -9.59757812 15.39417969 -9.6015625 14.18359375 C-9.60494629 13.11681396 -9.60833008 12.05003418 -9.61181641 10.95092773 C-10.04757059 7.63837375 -11.10329925 5.71759987 -13 3 C-11.2092015 2.49689942 -9.41733089 1.99761372 -7.625 1.5 C-6.62726563 1.2215625 -5.62953125 0.943125 -4.6015625 0.65625 C-2 0 -2 0 0 0 Z " fill="#025032" transform="translate(290,64)"/>
<path d="M0 0 C4.41367617 5.68066086 3.81072493 12.14974628 3 19 C1.29724909 24.12130062 -0.46142332 27.97428221 -5 31 C-7.625 30.75 -7.625 30.75 -10 30 C-11.98342115 26.03315769 -11.22873705 21.04906262 -11.25 16.6875 C-11.2809375 15.11838867 -11.2809375 15.11838867 -11.3125 13.51757812 C-11.31765625 12.50501953 -11.3228125 11.49246094 -11.328125 10.44921875 C-11.3374707 9.52455811 -11.34681641 8.59989746 -11.35644531 7.6472168 C-10.92782927 4.46400876 -9.86970597 2.58919569 -8 0 C-5.00422405 -1.49788797 -3.16806651 -0.90516186 0 0 Z " fill="#FEFAF8" transform="translate(82,73)"/>
<path d="M0 0 C8.43187341 0.21470048 13.62538552 2.85547287 19.75 8.5625 C20.86375 9.7690625 20.86375 9.7690625 22 11 C22.763125 11.721875 23.52625 12.44375 24.3125 13.1875 C26 15 26 15 26 17 C27.0209375 15.9790625 27.0209375 15.9790625 28.0625 14.9375 C28.52398437 14.48246094 28.98546875 14.02742188 29.4609375 13.55859375 C30.51333294 12.49284304 31.53864106 11.39983902 32.5390625 10.28515625 C37.75153315 4.64037168 43.80795821 0.36138291 51.625 -0.3125 C52.40875 -0.209375 53.1925 -0.10625 54 0 C51.3191342 2.0696526 48.57962032 3.86815249 45.6875 5.625 C37.50793954 11.10490257 33.51077953 18.24659951 30.04296875 27.30078125 C29.14613965 29.6217884 28.15524618 31.79928217 27 34 C26.70867187 33.24976563 26.41734375 32.49953125 26.1171875 31.7265625 C20.40223341 17.45714884 14.37071948 7.41549977 0 1 C0 0.67 0 0.34 0 0 Z " fill="#065133" transform="translate(186,44)"/>
<path d="M0 0 C2.91340833 2.91340833 3.52059782 6.50959237 4.625 10.375 C4.85445312 11.14328125 5.08390625 11.9115625 5.3203125 12.703125 C6.38977785 16.38259506 7 19.10175248 7 23 C2.38 23.33 -2.24 23.66 -7 24 C-5.40554307 15.73781407 -2.73981931 7.93711014 0 0 Z " fill="#F3F5F4" transform="translate(248,60)"/>
<path d="M0 0 C8.77232562 0.42446737 16.25381971 3.22638117 23 9 C23 9.66 23 10.32 23 11 C23.54527344 10.54109375 24.09054688 10.0821875 24.65234375 9.609375 C32.38211126 3.31985477 38.84325491 -0.73867237 49 0 C46.76624052 1.14087 44.52467426 2.21051098 42.23046875 3.2265625 C34.77117849 6.65458036 28.76771967 10.46456067 25 18 C24.34 18 23.68 18 23 18 C22.443125 17.13375 21.88625 16.2675 21.3125 15.375 C16.11124821 7.33670178 8.76435559 4.2524538 0 1 C0 0.67 0 0.34 0 0 Z " fill="#0B5335" transform="translate(189,31)"/>
<path d="M0 0 C8.38965045 0.21362536 13.52650689 2.84962253 19.6875 8.4375 C20.450625 9.283125 21.21375 10.12875 22 11 C22.86625 11.87011719 23.7325 12.74023438 24.625 13.63671875 C27.72740147 17.37324626 27.58773643 20.69174637 27.3125 25.375 C27.28994141 26.11105469 27.26738281 26.84710938 27.24414062 27.60546875 C27.18572927 29.40453842 27.09606337 31.20254753 27 33 C25.71349224 30.4916331 24.53142832 27.96172606 23.37109375 25.390625 C17.95807778 13.64166251 12.13303364 6.29441468 0 1 C0 0.67 0 0.34 0 0 Z " fill="#F27013" transform="translate(186,44)"/>
<path d="M0 0 C5.3917139 0.33698212 8.65033484 1.70644027 13.10546875 4.74609375 C15.00902816 6.00597534 16.94133625 7.01859711 19 8 C19.86625 7.236875 20.7325 6.47375 21.625 5.6875 C26.06158394 2.01296459 30.06774367 -0.52343438 36 0 C33.25546992 2.11453568 30.44092276 3.98449493 27.5 5.8125 C23.49035314 8.44816573 21.2928518 10.81305323 19 15 C18.34 14.29875 17.68 13.5975 17 12.875 C12.0072876 7.89643126 6.43841237 3.89728557 0 1 C0 0.67 0 0.34 0 0 Z " fill="#145334" transform="translate(195,16)"/>
<path d="M0 0 C8.75663336 0.42370807 15.14512519 3.07029514 22.125 8.375 C24.53607485 11.75050479 24.39770983 13.94335976 24 18 C23.505 17.319375 23.01 16.63875 22.5 15.9375 C15.99558201 8.29480886 9.43798875 4.41340593 0 1 C0 0.67 0 0.34 0 0 Z " fill="#F3761F" transform="translate(189,31)"/>
<path d="M0 0 C0.721875 0.00257812 1.44375 0.00515625 2.1875 0.0078125 C2.909375 0.00523438 3.63125 0.00265625 4.375 0 C6.1875 0.1328125 6.1875 0.1328125 7.1875 1.1328125 C7.375 3.5703125 7.375 3.5703125 7.1875 6.1328125 C5.1875 8.1328125 5.1875 8.1328125 2.1875 8.3828125 C-0.8125 8.1328125 -0.8125 8.1328125 -2.8125 6.1328125 C-3 3.5703125 -3 3.5703125 -2.8125 1.1328125 C-1.8125 0.1328125 -1.8125 0.1328125 0 0 Z " fill="#055133" transform="translate(282.8125,51.8671875)"/>
<path d="M0 0 C6.83053522 0.42690845 11.57834964 3.02836261 16.72265625 7.49609375 C18.53685197 9.63207343 18.21970901 11.29025557 18 14 C17.360625 13.29875 16.72125 12.5975 16.0625 11.875 C13.09248496 8.88801345 9.71810168 6.69618305 6.18359375 4.4296875 C4.05165194 3.03381862 2.02198863 1.54973278 0 0 Z " fill="#F16E0F" transform="translate(195,16)"/>
<path d="M0 0 C0.66 0 1.32 0 2 0 C1.67 1.65 1.34 3.3 1 5 C1.66 4.67 2.32 4.34 3 4 C4.70702735 3.93003986 6.41668003 3.91559846 8.125 3.9375 C9.03507813 3.94652344 9.94515625 3.95554687 10.8828125 3.96484375 C11.58148438 3.97644531 12.28015625 3.98804687 13 4 C12.67 4.66 12.34 5.32 12 6 C10.07421875 6.2734375 10.07421875 6.2734375 7.6875 6.375 C4.24546021 6.66456843 3.28664655 6.75745292 0.5625 9.0625 C0.046875 9.701875 -0.46875 10.34125 -1 11 C-1.66 11 -2.32 11 -3 11 C-2.01 7.37 -1.02 3.74 0 0 Z " fill="#094B2A" transform="translate(240,79)"/>
<path d="M0 0 C0.99 0.33 1.98 0.66 3 1 C1.68 5.29 0.36 9.58 -1 14 C-1.99 14 -2.98 14 -4 14 C-2.68 9.38 -1.36 4.76 0 0 Z " fill="#1B5739" transform="translate(244,64)"/>
<path d="M0 0 C5.94 0 11.88 0 18 0 C18 0.66 18 1.32 18 2 C14.6888987 3.10370043 12.75251051 2.92673641 9.3125 2.5625 C8.31863281 2.46066406 7.32476562 2.35882813 6.30078125 2.25390625 C5.54152344 2.17011719 4.78226563 2.08632813 4 2 C3.67 2.66 3.34 3.32 3 4 C2.01 2.68 1.02 1.36 0 0 Z " fill="#F06906" transform="translate(36,49)"/>
<path d="M0 0 C0.99 0.66 1.98 1.32 3 2 C-1.75 7.75 -1.75 7.75 -4 10 C-4.25 7.25 -4.25 7.25 -4 4 C-2 1.625 -2 1.625 0 0 Z " fill="#074F2F" transform="translate(217,21)"/>
<path d="M0 0 C1.8871875 0.0309375 1.8871875 0.0309375 3.8125 0.0625 C-0.03450632 2.14629509 -4.08804429 3.55936624 -8.1875 5.0625 C-7.875 3.125 -7.875 3.125 -7.1875 1.0625 C-4.43671116 0.14557039 -2.82801087 -0.04636083 0 0 Z " fill="#386C53" transform="translate(234.1875,30.9375)"/>
<path d="M0 0 C1.43836751 0.11458693 2.87570966 0.24209116 4.3125 0.375 C5.51326172 0.47941406 5.51326172 0.47941406 6.73828125 0.5859375 C9 1 9 1 12 3 C11.34 3.66 10.68 4.32 10 5 C5.05 3.02 5.05 3.02 0 1 C0 0.67 0 0.34 0 0 Z " fill="#F27C2B" transform="translate(189,31)"/>
<path d="M0 0 C3.68754757 0.49831724 5.60490662 1.10067643 8 4 C6.25 4.6875 6.25 4.6875 4 5 C1.75 3.6875 1.75 3.6875 0 2 C0 1.34 0 0.68 0 0 Z " fill="#F06D0D" transform="translate(200,34)"/>
<path d="M0 0 C-2.38573379 1.89213369 -4.07175348 3.02391783 -7 4 C-7.66 3.67 -8.32 3.34 -9 3 C-9 2.34 -9 1.68 -9 1 C-5.8035914 -0.06546953 -3.34252724 -0.07427838 0 0 Z " fill="#1F593C" transform="translate(240,44)"/>
</svg>
